<?xml version="1.0" encoding="utf-8" ?>
<svg xmlns="http://www.w3.org/2000/svg" xmlns:xlink="http://www.w3.org/1999/xlink" width="1359" height="1359">
	<path fill="#EC382B" transform="scale(6.04414 6.04414)" d="M58.9051 17.2264C60.4217 17.3636 62.4323 17.389 63.5305 18.6197C63.8342 18.96 64.079 19.4114 64.2814 19.8199C63.0107 19.8541 61.4511 19.7193 60.2575 20.1779C60.3131 19.9312 60.382 19.6689 60.3965 19.4162C60.4467 18.5403 59.4741 17.826 58.9051 17.2264Z"/>
	<path fill="#D60F04" transform="scale(6.04414 6.04414)" d="M201.232 46.0908C202.24 46.39 203.027 46.6001 203.552 47.5703C204.742 49.7689 203.836 53.7756 204.115 56.313L204.96 58.8418Q199.161 58.8951 193.364 58.7721C195.268 58.3181 197.362 58.7619 199.228 58.1626C200.152 57.8657 200.499 57.4407 200.94 56.5981C200.141 52.709 199.393 49.7927 201.232 46.0908Z"/>
	<defs>
		<linearGradient id="gradient_0" gradientUnits="userSpaceOnUse" x1="114.67971" y1="208.22871" x2="114.28531" y2="195.63646">
			<stop offset="0" stop-color="#A86E01"/>
			<stop offset="1" stop-color="#B58900"/>
		</linearGradient>
	</defs>
	<path fill="url(#gradient_0)" transform="scale(6.04414 6.04414)" d="M62.068 195.808C65.2614 195.715 68.7204 194.406 71.9697 194.079L72.9843 196.435C73.6997 198.449 76.2184 201.125 78.0451 202.182C80.9412 203.859 84.9318 204.59 88.2165 205.22C101.455 207.759 114.65 207.876 128.004 206.298C132.146 205.808 136.375 205.295 140.398 204.163C145.466 202.736 149.385 200.657 152.019 195.974C154.398 195.296 162.289 196.328 164.459 197.529C165.014 197.836 165.533 198.237 166.034 198.623C163.073 199.907 160.243 201.376 157.184 202.443C139.478 208.616 119.556 209.482 100.986 208.709C90.2181 208.262 70.537 206.469 63.0305 198.317C62.7608 198.04 62.315 197.897 61.965 197.733C61.7735 197.23 61.8767 196.553 61.894 196.018L62.068 195.808Z"/>
	<path fill="#975000" transform="scale(6.04414 6.04414)" d="M62.068 195.808C65.2614 195.715 68.7204 194.406 71.9697 194.079L72.9843 196.435C70.3419 196.926 65.1684 197.009 63.0305 198.317C62.7608 198.04 62.315 197.897 61.965 197.733C61.7735 197.23 61.8767 196.553 61.894 196.018L62.068 195.808Z"/>
	<path fill="#FD1C13" transform="scale(6.04414 6.04414)" d="M43.9624 42.4696C47.1454 42.4802 62.5136 42.118 64.3303 43.5405L64.0671 43.8361C64.6831 44.0533 65.2468 44.0447 65.8913 44.0424C65.9283 44.6707 65.8967 45.3822 66.1335 45.9701C67.8266 46.0179 70.12 45.8117 71.3683 47.1966C72.7695 48.7512 71.8921 52.9059 72.1491 54.9682C72.3208 56.3469 72.803 57.6382 73.2869 58.9318C70.4786 58.9044 67.5722 59.0243 64.7788 58.7814C62.6395 58.5889 60.3927 58.7306 58.2378 58.73L45.4079 58.7307C40.4867 58.7325 31.6236 58.2773 27.0747 58.9121C26.1599 59.0094 25.2104 58.9795 24.2898 58.9972L20.0874 59.027C19.9804 55.6881 19.6138 51.8796 20.1484 48.5911C20.8209 44.4536 23.2764 47.3465 25.3859 45.7083C26.0842 45.166 25.9025 43.9963 26.6914 43.4297C32.4707 43.0071 38.1638 42.6064 43.9624 42.4696Z"/>
	<path fill="#750000" transform="scale(6.04414 6.04414)" d="M43.9624 42.4696C47.1454 42.4802 62.5136 42.118 64.3303 43.5405L64.0671 43.8361C52.4379 42.0773 40.155 43.7133 28.4478 43.702C27.8219 43.7014 27.2615 43.7198 26.6914 43.4297C32.4707 43.0071 38.1638 42.6064 43.9624 42.4696Z"/>
	<path fill="#D60F04" transform="scale(6.04414 6.04414)" d="M66.1335 45.9701C67.8266 46.0179 70.12 45.8117 71.3683 47.1966C72.7695 48.7512 71.8921 52.9059 72.1491 54.9682C72.3208 56.3469 72.803 57.6382 73.2869 58.9318C70.4786 58.9044 67.5722 59.0243 64.7788 58.7814C62.6395 58.5889 60.3927 58.7306 58.2378 58.73L45.4079 58.7307C40.4867 58.7325 31.6236 58.2773 27.0747 58.9121C26.1599 59.0094 25.2104 58.9795 24.2898 58.9972L23.5822 58.6824C23.6493 58.5177 23.637 58.5227 23.7606 58.358C24.3469 57.5772 26.2834 57.4812 27.1895 57.4044C31.3119 57.0551 35.592 57.3311 39.7316 57.3429C45.0013 57.358 50.2701 57.1951 55.5372 57.2151C59.0641 57.2285 62.5989 57.441 66.1164 57.0988C66.7948 53.4554 66.3652 49.647 66.1335 45.9701Z"/>
	<path fill="#FD1C13" transform="scale(6.04414 6.04414)" d="M26.6914 43.4297C27.1396 42.2663 26.498 39.9325 26.394 38.6174C26.1391 35.392 26.1232 32.1903 26.1253 28.9567C26.1276 25.4268 26.2112 21.8574 28.9435 19.2016C32.4182 15.824 44.0629 16.0133 48.9513 16.3414C52.2712 16.5643 55.5809 17.1378 58.9051 17.2264C59.4741 17.826 60.4467 18.5403 60.3965 19.4162C60.382 19.6689 60.3131 19.9312 60.2575 20.1779C61.4511 19.7193 63.0107 19.8541 64.2814 19.8199C64.3412 20.7367 64.5887 21.6107 64.8163 22.4965C65.1871 26.3659 66.7442 38.2775 65.3018 41.3392C65.2834 41.3782 65.2681 41.4186 65.2512 41.4583C65.5145 42.2965 65.8452 43.1602 65.8913 44.0424C65.2468 44.0447 64.6831 44.0533 64.0671 43.8361L64.3303 43.5405C62.5136 42.118 47.1454 42.4802 43.9624 42.4696C38.1638 42.6064 32.4707 43.0071 26.6914 43.4297Z"/>
	<path fill="#750000" transform="scale(6.04414 6.04414)" d="M59.5343 22.2481C59.9931 22.4794 60.1261 22.4807 60.2984 22.9912C60.6309 23.9763 60.3766 25.7774 60.3494 26.8567L59.4369 28.8391C59.3539 26.6133 59.3812 24.4714 59.5343 22.2481Z"/>
	<path fill="#750000" transform="scale(6.04414 6.04414)" d="M44.7109 23.1038C44.8349 23.1736 44.8103 23.1511 44.9332 23.2695C45.7612 24.0673 45.2199 38.0518 45.1277 40.1644C44.8976 40.0057 44.7437 39.8167 44.56 39.609C43.9397 35.8777 44.0714 26.778 44.7109 23.1038Z"/>
	<path fill="#D60F04" transform="scale(6.04414 6.04414)" d="M64.2814 19.8199C64.3412 20.7367 64.5887 21.6107 64.8163 22.4965C65.1871 26.3659 66.7442 38.2775 65.3018 41.3392C65.2834 41.3782 65.2681 41.4186 65.2512 41.4583C65.5145 42.2965 65.8452 43.1602 65.8913 44.0424C65.2468 44.0447 64.6831 44.0533 64.0671 43.8361L64.3303 43.5405C62.5136 42.118 47.1454 42.4802 43.9624 42.4696C46.8977 41.7172 57.7053 43.0549 59.1816 41.8753L59.2742 40.7193Q59.2545 34.7777 59.4369 28.8391L60.3494 26.8567C60.3766 25.7774 60.6309 23.9763 60.2984 22.9912C60.1261 22.4807 59.9931 22.4794 59.5343 22.2481C59.7281 21.8661 59.8551 21.6457 59.7848 21.2137C57.0679 20.3191 42.8866 21.1306 38.6218 20.6295C39.7186 19.8321 57.4714 20.1143 60.2575 20.1779C61.4511 19.7193 63.0107 19.8541 64.2814 19.8199Z"/>
	<path fill="#A00" transform="scale(6.04414 6.04414)" d="M60.3494 26.8567C60.6546 29.5472 61.1324 38.4898 59.7401 40.5035L59.2742 40.7193Q59.2545 34.7777 59.4369 28.8391L60.3494 26.8567Z"/>
	<path fill="#A00" transform="scale(6.04414 6.04414)" d="M64.8163 22.4965C65.1871 26.3659 66.7442 38.2775 65.3018 41.3392C65.2834 41.3782 65.2681 41.4186 65.2512 41.4583C64.6775 41.2031 63.8074 40.9127 63.4034 40.4294C62.1733 38.958 62.6863 29.0065 62.8386 26.7023C62.9825 24.5269 63.1703 23.9268 64.8163 22.4965Z"/>
	<path fill="#FEFE01" transform="scale(6.04414 6.04414)" d="M145.472 70.3345C150.576 67.7517 155.615 64.3321 161.151 62.762C165.573 61.5079 193.653 61.3714 197.841 62.7438C204.188 64.8238 212.354 71.4544 215.307 77.3835C215.802 78.3763 216.19 79.473 216.419 80.5575L216.002 81.0218C202.898 81.3072 189.728 81.1012 176.618 81.0689C172.019 81.0575 162.327 80.5504 158.138 81.4823L157.711 81.0444C155.572 76.9382 151.693 75.0287 147.838 72.8247C147.133 72.4213 146.081 71.9556 145.576 71.3132C145.311 70.9761 145.429 70.7436 145.472 70.3345Z"/>
	<path fill="#FEFE01" transform="scale(6.04414 6.04414)" d="M27.0747 58.9121C31.6236 58.2773 40.4867 58.7325 45.4079 58.7307L58.2378 58.73C60.3927 58.7306 62.6395 58.5889 64.7788 58.7814L64.7135 62.0797C67.0128 62.9013 69.116 64.559 71.2742 65.7153C73.8755 67.1089 76.6457 68.2042 79.3743 69.3194C75.1052 72.6052 70.4826 76.4577 67.448 80.9429L66.8654 81.5714C63.97 80.5545 55.3 81.0611 51.8948 81.0598L20.3757 81.0678C16.949 81.0709 13.3849 81.3765 9.98793 81.2745C9.49069 81.2596 9.01289 81.2191 8.60127 80.9156C8.27683 80.6763 8.33466 80.2575 8.29499 79.8783C15.1921 67.7056 16.7618 69.6295 27.0192 62.2916C27.0064 61.1668 27.0526 60.0369 27.0747 58.9121Z"/>
	<path fill="#FEAC00" transform="scale(6.04414 6.04414)" d="M27.0747 58.9121C31.6236 58.2773 40.4867 58.7325 45.4079 58.7307L58.2378 58.73C60.3927 58.7306 62.6395 58.5889 64.7788 58.7814L64.7135 62.0797C56.7786 61.8016 48.8114 61.9208 40.8711 61.9172C36.6666 61.9154 31.0169 61.3748 27.0192 62.2916C27.0064 61.1668 27.0526 60.0369 27.0747 58.9121Z"/>
	<path fill="#F3E005" transform="scale(6.04414 6.04414)" d="M216.419 80.5575C216.749 83.4989 216.145 90.8317 217.61 92.9949C218.668 95.3383 217.884 100.33 218.107 103.031C213.451 104.158 208.521 104.02 203.753 104.268C190.453 104.959 177.256 105.223 163.941 104.694Q159 104.365 154.048 104.304C154.091 103.051 154.376 101.042 153.826 99.8918C153.591 99.4012 153.275 99.3745 152.804 99.1867C153.081 99.0943 153.297 99.0586 153.504 98.8398C154.571 97.7107 154.104 94.499 153.999 93.0449C154.078 89.9491 153.473 86.4556 151.992 83.7153L150.79 81.0752C153.09 80.9833 155.426 81.4004 157.711 81.0444L158.138 81.4823C162.327 80.5504 172.019 81.0575 176.618 81.0689C189.728 81.1012 202.898 81.3072 216.002 81.0218L216.419 80.5575Z"/>
	<path fill="#FC9000" transform="scale(6.04414 6.04414)" d="M157.711 81.0444L158.138 81.4823Q161.246 87.0408 163.165 93.1128C160.12 92.9358 157.048 93.0242 153.999 93.0449C154.078 89.9491 153.473 86.4556 151.992 83.7153L150.79 81.0752C153.09 80.9833 155.426 81.4004 157.711 81.0444Z"/>
	<path fill="#0281DA" transform="scale(6.04414 6.04414)" d="M163.268 93.1855C168.326 92.1624 174.369 93.0227 179.548 93.0289L217.61 92.9949C218.668 95.3383 217.884 100.33 218.107 103.031C213.451 104.158 208.521 104.02 203.753 104.268C190.453 104.959 177.256 105.223 163.941 104.694Q159 104.365 154.048 104.304C154.091 103.051 154.376 101.042 153.826 99.8918C153.591 99.4012 153.275 99.3745 152.804 99.1867C153.081 99.0943 153.297 99.0586 153.504 98.8398C154.571 97.7107 154.104 94.499 153.999 93.0449C157.048 93.0242 160.12 92.9358 163.165 93.1128L163.268 93.1855Z"/>
	<path fill="#004E9C" transform="scale(6.04414 6.04414)" d="M163.165 93.1128L163.268 93.1855C163.761 96.8938 164.1 100.957 163.941 104.694Q159 104.365 154.048 104.304C154.091 103.051 154.376 101.042 153.826 99.8918C153.591 99.4012 153.275 99.3745 152.804 99.1867C153.081 99.0943 153.297 99.0586 153.504 98.8398C154.571 97.7107 154.104 94.499 153.999 93.0449C157.048 93.0242 160.12 92.9358 163.165 93.1128Z"/>
	<path fill="#FD1C13" transform="scale(6.04414 6.04414)" d="M162.954 17.7906C168.974 16.2506 190.819 15.5714 196.25 18.3471C197.889 19.1847 197.525 20.6552 198.032 22.1646L198.099 22.3615C199.356 27.5167 198.883 34.3194 198.756 39.6358C198.812 41.4 198.223 44.4246 199.335 45.8393C199.932 46.1467 200.579 46.0915 201.232 46.0908C199.393 49.7927 200.141 52.709 200.94 56.5981C200.499 57.4407 200.152 57.8657 199.228 58.1626C197.362 58.7619 195.268 58.3181 193.364 58.7721C189.5 59.3202 185.013 58.9107 181.096 58.9108C171.834 58.9111 162.524 58.7645 153.269 59.0694C153.321 56.5288 152.564 49.069 154.027 47.4304C155.401 45.891 157.599 46.0688 159.485 45.9685C159.434 43.5193 159.886 41.0069 159.96 38.5405C160.084 34.4002 159.881 30.2497 160.021 26.1097C160.13 22.8949 160.497 20.0826 162.954 17.7906Z"/>
	<path fill="#750000" transform="scale(6.04414 6.04414)" d="M168.535 20.3625C174.442 20.1357 180.42 20.2707 186.336 20.2341C189.583 20.2139 194.123 19.7422 197.212 20.3661L197.322 20.7199L196.753 21.3891C187.258 20.8026 177.818 20.7043 168.305 20.7519L168.226 20.3196L167.686 20.5133L168.535 20.3625Z"/>
	<path fill="#A00" transform="scale(6.04414 6.04414)" d="M195.405 23.2571C196.319 23.003 197.207 22.6797 198.099 22.3615C199.356 27.5167 198.883 34.3194 198.756 39.6358C198.62 40.0901 198.482 40.4777 198.233 40.8831C197.258 41.0927 196.328 41.2667 195.427 40.7963C194.321 38.6743 195.056 26.4945 195.405 23.2571Z"/>
	<path fill="#FD1C13" transform="scale(6.04414 6.04414)" d="M84.6224 57.8106C84.9641 55.1414 84.8825 52.5881 85.102 49.9448C85.1683 49.1465 85.3748 48.362 86.0339 47.8491C87.4158 46.7739 89.9363 47.0177 91.567 47.2369C91.6302 47.2071 92.0016 47.0571 92.0214 47.0226C92.4767 46.2292 92.0459 42.9482 92.0133 41.9291C91.8644 37.2683 91.147 22.2893 93.7787 19.1017C95.3373 17.214 98.0062 16.8552 100.295 16.6138C106.739 15.9342 121.706 15.8888 127.512 17.663C128.751 18.0416 129.65 18.613 130.645 19.4158C131.599 21.041 132.044 22.5407 132.337 24.3957C132.778 27.1871 133.198 43.6391 132.573 46.146C132.564 46.1794 132.552 46.2117 132.542 46.2445L132.707 46.8387C133.592 47.2171 134.68 47.1789 135.632 47.2357C136.489 47.4447 138.219 47.6749 138.685 48.4959C139.297 49.5779 139.118 53.8494 139.309 55.332C139.544 57.1467 139.863 59.0537 140.403 60.8043C137.638 60.8 134.413 61.0914 131.705 60.6364C129.755 60.1476 127.032 60.457 124.975 60.4564C117.817 60.4543 110.637 60.7943 103.488 60.7245C101.391 60.704 93.4261 60.0078 92.0285 60.6956C89.437 61.1552 86.462 60.9733 83.8257 61.012C84.0397 59.9366 84.348 58.8724 84.6224 57.8106Z"/>
	<path fill="#A00" transform="scale(6.04414 6.04414)" d="M130.308 45.1075C123.536 44.5676 116.679 44.4956 109.889 44.5053C106.411 44.5102 95.5355 45.2684 92.8726 44.4736L92.8312 44.1207C96.5511 42.9467 118.862 43.4073 123.817 43.8727C125.413 44.2502 129.797 43.8489 130.806 44.8554L130.308 45.1075Z"/>
	<path fill="#D60F04" transform="scale(6.04414 6.04414)" d="M135.632 47.2357C136.489 47.4447 138.219 47.6749 138.685 48.4959C139.297 49.5779 139.118 53.8494 139.309 55.332C139.544 57.1467 139.863 59.0537 140.403 60.8043C137.638 60.8 134.413 61.0914 131.705 60.6364C129.755 60.1476 127.032 60.457 124.975 60.4564C117.817 60.4543 110.637 60.7943 103.488 60.7245C101.391 60.704 93.4261 60.0078 92.0285 60.6956C89.437 61.1552 86.462 60.9733 83.8257 61.012C84.0397 59.9366 84.348 58.8724 84.6224 57.8106C84.8168 58.2136 84.8836 58.2348 85.2505 58.4573C88.2203 58.0063 91.5235 58.2685 94.5309 58.263C101.465 58.2502 108.351 58.3301 115.282 58.5095C121.807 58.6785 128.389 58.4082 134.925 58.4367C135.506 54.787 135.535 50.9297 135.632 47.2357Z"/>
	<path fill="#D60F04" transform="scale(6.04414 6.04414)" d="M130.645 19.4158C131.599 21.041 132.044 22.5407 132.337 24.3957C132.778 27.1871 133.198 43.6391 132.573 46.146C132.564 46.1794 132.552 46.2117 132.542 46.2445L132.45 45.8692C131.83 45.2814 131.211 45.4027 130.423 45.1464C130.384 45.1339 130.346 45.1205 130.308 45.1075L130.806 44.8554C129.797 43.8489 125.413 44.2502 123.817 43.8727C123.376 40.4701 123.338 24.922 124.496 21.9988C124.61 21.7091 124.646 21.5277 124.642 21.2178L124.155 21.0614L124.044 21.2745C123.228 20.319 101.566 21.9094 98.4634 20.6375L98.4312 20.3695C100.231 19.3554 128.359 21.119 130.534 19.508C130.572 19.4793 130.608 19.4465 130.645 19.4158Z"/>
	<path fill="#F3E005" transform="scale(6.04414 6.04414)" d="M163.802 159.326C170.91 160.022 177.875 160.033 185.008 160.029C192.438 160.025 199.947 160.047 207.313 158.925C210.844 158.387 214.357 157.384 217.803 156.455C217.833 157.86 217.759 159.369 217.946 160.757C218.028 163.316 217.955 165.852 217.863 168.409C218.498 175.285 217.759 182.628 217.676 189.553C218.316 190.446 219.27 191.139 220.103 191.847C207.567 199.055 192.512 198.052 178.586 197.981C174.416 197.959 170.1 197.589 166.034 198.623C165.533 198.237 165.014 197.836 164.459 197.529C162.289 196.328 154.398 195.296 152.019 195.974C152.242 195.319 152.618 194.735 152.966 194.141C152.956 191.627 152.957 189.098 153.089 186.587C153.228 183.933 154.014 180.304 153.492 177.759C154.141 176.142 153.992 174.584 153.875 172.889C153.798 171.44 154.212 168.346 153.264 167.275C152.973 166.947 152.063 167.047 151.622 167.025L153.125 166.702C155.432 165.048 153.569 161.472 154.158 159.226L154.699 158.918C157.231 158.996 161.152 158.437 163.451 159.485L163.802 159.326Z"/>
	<defs>
		<linearGradient id="gradient_1" gradientUnits="userSpaceOnUse" x1="186.59659" y1="189.72617" x2="188.31589" y2="199.32724">
			<stop offset="0" stop-color="#9A5E00"/>
			<stop offset="1" stop-color="#B58004"/>
		</linearGradient>
	</defs>
	<path fill="url(#gradient_1)" transform="scale(6.04414 6.04414)" d="M214.415 188.491C215.393 188.997 216.352 189.471 217.382 189.865L217.676 189.553C218.316 190.446 219.27 191.139 220.103 191.847C207.567 199.055 192.512 198.052 178.586 197.981C174.416 197.959 170.1 197.589 166.034 198.623C165.533 198.237 165.014 197.836 164.459 197.529C162.289 196.328 154.398 195.296 152.019 195.974C152.242 195.319 152.618 194.735 152.966 194.141C154.924 194.923 157.201 194.966 159.29 195.077C164.058 195.576 168.902 195.867 173.689 196.125C185.534 196.764 205.17 196.794 214.415 188.491Z"/>
	<path fill="#FEAC00" transform="scale(6.04414 6.04414)" d="M153.875 172.889C156.256 173.196 160.925 174.2 163.178 173.694L163.816 173.847C163.331 174.249 163.221 174.378 163.157 175.024C162.772 178.949 163.712 182.872 162.675 186.794C161.918 189.656 159.986 192.217 159.29 195.077C157.201 194.966 154.924 194.923 152.966 194.141C152.956 191.627 152.957 189.098 153.089 186.587C153.228 183.933 154.014 180.304 153.492 177.759C154.141 176.142 153.992 174.584 153.875 172.889Z"/>
	<path fill="#0281DA" transform="scale(6.04414 6.04414)" d="M163.802 159.326C170.91 160.022 177.875 160.033 185.008 160.029C192.438 160.025 199.947 160.047 207.313 158.925C210.844 158.387 214.357 157.384 217.803 156.455C217.833 157.86 217.759 159.369 217.946 160.757C218.028 163.316 217.955 165.852 217.863 168.409C215.323 170.184 212.662 171.48 209.641 172.22C200.55 174.447 187.039 174.007 177.47 174.003C172.97 174.001 168.299 174.236 163.816 173.847L163.178 173.694C160.925 174.2 156.256 173.196 153.875 172.889C153.798 171.44 154.212 168.346 153.264 167.275C152.973 166.947 152.063 167.047 151.622 167.025L153.125 166.702C155.432 165.048 153.569 161.472 154.158 159.226L154.699 158.918C157.231 158.996 161.152 158.437 163.451 159.485L163.802 159.326Z"/>
	<path fill="#004E9C" transform="scale(6.04414 6.04414)" d="M154.699 158.918C157.231 158.996 161.152 158.437 163.451 159.485C163.899 162.418 162.09 171.947 163.178 173.694C160.925 174.2 156.256 173.196 153.875 172.889C153.798 171.44 154.212 168.346 153.264 167.275C152.973 166.947 152.063 167.047 151.622 167.025L153.125 166.702C155.432 165.048 153.569 161.472 154.158 159.226L154.699 158.918Z"/>
	<path fill="#F3E005" transform="scale(6.04414 6.04414)" d="M148.915 167.388C149.83 167.35 150.722 167.182 151.622 167.025C152.063 167.047 152.973 166.947 153.264 167.275C154.212 168.346 153.798 171.44 153.875 172.889C153.992 174.584 154.141 176.142 153.492 177.759C154.014 180.304 153.228 183.933 153.089 186.587C152.957 189.098 152.956 191.627 152.966 194.141C152.618 194.735 152.242 195.319 152.019 195.974C149.385 200.657 145.466 202.736 140.398 204.163C136.375 205.295 132.146 205.808 128.004 206.298C114.65 207.876 101.455 207.759 88.2165 205.22C84.9318 204.59 80.9412 203.859 78.0451 202.182C76.2184 201.125 73.6997 198.449 72.9843 196.435L71.9697 194.079C72.1033 192.618 71.7571 191.033 71.5714 189.579C71.0892 185.802 70.6771 181.995 71.4144 178.216C70.8812 176.559 70.9856 174.674 70.9893 172.957Q70.9941 170.29 71.1079 167.626C76.3715 167.896 81.5858 168.797 86.841 169.147C89.7506 169.34 92.6881 169.311 95.603 169.427C104.284 169.772 112.857 170.024 121.548 169.998Q123.807 169.841 126.06 169.62C129.099 169.231 132.222 169.314 135.283 169.161C138.692 168.992 142.08 168.569 145.457 168.088L148.915 167.388Z"/>
	<path fill="#0281DA" transform="scale(6.04414 6.04414)" d="M148.915 167.388C149.83 167.35 150.722 167.182 151.622 167.025C152.063 167.047 152.973 166.947 153.264 167.275C154.212 168.346 153.798 171.44 153.875 172.889C153.992 174.584 154.141 176.142 153.492 177.759C152.129 179.179 150.736 180.096 148.919 180.841C141.454 183.903 126.043 184.551 117.772 184.717C107.024 184.933 86.8185 184.324 76.9749 181.035C74.9909 180.372 73.1916 179.301 71.4144 178.216C70.8812 176.559 70.9856 174.674 70.9893 172.957Q70.9941 170.29 71.1079 167.626C76.3715 167.896 81.5858 168.797 86.841 169.147C89.7506 169.34 92.6881 169.311 95.603 169.427C104.284 169.772 112.857 170.024 121.548 169.998Q123.807 169.841 126.06 169.62C129.099 169.231 132.222 169.314 135.283 169.161C138.692 168.992 142.08 168.569 145.457 168.088L148.915 167.388Z"/>
	<path fill="#F3E005" transform="scale(6.04414 6.04414)" d="M92.0285 60.6956C93.4261 60.0078 101.391 60.704 103.488 60.7245C110.637 60.7943 117.817 60.4543 124.975 60.4564C127.032 60.457 129.755 60.1476 131.705 60.6364C131.819 62.6345 132.426 64.345 133.329 66.1174C133.75 66.2351 134.24 66.3169 134.587 66.5932C138.301 67.5892 141.882 68.9679 145.472 70.3345C145.429 70.7436 145.311 70.9761 145.576 71.3132C146.081 71.9556 147.133 72.4213 147.838 72.8247C151.693 75.0287 155.572 76.9382 157.711 81.0444C155.426 81.4004 153.09 80.9833 150.79 81.0752L151.992 83.7153C153.473 86.4556 154.078 89.9491 153.999 93.0449C154.104 94.499 154.571 97.7107 153.504 98.8398C153.297 99.0586 153.081 99.0943 152.804 99.1867C153.275 99.3745 153.591 99.4012 153.826 99.8918C154.376 101.042 154.091 103.051 154.048 104.304C153.991 106.267 153.956 108.229 153.737 110.182C152.292 111.858 146.739 111.325 144.402 111.845C139.348 112.16 130.184 110.779 125.686 112.184C124.273 112.374 122.934 112.471 121.509 112.437C119.764 111.832 108.379 112.272 105.75 112.271C100.987 112.268 96.2365 112.111 91.4765 112.067C87.9078 112.034 84.2721 112.157 80.712 111.946C77.7612 111.771 74.8577 111.096 71.8964 110.939C71.7083 109.296 71.7464 107.508 70.9929 106.012C71.048 103.622 69.9125 100.712 70.4465 98.4224L71.1789 98.1389C70.7923 98.1215 70.5704 98.026 70.231 97.8451C69.8796 96.7759 70.2867 95.3391 70.3264 94.2064Q71.1274 89.3399 72.0343 84.492L72.9333 82.2868C71.2128 80.878 69.5556 81.0356 67.448 80.9429C70.4826 76.4577 75.1052 72.6052 79.3743 69.3194C83.739 69.8976 86.7419 66.5691 90.5603 65.0842C90.9188 64.9155 91.3662 64.8332 91.7495 64.723C92.1044 63.5373 91.9903 61.9437 92.0285 60.6956Z"/>
	<path fill="#0281DA" transform="scale(6.04414 6.04414)" d="M71.1789 98.1389C75.916 98.377 80.6725 98.8578 85.4072 98.9895C99.2293 99.3739 113.154 99.0289 126.986 99.0235C130.861 99.022 134.746 99.0809 138.62 98.9886C143.361 98.8755 148.087 98.4741 152.804 99.1867C153.275 99.3745 153.591 99.4012 153.826 99.8918C154.376 101.042 154.091 103.051 154.048 104.304C153.991 106.267 153.956 108.229 153.737 110.182C152.292 111.858 146.739 111.325 144.402 111.845C139.348 112.16 130.184 110.779 125.686 112.184C124.273 112.374 122.934 112.471 121.509 112.437C119.764 111.832 108.379 112.272 105.75 112.271C100.987 112.268 96.2365 112.111 91.4765 112.067C87.9078 112.034 84.2721 112.157 80.712 111.946C77.7612 111.771 74.8577 111.096 71.8964 110.939C71.7083 109.296 71.7464 107.508 70.9929 106.012C71.048 103.622 69.9125 100.712 70.4465 98.4224L71.1789 98.1389Z"/>
	<path fill="#FEFE01" transform="scale(6.04414 6.04414)" d="M92.0285 60.6956C93.4261 60.0078 101.391 60.704 103.488 60.7245C110.637 60.7943 117.817 60.4543 124.975 60.4564C127.032 60.457 129.755 60.1476 131.705 60.6364C131.819 62.6345 132.426 64.345 133.329 66.1174C133.75 66.2351 134.24 66.3169 134.587 66.5932C138.301 67.5892 141.882 68.9679 145.472 70.3345C145.429 70.7436 145.311 70.9761 145.576 71.3132C146.081 71.9556 147.133 72.4213 147.838 72.8247C151.693 75.0287 155.572 76.9382 157.711 81.0444C155.426 81.4004 153.09 80.9833 150.79 81.0752L151.992 83.7153C149.555 84.6947 145.471 84.3657 142.836 84.4895Q114.515 85.6179 86.1772 85.0286C81.4748 84.943 76.709 84.1249 72.0343 84.492L72.9333 82.2868C71.2128 80.878 69.5556 81.0356 67.448 80.9429C70.4826 76.4577 75.1052 72.6052 79.3743 69.3194C83.739 69.8976 86.7419 66.5691 90.5603 65.0842C90.9188 64.9155 91.3662 64.8332 91.7495 64.723C92.1044 63.5373 91.9903 61.9437 92.0285 60.6956Z"/>
	<path fill="#FEAC00" transform="scale(6.04414 6.04414)" d="M79.3743 69.3194C83.739 69.8976 86.7419 66.5691 90.5603 65.0842C89.423 66.7857 86.2346 68.1748 84.4738 69.3002C80.1551 72.0602 74.5204 77.2403 72.9333 82.2868C71.2128 80.878 69.5556 81.0356 67.448 80.9429C70.4826 76.4577 75.1052 72.6052 79.3743 69.3194Z"/>
	<path fill="#FEAC00" transform="scale(6.04414 6.04414)" d="M134.587 66.5932C138.301 67.5892 141.882 68.9679 145.472 70.3345C145.429 70.7436 145.311 70.9761 145.576 71.3132C146.081 71.9556 147.133 72.4213 147.838 72.8247C151.693 75.0287 155.572 76.9382 157.711 81.0444C155.426 81.4004 153.09 80.9833 150.79 81.0752C150.017 80.3591 149.346 79.2857 148.685 78.4536C147.117 76.4807 145.554 74.6165 143.659 72.9408C140.947 70.5415 136.996 69.1802 134.587 66.5932Z"/>
	<path fill="#FEAC00" transform="scale(6.04414 6.04414)" d="M92.0285 60.6956C93.4261 60.0078 101.391 60.704 103.488 60.7245C110.637 60.7943 117.817 60.4543 124.975 60.4564C127.032 60.457 129.755 60.1476 131.705 60.6364C131.819 62.6345 132.426 64.345 133.329 66.1174C130.922 65.7549 128.995 64.1105 126.418 63.9879C122.996 63.8252 119.704 64.7116 116.313 64.9343C113.062 65.1479 93.3343 65.52 91.7495 64.723C92.1044 63.5373 91.9903 61.9437 92.0285 60.6956Z"/>
	<path fill="#F3E005" transform="scale(6.04414 6.04414)" d="M1.0035 80.1383C3.25562 79.9304 6.20673 80.5726 8.29499 79.8783C8.33466 80.2575 8.27683 80.6763 8.60127 80.9156C9.01289 81.2191 9.49069 81.2596 9.98793 81.2745C13.3849 81.3765 16.949 81.0709 20.3757 81.0678L51.8948 81.0598C55.3 81.0611 63.97 80.5545 66.8654 81.5714L67.448 80.9429C69.5556 81.0356 71.2128 80.878 72.9333 82.2868L72.0343 84.492Q71.1274 89.3399 70.3264 94.2064C70.2867 95.3391 69.8796 96.7759 70.231 97.8451C70.5704 98.026 70.7923 98.1215 71.1789 98.1389L70.4465 98.4224C69.9125 100.712 71.048 103.622 70.9929 106.012C71.7464 107.508 71.7083 109.296 71.8964 110.939C71.4704 111.403 70.9537 111.871 70.6357 112.415C70.9182 113.064 71.0084 113.541 71.0118 114.249C70.9811 116.179 70.4783 121.31 70.7025 122.768C70.7361 122.987 70.6867 123.098 70.5905 123.291C70.6315 124.234 71.0474 124.949 71.4772 125.763C71.8059 128.569 71.0124 130.731 70.8637 133.431C70.742 135.644 71.449 137.942 71.5996 140.156C71.7734 142.708 71.2624 145.347 70.9859 147.879C70.9056 148.613 70.8138 149.458 70.8705 150.196L70.8806 150.404C70.9017 150.894 70.9546 151.395 70.5904 151.78C70.4488 151.93 70.2858 152.054 70.1192 152.174C70.2812 153.388 70.9508 154.139 71.2498 155.255C71.5462 156.869 71.808 158.476 71.0529 160.025C70.8735 162.616 70.9057 165.037 71.1079 167.626Q70.9941 170.29 70.9893 172.957C70.9856 174.674 70.8812 176.559 71.4144 178.216C70.6771 181.995 71.0892 185.802 71.5714 189.579C71.7571 191.033 72.1033 192.618 71.9697 194.079C68.7204 194.406 65.2614 195.715 62.068 195.808L61.894 196.018C61.8767 196.553 61.7735 197.23 61.965 197.733C60.5332 198.301 58.3964 198.384 56.8454 198.549C45.4138 199.765 14.7997 199.12 5.83506 191.869C4.54721 191.168 2.65966 191.265 1.63309 190.134C1.12327 189.573 1.13607 188.649 1.09969 187.923C0.934018 184.618 1.03181 181.269 0.983743 177.957C0.812191 166.134 1.03071 154.339 1.03298 142.519C1.03697 121.734 0.571307 100.915 1.0035 80.1383ZM8.01164 104.025L8.01025 120.155C8.03727 123.339 8.84609 127.152 7.99136 130.218C8.29155 130.833 9.69135 131.511 9.49472 132.1C9.18071 133.039 8.17693 133.137 7.9506 134.12C8.2784 134.642 9.04771 135.325 8.93735 135.954C8.81598 136.646 8.20809 137.207 8.12604 137.954C7.95072 139.548 8.52321 141.291 8.52687 142.907C8.5348 146.403 7.14694 154.476 8.15022 157.614C11.8874 158.535 15.5876 159.591 19.4029 160.151C26.8906 161.249 34.7337 161.216 42.2921 161.246C48.8789 161.273 55.4556 161.321 62.0351 160.952L62.1467 160.854C63.4786 160.7 64.7323 160.424 66.0291 160.088C67.6968 160.058 69.3869 159.968 71.0529 160.025C71.808 158.476 71.5462 156.869 71.2498 155.255C70.9508 154.139 70.2812 153.388 70.1192 152.174C70.2858 152.054 70.4488 151.93 70.5904 151.78C70.9546 151.395 70.9017 150.894 70.8806 150.404L70.8705 150.196C70.8138 149.458 70.9056 148.613 70.9859 147.879C71.2624 145.347 71.7734 142.708 71.5996 140.156C71.449 137.942 70.742 135.644 70.8637 133.431C71.0124 130.731 71.8059 128.569 71.4772 125.763C71.0474 124.949 70.6315 124.234 70.5905 123.291C70.6867 123.098 70.7361 122.987 70.7025 122.768C70.4783 121.31 70.9811 116.179 71.0118 114.249C71.0084 113.541 70.9182 113.064 70.6357 112.415C70.9537 111.871 71.4704 111.403 71.8964 110.939C71.7083 109.296 71.7464 107.508 70.9929 106.012L65.4274 105.961L62.0771 105.995C55.2361 105.996 48.3332 106.18 41.5 105.944C36.1956 105.761 30.9495 105.172 25.6635 104.822C19.8044 104.433 13.8819 104.305 8.01164 104.025Z"/>
	<path fill="#FC9000" transform="scale(6.04414 6.04414)" d="M67.448 80.9429C69.5556 81.0356 71.2128 80.878 72.9333 82.2868L72.0343 84.492Q71.1274 89.3399 70.3264 94.2064C67.7819 93.921 65.1863 94.015 62.6288 94.0175C63.4172 89.5799 65.0016 85.646 66.8654 81.5714L67.448 80.9429Z"/>
	<path fill="#B58000" transform="scale(6.04414 6.04414)" d="M5.83506 191.869C6.94743 190.714 8.47701 189.177 10.1747 189.114C12.3691 189.033 14.6247 191.712 16.6022 192.605C19.0251 193.698 21.8632 194.282 24.4721 194.738C36.8637 196.901 49.4047 195.925 61.894 196.018C61.8767 196.553 61.7735 197.23 61.965 197.733C60.5332 198.301 58.3964 198.384 56.8454 198.549C45.4138 199.765 14.7997 199.12 5.83506 191.869Z"/>
	<path fill="#FEAC00" transform="scale(6.04414 6.04414)" d="M62.0605 173.969C65.079 173.766 67.9956 173.376 70.9893 172.957C70.9856 174.674 70.8812 176.559 71.4144 178.216C70.6771 181.995 71.0892 185.802 71.5714 189.579C71.7571 191.033 72.1033 192.618 71.9697 194.079C68.7204 194.406 65.2614 195.715 62.068 195.808C61.8345 193.17 61.9834 190.404 61.9806 187.75Q61.9261 180.859 62.0605 173.969Z"/>
	<path fill="#0281DA" transform="scale(6.04414 6.04414)" d="M8.18241 93.4915C15.603 94.3703 22.8174 94.0344 30.2579 94.0187L61.2266 94.0322L62.6288 94.0175C65.1863 94.015 67.7819 93.921 70.3264 94.2064C70.2867 95.3391 69.8796 96.7759 70.231 97.8451C70.5704 98.026 70.7923 98.1215 71.1789 98.1389L70.4465 98.4224C69.9125 100.712 71.048 103.622 70.9929 106.012L65.4274 105.961L62.0771 105.995C55.2361 105.996 48.3332 106.18 41.5 105.944C36.1956 105.761 30.9495 105.172 25.6635 104.822C19.8044 104.433 13.8819 104.305 8.01164 104.025C7.99711 100.418 7.65081 97.1016 8.18241 93.4915Z"/>
	<path fill="#004E9C" transform="scale(6.04414 6.04414)" d="M62.6288 94.0175C65.1863 94.015 67.7819 93.921 70.3264 94.2064C70.2867 95.3391 69.8796 96.7759 70.231 97.8451C70.5704 98.026 70.7923 98.1215 71.1789 98.1389L70.4465 98.4224C69.9125 100.712 71.048 103.622 70.9929 106.012L65.4274 105.961L62.0771 105.995C62.3929 104.267 62.6986 95.6963 62.1265 94.4177C62.0493 94.2451 61.4303 94.1008 61.2266 94.0322L62.6288 94.0175Z"/>
	<path fill="#0281DA" transform="scale(6.04414 6.04414)" d="M8.15022 157.614C11.8874 158.535 15.5876 159.591 19.4029 160.151C26.8906 161.249 34.7337 161.216 42.2921 161.246C48.8789 161.273 55.4556 161.321 62.0351 160.952L62.1467 160.854C63.4786 160.7 64.7323 160.424 66.0291 160.088C67.6968 160.058 69.3869 159.968 71.0529 160.025C70.8735 162.616 70.9057 165.037 71.1079 167.626Q70.9941 170.29 70.9893 172.957C67.9956 173.376 65.079 173.766 62.0605 173.969C47.6318 174.712 32.0166 175.356 17.8421 172.039C14.5643 171.272 11.4853 169.954 8.2721 168.977C7.94873 165.187 7.77618 161.407 8.15022 157.614Z"/>
	<path fill="#004E9C" transform="scale(6.04414 6.04414)" d="M66.0291 160.088C67.6968 160.058 69.3869 159.968 71.0529 160.025C70.8735 162.616 70.9057 165.037 71.1079 167.626Q70.9941 170.29 70.9893 172.957C67.9956 173.376 65.079 173.766 62.0605 173.969C62.6473 170.164 62.4128 164.803 62.0351 160.952L62.1467 160.854C63.4786 160.7 64.7323 160.424 66.0291 160.088Z"/>
	<path fill="#010000" transform="scale(6.04414 6.04414)" d="M8.92618 108.522C11.4171 109.681 15.187 110.842 17.9755 110.559C18.6159 110.495 19.186 110.19 19.8319 110.108L20.0352 110.496C20.0282 111.206 19.9975 111.884 19.6701 112.53C19.3659 113.131 19.0303 113.579 18.3944 113.768L18.0489 113.312C17.3758 112.518 16.7357 111.75 15.9104 111.106C15.1694 111.44 15.6301 112.951 15.1692 113.765C13.4103 114.628 12.4136 112.662 10.8679 112.574C10.2743 112.541 9.82046 112.987 9.1107 112.841C8.66683 111.636 8.90223 109.818 8.92618 108.522Z"/>
	<path fill="#FD1C13" transform="scale(6.04414 6.04414)" d="M62.0771 105.995L65.4274 105.961C65.2847 111.009 65.4914 116.101 65.4927 121.156C65.4947 128.532 65.3448 135.944 65.5239 143.315C65.66 148.914 65.9917 154.478 66.0291 160.088C64.7323 160.424 63.4786 160.7 62.1467 160.854C61.7413 154.82 62.0454 148.662 62.0871 142.612C62.1045 140.088 62.4059 137.081 61.8756 134.626L61.7178 134.215C62.4997 133.124 61.9017 109.747 62.0771 105.995Z"/>
	<path fill="#E4DB9C" transform="scale(6.04414 6.04414)" d="M65.4274 105.961L70.9929 106.012C71.7464 107.508 71.7083 109.296 71.8964 110.939C71.4704 111.403 70.9537 111.871 70.6357 112.415C70.9182 113.064 71.0084 113.541 71.0118 114.249C70.9811 116.179 70.4783 121.31 70.7025 122.768C70.7361 122.987 70.6867 123.098 70.5905 123.291C70.6315 124.234 71.0474 124.949 71.4772 125.763C71.8059 128.569 71.0124 130.731 70.8637 133.431C70.742 135.644 71.449 137.942 71.5996 140.156C71.7734 142.708 71.2624 145.347 70.9859 147.879C70.9056 148.613 70.8138 149.458 70.8705 150.196L70.8806 150.404C70.9017 150.894 70.9546 151.395 70.5904 151.78C70.4488 151.93 70.2858 152.054 70.1192 152.174C70.2812 153.388 70.9508 154.139 71.2498 155.255C71.5462 156.869 71.808 158.476 71.0529 160.025C69.3869 159.968 67.6968 160.058 66.0291 160.088C65.9917 154.478 65.66 148.914 65.5239 143.315C65.3448 135.944 65.4947 128.532 65.4927 121.156C65.4914 116.101 65.2847 111.009 65.4274 105.961Z"/>
	<path fill="#010000" transform="scale(6.04414 6.04414)" d="M71.4772 125.763L70.9651 126.362C70.2956 126.505 70.1804 126.49 69.5338 126.262C69.3849 126.076 69.2324 125.873 69.154 125.645C68.9297 124.994 69.1529 123.754 69.5254 123.195C69.8037 122.777 69.8828 122.794 70.3469 122.704L70.5905 123.291C70.6315 124.234 71.0474 124.949 71.4772 125.763Z"/>
	<path fill="#010000" transform="scale(6.04414 6.04414)" d="M71.0118 114.249C70.3928 113.936 70.0029 113.279 69.5895 112.737C69.1378 112.841 68.8292 113.899 68.53 114.335L68.1598 114.238C68.1388 114.194 68.1164 114.151 68.0968 114.106C67.792 113.413 67.8814 111.389 68.1499 110.683L68.5404 110.585C69.0196 110.834 69.5433 111.062 69.8608 111.515C70.1029 111.86 70.338 112.118 70.6357 112.415C70.9182 113.064 71.0084 113.541 71.0118 114.249Z"/>
	<path fill="#010000" transform="scale(6.04414 6.04414)" d="M71.2498 155.255C71.1738 155.391 71.0993 155.485 70.9813 155.587C70.5813 155.934 70.4785 155.849 69.9576 155.812C69.7281 155.645 69.5124 155.459 69.3811 155.203C68.886 154.236 68.8887 152.955 69.2136 151.94C69.5241 150.97 69.9859 150.66 70.8705 150.196L70.8806 150.404C70.9017 150.894 70.9546 151.395 70.5904 151.78C70.4488 151.93 70.2858 152.054 70.1192 152.174C70.2812 153.388 70.9508 154.139 71.2498 155.255Z"/>
	<path fill="#FD1C13" transform="scale(6.04414 6.04414)" d="M39.5085 109.365C42.2989 115.391 53.3225 130.525 54.2037 135.176C56.4859 134.512 59.3382 133.514 61.7178 134.215L61.8756 134.626C57.5234 135.758 53.1724 136.81 48.6996 137.344C47.3093 137.142 44.9229 137.573 43.6184 138.11C43.9384 139.566 44.4128 141.167 44.3561 142.658C44.2919 144.347 43.8117 146.402 42.5059 147.582Q42.2799 147.789 42.0164 147.946Q41.7528 148.103 41.4628 148.203Q41.1728 148.303 40.8685 148.342Q40.5642 148.38 40.2584 148.356C37.8651 148.186 36.3738 146.084 34.9486 144.421C33.0011 147.734 31.7112 151.178 30.4266 154.779L30.2222 154.822C30.1912 154.458 30.1891 154.103 30.1935 153.737C30.2446 149.522 35.9638 143.307 35.8558 139.213C35.8403 138.626 35.6766 138.17 35.2475 137.763C34.5181 137.071 33.2703 137.229 32.3366 137.253C29.5703 136.625 20.9217 135.688 19.086 134.623L19.2359 134.263C20.6445 133.557 23.171 134.221 24.6655 134.466C28.3045 130.004 37.2846 114.789 39.5085 109.365Z"/>
	<path fill="#010000" transform="scale(6.04414 6.04414)" d="M24.6655 134.466C25.7483 135.627 32.5315 136.685 34.388 136.721C34.7851 136.728 35.175 136.693 35.5662 136.628L35.8438 136.295C34.6817 134.083 30.5441 130.688 30.3947 128.153C32.3456 129.049 35.6118 134.727 37.5157 136.681C39.1472 136.444 40.9381 136.305 42.4632 135.66C45.0542 134.563 46.5994 131.062 49.1281 130.429C47.7016 132.703 44.9705 134.215 43.7102 136.492C43.9228 136.825 43.8977 136.852 44.2841 136.939C46.3851 137.414 52.1629 135.964 54.2037 135.176C56.4859 134.512 59.3382 133.514 61.7178 134.215L61.8756 134.626C57.5234 135.758 53.1724 136.81 48.6996 137.344C47.3093 137.142 44.9229 137.573 43.6184 138.11C43.9384 139.566 44.4128 141.167 44.3561 142.658C44.2919 144.347 43.8117 146.402 42.5059 147.582Q42.2799 147.789 42.0164 147.946Q41.7528 148.103 41.4628 148.203Q41.1728 148.303 40.8685 148.342Q40.5642 148.38 40.2584 148.356C37.8651 148.186 36.3738 146.084 34.9486 144.421C33.0011 147.734 31.7112 151.178 30.4266 154.779L30.2222 154.822C30.1912 154.458 30.1891 154.103 30.1935 153.737C30.2446 149.522 35.9638 143.307 35.8558 139.213C35.8403 138.626 35.6766 138.17 35.2475 137.763C34.5181 137.071 33.2703 137.229 32.3366 137.253C29.5703 136.625 20.9217 135.688 19.086 134.623L19.2359 134.263C20.6445 133.557 23.171 134.221 24.6655 134.466Z"/>
	<path fill="#FD1C13" transform="scale(6.04414 6.04414)" d="M32.3366 137.253C33.2703 137.229 34.5181 137.071 35.2475 137.763C35.6766 138.17 35.8403 138.626 35.8558 139.213C35.9638 143.307 30.2446 149.522 30.1935 153.737C30.1891 154.103 30.1912 154.458 30.2222 154.822L30.4266 154.779C31.7112 151.178 33.0011 147.734 34.9486 144.421C36.3738 146.084 37.8651 148.186 40.2584 148.356Q40.5642 148.38 40.8685 148.342Q41.1728 148.303 41.4628 148.203Q41.7528 148.103 42.0163 147.946Q42.2799 147.789 42.5059 147.582C43.8117 146.402 44.2919 144.347 44.3561 142.658C44.4128 141.167 43.9384 139.566 43.6184 138.11C44.9229 137.573 47.3093 137.142 48.6996 137.344L48.561 137.645C49.4172 138.546 51.3067 138.443 52.4263 139.391C55.7534 142.207 59.7406 150.964 60.0242 155.259C60.0703 155.957 60.0106 156.351 59.5471 156.864C49.9486 156.743 40.3408 157.161 30.7453 156.882C26.2292 156.751 21.7669 156.013 17.2575 155.83C18.4623 150.315 21.934 142.435 27.2703 139.796C28.6875 139.096 31.4163 138.526 32.3366 137.253Z"/>
	<path fill="#F3E005" transform="scale(6.04414 6.04414)" d="M218.107 103.031C218.772 107.182 218.318 114.76 218.323 119.31C218.334 130.305 218.388 141.31 218.245 152.304C218.208 155.125 217.983 157.934 217.946 160.757C217.759 159.369 217.833 157.86 217.803 156.455C214.357 157.384 210.844 158.387 207.313 158.925C199.947 160.047 192.438 160.025 185.008 160.029C177.875 160.033 170.91 160.022 163.802 159.326L163.451 159.485C161.152 158.437 157.231 158.996 154.699 158.918L154.158 159.226C153.569 161.472 155.432 165.048 153.125 166.702L151.622 167.025C150.722 167.182 149.83 167.35 148.915 167.388L145.457 168.088C142.08 168.569 138.692 168.992 135.283 169.161C132.222 169.314 129.099 169.231 126.06 169.62Q123.807 169.841 121.548 169.998C112.857 170.024 104.284 169.772 95.603 169.427C92.6881 169.311 89.7506 169.34 86.841 169.147C81.5858 168.797 76.3715 167.896 71.1079 167.626C70.9057 165.037 70.8735 162.616 71.0529 160.025C71.808 158.476 71.5462 156.869 71.2498 155.255C70.9508 154.139 70.2812 153.388 70.1192 152.174C70.2858 152.054 70.4488 151.93 70.5904 151.78C70.9546 151.395 70.9017 150.894 70.8806 150.404L70.8705 150.196C70.8138 149.458 70.9056 148.613 70.9859 147.879C71.2624 145.347 71.7734 142.708 71.5996 140.156C71.449 137.942 70.742 135.644 70.8637 133.431C71.0124 130.731 71.8059 128.569 71.4772 125.763C71.0474 124.949 70.6315 124.234 70.5905 123.291C70.6867 123.098 70.7361 122.987 70.7025 122.768C70.4783 121.31 70.9811 116.179 71.0118 114.249C71.0084 113.541 70.9182 113.064 70.6357 112.415C70.9537 111.871 71.4704 111.403 71.8964 110.939C74.8577 111.096 77.7612 111.771 80.712 111.946C84.2721 112.157 87.9078 112.034 91.4765 112.067C96.2365 112.111 100.987 112.268 105.75 112.271C108.379 112.272 119.764 111.832 121.509 112.437C122.934 112.471 124.273 112.374 125.686 112.184C130.184 110.779 139.348 112.16 144.402 111.845C146.739 111.325 152.292 111.858 153.737 110.182C153.956 108.229 153.991 106.267 154.048 104.304Q159 104.365 163.941 104.694C177.256 105.223 190.453 104.959 203.753 104.268C208.521 104.02 213.451 104.158 218.107 103.031Z"/>
	<path fill="#010000" transform="scale(6.04414 6.04414)" d="M163.934 112.358C164.825 112.19 165.671 111.972 166.489 112.491C166.616 112.572 166.727 112.665 166.839 112.764C166.636 113.149 166.622 113.101 166.216 113.227C165.227 113.534 164.231 113.803 163.23 114.066C162.828 113.738 162.812 113.743 162.73 113.234C163.053 112.711 163.393 112.577 163.934 112.358Z"/>
	<path fill="#010000" transform="scale(6.04414 6.04414)" d="M180.191 112.074C181.547 111.991 183.455 111.978 184.706 112.552L184.72 112.908L184.138 113.326C183.714 113.584 183.278 113.825 182.847 114.071C182.218 114.105 181.581 114.174 181.056 113.755C180.493 113.307 180.259 112.773 180.191 112.074Z"/>
	<path fill="#010000" transform="scale(6.04414 6.04414)" d="M168.985 112.054Q169.553 112.027 170.122 112.014C171.026 111.995 171.92 111.946 172.616 112.613C172.787 113.323 172.663 113.512 172.407 114.17Q171.855 114.239 171.299 114.243C170.419 114.258 169.534 114.186 168.874 113.548C168.658 112.837 168.735 112.719 168.985 112.054Z"/>
	<path fill="#010000" transform="scale(6.04414 6.04414)" d="M216.537 140.037L216.848 140.4L216.635 140.931C214.727 142.306 211.326 142.402 209.034 142.821L208.738 142.634L208.719 142.2C210.453 140.863 214.367 140.75 216.537 140.037Z"/>
	<path fill="#010000" transform="scale(6.04414 6.04414)" d="M175.183 134.556C176.109 134.429 176.679 134.523 177.509 134.958C178.502 135.478 179.812 136.431 180.159 137.544L179.89 137.715L178.95 137.131C176.494 135.627 173.798 135.777 171.035 135.795C172.39 135.308 173.798 134.949 175.183 134.556Z"/>
	<path fill="#010000" transform="scale(6.04414 6.04414)" d="M174.737 118.284C176.473 118.219 180.022 117.705 181.498 118.535L181.602 118.977L181.018 119.711C178.906 119.76 176.603 119.885 174.532 119.448L174.325 119.032L174.737 118.284Z"/>
	<path fill="#010000" transform="scale(6.04414 6.04414)" d="M164.234 118.516C166.917 118.446 170.176 118.084 172.782 118.764L172.731 118.985C171.154 119.575 169.827 119.751 168.139 119.783C166.853 119.718 165.428 120.034 164.203 119.578C163.981 119.072 164.046 119.046 164.234 118.516Z"/>
	<path fill="#010000" transform="scale(6.04414 6.04414)" d="M187.07 111.146C187.879 111.197 188.685 111.508 189.5 111.592C190.276 111.672 191.084 111.535 191.869 111.564C192.918 111.603 193.634 111.605 194.367 112.393C194.563 113.09 194.332 113.538 194.062 114.174C193.492 114.002 193.009 113.22 192.548 113.148C190.872 112.888 189.19 114.088 187.618 113.092C187.068 112.57 187.117 111.855 187.07 111.146Z"/>
	<path fill="#010000" transform="scale(6.04414 6.04414)" d="M208.977 107.846C209.441 108.03 209.933 108.305 210.337 108.599C210.991 109.075 211.454 109.8 211.555 110.607C211.701 111.781 211.118 112.704 210.417 113.58C210.339 113.58 210.261 113.58 210.182 113.574C209.349 113.518 208.888 113.219 208.354 112.621C207.68 111.048 208.487 109.373 208.977 107.846Z"/>
	<path fill="#010000" transform="scale(6.04414 6.04414)" d="M185.106 134.874C186.609 134.862 189.681 139.015 191.531 140.016C192.551 140.568 194.004 140.717 195.139 140.941C195.979 142.512 197.489 144.732 197.674 146.515L197.311 146.423C196.3 145.5 195.805 143.819 195.104 142.634C194.201 142.015 193.23 141.76 192.138 141.719C191.232 141.685 190.262 141.742 189.58 142.368L189.606 142.972C190.621 144.748 192.814 145.567 194.575 146.43C195.589 149.687 196.037 154.06 195.663 157.433C194.994 156.652 194.637 149.902 193.863 148.104C193.368 146.954 192.068 146.283 190.957 145.852C190.206 145.561 189.864 145.547 189.134 145.874C188.028 146.7 186.814 147.319 185.6 147.968C184.445 147.218 183.464 146.467 182.493 145.489C177.882 147.863 178.409 147.934 176.844 152.703L176.67 152.766C176.731 150.964 177.026 149.174 177.276 147.391C178.44 146.607 180.352 146.028 181.13 144.86C181.546 144.237 181.675 143.233 181.507 142.51C181.372 141.929 181.229 141.912 180.75 141.591C179.579 141.392 178.303 141.862 177.17 142.15C175.763 144.375 174.549 146.787 172.806 148.771C173.771 146.302 174.972 143.717 176.451 141.512C177.593 140.903 178.845 140.649 180.021 140.15C182.356 139.16 183.521 136.711 185.106 134.874Z"/>
	<defs>
		<linearGradient id="gradient_2" gradientUnits="userSpaceOnUse" x1="145.77234" y1="140.63757" x2="125.09838" y2="139.93915">
			<stop offset="0" stop-color="#EDE4BC"/>
			<stop offset="1" stop-color="#F9F6F9"/>
		</linearGradient>
	</defs>
	<path fill="url(#gradient_2)" transform="scale(6.04414 6.04414)" d="M154.048 104.304Q159 104.365 163.941 104.694C163.916 106.153 163.21 111.334 163.712 112.227L163.934 112.358C163.393 112.577 163.053 112.711 162.73 113.234C162.812 113.743 162.828 113.738 163.23 114.066C164.04 115.487 163.542 117.144 164.234 118.516C164.046 119.046 163.981 119.072 164.203 119.578C165.428 120.034 166.853 119.718 168.139 119.783C166.721 120.062 165.298 120.053 163.858 120.073C163.652 127.376 164.116 134.717 163.967 142.037C163.913 144.715 162.962 157.988 163.802 159.326L163.451 159.485C161.152 158.437 157.231 158.996 154.699 158.918L154.158 159.226C153.569 161.472 155.432 165.048 153.125 166.702L151.622 167.025C150.722 167.182 149.83 167.35 148.915 167.388L145.457 168.088C142.08 168.569 138.692 168.992 135.283 169.161C132.222 169.314 129.099 169.231 126.06 169.62C124.981 150.694 125.986 131.204 125.686 112.184C130.184 110.779 139.348 112.16 144.402 111.845C146.739 111.325 152.292 111.858 153.737 110.182C153.956 108.229 153.991 106.267 154.048 104.304Z"/>
	<path fill="#010000" transform="scale(6.04414 6.04414)" d="M132.815 155.607C133.6 155.758 134.636 155.895 135.306 156.365C135.981 156.838 136.002 157.295 136.156 158.048C135.174 157.711 134.181 157.733 133.199 157.408C132.697 156.753 132.816 156.417 132.815 155.607Z"/>
	<path fill="#010000" transform="scale(6.04414 6.04414)" d="M129.296 150.865C130.02 151.003 130.84 151.1 131.529 151.357C132.062 151.556 132.159 151.691 132.369 152.197L131.914 153.18C131.071 153.179 130.264 153.508 129.439 153.388C129.057 152.742 129.258 151.613 129.296 150.865Z"/>
	<path fill="#E4DB9C" transform="scale(6.04414 6.04414)" d="M144.014 135.8C142.783 136.101 140.657 135.935 139.525 135.355C139.252 134.894 139.23 134.889 139.326 134.366C140.026 133.883 141.289 134.139 142.11 134.19L142.327 133.902L141.889 133.948L142.376 133.559L142.785 134.415C143.435 134.831 143.594 134.832 144.333 134.817C144.217 135.137 144.075 135.465 144.014 135.8Z"/>
	<path fill="#010000" transform="scale(6.04414 6.04414)" d="M131.311 115.69L131.825 115.871C132.198 117.045 132.147 119.049 131.879 120.245C131.701 121.04 131.433 121.474 130.765 121.913C129.974 121.876 129.542 121.499 128.94 121.034C129.405 120.168 130.231 120.111 130.561 119.374C130.235 118.652 129.534 118.429 128.847 118.077C129.092 117.332 130.677 116.354 131.311 115.69Z"/>
	<path fill="#010000" transform="scale(6.04414 6.04414)" d="M144.061 115.862C144.792 116.962 145.412 117.976 145.169 119.362C145.052 120.026 144.579 120.804 144.025 121.198C143.841 121.329 143.65 121.425 143.443 121.511C142.74 120.914 142.217 120.147 141.67 119.412C141.785 118.549 141.833 117.404 142.33 116.673C142.725 116.092 143.42 115.996 144.061 115.862Z"/>
	<path fill="#010000" transform="scale(6.04414 6.04414)" d="M138.001 115.933C138.488 115.936 139.044 115.914 139.517 116.03C140.121 116.178 140.586 116.543 140.905 117.074C141.55 118.147 141.206 119.807 140.901 120.935C140.022 121.249 139.519 121.288 138.666 120.92C137.567 119.722 137.962 117.46 138.001 115.933Z"/>
	<path fill="#010000" transform="scale(6.04414 6.04414)" d="M134.235 115.838C134.612 115.973 134.97 116.165 135.321 116.357C136.018 116.738 136.649 117.228 136.858 118.032C137.236 119.491 136.375 120.736 135.646 121.912Q135.357 121.837 135.076 121.737C134.379 121.497 133.573 121.086 133.276 120.363C132.672 118.893 133.625 117.16 134.235 115.838Z"/>
	<path fill="#E1D071" transform="scale(6.04414 6.04414)" d="M153.737 110.182C153.834 113.034 153.73 115.889 154.723 118.602C153.884 122.001 153.809 125.246 153.483 128.7C152.944 128.883 152.542 129.003 151.959 128.947C151.272 129.219 151.248 129.196 150.927 129.856C150.999 130.341 151.051 130.832 151.2 131.3C151.305 131.578 151.419 131.704 151.295 131.99C151.07 132.513 150.533 132.95 150.003 133.134C148.717 133.58 147.685 133.59 146.447 133.043C146.246 132.954 146.337 132.982 146.104 132.961C145.669 130.616 145.927 128.977 146.669 126.759C145.498 125.926 142.475 127.43 141.523 126.745C142.417 126.276 143.782 126.21 144.53 125.721C145.007 125.409 145.001 125.025 145.137 124.508C144.673 123.674 144.951 122.552 144.453 121.867C144.236 121.568 143.794 121.578 143.443 121.511C143.65 121.425 143.841 121.329 144.025 121.198C144.579 120.804 145.052 120.026 145.169 119.362C145.412 117.976 144.792 116.962 144.061 115.862C144.661 114.638 144.332 113.185 144.402 111.845C146.739 111.325 152.292 111.858 153.737 110.182Z"/>
	<path fill="#F3E005" transform="scale(6.04414 6.04414)" d="M151.2 131.3C151.846 130.635 152.445 129.903 153.369 129.645C153.636 130.687 153.928 131.352 153.343 132.348C153.018 132.901 152.655 133.199 152.745 133.862L154.086 134.936C153.457 135.983 152.664 136.925 152.996 138.195C153.153 138.797 153.391 139.393 153.625 139.969C153.18 140.71 152.36 141.053 151.54 141.318C150.76 141.29 150.491 141.171 149.846 141.639L149.744 142.167C150.161 142.635 150.231 142.641 150.848 142.779C151.455 142.585 151.966 142.369 152.518 142.048C152.723 142.049 153.319 141.994 153.448 142.121C155.322 143.97 152.682 157.519 154.699 158.918L154.158 159.226C153.569 161.472 155.432 165.048 153.125 166.702L151.622 167.025C150.722 167.182 149.83 167.35 148.915 167.388L145.457 168.088C145.135 166.959 145.119 166.157 145.26 164.996C145.415 163.717 145.295 154.095 144.877 153.245C144.785 153.058 144.557 152.839 144.424 152.67C144.297 152.463 144.135 152.221 144.073 151.986C143.898 151.324 144.253 150.902 144.553 150.358C145.065 148.587 145.057 145.036 144.856 143.188C144.034 142.061 142.867 140.617 142.244 139.414C142.52 138.876 142.844 138.796 143.364 138.521C143.597 138.241 143.872 137.942 144.048 137.624C144.401 136.986 144.164 136.453 144.014 135.8C144.075 135.465 144.217 135.137 144.333 134.817L144.862 134.502C145.297 134.012 145.694 133.473 146.104 132.961C146.337 132.982 146.246 132.954 146.447 133.043C147.685 133.59 148.717 133.58 150.003 133.134C150.533 132.95 151.07 132.513 151.295 131.99C151.419 131.704 151.305 131.578 151.2 131.3Z"/>
	<path fill="#E1D071" transform="scale(6.04414 6.04414)" d="M144.424 152.67C145.428 152.422 146.376 152.112 147.408 152.378C147.862 152.721 148.071 152.843 148.146 153.452C148.426 155.751 145.255 158.673 146.297 160.854C147.16 161.364 147.949 161.19 148.917 161.066C148.985 161.832 148.465 161.812 148.353 162.388C148.262 162.859 149.01 165.914 148.915 167.388L145.457 168.088C145.135 166.959 145.119 166.157 145.26 164.996C145.415 163.717 145.295 154.095 144.877 153.245C144.785 153.058 144.557 152.839 144.424 152.67Z"/>
	<path fill="#E1D071" transform="scale(6.04414 6.04414)" d="M144.862 134.502C145.663 135.222 146.771 135.334 147.675 136.153C148.177 137.55 149.508 139.708 149.495 141.113L149.14 141.562C148.939 141.818 149.072 141.656 148.874 141.864C148.637 142.113 147.193 146.882 147.07 147.421C146.853 148.37 146.856 149.35 146.641 150.294L146.597 150.488L146.567 150.614Q145.558 150.5 144.553 150.358C145.065 148.587 145.057 145.036 144.856 143.188C144.034 142.061 142.867 140.617 142.244 139.414C142.52 138.876 142.844 138.796 143.364 138.521C143.597 138.241 143.872 137.942 144.048 137.624C144.401 136.986 144.164 136.453 144.014 135.8C144.075 135.465 144.217 135.137 144.333 134.817L144.862 134.502Z"/>
	<path fill="#E4DB9C" transform="scale(6.04414 6.04414)" d="M143.364 138.521C144.094 139.149 146.601 139.02 146.629 139.515C146.714 141.045 145.062 141.934 144.856 143.188C144.034 142.061 142.867 140.617 142.244 139.414C142.52 138.876 142.844 138.796 143.364 138.521Z"/>
	<path fill="#C4B204" transform="scale(6.04414 6.04414)" d="M154.048 104.304Q159 104.365 163.941 104.694C163.916 106.153 163.21 111.334 163.712 112.227L163.934 112.358C163.393 112.577 163.053 112.711 162.73 113.234C162.812 113.743 162.828 113.738 163.23 114.066C164.04 115.487 163.542 117.144 164.234 118.516C164.046 119.046 163.981 119.072 164.203 119.578C165.428 120.034 166.853 119.718 168.139 119.783C166.721 120.062 165.298 120.053 163.858 120.073C163.652 127.376 164.116 134.717 163.967 142.037C163.913 144.715 162.962 157.988 163.802 159.326L163.451 159.485C161.152 158.437 157.231 158.996 154.699 158.918C152.682 157.519 155.322 143.97 153.448 142.121C153.319 141.994 152.723 142.049 152.518 142.048C151.966 142.369 151.455 142.585 150.848 142.779C150.231 142.641 150.161 142.635 149.744 142.167L149.846 141.639C150.491 141.171 150.76 141.29 151.54 141.318C152.36 141.053 153.18 140.71 153.625 139.969C153.391 139.393 153.153 138.797 152.996 138.195C152.664 136.925 153.457 135.983 154.086 134.936L152.745 133.862C152.655 133.199 153.018 132.901 153.343 132.348C153.928 131.352 153.636 130.687 153.369 129.645C152.445 129.903 151.846 130.635 151.2 131.3C151.051 130.832 150.999 130.341 150.927 129.856C151.248 129.196 151.272 129.219 151.959 128.947C152.542 129.003 152.944 128.883 153.483 128.7C153.809 125.246 153.884 122.001 154.723 118.602C153.73 115.889 153.834 113.034 153.737 110.182C153.956 108.229 153.991 106.267 154.048 104.304Z"/>
	<path fill="#F3EFE6" transform="scale(6.04414 6.04414)" d="M71.8964 110.939C74.8577 111.096 77.7612 111.771 80.712 111.946C84.2721 112.157 87.9078 112.034 91.4765 112.067C96.2365 112.111 100.987 112.268 105.75 112.271C108.379 112.272 119.764 111.832 121.509 112.437C122.934 112.471 124.273 112.374 125.686 112.184C125.986 131.204 124.981 150.694 126.06 169.62Q123.807 169.841 121.548 169.998C112.857 170.024 104.284 169.772 95.603 169.427C92.6881 169.311 89.7506 169.34 86.841 169.147C81.5858 168.797 76.3715 167.896 71.1079 167.626C70.9057 165.037 70.8735 162.616 71.0529 160.025C71.808 158.476 71.5462 156.869 71.2498 155.255C70.9508 154.139 70.2812 153.388 70.1192 152.174C70.2858 152.054 70.4488 151.93 70.5904 151.78C70.9546 151.395 70.9017 150.894 70.8806 150.404L70.8705 150.196C70.8138 149.458 70.9056 148.613 70.9859 147.879C71.2624 145.347 71.7734 142.708 71.5996 140.156C71.449 137.942 70.742 135.644 70.8637 133.431C71.0124 130.731 71.8059 128.569 71.4772 125.763C71.0474 124.949 70.6315 124.234 70.5905 123.291C70.6867 123.098 70.7361 122.987 70.7025 122.768C70.4783 121.31 70.9811 116.179 71.0118 114.249C71.0084 113.541 70.9182 113.064 70.6357 112.415C70.9537 111.871 71.4704 111.403 71.8964 110.939Z"/>
	<path fill="#FD1C13" transform="scale(6.04414 6.04414)" d="M106.209 121.475L105.423 121.324L105.077 120.728C105.296 120.327 105.34 120.273 105.785 120.135C107.064 119.739 109.773 119.635 110.967 120.274C111.003 120.293 111.038 120.316 111.073 120.336L111.075 120.737C110.605 121.117 110.203 121.334 109.648 121.564C109.513 121.467 109.528 121.47 109.349 121.384C108.345 120.9 107.208 121.103 106.209 121.475Z"/>
	<path fill="#EC382B" transform="scale(6.04414 6.04414)" d="M106.209 121.475C107.208 121.103 108.345 120.9 109.349 121.384C109.528 121.47 109.513 121.467 109.648 121.564C108.246 122.857 109.754 125.63 108.753 127.405C108.17 127.719 108.132 127.732 107.479 127.626C106.756 126.244 107.166 123.495 106.837 121.87L106.209 121.475Z"/>
	<path fill="#F0F5F4" transform="scale(6.04414 6.04414)" d="M84.9855 155.63C86.3475 156.08 88.6711 158.538 89.4567 159.815C89.5087 160.464 89.5426 160.504 89.1701 161.029C88.3964 161.456 87.8468 161.359 86.9997 161.227C85.9171 160.893 84.1471 160.556 83.2863 159.808C82.8826 159.457 82.7469 159.156 82.7422 158.631C82.7326 157.545 84.2648 156.346 84.9855 155.63Z"/>
	<path fill="#EC382B" transform="scale(6.04414 6.04414)" d="M79.8196 124.357L79.5593 124.334C78.8312 124.785 78.9216 125.889 78.5189 126.689C77.965 126.873 77.9355 126.868 77.3856 126.67C77.1112 124.331 77.1893 121.94 77.1815 119.587L77.458 119.396C78.2305 119.452 78.9319 119.625 79.6778 119.826C80.9134 120.213 81.8894 120.757 82.9792 121.441C82.6711 122.057 81.3087 124.252 81.4514 124.687C81.6907 125.418 82.2931 125.892 82.1849 126.662C81.5654 126.652 81.394 126.503 80.97 126.047C80.5315 125.576 80.1444 124.91 79.8196 124.357Z"/>
	<path fill="#FD1C13" transform="scale(6.04414 6.04414)" d="M97.8631 121.693C97.9663 120.948 97.8985 120.625 98.4437 120.085C99.2648 120.121 99.6453 120.354 100.204 120.971C101.154 122.019 101.896 123.348 102.525 124.608L102.744 124.689C103.078 123.308 102.298 121.265 103.426 120.4L102.889 120.774L103.007 120.425L103.472 120.445C104.481 121.989 104.545 124.975 104.211 126.778C104.102 127.364 103.989 127.718 103.514 128.071C101.971 127.429 101.928 125.297 100.631 124.649C99.6592 125.686 100.39 127.614 98.5424 127.803C98.3738 127.82 98.2006 127.786 98.0353 127.761Q98.0101 124.725 97.8631 121.693Z"/>
	<path fill="#FD1C13" transform="scale(6.04414 6.04414)" d="M84.2234 120.603C84.8746 120.44 85.5453 120.257 86.212 120.174C87.5845 120.002 88.4382 120.504 89.4959 121.315C89.6568 121.153 89.837 121.079 90.039 120.977C90.3321 121.712 89.6328 122.025 90.1109 122.96L90.4579 123.017C90.5734 122.09 90.3088 121.614 90.7806 120.754C91.0718 122.854 91.6781 125.328 90.958 127.368L90.1624 126.911C90.0628 126.988 90.0644 126.993 89.9321 127.059C89.0019 127.527 87.1361 127.758 86.1441 127.439C85.1486 127.119 84.4842 126.377 84.0334 125.458C83.183 123.725 83.6142 122.309 84.2234 120.603Z"/>
	<path fill="#F0F5F4" transform="scale(6.04414 6.04414)" d="M89.4959 121.315C89.6568 121.153 89.837 121.079 90.039 120.977C90.3321 121.712 89.6328 122.025 90.1109 122.96L90.4579 123.017C90.5734 122.09 90.3088 121.614 90.7806 120.754C91.0718 122.854 91.6781 125.328 90.958 127.368L90.1624 126.911C89.978 125.636 90.0291 124.242 89.9857 122.949C89.1931 122.956 88.398 122.954 87.6062 122.991C87.0828 123.015 86.883 122.937 86.5113 123.347C86.772 124.112 87.0226 124.871 87.2249 125.654C86.9673 126.176 86.9512 126.245 86.4413 126.513C86.355 126.471 86.3235 126.458 86.2369 126.399C85.6326 125.983 85.2883 124.919 85.1361 124.235C84.9366 123.339 84.9567 122.618 85.4543 121.834C86.831 120.923 87.6933 121.832 89.1043 121.948L89.4959 121.315Z"/>
	<path fill="#F0F5F4" transform="scale(6.04414 6.04414)" d="M90.7806 120.754C90.9582 120.349 91.0293 120.322 91.3832 120.086C93.0144 119.933 95.8421 119.609 97.2961 120.308L97.6576 120.248C97.673 120.753 97.6536 121.224 97.8631 121.693Q98.0101 124.725 98.0353 127.761L97.1573 127.751C95.9775 127.751 94.8544 127.727 93.6851 127.537C92.7888 127.556 91.8177 127.656 90.958 127.368C91.6781 125.328 91.0718 122.854 90.7806 120.754Z"/>
	<path fill="#FD1C13" transform="scale(6.04414 6.04414)" d="M92.7235 126.27C93.7896 126.098 95.3797 125.628 96.3074 126.337C96.7378 126.667 96.9529 127.266 97.1573 127.751C95.9775 127.751 94.8544 127.727 93.6851 127.537L92.7235 126.27Z"/>
	<path fill="#EC382B" transform="scale(6.04414 6.04414)" d="M90.7806 120.754C90.9582 120.349 91.0293 120.322 91.3832 120.086C93.0144 119.933 95.8421 119.609 97.2961 120.308C96.8812 120.96 96.6863 121.483 95.8793 121.693C94.7244 121.993 93.3773 121.664 92.1671 121.82C93.0887 122.304 95.1216 122.982 95.6534 123.747C95.6229 123.936 95.6579 124.097 95.4932 124.212C94.5977 124.842 93.6733 124.521 92.84 125.3C92.7877 125.622 92.7141 125.943 92.7235 126.27L93.6851 127.537C92.7888 127.556 91.8177 127.656 90.958 127.368C91.6781 125.328 91.0718 122.854 90.7806 120.754Z"/>
	<path fill="#0281DA" transform="scale(6.04414 6.04414)" d="M102.239 158.832C102.094 157.921 101.88 156.996 102.119 156.086C102.568 155.589 102.765 155.642 103.405 155.563C104.686 156.12 104.825 157.605 105.853 157.976C107.193 157.351 107.125 155.519 108.893 155.728C109.659 156.325 110.154 157.622 111.008 157.854C111.728 157.13 112.568 155.779 113.683 155.771C114.056 155.769 114.315 155.925 114.587 156.18C115.391 156.933 115.517 158.637 115.438 159.652C115.37 160.525 115.147 161.25 114.614 161.944C114.036 162.211 113.768 162.346 113.15 162.091C112.172 161.689 111.582 160.509 111.02 159.673C110.444 160.689 109.776 161.896 108.578 162.249C107.349 161.869 107.349 160.469 106.321 160.114C105.582 160.933 104.862 161.903 103.821 162.335C103.272 162.311 103.205 162.346 102.808 161.935C102.303 161.413 102.146 160.675 102.046 159.982C102.098 159.598 102.174 159.214 102.239 158.832Z"/>
	<path fill="#F0F5F4" transform="scale(6.04414 6.04414)" d="M112.897 156.615C113 156.666 113.069 156.697 113.172 156.758C113.666 157.051 113.836 157.405 113.953 157.946C114.203 159.107 114.145 161.036 113.492 162.058C112.949 161.444 112.357 160.529 112.128 159.745C111.766 158.501 112.292 157.656 112.897 156.615Z"/>
	<path fill="#F0F5F4" transform="scale(6.04414 6.04414)" d="M102.239 158.832C102.529 158.32 102.805 157.847 103.195 157.401C103.85 157.287 103.838 157.275 104.388 157.646C105.014 158.686 105.02 159.72 104.815 160.887L104.476 161.129C103.615 160.831 102.844 160.418 102.046 159.982C102.098 159.598 102.174 159.214 102.239 158.832Z"/>
	<path fill="#06A8F6" transform="scale(6.04414 6.04414)" d="M94.6598 130.873C95.8511 131.476 96.7663 133.021 97.4527 134.134C100.443 138.978 102.458 144.076 101.131 149.738C99.4726 151.77 97.7172 152.92 95.3595 154.01C93.8265 153.53 92.4221 153.048 91.1087 152.085C89.4021 150.834 88.2942 149.097 87.988 146.994C87.2304 141.793 91.6324 134.904 94.6598 130.873Z"/>
	<path fill="#FD1C13" transform="scale(6.04414 6.04414)" d="M121.509 112.437C122.934 112.471 124.273 112.374 125.686 112.184C125.986 131.204 124.981 150.694 126.06 169.62Q123.807 169.841 121.548 169.998C120.487 164.068 121.465 157.984 121.472 151.995C121.488 138.823 121.222 125.604 121.509 112.437Z"/>
</svg>
