<?xml version="1.0" encoding="utf-8" ?>
<svg xmlns="http://www.w3.org/2000/svg" xmlns:xlink="http://www.w3.org/1999/xlink" width="1024" height="1024">
	<defs>
		<linearGradient id="gradient_0" gradientUnits="userSpaceOnUse" x1="246.65337" y1="526.77228" x2="769.6084" y2="909.05359">
			<stop offset="0" stop-color="#35271C"/>
			<stop offset="1" stop-color="#492229"/>
		</linearGradient>
	</defs>
	<path fill="url(#gradient_0)" d="M725.85 719.218C733.325 715.019 741.487 711.657 749.196 707.88Q771.058 696.933 793.035 686.217L836.264 664.915C844.325 660.933 852.358 656.62 860.621 653.078L860.66 654.382C861.552 656.267 862.648 658.122 862.813 660.229L862.358 661.46C858.986 669.397 854.629 677.046 850.608 684.679C871.025 694.292 893.188 706.177 912.681 717.537C899.273 723.499 886.345 730.887 873.176 737.405Q822.398 762.161 772.23 788.128Q742.359 803.04 712.237 817.44L615.51 865.141L559.095 892.789C547.462 898.59 535.432 906.666 522.842 909.892C510.218 913.126 496.985 911.287 484.903 906.839C470.393 901.496 456.208 893.117 442.363 886.157Q398.803 863.864 354.93 842.195L187.039 759.91L136.616 735.24C125.739 729.967 114.447 725.04 104.028 718.911C115.488 712.599 127.515 707.004 139.2 701.09C152.798 694.207 166.323 686.939 180.164 680.57L181.472 679.49C182.039 676.676 181.453 673.237 181.499 670.293C188.498 673.509 195.272 677.299 202.136 680.797L239.739 699.68C251.027 705.239 269 711.651 278.529 718.803C283.329 722.406 285.897 728.743 289.344 733.506L290.647 731.376C292.802 731.926 293.62 732.665 294.743 734.575C300.894 745.034 300.661 758.583 307.053 769.063C308.208 770.956 309.622 771.975 311.49 773.104C317.412 776.685 324.448 779.216 330.745 782.154C346.835 789.663 364.287 797.256 379.664 806.022Q388.975 801.596 398.557 797.793C402.814 796.082 408.68 794.59 412.437 792.069C414.359 792.657 415.52 793.14 417.481 792.363C415.091 789.313 412.8 786.244 410.623 783.038C417.598 786.111 424.416 789.67 431.296 792.96Q448.063 800.799 464.692 808.928C475.164 814.106 502.349 829.246 513.133 830.646C513.746 828.796 514.457 826.276 516.083 825.1C521.862 820.92 534.708 816.242 541.701 812.887C549.501 809.145 557.081 804.942 564.843 801.12C573.676 796.77 648.11 761.171 651.037 758.248L650.51 756.738C651.749 755.195 655.057 753.775 656.826 752.861C668.215 746.973 680.072 741.907 691.575 736.222C702.927 730.611 714.221 724.181 725.85 719.218Z"/>
	<path fill="#1B220B" d="M607.153 797.254C616.236 799.912 625.323 802.247 634.505 804.517C631.194 806.489 627.309 807.579 623.808 809.223C619.231 811.371 599.785 822.396 595.925 821.131C595.809 821.093 595.708 821.02 595.6 820.965C599.443 813.061 603.101 805.054 607.153 797.254Z"/>
	<path fill="#1B220B" d="M732.922 736.667C741.461 739.969 749.887 742.221 758.703 744.574C752.604 748.47 745.517 751.232 739.043 754.512C733.656 757.242 728.134 760.766 722.543 762.965C720.859 763.628 719.409 763.98 717.599 763.987C722.175 754.696 727.656 745.584 732.922 736.667Z"/>
	<path fill="#736A6A" d="M181.499 670.293C188.498 673.509 195.272 677.299 202.136 680.797L239.739 699.68C251.027 705.239 269 711.651 278.529 718.803C283.329 722.406 285.897 728.743 289.344 733.506C278.23 737.86 267.365 742.703 256.458 747.548C236.677 735.336 214.047 727.167 193.26 716.834C188.062 705.314 185.25 691 180.164 680.57L181.472 679.49C182.039 676.676 181.453 673.237 181.499 670.293Z"/>
	<path fill="#736A6A" d="M725.85 719.218C733.325 715.019 741.487 711.657 749.196 707.88Q771.058 696.933 793.035 686.217L836.264 664.915C844.325 660.933 852.358 656.62 860.621 653.078L860.66 654.382C861.552 656.267 862.648 658.122 862.813 660.229L862.358 661.46C858.986 669.397 854.629 677.046 850.608 684.679C845.512 692.914 841.741 703.457 835.367 710.69C829.495 717.353 780.687 740.887 770.116 745.182C766.222 746.043 762.557 745.254 758.703 744.574C749.887 742.221 741.461 739.969 732.922 736.667C727.656 745.584 722.175 754.696 717.599 763.987C716.294 766.435 714.988 769.607 712.813 771.382C705.799 777.105 694.581 781.529 686.318 785.66C672.189 792.725 658.106 800.22 643.551 806.353C640.583 805.604 637.511 805.106 634.505 804.517C625.323 802.247 616.236 799.912 607.153 797.254C603.101 805.054 599.443 813.061 595.6 820.965C593.563 824.686 591.51 829.109 588.029 831.677C583.829 834.774 578.205 836.984 573.513 839.332L542.81 854.546C534.554 858.624 524.625 864.842 516.02 867.568C515.696 867.671 515.368 867.757 515.042 867.852C507.863 864.039 500.097 861.042 492.751 857.524C473.172 848.149 453.765 838.843 433.721 830.464C426.956 818.537 425.749 803.607 417.481 792.363C415.091 789.313 412.8 786.244 410.623 783.038C417.598 786.111 424.416 789.67 431.296 792.96Q448.063 800.799 464.692 808.928C475.164 814.106 502.349 829.246 513.133 830.646C513.746 828.796 514.457 826.276 516.083 825.1C521.862 820.92 534.708 816.242 541.701 812.887C549.501 809.145 557.081 804.942 564.843 801.12C573.676 796.77 648.11 761.171 651.037 758.248L650.51 756.738C651.749 755.195 655.057 753.775 656.826 752.861C668.215 746.973 680.072 741.907 691.575 736.222C702.927 730.611 714.221 724.181 725.85 719.218Z"/>
	<path d="M725.85 719.218C733.325 715.019 741.487 711.657 749.196 707.88Q771.058 696.933 793.035 686.217L836.264 664.915C844.325 660.933 852.358 656.62 860.621 653.078L860.66 654.382C846.424 661.881 730.86 720.957 726.663 720.461L725.85 719.218Z"/>
	<path fill="#CDCCCC" d="M612.283 784.747C610.817 789.023 608.975 793.123 607.153 797.254C603.101 805.054 599.443 813.061 595.6 820.965C593.563 824.686 591.51 829.109 588.029 831.677C583.829 834.774 578.205 836.984 573.513 839.332L542.81 854.546C534.554 858.624 524.625 864.842 516.02 867.568C515.696 867.671 515.368 867.757 515.042 867.852L514.457 832.026C526.825 825.568 539.821 820.211 552.352 814.047C572.303 804.232 591.945 793.75 612.283 784.747Z"/>
	<path fill="#CDCCCC" d="M770.184 706.159C780.155 700.746 857.116 660.541 862.358 661.46C858.986 669.397 854.629 677.046 850.608 684.679C845.512 692.914 841.741 703.457 835.367 710.69C829.495 717.353 780.687 740.887 770.116 745.182C770.702 732.267 770.236 719.093 770.184 706.159Z"/>
	<path fill="#CDCCCC" d="M643.481 768.533C648.837 765.615 654.743 763.444 660.259 760.789L693.032 744.643C708.459 737.21 723.327 729.001 739.129 722.33C737.193 727.18 735.095 731.922 732.922 736.667C727.656 745.584 722.175 754.696 717.599 763.987C716.294 766.435 714.988 769.607 712.813 771.382C705.799 777.105 694.581 781.529 686.318 785.66C672.189 792.725 658.106 800.22 643.551 806.353C643.224 793.737 643.454 781.151 643.481 768.533Z"/>
	<path fill="#736A6A" d="M517.937 724.134C525.069 719.561 533.745 716.147 541.346 712.313L582.543 691.19L722.48 621.24C761.679 601.4 799.864 579.357 839.76 560.912C845.798 558.12 851.876 553.672 858.164 551.7C857.229 554.194 857.7 556.45 857.235 558.946C856.963 562.505 855.929 567.516 856.695 570.946L856.933 571.2C869.503 577.789 883.897 583.244 894.933 592.254C895.717 593.201 896.203 593.918 896.393 595.184C897.116 599.992 896.69 605.335 896.663 610.209Q896.548 622.713 896.646 635.217C884.394 640.769 872.763 647.331 860.621 653.078C852.358 656.62 844.325 660.933 836.264 664.915L793.035 686.217Q771.058 696.933 749.196 707.88C741.487 711.657 733.325 715.019 725.85 719.218C714.221 724.181 702.927 730.611 691.575 736.222C680.072 741.907 668.215 746.973 656.826 752.861C655.057 753.775 651.749 755.195 650.51 756.738L651.037 758.248C648.11 761.171 573.676 796.77 564.843 801.12C557.081 804.942 549.501 809.145 541.701 812.887C534.708 816.242 521.862 820.92 516.083 825.1C514.457 826.276 513.746 828.796 513.133 830.646C502.349 829.246 475.164 814.106 464.692 808.928Q448.063 800.799 431.296 792.96C424.416 789.67 417.598 786.111 410.623 783.038C412.8 786.244 415.091 789.313 417.481 792.363C415.52 793.14 414.359 792.657 412.437 792.069C408.68 794.59 402.814 796.082 398.557 797.793Q388.975 801.596 379.664 806.022C364.287 797.256 346.835 789.663 330.745 782.154C324.448 779.216 317.412 776.685 311.49 773.104C309.622 771.975 308.208 770.956 307.053 769.063C300.661 758.583 300.894 745.034 294.743 734.575C293.62 732.665 292.802 731.926 290.647 731.376L289.344 733.506C285.897 728.743 283.329 722.406 278.529 718.803C269 711.651 251.027 705.239 239.739 699.68L202.136 680.797C195.272 677.299 188.498 673.509 181.499 670.293C176.806 668.097 173.199 664.663 168.806 662.074C156.286 654.697 142.266 648.474 130.575 639.805C128.769 630.032 129.77 615.494 129.668 605.228C129.63 601.391 129.946 596.945 129.016 593.222C128.794 592.81 128.686 592.223 128.553 591.77C130.196 587.32 164.676 572.949 171.392 569.603C169.462 567.02 167.392 564.501 165.963 561.599C167.181 560.552 167.722 559.665 169.467 559.811C174.491 560.23 213.812 581.384 221.747 585.3L410.468 678.411Q432.046 688.891 453.455 699.713C473.341 709.781 493.462 720.167 514.348 728.029L517.937 724.134Z"/>
	<path fill="#CDCCCC" d="M629.501 709.323C629.605 699.026 627.285 683.705 629.041 674.215C630.383 672.88 631.884 671.795 633.526 670.851C638.544 667.969 644.027 665.827 649.149 663.114C657.654 658.609 666.258 654.354 674.788 649.905C679.339 647.531 683.731 644.84 688.398 642.699C688.342 642.838 688.288 642.979 688.23 643.118L687.938 643.812C685.962 648.621 682.954 652.911 680.25 657.336C676.511 661.366 672.171 665.46 669.045 669.968C657.367 686.81 651.88 704.515 629.501 709.323Z"/>
	<path fill="#CDCCCC" d="M514.462 729.033C523.778 727.753 541.876 716.343 550.604 711.665C557.663 707.881 564.871 704.428 571.966 700.724C578.672 697.224 585.221 693.452 592.122 690.336C588.634 694.724 583.862 698.295 580.724 702.914C579.826 704.237 579.545 704.771 579.871 706.333C573.243 709.894 567.171 713.687 562.099 719.332C547.902 735.137 540.678 763.849 514.107 761.863C515.877 759.543 514.559 734.032 514.462 729.033Z"/>
	<path fill="#CDCCCC" d="M746.253 613.364C758.277 609.78 769.809 601.736 780.925 595.917L846.92 561.973C849.805 560.52 853.338 557.489 856.624 557.356L857.235 558.946C856.963 562.505 855.929 567.516 856.695 570.946L856.933 571.2C856.832 571.387 856.707 571.564 856.63 571.762C854.426 577.411 859.733 591.051 850.909 595.329C847.139 597.157 842 595.637 838.328 594.198C825.727 589.261 819.537 587.431 806.492 593.147C798.369 596.707 791.911 602.423 786.547 609.441C776.066 623.153 767.25 650.855 746.494 650.558C746.648 638.187 746.263 625.746 746.253 613.364Z"/>
	<path fill="#CDCCCC" d="M171.392 569.603C180.089 588.252 188.618 620.118 209.582 628.034C238.973 639.13 265.179 590.423 287.733 637.869C295.677 654.582 302.499 674.571 321.562 681.323C343.215 688.992 363.358 665.233 384.109 676.344C404.055 687.024 406.154 732.457 435.857 736.73C432.702 737.049 430.5 738.578 427.991 740.411C420.948 737.813 414.345 733.901 407.564 730.679L352.166 703.866Q239.751 650.238 129.016 593.222C128.794 592.81 128.686 592.223 128.553 591.77C130.196 587.32 164.676 572.949 171.392 569.603Z"/>
	<path fill="#FEFEF9" d="M856.933 571.2C869.503 577.789 883.897 583.244 894.933 592.254C891.7 595.518 870.291 605.197 864.13 608.291L793.279 643.86L611.881 735.016Q563.509 759.845 514.502 783.395C510.834 781.831 507.495 778.947 503.778 777.18C495.831 773.404 487.751 769.89 479.883 765.951C462.663 757.328 445.667 748.074 427.991 740.411C430.5 738.578 432.702 737.049 435.857 736.73C436.025 736.745 436.192 736.763 436.36 736.776C448.71 737.759 460.043 730.354 472.526 732.45C490.87 735.531 495.537 757.18 514.107 761.863C540.678 763.849 547.902 735.137 562.099 719.332C567.171 713.687 573.243 709.894 579.871 706.333C608.133 695.631 610.415 711.508 629.501 709.323C651.88 704.515 657.367 686.81 669.045 669.968C672.171 665.46 676.511 661.366 680.25 657.336C691.288 648.277 707.722 640.767 722.162 645.017C730.712 647.533 737.359 650.614 746.494 650.558C767.25 650.855 776.066 623.153 786.547 609.441C791.911 602.423 798.369 596.707 806.492 593.147C819.537 587.431 825.727 589.261 838.328 594.198C842 595.637 847.139 597.157 850.909 595.329C859.733 591.051 854.426 577.411 856.63 571.762C856.707 571.564 856.832 571.387 856.933 571.2Z"/>
	<path fill="#CDCCCC" d="M894.933 592.254C895.717 593.201 896.203 593.918 896.393 595.184C897.116 599.992 896.69 605.335 896.663 610.209Q896.548 622.713 896.646 635.217C884.394 640.769 872.763 647.331 860.621 653.078C852.358 656.62 844.325 660.933 836.264 664.915L793.035 686.217Q771.058 696.933 749.196 707.88C741.487 711.657 733.325 715.019 725.85 719.218C714.221 724.181 702.927 730.611 691.575 736.222C680.072 741.907 668.215 746.973 656.826 752.861C655.057 753.775 651.749 755.195 650.51 756.738C636.198 763.324 622.35 770.734 608.238 777.723Q574.299 794.681 540.053 811.012C531.621 815.123 523.559 819.943 515.007 823.803C514.243 819.079 514.614 813.957 514.613 809.181Q514.713 796.287 514.502 783.395Q563.51 759.845 611.881 735.016L793.279 643.86L864.13 608.291C870.291 605.197 891.7 595.518 894.933 592.254Z"/>
	<path fill="#736A6A" d="M129.016 593.222Q239.75 650.239 352.166 703.866L407.564 730.679C414.345 733.901 420.948 737.813 427.991 740.411C445.667 748.074 462.663 757.328 479.883 765.951C487.751 769.89 495.831 773.404 503.778 777.18C507.495 778.947 510.834 781.831 514.502 783.395Q514.713 796.287 514.613 809.181C514.614 813.957 514.243 819.079 515.007 823.803C523.559 819.943 531.621 815.123 540.053 811.012Q574.299 794.681 608.238 777.723C622.35 770.734 636.198 763.324 650.51 756.738L651.037 758.248C648.11 761.171 573.676 796.77 564.843 801.12C557.081 804.942 549.501 809.145 541.701 812.887C534.708 816.242 521.862 820.92 516.083 825.1C514.457 826.276 513.746 828.796 513.133 830.646C502.349 829.246 475.164 814.106 464.692 808.928Q448.063 800.799 431.296 792.96C424.416 789.67 417.598 786.111 410.623 783.038C412.8 786.244 415.091 789.313 417.481 792.363C415.52 793.14 414.359 792.657 412.437 792.069C408.68 794.59 402.814 796.082 398.557 797.793Q388.975 801.596 379.664 806.022C364.287 797.256 346.835 789.663 330.745 782.154C324.448 779.216 317.412 776.685 311.49 773.104C309.622 771.975 308.208 770.956 307.053 769.063C300.661 758.583 300.894 745.034 294.743 734.575C293.62 732.665 292.802 731.926 290.647 731.376L289.344 733.506C285.897 728.743 283.329 722.406 278.529 718.803C269 711.651 251.027 705.239 239.739 699.68L202.136 680.797C195.272 677.299 188.498 673.509 181.499 670.293C176.806 668.097 173.199 664.663 168.806 662.074C156.286 654.697 142.266 648.474 130.575 639.805C128.769 630.032 129.77 615.494 129.668 605.228C129.63 601.391 129.946 596.945 129.016 593.222Z"/>
	<path d="M130.575 639.805C138.909 641.985 147.484 647.62 155.2 651.57Q172.096 660.169 189.119 668.514L400.562 772.199Q428.055 785.599 455.308 799.481C470.887 807.343 486.812 815.684 503.018 822.098C507.022 823.683 510.713 825.081 515.007 823.803C523.559 819.943 531.621 815.123 540.053 811.012Q574.299 794.681 608.238 777.723C622.35 770.734 636.198 763.324 650.51 756.738L651.037 758.248C648.11 761.171 573.676 796.77 564.843 801.12C557.081 804.942 549.501 809.145 541.701 812.887C534.708 816.242 521.862 820.92 516.083 825.1C514.457 826.276 513.746 828.796 513.133 830.646C502.349 829.246 475.164 814.106 464.692 808.928Q448.063 800.799 431.296 792.96C424.416 789.67 417.598 786.111 410.623 783.038C412.8 786.244 415.091 789.313 417.481 792.363C415.52 793.14 414.359 792.657 412.437 792.069C409.678 787.307 406.805 782.393 402.225 779.141C396.192 774.859 388.8 771.946 382.108 768.816Q369.539 762.964 357.102 756.837C332.927 744.989 309.134 731.81 284.643 720.664C286.579 724.267 288.643 727.81 290.647 731.376L289.344 733.506C285.897 728.743 283.329 722.406 278.529 718.803C269 711.651 251.027 705.239 239.739 699.68L202.136 680.797C195.272 677.299 188.498 673.509 181.499 670.293C176.806 668.097 173.199 664.663 168.806 662.074C156.286 654.697 142.266 648.474 130.575 639.805Z"/>
	<path fill="#736A6A" d="M284.643 720.664C309.134 731.81 332.927 744.989 357.102 756.837Q369.539 762.964 382.108 768.816C388.8 771.946 396.192 774.859 402.225 779.141C406.805 782.393 409.678 787.307 412.437 792.069C408.68 794.59 402.814 796.082 398.557 797.793Q388.975 801.596 379.664 806.022C364.287 797.256 346.835 789.663 330.745 782.154C324.448 779.216 317.412 776.685 311.49 773.104C309.622 771.975 308.208 770.956 307.053 769.063C300.661 758.583 300.894 745.034 294.743 734.575C293.62 732.665 292.802 731.926 290.647 731.376C288.643 727.81 286.579 724.267 284.643 720.664Z"/>
	<path fill="#FEFEF9" d="M402.13 170.285C423.802 158.661 445.939 148.265 468.05 137.525C477.985 132.699 487.86 126.281 498.484 123.153C506.859 120.687 517.109 120.064 525.656 121.973C539.426 125.049 552.58 133.552 565.172 139.808C582.207 148.271 599.408 156.417 616.099 165.554L791.472 254.043L835.289 276.004C846.041 281.302 857.09 286.392 867.505 292.312C869.153 293.249 870.416 294.23 871.617 295.698C872.966 299.802 871.848 328.353 871.9 335.049L867.957 337.677C864.617 340.182 861.072 342.344 857.526 344.54L853.505 347.65C853.418 351.277 853.421 354.93 853.231 358.551C852.506 356.056 852.9 352.909 852.937 350.31C844.691 354.478 836.628 359.002 828.387 363.192L741.316 406.542C729.932 414.457 713.63 419.26 701.612 426.769C699.479 426.915 697.011 426.326 695.036 426.986C690.934 428.356 686.739 430.769 682.843 432.653C670.18 438.78 657.918 445.676 645.411 452.104C637.892 455.968 629.991 458.972 622.42 462.701C613.429 467.128 605.119 472.945 596.269 477.663C585.055 483.641 573.274 488.649 562.233 494.913C549.771 502.403 531.278 513.428 517.521 517.417L516.854 517.06C515.442 517.116 514.239 516.752 512.941 516.228C500.715 511.286 489.024 504.591 477.175 498.801Q440.593 481.318 404.341 463.159C404.869 448.606 404.586 433.983 404.644 419.418L403.861 418.455C397.425 413.552 384.656 408.365 377.071 404.372C346.693 388.38 315.77 373.43 285.314 357.566L285.155 357.615C280.543 354.533 275.015 352.251 270.039 349.759C259.197 344.331 248.368 338.966 237.364 333.871C218.492 325.133 199.85 315.808 181.102 306.806C172.049 302.459 161.816 298.744 153.469 293.221L200.32 270.243C223.488 258.631 246.539 246.628 270.018 235.661Q287.778 227.374 305.391 218.779C314.633 212.578 326.166 208.171 336.154 203.195C353.059 194.774 369.847 185.244 387.338 178.155C392.32 175.651 397.211 172.912 402.13 170.285Z"/>
	<path fill="#FEB680" d="M627.653 287.605C634.724 286.632 639.484 289.707 645.007 293.581C641.41 295.858 637.766 297.708 633.859 299.397C628.096 300.593 621.761 296.188 617.11 293.314C620.522 291.013 623.865 289.207 627.653 287.605Z"/>
	<path fill="#FEB680" d="M511.506 349.653C517.665 350.315 521.65 352.404 526.712 355.818C522.553 359.197 518.607 360.98 513.471 362.377C510.104 361.896 506.174 361.625 503.113 360.07C501.327 359.163 500.286 358.227 499.668 356.258C499.756 355.359 499.826 354.727 500.413 353.985C502.814 350.951 507.945 350.376 511.506 349.653Z"/>
	<path fill="#FEB680" d="M393.017 286.541C396.455 286.372 400.18 286.55 403.427 287.803C405.923 288.766 407.671 289.984 408.712 292.478C408.672 293.364 408.782 293.915 408.302 294.701C406.47 297.702 401.958 298.334 398.788 299.09C391.82 298.588 386.564 296.878 381.162 292.494C385.113 290.305 388.815 288.246 393.017 286.541Z"/>
	<path fill="#FEB680" d="M511.005 225.645C514.179 225.358 517.329 225.479 520.349 226.604C522.41 227.371 525.833 229.311 526.476 231.632C526.817 232.861 526.826 233.831 526.01 234.879C524.452 236.878 520.41 237.179 518.125 237.506C514.035 237.61 510.222 237.629 506.311 236.168C503.789 235.226 501.67 233.86 500.514 231.38C500.555 230.484 500.403 229.996 500.977 229.249C503.125 226.455 507.776 226.166 511.005 225.645Z"/>
	<path fill="#FEB680" d="M664.251 310.521C661.619 307.478 659.361 304.16 658.427 300.191Q658.24 299.4 658.135 298.594Q658.029 297.789 658.006 296.976Q657.983 296.164 658.043 295.354Q658.103 294.543 658.244 293.743Q658.386 292.943 658.608 292.161Q658.83 291.38 659.131 290.625Q659.432 289.87 659.807 289.149Q660.183 288.429 660.63 287.75C662.564 284.807 665.665 282.539 668.603 280.657C677.01 275.272 686.122 271.551 695.045 267.17C706.028 261.777 716.849 255.854 728.258 251.398C733.462 249.366 738.633 247.961 744.064 246.731C743.712 251.863 742.24 269.956 743.957 273.695C728.782 275.396 679.353 301.7 664.251 310.521Z"/>
	<path fill="#FEB680" d="M551.659 250.623C547.304 246.596 543.327 242.067 543.049 235.805C542.879 231.967 544.338 227.953 547.034 225.194C555.012 217.028 605.858 192.63 618.685 188.818C623.738 187.316 628.8 187.03 634.04 186.915Q633.787 200.391 633.975 213.869C614.691 215.46 569.692 238.78 552.774 250.043C552.19 250.432 552.416 250.289 551.659 250.623Z"/>
	<path fill="#FA724A" d="M398.063 308.953C404.024 309.38 409.343 310.118 414.978 312.168C425.141 315.865 433.973 321.774 443.49 326.739C453.075 331.739 463.349 335.913 472.527 341.618C475.513 343.475 478.377 345.577 480.69 348.251C483.539 351.545 485.327 355.587 484.934 360.005C484.501 364.866 481.716 368.888 477.953 371.836C477.255 372.383 476.574 372.808 475.791 373.215C467.009 368.303 457.467 364.415 448.436 359.922C435.249 353.361 411.427 339.027 398.074 336.744Q397.891 322.848 398.063 308.953Z"/>
	<path fill="#FA724A" d="M634.04 186.915C639.762 187.791 645.255 189.013 650.674 191.085C662.882 195.754 674.313 202.409 685.983 208.229C696.987 213.718 708.605 218.559 719.17 224.839C721.881 226.45 725.157 228.532 727.104 231.035C728.144 232.373 728.056 233.529 727.777 235.144C727.015 239.553 722.698 243.006 719.136 245.278C715.89 247.348 712.436 249.093 708.996 250.813C697.005 243.402 683.951 237.435 671.268 231.298C658.942 225.333 646.632 219.097 633.975 213.869Q633.787 200.391 634.04 186.915Z"/>
	<path fill="#FA724A" d="M744.064 246.731C749.513 246.393 754.376 246.618 759.621 248.284C773.826 252.794 787.451 261.214 800.751 267.888C809.892 272.475 830.113 281.422 837.291 287.339C839.663 289.294 841.271 291.921 841.459 295C841.532 296.203 841.449 297.415 841.366 298.616C836.854 305.964 831.072 309.021 823.345 312.17C813.882 304.179 800.295 299.673 789.168 294.256C774.429 287.081 759.801 278.243 743.957 273.695C742.24 269.956 743.712 251.863 744.064 246.731Z"/>
	<path fill="#FECD98" d="M633.975 213.869C646.632 219.097 658.942 225.333 671.268 231.298C683.951 237.435 697.005 243.402 708.996 250.813C701.512 255.546 693.59 259.007 685.571 262.712C670.271 269.783 654.681 277.315 637.737 279.282C614.205 282.015 592.345 272.01 571.764 261.903C565.063 258.612 557.524 255.272 551.659 250.623C552.416 250.289 552.19 250.432 552.774 250.043C569.692 238.78 614.691 215.46 633.975 213.869Z"/>
	<path fill="#FA724A" d="M305.391 218.779C314.633 212.578 326.166 208.171 336.154 203.195C353.059 194.774 369.847 185.244 387.338 178.155C394.121 182.709 403.144 184.669 410.689 187.687C424.057 193.034 471.899 213.497 480.015 223.291C483.031 225.98 485.58 230.031 485.792 234.146C486.038 238.9 483.834 243.204 480.679 246.638C478.827 248.653 476.785 250.547 474.773 252.402C468.539 246.259 416.409 220.686 405.119 216.08C402.649 215.073 400.222 214.438 397.608 213.938C392.865 214.603 388.532 215.492 384.044 217.182C373.109 221.298 362.601 227.454 352.105 232.598C341.042 238.019 324.738 243.98 315.358 251.456C309.777 248.257 303.816 244.716 300.833 238.74C296.024 229.108 303.212 226.336 305.276 219.34C305.33 219.157 305.353 218.966 305.391 218.779Z"/>
	<path fill="#9A2838" d="M397.498 185.807C411.474 188.653 425.057 196.585 437.671 203.068Q450.662 209.695 463.789 216.049C469.025 218.578 474.46 221.57 480.015 223.291C483.031 225.98 485.58 230.031 485.792 234.146C486.038 238.9 483.834 243.204 480.679 246.638C478.827 248.653 476.785 250.547 474.773 252.402C468.539 246.259 416.409 220.686 405.119 216.08C402.649 215.073 400.222 214.438 397.608 213.938C397.149 204.526 397.568 195.211 397.498 185.807Z"/>
	<path fill="#FECD98" d="M397.608 213.938C400.222 214.438 402.649 215.073 405.119 216.08C416.409 220.686 468.539 246.259 474.773 252.402C465.362 260.893 432.142 275.175 419.619 277.941C399.692 282.341 376.191 280.401 357.199 272.839C351.424 270.54 345.915 267.001 340.301 264.292C331.864 260.221 323.271 256.512 315.358 251.456C324.738 243.98 341.042 238.019 352.105 232.598C362.601 227.454 373.109 221.298 384.044 217.182C388.532 215.492 392.865 214.603 397.608 213.938Z"/>
	<path fill="#FECD98" d="M664.251 310.521C679.353 301.7 728.782 275.396 743.957 273.695C759.801 278.243 774.429 287.081 789.168 294.256C800.295 299.673 813.882 304.179 823.345 312.17C818.152 315.156 815.897 319.193 813.281 324.405L813.502 325.318C808.805 328.444 803.254 330.79 798.188 333.284L769.986 347.092C763.425 350.379 753.926 357.153 747.269 358.701C746.427 358.42 746.326 358.513 745.757 357.773C745.283 356.161 744.648 355.377 743.36 354.329C736.837 349.02 728.4 345.411 720.902 341.656C706.242 334.314 690.975 327.484 676.675 319.499C672.308 317.06 668.237 313.549 664.251 310.521Z"/>
	<path fill="#FECD98" d="M285.508 357.171C293.244 356.743 296.625 350.192 302.859 346.877C319.408 338.076 336.889 330.393 354.01 322.75C363.146 318.671 372.168 313.982 381.799 311.161C387.25 309.565 392.399 309.049 398.063 308.953Q397.891 322.849 398.074 336.744C411.427 339.027 435.249 353.361 448.436 359.922C457.467 364.415 467.009 368.303 475.791 373.215C469.601 376.984 458.125 384.116 451.879 386.69C445.31 391.459 439.057 395.993 433.36 401.817C435.581 400.65 437.535 399.415 440.096 399.278C436.131 403.036 408.567 417.648 403.861 418.455C397.425 413.552 384.656 408.365 377.071 404.372C346.693 388.38 315.77 373.43 285.314 357.566L285.508 357.171Z"/>
	<path fill="#FEB680" d="M285.508 357.171C293.244 356.743 296.625 350.192 302.859 346.877C319.408 338.076 336.889 330.393 354.01 322.75C363.146 318.671 372.168 313.982 381.799 311.161C387.25 309.565 392.399 309.049 398.063 308.953Q397.891 322.849 398.074 336.744C394.063 336.925 389.516 336.807 385.63 337.781C373.339 340.863 334.598 359.677 325.251 367.445C332.531 374.17 342.781 377.498 351.632 381.742C367.759 389.475 389.96 403.173 408.18 402.767C419.903 402.506 445.548 384.384 451.879 386.69C445.31 391.459 439.057 395.993 433.36 401.817C435.581 400.65 437.535 399.415 440.096 399.278C436.131 403.036 408.567 417.648 403.861 418.455C397.425 413.552 384.656 408.365 377.071 404.372C346.693 388.38 315.77 373.43 285.314 357.566L285.508 357.171Z"/>
	<path fill="#FA724A" d="M592.741 312.686Q580.273 318.704 567.901 324.916C550.267 333.854 532.95 343.313 512.511 342.159C505.6 341.769 499.023 340.363 492.438 338.264C478.561 333.84 439.104 316.446 429.87 305.816C427.047 302.567 426.003 298.457 426.425 294.209C426.954 288.878 429.867 285.304 433.933 282.048C442.459 275.221 487.622 253.055 498.3 250.275C506.557 248.125 515.466 247.692 523.932 248.657C529.828 249.329 535.411 251.047 540.926 253.189C549.821 256.644 558.159 261.493 566.716 265.698C575.129 269.832 584.114 273.458 592.077 278.396C595.031 280.229 597.655 282.166 599.824 284.923C602.416 287.261 604.481 291.399 604.558 294.897C604.669 299.966 602.238 304.479 598.785 308.048C596.999 309.894 594.925 311.356 592.741 312.686Z"/>
	<path fill="#9A2838" d="M513.949 249.683C519.813 250.012 525.596 250.277 531.251 251.991C542.591 255.427 552.911 262.278 563.355 267.764C575.16 273.965 587.539 279.753 599.824 284.923C602.416 287.261 604.481 291.399 604.558 294.897C604.669 299.966 602.238 304.479 598.785 308.048C596.999 309.894 594.925 311.356 592.741 312.686C582.239 305.128 571.191 300.397 559.779 294.588C545.052 287.092 530.064 278.132 513.969 274.062C514.298 265.934 514.428 257.807 513.949 249.683Z"/>
	<path fill="#FA724A" d="M402.13 170.285C423.802 158.661 445.939 148.265 468.05 137.525C477.985 132.699 487.86 126.281 498.484 123.153C506.859 120.687 517.109 120.064 525.656 121.973C539.426 125.049 552.58 133.552 565.172 139.808C582.207 148.271 599.408 156.417 616.099 165.554C614.253 166.563 612.485 167.31 611.325 169.141C611.126 170.112 611.004 170.863 611.114 171.852C611.841 175.6 611.992 178.3 609.686 181.546C605.702 187.156 597.448 190.098 591.369 192.896C575.528 199.904 552.644 212.263 536.373 215.413C528.049 217.024 519.439 217.012 510.991 217.156C500.316 217.339 490.662 217.011 480.528 213.317C469.408 209.263 427.133 189.121 418.572 182.246C415.611 179.869 414.269 177.715 412.692 174.35C409.059 173.191 405.485 172.128 402.13 170.285Z"/>
	<path fill="#9A2838" d="M512.04 129.938C517.831 130.33 523.514 130.702 529.126 132.316C540.295 135.528 550.659 141.737 560.986 146.951L592.757 162.647C598.742 165.648 604.591 170.162 611.114 171.852C611.841 175.6 611.992 178.3 609.686 181.546C605.702 187.156 597.448 190.098 591.369 192.896C580.167 185.054 567.006 179.407 554.872 173.148C545.286 168.203 535.936 162.607 525.885 158.629C521.247 156.794 517.003 155.611 512.037 155.105C511.811 146.686 511.844 138.361 512.04 129.938Z"/>
	<path fill="#FA724A" d="M153.469 293.221L200.32 270.243C223.488 258.631 246.539 246.628 270.018 235.661C289.865 246.054 310.452 255.176 330.646 264.886C340.637 269.689 351.74 274.267 360.805 280.635C364.41 283.168 368.39 286.581 369.698 290.926C369.902 291.607 370.025 292.294 370.154 292.992C370.551 298.162 370.002 302.701 366.533 306.852C364.767 308.965 362.23 310.878 359.81 312.18C342.596 323.367 323.738 331.835 305.208 340.581C298.641 343.681 291.919 346.517 285.541 349.995L285.508 357.171L285.314 357.566L285.155 357.615C280.543 354.533 275.015 352.251 270.039 349.759C259.197 344.331 248.368 338.966 237.364 333.871C218.492 325.133 199.85 315.808 181.102 306.806C172.049 302.459 161.816 298.744 153.469 293.221Z"/>
	<path fill="#9A2838" d="M278.514 242.957C284.13 245.138 289.691 248.056 295.125 250.669Q314.149 260.012 333.073 269.556C341.74 273.866 351.646 277.279 359.719 282.573C363.956 285.352 366.729 289.393 370.154 292.992C370.551 298.162 370.002 302.701 366.533 306.852C364.767 308.965 362.23 310.878 359.81 312.18C357.347 309.021 354.345 306.996 350.947 304.965C341.136 299.1 330.024 294.567 319.683 289.698Q299.027 279.837 278.7 269.316C277.741 260.583 278.282 251.72 278.514 242.957Z"/>
	<path fill="#FA724A" d="M871.617 295.698C872.966 299.802 871.848 328.353 871.9 335.049L867.957 337.677C864.617 340.182 861.072 342.344 857.526 344.54L853.505 347.65C853.418 351.277 853.421 354.93 853.231 358.551C852.506 356.056 852.9 352.909 852.937 350.31C844.691 354.478 836.628 359.002 828.387 363.192L741.316 406.542C729.932 414.457 713.63 419.26 701.612 426.769C699.479 426.915 697.011 426.326 695.036 426.986C690.934 428.356 686.739 430.769 682.843 432.653C670.18 438.78 657.918 445.676 645.411 452.104C637.892 455.968 629.991 458.972 622.42 462.701C613.429 467.128 605.119 472.945 596.269 477.663C585.055 483.641 573.274 488.649 562.233 494.913C549.771 502.403 531.278 513.428 517.521 517.417L516.854 517.06C515.442 517.116 514.239 516.752 512.941 516.228C500.715 511.286 489.024 504.591 477.175 498.801Q440.593 481.318 404.341 463.159C404.869 448.606 404.586 433.983 404.644 419.418L403.861 418.455C408.567 417.648 436.131 403.036 440.096 399.278C444.879 398.002 449.969 395.128 454.452 392.98C476.14 382.585 500.189 365.902 525.42 371.356C536.549 373.761 545.714 380.934 556.167 383.574C556.37 383.625 556.575 383.668 556.779 383.716C550.875 380.256 544.48 375.845 541.793 369.285C539.678 364.122 539.707 357.608 541.981 352.507C543.561 348.963 546.343 346.161 549.458 343.922C560.796 335.774 575.093 330.719 587.606 324.603C595.995 320.503 604.077 315.569 612.763 312.119C622.87 308.105 634.288 308.235 644.761 310.735C655.546 313.309 665.671 318.921 675.635 323.657C699.103 334.81 721.945 347.361 745.757 357.773C746.326 358.513 746.427 358.42 747.269 358.701C753.926 357.153 763.425 350.379 769.986 347.092L798.188 333.284C803.254 330.79 808.805 328.444 813.502 325.318C825.451 318.721 837.776 312.492 850.049 306.524C856.46 303.406 866.105 299.851 871.617 295.698Z"/>
	<path fill="#1B220B" d="M561.441 493.094C566.472 489.425 573.325 486.813 578.941 483.997C588.278 479.314 597.539 474.42 606.809 469.603Q676.49 433.072 747.168 398.509C751.795 396.195 756.165 393.392 760.77 391.04L823.364 359.24C837.69 351.844 852.78 343.031 867.957 337.677C864.617 340.182 861.072 342.344 857.526 344.54L853.505 347.65C853.418 351.277 853.421 354.93 853.231 358.551C852.506 356.056 852.9 352.909 852.937 350.31C844.691 354.478 836.628 359.002 828.387 363.192L741.316 406.542C729.932 414.457 713.63 419.26 701.612 426.769C699.479 426.915 697.011 426.326 695.036 426.986C690.934 428.356 686.739 430.769 682.843 432.653C670.18 438.78 657.918 445.676 645.411 452.104C637.892 455.968 629.991 458.972 622.42 462.701C613.429 467.128 605.119 472.945 596.269 477.663C585.055 483.641 573.274 488.649 562.233 494.913C549.771 502.403 531.278 513.428 517.521 517.417L516.854 517.06L517.407 516.246C532.538 509.917 546.648 500.312 561.441 493.094Z"/>
	<path d="M741.177 403.236L741.316 406.542C729.932 414.457 713.63 419.26 701.612 426.769L697.945 426.405L698.032 426.934L698.31 425.51C701.067 422.767 734.808 406.596 741.177 403.236Z"/>
	<path fill="#736A6A" d="M741.177 403.236C741.314 403.056 741.425 402.854 741.587 402.696C743.985 400.351 761.851 392.339 765.97 390.231L814.485 365.517C825.531 359.855 836.373 353.892 847.572 348.518C850.448 347.138 854.336 344.732 857.526 344.54L853.505 347.65C853.418 351.277 853.421 354.93 853.231 358.551C852.506 356.056 852.9 352.909 852.937 350.31C844.691 354.478 836.628 359.002 828.387 363.192L741.316 406.542L741.177 403.236Z"/>
	<path fill="#9A2838" d="M515.908 372.931Q519.663 373.077 523.354 373.784Q527.044 374.492 530.587 375.745C542.311 379.965 553.144 386.72 564.231 392.33C574.147 397.348 585.888 402.044 595.013 408.199C599.244 411.053 600.658 413.756 601.572 418.59C599.962 421.536 598.139 424.072 596.041 426.69C594.195 428.754 591.424 429.858 588.987 431.081C582.575 429.482 575.942 425.742 570.015 422.795C561.547 418.584 553.065 414.38 544.661 410.042C535.071 405.092 526.178 399.953 515.739 396.85C515.178 389.13 514.783 380.594 515.908 372.931Z"/>
	<path fill="#9A2838" d="M633.839 311.695L634.444 311.645C638.71 311.321 643.152 311.764 647.205 313.204C651.535 314.743 655.597 317.547 659.744 319.551L698.909 338.882C705.892 342.364 717.589 346.617 722.961 351.966C723.997 352.999 724.319 354.899 724.262 356.321C724.112 360.036 721.822 363.041 719.168 365.424C716.27 367.745 713.089 369.504 709.709 371.011C701.379 367.758 693.634 363.256 685.709 359.146Q669.771 350.83 653.396 343.411C647 340.529 640.417 337.387 633.497 336.044C633.562 327.89 633.071 319.842 633.839 311.695Z"/>
	<path fill="#9A2838" d="M404.644 419.418C416.794 428.314 431.489 434.763 444.94 441.549L517.443 477.462C516.95 485.163 515.269 510.053 517.407 516.246L516.854 517.06C515.442 517.116 514.239 516.752 512.941 516.228C500.715 511.286 489.024 504.591 477.175 498.801Q440.593 481.318 404.341 463.159C404.869 448.606 404.586 433.983 404.644 419.418Z"/>
	<path fill="#736A6A" d="M153.451 338.061C153.99 330.669 152.212 296.684 153.469 293.221C161.816 298.744 172.049 302.459 181.102 306.806C199.85 315.808 218.492 325.133 237.364 333.871C248.368 338.966 259.197 344.331 270.039 349.759C275.015 352.251 280.543 354.533 285.155 357.615L285.314 357.566C315.77 373.43 346.693 388.38 377.071 404.372C384.656 408.365 397.425 413.552 403.861 418.455L404.644 419.418C404.586 433.983 404.869 448.606 404.341 463.159Q440.593 481.318 477.175 498.801C489.024 504.591 500.715 511.286 512.941 516.228C514.239 516.752 515.442 517.116 516.854 517.06L517.521 517.417C531.278 513.428 549.771 502.403 562.233 494.913C573.274 488.649 585.055 483.641 596.269 477.663C605.119 472.945 613.429 467.128 622.42 462.701C629.991 458.972 637.892 455.968 645.411 452.104C657.918 445.676 670.18 438.78 682.843 432.653C686.739 430.769 690.934 428.356 695.036 426.986C697.011 426.326 699.479 426.915 701.612 426.769C713.63 419.26 729.932 414.457 741.316 406.542L828.387 363.192C836.628 359.002 844.691 354.478 852.937 350.31C852.9 352.909 852.506 356.056 853.231 358.551L853.894 359.555C867.166 367.178 882.208 372.531 894.62 381.522C896.927 390.966 895.498 413.584 895.638 424.508C885.649 430.766 872.76 433.392 863.537 440.647C862.553 441.759 861.479 443.258 860.352 444.193C858.422 445.663 857.223 446.451 856.481 448.816C856.598 456.952 856.002 465.383 853.146 473.075C857.893 476.601 863.885 479.245 869.108 482.022C877.869 486.68 886.593 491.459 895.473 495.881C895.489 502.771 896.538 527.072 894.833 532.231C894.43 532.574 894.004 533.037 893.523 533.256C890.228 535.471 886.545 537.208 883.054 539.101C874.78 543.588 866.732 547.761 858.164 551.7C851.876 553.672 845.798 558.12 839.76 560.912C799.864 579.357 761.679 601.4 722.48 621.24L582.543 691.19L541.346 712.313C533.745 716.147 525.069 719.561 517.937 724.134L514.348 728.029C493.462 720.167 473.341 709.781 453.455 699.713Q432.046 688.891 410.468 678.411L221.747 585.3C213.812 581.384 174.491 560.23 169.467 559.811C167.722 559.665 167.181 560.552 165.963 561.599C158.548 549.635 143.38 546.239 132.327 538.899C130.222 537.501 129.818 536.662 129.335 534.279C131.102 521.055 127.339 502.583 130.164 489.809C135.073 486.593 140.787 484.216 146.053 481.628C155.1 477.181 164.119 472.563 173.459 468.757C173.044 467.427 171.492 465.786 170.718 464.497C169.253 462.056 168.323 459.713 167.507 456.995C163.785 448.543 155.466 444.992 147.975 440.523C146.139 439.427 144.155 438.438 142.718 436.831L143.277 436.247C144.767 436.01 145.936 436.343 147.345 435.703C136.846 425.144 144.471 403.668 140.193 390.097C139.917 389.991 139.638 389.89 139.365 389.777C136.172 388.461 128.129 384.922 126.817 381.801C129.303 377.43 164.963 361.33 171.919 358.235C171.539 356.146 170.054 353.924 169.087 352.015C166.456 350.853 157.18 345.191 155.156 343.284C153.461 341.687 153.433 340.242 153.451 338.061Z"/>
	<path d="M718.851 511.329C717.918 514.26 714.256 515.97 711.67 517.297C701.669 522.426 691.423 527.087 681.428 532.232C674.992 535.545 668.272 540.182 661.427 542.511C660.067 542.974 658.865 542.752 657.483 542.752C656.991 542.752 656.5 542.8 656.009 542.836C670.159 534.956 684.755 527.913 699.326 520.854C705.86 517.688 712.173 514.208 718.851 511.329Z"/>
	<path d="M167.507 456.995C163.785 448.543 155.466 444.992 147.975 440.523C146.139 439.427 144.155 438.438 142.718 436.831L143.277 436.247C172.096 452.644 202.4 466.866 232.046 481.707Q307.621 520.152 384.2 556.557Q427.394 577.303 470.268 598.705C482.342 604.699 494.126 611.437 506.402 616.986C508.381 616.132 510.481 614.989 512.526 614.357C527.533 607.625 541.991 599.96 556.724 592.674Q600.368 571.379 643.543 549.146C644.317 550.596 644.64 551.484 644.246 553.111C641.765 555.497 638.218 555.573 635.217 556.954C631.173 558.814 627.339 561.396 623.277 563.347C616.854 566.432 610.18 568.977 603.764 572.072C580.725 583.188 557.793 594.774 534.919 606.239C524.7 611.362 514.554 617.507 503.997 621.811Q390.166 566.931 276.962 510.77L197.204 470.958C187.566 466.226 178.037 459.421 167.507 456.995Z"/>
	<path fill="#CDCCCC" d="M513.02 622.994C515.055 620.599 517.96 619.105 520.668 617.592C529.112 612.873 537.954 608.835 546.634 604.576L581.292 587.523C593.333 581.699 605.169 575.007 617.46 569.765C614.236 574.099 610.802 578.287 607.442 582.516C600.463 593.262 595.069 603.877 590.932 616.043C585.611 618.19 580.491 621.008 575.358 623.572C562.24 630.124 549.427 637.202 536.32 643.763C528.096 647.88 520.186 652.32 511.11 654.249C511.393 643.821 511.386 633.319 513.02 622.994Z"/>
	<path fill="#CDCCCC" d="M775.808 523.118C770.802 517.12 764.321 507.56 764.991 499.324C765.029 498.864 765.177 497.904 765.397 497.517C767.395 493.994 845.005 458.199 856.138 449.107C856.254 449.012 856.367 448.913 856.481 448.816C856.598 456.952 856.002 465.383 853.146 473.075C851.853 474.733 851.304 476.576 850.617 478.533C841.674 490.708 831.053 499.918 818.101 507.685C814.012 510.137 808.368 512.411 805.112 515.893C797.889 519.369 790.976 522.11 783.142 523.88Q779.482 523.431 775.808 523.118Z"/>
	<path fill="#CDCCCC" d="M644.731 555.017C660.29 550.268 674.897 540.633 689.228 533.046C705.977 524.179 722.983 515.829 739.777 507.048C740.173 511.923 740.43 516.655 739.88 521.53C734.343 523.008 731.371 525.668 728.48 530.629C723.565 539.066 721.201 549.138 714.728 556.636C713.354 558.229 711.698 559.388 709.895 560.443C703.207 564.355 695.752 567.27 688.797 570.699C676.058 576.98 662.872 585.215 649.087 588.898Q647.137 589.427 645.148 589.779C642.962 580.248 644.452 564.828 644.731 555.017Z"/>
	<path fill="#736A6A" d="M140.193 390.097C147.141 391.544 156.04 397.186 162.578 400.374Q189.047 413.152 215.29 426.387L388.418 512.881C396.823 516.993 404.923 521.667 413.07 526.26C416.372 528.121 420.405 531.023 423.944 532.191C445.01 543.951 466.599 554.528 488.334 564.976C495.881 568.604 503.513 573.083 511.217 576.258C514.466 588.154 511.761 602.061 512.526 614.357C510.481 614.989 508.381 616.132 506.402 616.986C494.126 611.437 482.342 604.699 470.268 598.705Q427.394 577.303 384.2 556.557Q307.621 520.152 232.046 481.707C202.4 466.866 172.096 452.644 143.277 436.247C144.767 436.01 145.936 436.343 147.345 435.703C136.846 425.144 144.471 403.668 140.193 390.097Z"/>
	<path fill="#CDCCCC" d="M741.316 406.542L828.387 363.192C836.628 359.002 844.691 354.478 852.937 350.31C852.9 352.909 852.506 356.056 853.231 358.551L853.894 359.555C867.166 367.178 882.208 372.531 894.62 381.522C896.927 390.966 895.498 413.584 895.638 424.508C885.649 430.766 872.76 433.392 863.537 440.647C862.553 441.759 861.479 443.258 860.352 444.193C853.303 446.804 846.458 450.528 839.613 453.678Q808.153 468.452 777.298 484.451C764.754 491.02 751.963 498.575 738.652 503.461C737.466 503.896 736.509 504.065 735.324 503.49C735.18 503.421 735.048 503.328 734.91 503.247C730.026 505.289 722.574 507.623 718.851 511.329C712.173 514.208 705.86 517.688 699.326 520.854C684.755 527.913 670.159 534.956 656.009 542.836C652.022 544.607 646.853 546.321 643.543 549.146Q600.368 571.378 556.724 592.674C541.991 599.96 527.533 607.625 512.526 614.357C511.761 602.061 514.466 588.154 511.217 576.258C503.513 573.083 495.881 568.604 488.334 564.976C466.599 554.528 445.01 543.951 423.944 532.191C428.066 531.907 432.003 533.078 436.142 532.58C450.265 534.099 466.026 527.424 477.229 530.398C492.636 534.489 496.263 555.112 513.384 556.621C537.175 547.752 542.356 523.946 560.221 508.902C567.197 503.026 575.151 499.62 583.482 496.18C600.78 492.94 612.618 507.588 630.425 500.396C646.693 495.511 655.628 484.61 663.52 470.327C666.757 464.469 669.935 458.537 674.4 453.497C679.886 447.305 686.518 443.074 693.991 439.677C709.967 436.087 725.453 436.804 741.05 441.911C742.81 436.744 741.595 413.242 741.316 406.542Z"/>
	<path d="M734.91 503.247C740.231 500.38 745.764 498.005 751.187 495.35C755.88 493.053 760.387 490.38 765.152 488.226C772.828 484.757 780.592 481.666 788.166 477.945C813.316 465.589 837.951 452.087 863.537 440.647C862.553 441.759 861.479 443.258 860.352 444.193C853.303 446.804 846.458 450.528 839.613 453.678Q808.153 468.452 777.298 484.451C764.754 491.02 751.963 498.575 738.652 503.461C737.466 503.896 736.509 504.065 735.324 503.49C735.18 503.421 735.048 503.328 734.91 503.247Z"/>
	<path fill="#FEFEF9" d="M741.316 406.542L828.387 363.192C836.628 359.002 844.691 354.478 852.937 350.31C852.9 352.909 852.506 356.056 853.231 358.551L853.894 359.555C867.166 367.178 882.208 372.531 894.62 381.522C886.564 386.622 877.366 390.269 868.861 394.634L810.196 424.831L587.486 537.41C567.231 547.686 547.1 557.953 527.053 568.628C521.93 571.356 516.114 573.19 511.217 576.258C503.513 573.083 495.881 568.604 488.334 564.976C466.599 554.528 445.01 543.951 423.944 532.191C428.066 531.907 432.003 533.078 436.142 532.58C450.265 534.099 466.026 527.424 477.229 530.398C492.636 534.489 496.263 555.112 513.384 556.621C537.175 547.752 542.356 523.946 560.221 508.902C567.197 503.026 575.151 499.62 583.482 496.18C600.78 492.94 612.618 507.588 630.425 500.396C646.693 495.511 655.628 484.61 663.52 470.327C666.757 464.469 669.935 458.537 674.4 453.497C679.886 447.305 686.518 443.074 693.991 439.677C709.967 436.087 725.453 436.804 741.05 441.911C742.81 436.744 741.595 413.242 741.316 406.542Z"/>
	<path fill="#CDCCCC" d="M741.316 406.542L828.387 363.192C836.628 359.002 844.691 354.478 852.937 350.31C852.9 352.909 852.506 356.056 853.231 358.551L853.894 359.555C849.753 364.644 858.041 384.109 846.395 385.455C840.959 386.083 835.132 382.258 829.9 381.069C815.573 377.814 796.227 384.944 786.81 395.892C774.899 409.739 774.029 427.941 756.228 437.523C752.327 439.622 747.562 441.395 743.137 441.863Q742.096 441.974 741.05 441.911C742.81 436.744 741.595 413.242 741.316 406.542Z"/>
	<path fill="#736A6A" d="M153.451 338.061C153.99 330.669 152.212 296.684 153.469 293.221C161.816 298.744 172.049 302.459 181.102 306.806C199.85 315.808 218.492 325.133 237.364 333.871C248.368 338.966 259.197 344.331 270.039 349.759C275.015 352.251 280.543 354.533 285.155 357.615L285.314 357.566C315.77 373.43 346.693 388.38 377.071 404.372C384.656 408.365 397.425 413.552 403.861 418.455L404.644 419.418C404.586 433.983 404.869 448.606 404.341 463.159Q440.593 481.318 477.175 498.801C489.024 504.591 500.715 511.286 512.941 516.228C514.239 516.752 515.442 517.116 516.854 517.06L517.521 517.417C531.278 513.428 549.771 502.403 562.233 494.913C573.274 488.649 585.055 483.641 596.269 477.663C605.119 472.945 613.429 467.128 622.42 462.701C629.991 458.972 637.892 455.968 645.411 452.104C657.918 445.676 670.18 438.78 682.843 432.653C686.739 430.769 690.934 428.356 695.036 426.986C697.011 426.326 699.479 426.915 701.612 426.769C713.63 419.26 729.932 414.457 741.316 406.542C741.595 413.242 742.81 436.744 741.05 441.911C725.453 436.804 709.967 436.087 693.991 439.677C686.518 443.074 679.886 447.305 674.4 453.497C669.935 458.537 666.757 464.469 663.52 470.327C655.628 484.61 646.693 495.511 630.425 500.396C612.618 507.588 600.78 492.94 583.482 496.18C575.151 499.62 567.197 503.026 560.221 508.902C542.356 523.946 537.175 547.752 513.384 556.621C496.263 555.112 492.636 534.489 477.229 530.398C466.026 527.424 450.265 534.099 436.142 532.58C432.003 533.078 428.066 531.907 423.944 532.191C420.405 531.023 416.372 528.121 413.07 526.26C404.923 521.667 396.823 516.993 388.418 512.881L215.29 426.387Q189.047 413.152 162.578 400.374C156.04 397.186 147.141 391.544 140.193 390.097C139.917 389.991 139.638 389.89 139.365 389.777C136.172 388.461 128.129 384.922 126.817 381.801C129.303 377.43 164.963 361.33 171.919 358.235C171.539 356.146 170.054 353.924 169.087 352.015C166.456 350.853 157.18 345.191 155.156 343.284C153.461 341.687 153.433 340.242 153.451 338.061Z"/>
	<path fill="#CDCCCC" d="M513.544 523.499L562.694 498.873C572.501 493.968 582.693 488.161 593.068 484.629C590.35 488.323 584.876 491.864 583.482 496.18C575.151 499.62 567.197 503.026 560.221 508.902C542.356 523.946 537.175 547.752 513.384 556.621C514.112 545.763 513.507 534.402 513.544 523.499Z"/>
	<path fill="#CDCCCC" d="M630.425 500.396C627.487 489.576 629.5 476.998 631.96 466.248C632.317 464.687 632.719 463.125 633.984 462.047C637.821 458.775 647.205 455.119 651.959 452.748C661.642 447.919 671.133 442.786 680.756 437.849C687.435 434.423 694.235 431.366 700.62 427.384C702.339 431.011 695.08 435.671 694.171 438.942C694.103 439.185 694.051 439.432 693.991 439.677C686.518 443.074 679.886 447.305 674.4 453.497C669.935 458.537 666.757 464.469 663.52 470.327C655.628 484.61 646.693 495.511 630.425 500.396Z"/>
	<path d="M153.451 338.061C173.852 348.996 194.749 358.406 215.497 368.594L284.947 403.367Q344.202 434.148 404.341 463.159Q440.593 481.318 477.175 498.801C489.024 504.591 500.715 511.286 512.941 516.228C514.239 516.752 515.442 517.116 516.854 517.06L517.521 517.417C516.075 518.854 514.793 520.439 513.478 521.995Q458.543 496.308 404.414 468.961L263.67 399.627L193.778 364.508C185.616 360.474 177.526 355.339 169.087 352.015C166.456 350.853 157.18 345.191 155.156 343.284C153.461 341.687 153.433 340.242 153.451 338.061Z"/>
	<path fill="#736A6A" d="M285.155 357.615L285.314 357.566C315.77 373.43 346.693 388.38 377.071 404.372C384.656 408.365 397.425 413.552 403.861 418.455L404.644 419.418C404.586 433.983 404.869 448.606 404.341 463.159Q344.201 434.148 284.947 403.367C284.963 388.168 284.487 372.79 285.155 357.615Z"/>
	<path fill="#9A2838" d="M153.451 338.061C153.99 330.669 152.212 296.684 153.469 293.221C161.816 298.744 172.049 302.459 181.102 306.806C199.85 315.808 218.492 325.133 237.364 333.871C248.368 338.966 259.197 344.331 270.039 349.759C275.015 352.251 280.543 354.533 285.155 357.615C284.487 372.79 284.963 388.168 284.947 403.367L215.497 368.594C194.749 358.406 173.852 348.996 153.451 338.061Z"/>
	<path fill="#CDCCCC" d="M140.193 390.097C139.917 389.991 139.638 389.89 139.365 389.777C136.172 388.461 128.129 384.922 126.817 381.801C129.303 377.43 164.963 361.33 171.919 358.235C184.512 376.262 186.517 409.79 212.499 414.756C239.3 419.879 261.307 387.182 283.944 419.33C294.444 434.241 302.654 467.624 322.64 470.971C344.653 474.658 358.971 450.043 384.943 466.029C390.129 469.222 395.107 473.139 398.729 478.086C408.352 491.233 404.214 510.793 417.084 521.938C422.658 526.765 430.338 528.272 436.142 532.58C432.003 533.078 428.066 531.907 423.944 532.191C420.405 531.023 416.372 528.121 413.07 526.26C404.923 521.667 396.823 516.993 388.418 512.881L215.29 426.387Q189.047 413.152 162.578 400.374C156.04 397.186 147.141 391.544 140.193 390.097Z"/>
	<path fill="#FA724A" d="M173.459 468.757C173.66 468.867 173.867 468.969 174.063 469.089C175.688 470.089 176.924 472.422 177.858 474.078C187.612 491.364 189.736 511.36 210.133 520.08C216.266 522.703 222.785 523.646 229.382 522.554C243.938 520.144 258.666 505.256 273.268 515.886C282.416 522.545 286.236 535.174 290.797 545.071C299.796 564.597 312.669 582.958 336.732 579.568C352.551 577.339 374.168 562.369 389.273 573.502C402.076 582.94 403.308 612.741 422.466 628.987C429.901 635.292 438.831 637.512 448.386 636.277C462.787 634.414 471.677 627.537 485.368 637.947C493.251 643.94 500.695 653.033 511.11 654.249C520.186 652.32 528.096 647.88 536.32 643.763C549.427 637.202 562.24 630.124 575.358 623.572C580.491 621.008 585.611 618.19 590.932 616.043C595.069 603.877 600.463 593.262 607.442 582.516C616.231 582.456 624.055 583.512 632.457 586.126C636.541 587.397 640.902 589.309 645.148 589.779Q647.137 589.427 649.087 588.898C662.872 585.215 676.058 576.98 688.797 570.699C695.752 567.27 703.207 564.355 709.895 560.443C711.698 559.388 713.354 558.229 714.728 556.636C721.201 549.138 723.565 539.066 728.48 530.629C731.371 525.668 734.343 523.008 739.88 521.53L740.285 521.459C742.46 519.301 744.986 519.244 747.948 519.25C757.353 519.27 766.485 522.453 775.808 523.118Q779.482 523.431 783.142 523.88C790.976 522.11 797.889 519.369 805.112 515.893C808.368 512.411 814.012 510.137 818.101 507.685C831.053 499.918 841.674 490.708 850.617 478.533C851.304 476.576 851.853 474.733 853.146 473.075C857.893 476.601 863.885 479.245 869.108 482.022C877.869 486.68 886.593 491.459 895.473 495.881C895.489 502.771 896.538 527.072 894.833 532.231C894.43 532.574 894.004 533.037 893.523 533.256C890.228 535.471 886.545 537.208 883.054 539.101C874.78 543.588 866.732 547.761 858.164 551.7C851.876 553.672 845.798 558.12 839.76 560.912C799.864 579.357 761.679 601.4 722.48 621.24L582.543 691.19L541.346 712.313C533.745 716.147 525.069 719.561 517.937 724.134L514.348 728.029C493.462 720.167 473.341 709.781 453.455 699.713Q432.046 688.891 410.468 678.411L221.747 585.3C213.812 581.384 174.491 560.23 169.467 559.811C167.722 559.665 167.181 560.552 165.963 561.599C158.548 549.635 143.38 546.239 132.327 538.899C130.222 537.501 129.818 536.662 129.335 534.279C131.102 521.055 127.339 502.583 130.164 489.809C135.073 486.593 140.787 484.216 146.053 481.628C155.1 477.181 164.119 472.563 173.459 468.757Z"/>
	<path d="M740.285 521.459C742.46 519.301 744.986 519.244 747.948 519.25C757.353 519.27 766.485 522.453 775.808 523.118Q779.482 523.431 783.142 523.88C782.649 524.428 782.103 525.1 781.501 525.526C776.766 528.874 747.123 522.46 740.285 521.459Z"/>
	<path fill="#736A6A" d="M590.932 616.043C590.087 617.622 589.329 619.092 587.784 620.081C580.834 624.529 568.762 629.014 560.86 632.828C547.855 639.104 530.283 650.035 517.243 653.815C515.159 654.419 513.246 654.522 511.11 654.249C520.186 652.32 528.096 647.88 536.32 643.763C549.427 637.202 562.24 630.124 575.358 623.572C580.491 621.008 585.611 618.19 590.932 616.043Z"/>
	<path fill="#9A2838" d="M850.617 478.533C851.523 483.696 851.835 488.491 848.701 493.067C843.343 500.89 820.101 514.327 811.018 518.139C805.894 520.29 800.529 521.115 795.409 523.467L795.124 522.891C797.838 519.631 802.951 519.563 805.112 515.893C808.368 512.411 814.012 510.137 818.101 507.685C831.053 499.918 841.674 490.708 850.617 478.533Z"/>
	<path fill="#1B220B" d="M515.492 721.988C528.246 714.134 541.798 707.872 555.277 701.397L588.708 684.939L724.717 616.813Q786.703 585.327 849.072 554.607C862.601 547.999 879.582 537.457 893.523 533.256C890.228 535.471 886.545 537.208 883.054 539.101C874.78 543.588 866.732 547.761 858.164 551.7C851.876 553.672 845.798 558.12 839.76 560.912C799.864 579.357 761.679 601.4 722.48 621.24L582.543 691.19L541.346 712.313C533.745 716.147 525.069 719.561 517.937 724.134C515.553 723.992 514.741 724.047 512.905 722.398L515.492 721.988Z"/>
	<path fill="#9A2838" d="M130.164 489.809C139.984 496.037 154.726 502.184 165.605 507.509L237.777 542.941L403.99 626.675C412.98 631.229 421.724 636.255 430.734 640.786L492.382 671.744C500.373 675.797 509.314 679.058 516.581 684.32C514.428 691.891 514.045 714.018 515.492 721.988L512.905 722.398C514.741 724.047 515.553 723.992 517.937 724.134L514.348 728.029C493.462 720.167 473.341 709.781 453.455 699.713Q432.046 688.891 410.468 678.411L221.747 585.3C213.812 581.384 174.491 560.23 169.467 559.811C167.722 559.665 167.181 560.552 165.963 561.599C158.548 549.635 143.38 546.239 132.327 538.899C130.222 537.501 129.818 536.662 129.335 534.279C131.102 521.055 127.339 502.583 130.164 489.809Z"/>
	<path d="M129.335 534.279C136.637 537.506 143.716 541.232 150.942 544.627Q180.571 558.289 209.856 572.671L393.203 663.076Q428.83 680.944 464.7 698.32C479.631 705.469 499.442 713.363 512.905 722.398C514.741 724.047 515.553 723.992 517.937 724.134L514.348 728.029C493.462 720.167 473.341 709.781 453.455 699.713Q432.046 688.891 410.468 678.411L221.747 585.3C213.812 581.384 174.491 560.23 169.467 559.811C167.722 559.665 167.181 560.552 165.963 561.599C158.548 549.635 143.38 546.239 132.327 538.899C130.222 537.501 129.818 536.662 129.335 534.279Z"/>
</svg>
