<?xml version="1.0" encoding="utf-8" ?>
<svg xmlns="http://www.w3.org/2000/svg" xmlns:xlink="http://www.w3.org/1999/xlink" width="524" height="527">
	<path fill="#F11832" transform="scale(2.34239 2.34239)" d="M76.4432 41.673C81.2933 40.5807 86.8777 41.8452 91.7794 42.4118C93.2878 42.5861 94.9915 42.606 96.461 42.9572C101.086 43.6311 107.805 43.0373 111.267 46.6132C110.074 48.2055 109.987 50.1294 109.712 52.0409C108.775 51.2477 107.765 50.4919 107.064 49.4714C106.956 48.4861 106.893 47.2108 106.37 46.3472C105.838 45.4675 105.021 45.2497 104.074 45.0283C102.228 45.0185 100.465 44.3606 98.622 44.2098C93.9442 43.6569 89.124 43.5483 84.4149 43.1588C83.2889 42.5418 78.0877 42.0248 76.4432 41.673Z"/>
	<defs>
		<linearGradient id="gradient_0" gradientUnits="userSpaceOnUse" x1="137.89261" y1="66.674728" x2="130.63736" y2="44.732704">
			<stop offset="0" stop-color="#323336"/>
			<stop offset="1" stop-color="#696667"/>
		</linearGradient>
	</defs>
	<path fill="url(#gradient_0)" transform="scale(2.34239 2.34239)" d="M116.186 52.2259C116.284 51.0874 116.247 49.9696 117.198 49.1722C120.532 46.3748 135.25 46.9184 139.688 47.4388C143.987 47.943 145.5 48.5513 148.732 51.4561C148.793 53.426 148.839 55.357 148.659 57.3242L147.248 59.4445C148.271 60.0403 149.561 60.6421 149.858 61.8969C149.992 62.4606 149.857 63.0578 149.603 63.5668C148.952 63.7264 148.303 63.8858 147.647 64.0201L146.814 63.9935C143.767 64.7238 140.753 65.2844 137.653 65.7405C133.132 66.3987 128.366 64.8708 124.092 65.6304C122.154 65.4275 120.221 65.2427 118.308 64.8584C117.227 64.7708 115.445 64.7056 114.554 64.0784C113.756 63.5178 113.787 63.0053 113.641 62.1099C113.812 60.1414 114.385 61.0232 115.193 59.7584C116.544 57.4851 115.783 54.7472 116.186 52.2259Z"/>
	<path fill="#2D2C2D" transform="scale(2.34239 2.34239)" d="M138.744 58.8158C139.176 59.4339 139.45 59.762 140.237 59.92C141.045 60.0824 142.026 59.9956 142.851 59.9456L143.161 60.2893C141.109 61.8057 139.623 61.2651 138.718 61.8664C138.796 60.8472 138.767 59.8361 138.744 58.8158Z"/>
	<path fill="#010000" transform="scale(2.34239 2.34239)" d="M142.857 51.2609C143.52 51.4245 143.932 51.4128 144.328 52.0288C145.387 53.6742 145.591 56.6387 145.15 58.46C144.995 59.101 144.698 59.6178 144.107 59.9512C143.818 60.1145 143.48 60.2038 143.161 60.2893L142.851 59.9456C143.297 57.2325 143.031 54.0008 142.857 51.2609Z"/>
	<path fill="#4C4B4C" transform="scale(2.34239 2.34239)" d="M142.715 51.8579L142.857 51.2609C143.031 54.0008 143.297 57.2325 142.851 59.9456C142.026 59.9956 141.045 60.0824 140.237 59.92C139.45 59.762 139.176 59.4339 138.744 58.8158L138.799 53.5306L139.346 52.3206C140.4 52.3793 141.586 51.8845 142.715 51.8579Z"/>
	<path fill="#666365" transform="scale(2.34239 2.34239)" d="M139.346 52.3206C140.4 52.3793 141.586 51.8845 142.715 51.8579C142.699 52.329 142.817 53.1668 142.48 53.4981C141.996 53.9735 141.455 54.1061 140.796 54.0791C140.085 54.05 139.373 53.9891 138.799 53.5306L139.346 52.3206Z"/>
	<path fill="#010000" transform="scale(2.34239 2.34239)" d="M124.914 52.9538C125.023 52.8778 125.046 52.858 125.177 52.7881C126.179 52.2525 138.36 52.0159 139.346 52.3206L138.799 53.5306L138.744 58.8158C138.767 59.8361 138.796 60.8472 138.718 61.8664C138.06 62.0404 137.892 62.094 137.219 61.8748C136.11 60.5182 137.131 58.0935 136.603 56.5457C135.935 57.626 136.251 60.2409 136.286 61.4995C134.399 61.8042 132.485 61.9111 130.581 62.0494L130.405 62.3094L129.058 62.0899C128.496 62.0928 127.93 62.0098 127.371 61.9504C126.69 61.7466 125.93 61.6662 125.228 61.5427C124.113 59.8561 124.774 54.9488 124.914 52.9538Z"/>
	<path fill="#2D2C2D" transform="scale(2.34239 2.34239)" d="M129.058 62.0899C128.898 60.0009 128.316 56.65 129.89 54.9402C130.062 54.7531 130.249 54.6023 130.497 54.536C131.02 54.6822 131.264 54.8334 131.527 55.3349C132.25 56.7181 131.841 59.0889 131.302 60.504C131.103 61.0279 130.837 61.5505 130.581 62.0494L130.405 62.3094L129.058 62.0899Z"/>
	<path fill="#010000" transform="scale(2.34239 2.34239)" d="M116.186 52.2259C117.661 52.278 120.789 51.3133 121.735 52.3616C121.813 52.4484 121.882 52.5433 121.953 52.636C122.64 53.1597 124.071 53.0301 124.914 52.9538C124.774 54.9488 124.113 59.8561 125.228 61.5427C125.93 61.6662 126.69 61.7466 127.371 61.9504C127.93 62.0098 128.496 62.0928 129.058 62.0899L130.405 62.3094L130.26 62.637L129.152 63.0012C131.305 62.9063 144.918 62.8796 146.09 63.389C146.256 63.461 146.584 63.7784 146.726 63.9052C146.757 63.9328 146.785 63.9641 146.814 63.9935C143.767 64.7238 140.753 65.2844 137.653 65.7405C133.132 66.3987 128.366 64.8708 124.092 65.6304C122.154 65.4275 120.221 65.2427 118.308 64.8584C117.227 64.7708 115.445 64.7056 114.554 64.0784C113.756 63.5178 113.787 63.0053 113.641 62.1099C113.812 60.1414 114.385 61.0232 115.193 59.7584C116.544 57.4851 115.783 54.7472 116.186 52.2259Z"/>
	<path fill="#4C4B4C" transform="scale(2.34239 2.34239)" d="M129.152 63.0012C129.014 63.0931 128.919 63.163 128.753 63.1961C127.074 63.5322 120.998 63.1902 119.627 62.2656C120.141 61.7686 120.605 61.8387 121.303 61.7488C122.675 62.5688 125.739 61.7845 127.371 61.9504C127.93 62.0098 128.496 62.0928 129.058 62.0899L130.405 62.3094L130.26 62.637L129.152 63.0012Z"/>
	<path fill="#2D2C2D" transform="scale(2.34239 2.34239)" d="M121.953 52.636C122.64 53.1597 124.071 53.0301 124.914 52.9538C124.774 54.9488 124.113 59.8561 125.228 61.5427C125.93 61.6662 126.69 61.7466 127.371 61.9504C125.739 61.7845 122.675 62.5688 121.303 61.7488L121.854 61.6126C122.712 58.9082 121.544 55.4494 121.953 52.636Z"/>
	<path fill="#F11832" transform="scale(2.34239 2.34239)" d="M76.4432 41.673C78.0877 42.0248 83.2889 42.5418 84.4149 43.1588C89.124 43.5483 93.9442 43.6569 98.622 44.2098C100.465 44.3606 102.228 45.0185 104.074 45.0283C105.021 45.2497 105.838 45.4675 106.37 46.3472C106.893 47.2108 106.956 48.4861 107.064 49.4714C107.765 50.4919 108.775 51.2477 109.712 52.0409C109.987 50.1294 110.074 48.2055 111.267 46.6132C112.001 47.5829 112.729 48.5351 113.163 49.6836C114.148 52.2871 114.231 55.1381 114.224 57.8917C114.222 58.5002 113.987 59.5175 114.387 59.9341L115.193 59.7584C114.385 61.0232 113.812 60.1414 113.641 62.1099C113.787 63.0053 113.756 63.5178 114.554 64.0784C115.445 64.7056 117.227 64.7708 118.308 64.8584L117.238 65.2963C117.21 66.6232 117.865 68.1015 117.241 69.3159L115.949 69.9532C115.17 69.8678 114.98 69.5889 114.39 69.0933C113.525 70.1468 113.132 71.9645 111.597 72.1057C110.889 72.1708 110.174 72.1904 109.465 72.2157L108.374 72.3268L108.199 72.7722C110.505 75.0563 107.415 76.4161 114.026 77.5001C114.671 77.5768 114.973 77.6504 115.366 78.1981C116.321 79.5289 114.969 81.3465 115.609 82.4994L116.016 82.2656C116.068 81.7864 116.12 81.328 116.24 80.8594L116.618 80.8263C116.757 81.6597 116.629 82.2237 116.132 82.9289C115.397 83.9726 114.408 84.8957 113.52 85.8106C112.984 86.8006 113.343 87.7376 112.664 88.7645C110.445 87.875 108.206 87.0077 106.013 86.0537C104.292 85.3045 102.565 84.3387 100.751 83.8535C97.3873 82.954 93.4281 83.4654 89.9147 82.9631C81.8294 81.807 73.8801 79.6894 65.8066 78.5882C61.6073 78.0154 57.3634 78.1729 53.1442 77.8832C53.0825 76.9426 53.1659 76.1292 53.3437 75.2049C52.8509 74.8118 52.485 74.9207 51.9058 74.7741C51.3262 74.6273 51.3382 74.474 51.0409 73.9678C54.0367 70.0084 59.0685 67.8683 61.6858 63.9738C63.3921 61.4347 64.7442 58.5668 65.9877 55.7741C67.5308 52.3081 69.5296 45.0981 72.2439 42.841Q72.4012 42.7106 72.5638 42.587C73.7675 42.0403 75.1494 41.8992 76.4432 41.673ZM81.3666 58.545C82.6632 61.5684 86.3015 63.9443 89.2669 65.1255C91.0452 65.8338 96.6503 67.2963 98.3762 66.5483L98.8437 66.0264C99.1463 64.4788 100.612 58.2529 101.074 57.1223C101.018 56.2436 100.892 55.8587 100.3 55.2193C100.229 55.2208 100.159 55.223 100.088 55.2237C96.7084 55.2594 83.0795 51.8619 81.2639 52.6588C81.1209 52.7216 80.8851 53.0015 80.7584 53.116C80.0801 54.7972 80.7574 56.932 81.3666 58.545Z"/>
	<path fill="#B70615" transform="scale(2.34239 2.34239)" d="M74.8534 49.878C76.5784 50.105 78.3427 50.5389 79.9839 51.1145C77.0898 52.2133 74.9034 53.5867 73.5894 56.5303C73.0052 57.8389 72.5754 59.205 72.1899 60.583C72.1683 56.329 72.7822 53.6297 74.8534 49.878Z"/>
	<path fill="#FC9CBB" transform="scale(2.34239 2.34239)" d="M76.4432 41.673C78.0877 42.0248 83.2889 42.5418 84.4149 43.1588L84.1122 43.4512C84.7194 43.9831 86.0465 43.8316 86.8409 43.8557C85.4908 44.2071 84.2625 43.8538 82.9601 44.2231C80.3186 44.5274 77.1861 44.7149 74.5872 44.0366C73.6008 43.7791 73.0865 43.4666 72.5638 42.587C73.7675 42.0403 75.1494 41.8992 76.4432 41.673Z"/>
	<path fill="#FD7D84" transform="scale(2.34239 2.34239)" d="M59.0077 68.4308C60.4907 66.8347 62.1122 65.9464 64.2085 65.4115C65.7343 65.0222 68.0458 64.6316 69.4473 65.5167C70.0903 65.9228 70.1003 66.8188 70.2563 67.5237C70.4489 68.0684 70.767 68.7368 70.8158 69.3054Q64.9155 68.8175 59.0077 68.4308Z"/>
	<path fill="#FAB3C4" transform="scale(2.34239 2.34239)" d="M84.4149 43.1588C89.124 43.5483 93.9442 43.6569 98.622 44.2098C100.465 44.3606 102.228 45.0185 104.074 45.0283C105.021 45.2497 105.838 45.4675 106.37 46.3472C106.893 47.2108 106.956 48.4861 107.064 49.4714L106.436 49.5425C105.698 48.6853 104.934 47.9622 104.076 47.2298L103.34 46.8898C102.075 46.4007 100.507 46.4196 99.1551 46.2239C93.7791 45.4457 88.3034 45.0777 82.9601 44.2231C84.2625 43.8538 85.4908 44.2071 86.8409 43.8557C86.0465 43.8316 84.7194 43.9831 84.1122 43.4512L84.4149 43.1588Z"/>
	<path fill="#5B0000" transform="scale(2.34239 2.34239)" d="M79.9839 51.1145C83.5037 52.0312 98.5342 53.9651 100.108 55.0792C100.148 55.1078 100.19 55.1344 100.23 55.1635C100.254 55.1811 100.277 55.2007 100.3 55.2193C100.229 55.2208 100.159 55.223 100.088 55.2237C96.7084 55.2594 83.0795 51.8619 81.2639 52.6588C81.1209 52.7216 80.8851 53.0015 80.7584 53.116C80.0801 54.7972 80.7574 56.932 81.3666 58.545C80.7968 58.483 80.2316 58.4177 79.6662 58.3214C79.2634 58.6731 79.1395 58.7376 79.1179 59.3066C79.0845 60.1888 79.2771 61.1881 79.3836 62.0676L79.2882 62.5958C79.003 62.7653 78.8013 62.8624 78.4711 62.9082C75.6531 63.2989 76.23 65.7717 71.7824 64.8289L71.2251 64.1217C70.9786 63.0258 71.7905 61.6175 72.1899 60.583C72.5754 59.205 73.0052 57.8389 73.5894 56.5303C74.9034 53.5867 77.0898 52.2133 79.9839 51.1145Z"/>
	<path fill="#F65060" transform="scale(2.34239 2.34239)" d="M111.267 46.6132C112.001 47.5829 112.729 48.5351 113.163 49.6836C114.148 52.2871 114.231 55.1381 114.224 57.8917C114.222 58.5002 113.987 59.5175 114.387 59.9341L115.193 59.7584C114.385 61.0232 113.812 60.1414 113.641 62.1099C113.787 63.0053 113.756 63.5178 114.554 64.0784C115.445 64.7056 117.227 64.7708 118.308 64.8584L117.238 65.2963C117.21 66.6232 117.865 68.1015 117.241 69.3159L115.949 69.9532C115.17 69.8678 114.98 69.5889 114.39 69.0933C113.525 70.1468 113.132 71.9645 111.597 72.1057C110.889 72.1708 110.174 72.1904 109.465 72.2157L108.374 72.3268L108.199 72.7722C110.505 75.0563 107.415 76.4161 114.026 77.5001C112.671 77.5623 111.297 77.7673 109.942 77.7495C107.904 77.7226 103.032 72.9412 101.472 71.3507C101.201 70.4696 101.718 70.1248 101.812 69.2482L101.515 69.0257C100.75 69.2206 100.071 69.5312 99.3586 69.8646C99.2311 68.6383 99.6507 67.0335 98.8437 66.0264C99.1463 64.4788 100.612 58.2529 101.074 57.1223C103.46 56.6806 102.086 54.7417 105.157 53.6764C105.033 51.9988 104.139 50.7005 103.764 49.1153C103.571 48.2951 103.667 47.9197 104.076 47.2298C104.934 47.9622 105.698 48.6853 106.436 49.5425L107.064 49.4714C107.765 50.4919 108.775 51.2477 109.712 52.0409C109.987 50.1294 110.074 48.2055 111.267 46.6132Z"/>
	<path fill="#5B0000" transform="scale(2.34239 2.34239)" d="M113.641 62.1099C113.787 63.0053 113.756 63.5178 114.554 64.0784C115.445 64.7056 117.227 64.7708 118.308 64.8584L117.238 65.2963C117.21 66.6232 117.865 68.1015 117.241 69.3159L115.949 69.9532C115.17 69.8678 114.98 69.5889 114.39 69.0933C114.253 68.9372 114.118 68.781 113.992 68.6164C112.668 66.8929 113.375 64.1136 113.641 62.1099Z"/>
	<path fill="#D10723" transform="scale(2.34239 2.34239)" d="M104.076 47.2298C104.934 47.9622 105.698 48.6853 106.436 49.5425C107.129 50.483 107.899 51.8007 109.106 51.9931C109.339 52.0302 109.576 52.0513 109.811 52.0749C110.544 54.6611 110.071 69.3143 109.465 72.2157L108.374 72.3268C107.161 71.4726 106.017 71.3462 104.584 71.1659C105.261 65.7756 106.23 59.0289 105.157 53.6764C105.033 51.9988 104.139 50.7005 103.764 49.1153C103.571 48.2951 103.667 47.9197 104.076 47.2298Z"/>
	<path fill="#F65060" transform="scale(2.34239 2.34239)" d="M101.074 57.1223C103.46 56.6806 102.086 54.7417 105.157 53.6764C106.23 59.0289 105.261 65.7756 104.584 71.1659C106.017 71.3462 107.161 71.4726 108.374 72.3268L108.199 72.7722C110.505 75.0563 107.415 76.4161 114.026 77.5001C112.671 77.5623 111.297 77.7673 109.942 77.7495C107.904 77.7226 103.032 72.9412 101.472 71.3507C101.201 70.4696 101.718 70.1248 101.812 69.2482L101.515 69.0257C100.75 69.2206 100.071 69.5312 99.3586 69.8646C99.2311 68.6383 99.6507 67.0335 98.8437 66.0264C99.1463 64.4788 100.612 58.2529 101.074 57.1223Z"/>
	<path fill="#F11832" transform="scale(2.34239 2.34239)" d="M108.199 72.7722C107.67 72.8137 107.134 72.7932 106.605 72.7639C105.675 72.7124 105.14 72.5573 104.527 71.8606L104.584 71.1659C106.017 71.3462 107.161 71.4726 108.374 72.3268L108.199 72.7722Z"/>
	<defs>
		<linearGradient id="gradient_1" gradientUnits="userSpaceOnUse" x1="83.957306" y1="59.167934" x2="83.169006" y2="78.917473">
			<stop offset="0" stop-color="#D00311"/>
			<stop offset="1" stop-color="#FF0B37"/>
		</linearGradient>
	</defs>
	<path fill="url(#gradient_1)" transform="scale(2.34239 2.34239)" d="M79.3836 62.0676C79.2771 61.1881 79.0845 60.1888 79.1179 59.3066C79.1395 58.7376 79.2634 58.6731 79.6662 58.3214C80.2316 58.4177 80.7968 58.483 81.3666 58.545C82.6632 61.5684 86.3015 63.9443 89.2669 65.1255C91.0452 65.8338 96.6503 67.2963 98.3762 66.5483L98.8437 66.0264C99.6507 67.0335 99.2311 68.6383 99.3586 69.8646C98.1455 72.5715 95.3531 78.715 92.403 79.8205C92.2052 79.8946 92.0026 79.9266 91.7933 79.943C91.3799 79.6271 91.1862 79.5028 91.0896 78.9499C90.9899 78.3793 91.1809 77.6476 91.2386 77.0638C86.1592 76.8174 79.584 77.005 74.7164 75.872C74.6694 75.1695 74.9329 75.0495 74.5045 74.387C73.4345 73.8109 71.6666 74.2771 70.4525 74.3701C69.7805 73.5706 69.3676 73.3903 68.3501 73.2914C68.2935 73.1813 68.2664 73.136 68.2226 73.0059C67.9474 72.1873 68.0151 71.842 68.4517 71.0816C69.0335 70.0682 69.7239 69.592 70.8158 69.3054C70.767 68.7368 70.4489 68.0684 70.2563 67.5237L70.0638 65.7707L70.499 65.225C70.9247 65.1461 71.2991 65.065 71.6908 64.8749C71.7215 64.86 71.7518 64.8443 71.7824 64.8289C76.23 65.7717 75.6531 63.2989 78.4711 62.9082C78.8013 62.8624 79.003 62.7653 79.2882 62.5958L79.3836 62.0676Z"/>
	<path fill="#B70615" transform="scale(2.34239 2.34239)" d="M79.3836 62.0676C79.7895 63.1871 80.7713 65.355 80.5441 66.4926C79.8941 66.5221 79.619 65.5716 78.9011 65.5081C78.4105 65.4647 77.7844 65.8266 77.2917 65.9305C75.8242 66.2401 72.7086 66.7152 71.267 66.414C70.9341 66.3444 70.3843 65.9421 70.0638 65.7707L70.499 65.225C70.9247 65.1461 71.2991 65.065 71.6908 64.8749C71.7215 64.86 71.7518 64.8443 71.7824 64.8289C76.23 65.7717 75.6531 63.2989 78.4711 62.9082C78.8013 62.8624 79.003 62.7653 79.2882 62.5958L79.3836 62.0676Z"/>
	<path fill="#FD7D84" transform="scale(2.34239 2.34239)" d="M99.3586 69.8646C100.071 69.5312 100.75 69.2206 101.515 69.0257L101.812 69.2482C101.718 70.1248 101.201 70.4696 101.472 71.3507C103.032 72.9412 107.904 77.7226 109.942 77.7495C111.297 77.7673 112.671 77.5623 114.026 77.5001C114.671 77.5768 114.973 77.6504 115.366 78.1981C116.321 79.5289 114.969 81.3465 115.609 82.4994L116.016 82.2656C116.068 81.7864 116.12 81.328 116.24 80.8594L116.618 80.8263C116.757 81.6597 116.629 82.2237 116.132 82.9289C115.397 83.9726 114.408 84.8957 113.52 85.8106C112.984 86.8006 113.343 87.7376 112.664 88.7645C110.445 87.875 108.206 87.0077 106.013 86.0537C104.292 85.3045 102.565 84.3387 100.751 83.8535C97.3873 82.954 93.4281 83.4654 89.9147 82.9631C81.8294 81.807 73.8801 79.6894 65.8066 78.5882C61.6073 78.0154 57.3634 78.1729 53.1442 77.8832C53.0825 76.9426 53.1659 76.1292 53.3437 75.2049C53.9269 74.6378 54.4768 74.1927 55.2373 73.883C58.2655 72.6497 63.1191 73.0938 66.0449 74.3576Q66.3924 74.3341 66.738 74.2916C67.552 74.1838 67.8666 73.91 68.3501 73.2914C69.3676 73.3903 69.7805 73.5706 70.4525 74.3701C71.6666 74.2771 73.4345 73.8109 74.5045 74.387C74.9329 75.0495 74.6694 75.1695 74.7164 75.872C79.584 77.005 86.1592 76.8174 91.2386 77.0638C91.1809 77.6476 90.9899 78.3793 91.0896 78.9499C91.1862 79.5028 91.3799 79.6271 91.7933 79.943C92.0026 79.9266 92.2052 79.8946 92.403 79.8205C95.3531 78.715 98.1455 72.5715 99.3586 69.8646Z"/>
	<path fill="#F65060" transform="scale(2.34239 2.34239)" d="M68.3501 73.2914C69.3676 73.3903 69.7805 73.5706 70.4525 74.3701C71.6666 74.2771 73.4345 73.8109 74.5045 74.387C74.9329 75.0495 74.6694 75.1695 74.7164 75.872L73.4185 75.7764C70.6223 75.9723 68.6139 75.3437 66.0449 74.3576Q66.3924 74.3341 66.738 74.2916C67.552 74.1838 67.8666 73.91 68.3501 73.2914Z"/>
	<path fill="#D10723" transform="scale(2.34239 2.34239)" d="M147.647 64.0201C148.303 63.8858 148.952 63.7264 149.603 63.5668C149.619 64.3339 149.535 65.0929 150.102 65.6831C151.193 66.3929 152.509 66.4377 153.715 66.8699C156.315 67.4748 158.346 68.1584 160.328 70.0408C162.149 71.8986 163.175 73.6199 164.099 76.0455C164.382 77.2648 164.711 78.4908 164.873 79.7331C165.12 83.2266 164.826 86.8228 164.777 90.3272L164.464 112.44L164.463 136.047C164.468 143.617 164.558 151.244 163.436 158.754Q163.271 159.803 162.999 160.829Q162.726 161.855 162.349 162.848Q161.971 163.84 161.493 164.788Q161.014 165.736 160.44 166.629Q160.013 167.311 159.513 167.941Q159.013 168.572 158.446 169.142Q157.878 169.713 157.251 170.217Q156.624 170.722 155.945 171.153C151.844 173.721 146.529 175.327 142.023 177.11C135.556 179.67 128.788 182.903 121.973 184.377C118.98 185.024 116.491 185.087 113.463 184.644C110.418 184.198 107.412 183.296 104.431 182.547Q97.9015 180.913 91.352 179.361C85.5804 177.987 79.8104 176.58 74.0193 175.29C70.7294 174.557 67.3921 174.03 64.1351 173.155C62.3064 172.664 60.3822 172.19 58.7836 171.148C54.4566 168.326 49.6286 162.09 48.6528 156.966C47.8966 152.994 48.7044 145.288 48.789 140.968C48.9579 132.35 48.9202 123.698 48.8534 115.078Q48.6914 105.693 48.205 96.3185C48.0168 92.0651 47.7143 87.8031 48.0388 83.5493C48.3163 79.9116 48.9736 77.003 51.0409 73.9678C51.3382 74.474 51.3262 74.6273 51.9058 74.7741C52.485 74.9207 52.8509 74.8118 53.3437 75.2049C53.1659 76.1292 53.0825 76.9426 53.1442 77.8832C57.3634 78.1729 61.6073 78.0154 65.8066 78.5882C73.8801 79.6894 81.8294 81.807 89.9147 82.9631C93.4281 83.4654 97.3873 82.954 100.751 83.8535C102.565 84.3387 104.292 85.3045 106.013 86.0537C108.206 87.0077 110.445 87.875 112.664 88.7645C113.343 87.7376 112.984 86.8006 113.52 85.8106C114.408 84.8957 115.397 83.9726 116.132 82.9289C116.629 82.2237 116.757 81.6597 116.618 80.8263L116.24 80.8594C116.12 81.328 116.068 81.7864 116.016 82.2656L115.609 82.4994C114.969 81.3465 116.321 79.5289 115.366 78.1981C114.973 77.6504 114.671 77.5768 114.026 77.5001C107.415 76.4161 110.505 75.0563 108.199 72.7722L108.374 72.3268L109.465 72.2157C110.174 72.1904 110.889 72.1708 111.597 72.1057C113.132 71.9645 113.525 70.1468 114.39 69.0933C114.98 69.5889 115.17 69.8678 115.949 69.9532L117.241 69.3159C117.865 68.1015 117.21 66.6232 117.238 65.2963L118.308 64.8584C120.221 65.2427 122.154 65.4275 124.092 65.6304C128.366 64.8708 133.132 66.3987 137.653 65.7405C140.753 65.2844 143.767 64.7238 146.814 63.9935L147.647 64.0201Z"/>
	<path fill="#F11832" transform="scale(2.34239 2.34239)" d="M55.065 145.995C54.671 145.269 54.2931 144.766 54.2308 143.925C54.2121 143.673 54.3445 143.626 54.5034 143.444C55.8195 143.504 56.8432 144.567 58.1507 144.79C58.1993 144.798 58.2484 144.804 58.2973 144.811C57.0774 145.013 56.1502 145.438 55.065 145.995Z"/>
	<path fill="#F11832" transform="scale(2.34239 2.34239)" d="M53.4783 148.878C54.8819 149.116 56.0206 149.716 57.26 150.377L56.2643 153.013C55.9987 153.18 55.7303 153.125 55.4322 153.104C55.1034 152.851 54.7595 152.585 54.5062 152.254C53.7361 151.248 53.3159 150.139 53.4783 148.878Z"/>
	<path fill="#010000" transform="scale(2.34239 2.34239)" d="M160.02 88.3716C160.447 88.3223 161.008 88.4396 161.444 88.4748C160.7 93.7249 161.101 101.034 160.929 106.572C160.207 107.788 161.127 109.637 160.419 110.826L159.959 110.32C159.748 108.199 159.94 106.024 159.972 103.895L160.086 93.7907C160.115 92.1816 160.45 89.9099 160.02 88.3716Z"/>
	<path fill="#F7DBDD" transform="scale(2.34239 2.34239)" d="M128.211 128.258C131.262 127.551 134.279 126.656 137.284 125.779L137.936 126.175L137.735 126.813C137.171 127.018 136.476 127.387 135.874 127.283C136.098 128.965 135.821 130.57 135.832 132.246L135.871 132.526C136.374 132.968 136.373 133.033 136.511 133.695L133.993 134.707L132.171 135.382L131.195 136.071Q130.954 136.069 130.714 136.063C129.881 136.042 129.147 136.036 128.547 135.374C127.065 133.736 128.119 130.275 128.211 128.258Z"/>
	<path fill="#FAB3C4" transform="scale(2.34239 2.34239)" d="M134.649 127.957L135.874 127.283C136.098 128.965 135.821 130.57 135.832 132.246L135.871 132.526C136.374 132.968 136.373 133.033 136.511 133.695L133.993 134.707L132.171 135.382C131.804 133.245 132.11 130.157 132.407 127.989C133.149 128.124 133.727 128.188 134.468 128.004L134.649 127.957Z"/>
	<path fill="#F7DBDD" transform="scale(2.34239 2.34239)" d="M135.871 132.526C136.374 132.968 136.373 133.033 136.511 133.695L133.993 134.707C133.812 134.596 133.867 134.647 133.731 134.499C133.386 134.121 133.411 134.113 133.433 133.618C133.969 133.138 134.111 133.131 134.794 133.05L135.871 132.526Z"/>
	<path fill="#FD7D84" transform="scale(2.34239 2.34239)" d="M134.649 127.957L135.874 127.283C136.098 128.965 135.821 130.57 135.832 132.246L135.871 132.526L134.794 133.05C133.839 131.739 134.783 129.539 134.649 127.957Z"/>
	<path fill="#F11832" transform="scale(2.34239 2.34239)" d="M103.552 96.7775C104.668 96.5115 105.779 96.3268 106.913 96.1593L107.664 96.7684L107.327 97.3049C107.283 97.3057 107.238 97.3061 107.194 97.3074C106.793 97.3196 106.576 97.3495 106.23 97.5527C105.675 97.9922 105.061 98.2969 104.987 99.0771C104.938 99.5998 105.006 100.191 105.042 100.714C99.3395 99.8384 93.1976 101.618 87.3657 101.154C86.1242 101.055 84.6604 100.917 83.803 99.9183C83.7589 99.5657 83.6763 99.4542 83.9219 99.1656C84.6167 98.3489 85.9943 98.1705 86.9924 98.0414C90.7802 97.4687 100.503 98.5581 102.639 97.8528C103.235 97.6563 103.292 97.2978 103.552 96.7775Z"/>
	<path fill="#B70615" transform="scale(2.34239 2.34239)" d="M120.313 162.107C120.942 162.649 121.404 163.074 122.244 163.205C122.756 163.07 123.127 162.964 123.662 163.064Q123.734 163.344 123.791 163.628C124.057 164.969 125.1 171.403 124.498 172.315L123.837 170.873L123.403 170.765Q123.018 171.017 122.687 171.336Q122.356 171.655 122.089 172.03Q121.823 172.405 121.63 172.823Q121.438 173.241 121.326 173.687C121.309 173.756 121.294 173.825 121.278 173.894C121.34 174.186 121.236 174.355 121.145 174.632C121.048 174.679 121.008 174.702 120.898 174.738C120.135 174.989 117.97 174.434 117.262 173.996C116.769 173.693 116.508 173.183 116.396 172.629C115.859 169.954 118.844 164.339 120.313 162.107Z"/>
	<path fill="#010000" transform="scale(2.34239 2.34239)" d="M160.02 88.3716C156.042 88.603 152.425 89.7918 148.607 90.8077C142.385 92.4633 136.072 94.3473 129.793 95.72C128.318 96.0424 126.94 96.5591 125.61 95.7078L125.802 94.8337L125.646 94.9853C126.487 94.1058 127.781 93.595 128.922 93.2102C133.262 91.7466 138.064 91.0026 142.533 89.8971C148.852 88.3338 155.256 86.1145 161.746 85.4157L161.444 88.4748C161.008 88.4396 160.447 88.3223 160.02 88.3716Z"/>
	<path fill="#F7DBDD" transform="scale(2.34239 2.34239)" d="M150.063 122.076C152.394 121.234 154.829 120.663 157.223 120.031C157.245 121.459 157.18 122.96 157.354 124.374Q158.438 125.441 159.506 126.523C157.264 128.334 153.461 127.681 151.179 129.322C149.62 129.829 148.03 130.254 146.453 130.701C146.095 130.344 146.042 129.781 145.932 129.303C145.752 127.333 145.536 125.592 144.633 123.798L145.171 123.044C146.833 123.218 148.498 122.549 150.063 122.076Z"/>
	<path fill="#FEFDFE" transform="scale(2.34239 2.34239)" d="M150.063 122.076L150.565 122.245C151.254 124.015 150.69 127.162 151.179 129.322C149.62 129.829 148.03 130.254 146.453 130.701C146.095 130.344 146.042 129.781 145.932 129.303C145.752 127.333 145.536 125.592 144.633 123.798L145.171 123.044C146.833 123.218 148.498 122.549 150.063 122.076Z"/>
	<path fill="#F65060" transform="scale(2.34239 2.34239)" d="M53.1442 77.8832C57.3634 78.1729 61.6073 78.0154 65.8066 78.5882C73.8801 79.6894 81.8294 81.807 89.9147 82.9631C93.4281 83.4654 97.3873 82.954 100.751 83.8535C102.565 84.3387 104.292 85.3045 106.013 86.0537C108.206 87.0077 110.445 87.875 112.664 88.7645C112.343 89.0507 111.894 89.506 111.45 89.5532C108.886 89.8267 100.453 87.401 97.298 86.8862C93.3223 86.2375 89.25 86.0089 85.2525 85.4775C81.5875 84.9903 77.9968 84.134 74.3515 83.5431C69.6035 82.7735 57.0663 81.901 53.3217 79.4169C52.9942 78.795 53.0705 78.5603 53.1442 77.8832Z"/>
	<path fill="#F65060" transform="scale(2.34239 2.34239)" d="M55.065 145.995C56.1502 145.438 57.0774 145.013 58.2973 144.811Q81.3857 149.453 104.344 154.701C105.218 154.348 106.189 154.04 106.999 153.561C108.371 153.127 109.29 152.821 110.685 153.401C110.693 153.568 110.697 153.538 110.689 153.683C110.687 153.728 110.682 153.772 110.68 153.817C110.671 153.982 110.659 154.126 110.609 154.286C110.157 155.728 107.324 157.328 106.035 157.946Q103.329 157.719 100.648 157.286C91.0955 155.784 81.5852 153.134 72.1239 151.109C67.5729 150.135 62.5764 149.874 58.1877 148.336C56.9085 147.888 55.8581 147.085 55.065 145.995Z"/>
	<path fill="#210000" transform="scale(2.34239 2.34239)" d="M159.959 110.32L160.419 110.826C161.127 109.637 160.207 107.788 160.929 106.572C161.048 115.549 160.923 124.26 160.279 133.216C160.109 135.584 160.169 138.294 159.56 140.587C159.097 142.335 158.139 144.226 156.874 145.528C156.144 146.28 155.205 146.828 154.264 147.276C151.223 148.723 147.882 149.648 144.737 150.853C141.07 152.257 137.46 153.982 133.717 155.165C132.273 155.622 130.744 155.907 129.249 156.15C128.05 155.126 126.942 154.157 125.99 152.889C125.931 150.156 125.432 140.419 126.144 138.364C126.786 137.923 127.331 138.015 128.088 138.144C127.069 142.793 127.409 149.187 129.033 153.629C134.563 152.731 139.476 150.393 144.65 148.368C147.471 147.264 150.382 146.34 153.262 145.399L153.055 144.54C153.312 144.403 153.53 144.251 153.718 144.024C154.599 142.964 155.115 140.466 154.964 139.103C154.887 138.409 154.696 137.934 154.141 137.476C153.303 137.24 153.072 137.351 152.251 137.572L152.15 137.181L152.68 136.74C153.955 136.011 155.51 135.936 156.938 135.744C156.991 133.998 156.795 132.233 156.824 130.475C156.996 129.812 156.769 129.411 156.571 128.763C157.515 128.499 158.352 128.353 159.333 128.332L159.606 128.695C159.927 128.001 159.805 127.246 159.757 126.504C160.562 124.283 160.012 113.393 159.959 110.32Z"/>
	<path fill="#FEFDFE" transform="scale(2.34239 2.34239)" d="M156.571 128.763C157.515 128.499 158.352 128.353 159.333 128.332L159.606 128.695C159.394 133.23 160.494 140.393 156.751 143.722C155.713 144.646 154.566 145.028 153.262 145.399L153.055 144.54C153.312 144.403 153.53 144.251 153.718 144.024C154.599 142.964 155.115 140.466 154.964 139.103C154.887 138.409 154.696 137.934 154.141 137.476C153.303 137.24 153.072 137.351 152.251 137.572L152.15 137.181L152.68 136.74C153.955 136.011 155.51 135.936 156.938 135.744C156.991 133.998 156.795 132.233 156.824 130.475C156.996 129.812 156.769 129.411 156.571 128.763Z"/>
	<path fill="#F65060" transform="scale(2.34239 2.34239)" d="M58.5097 85.5453C63.3235 86.491 68.2134 87.0225 73.0636 87.7504C78.447 88.5582 83.805 89.541 89.1918 90.3184C93.9016 90.9981 98.9541 91.3197 103.541 92.5708C104.541 92.8437 106.73 93.7485 107.31 94.6232C107.449 94.8316 107.53 95.0325 107.59 95.2731C107.401 95.751 107.315 95.8328 106.913 96.1593C105.779 96.3268 104.668 96.5115 103.552 96.7775C103.292 97.2978 103.235 97.6563 102.639 97.8528C100.503 98.5581 90.7802 97.4687 86.9924 98.0414C87.0616 97.5442 87.6882 96.7412 87.9256 96.2284C87.5641 94.0206 79.8215 94.6917 78.1539 93.1966C76.4582 92.2974 57.14 89.5078 54.3366 89.3737C55.7333 88.1112 57.1781 86.8756 58.5097 85.5453Z"/>
	<path fill="#B70615" transform="scale(2.34239 2.34239)" d="M78.1539 93.1966C82.5626 93.5818 86.9696 94.3085 91.357 94.9022C95.3581 95.4436 99.6247 95.8474 103.552 96.7775C103.292 97.2978 103.235 97.6563 102.639 97.8528C100.503 98.5581 90.7802 97.4687 86.9924 98.0414C87.0616 97.5442 87.6882 96.7412 87.9256 96.2284C87.5641 94.0206 79.8215 94.6917 78.1539 93.1966Z"/>
	<path fill="#F65060" transform="scale(2.34239 2.34239)" d="M119.674 84.8188C120.331 84.0284 121.415 82.8034 122.331 82.3568C126.953 80.1041 132.636 79.3214 137.606 78.0414C143.12 76.6213 148.963 74.1852 154.729 74.1265C157.669 74.0966 162.212 76.5054 164.099 76.0455C164.382 77.2648 164.711 78.4908 164.873 79.7331C164.817 80.599 164.906 81.2394 164.375 81.9565C163.722 82.0778 163.419 81.9733 162.853 81.6157C162.224 81.2182 161.671 80.5713 161.168 80.0285C154.566 80.9398 148.114 82.7896 141.548 83.7164C137.401 84.3018 133.04 83.7658 128.97 84.7753C126.469 85.3955 124.438 87.1158 121.949 87.881C121.093 86.9045 120.374 85.9109 119.674 84.8188Z"/>
	<path fill="#F11832" transform="scale(2.34239 2.34239)" d="M107.664 96.7684C108.582 96.9219 109.885 96.9291 110.572 97.5995C110.882 109.816 110.683 122.056 110.739 134.277C110.757 138.227 111.71 150.398 110.685 153.401C109.29 152.821 108.371 153.127 106.999 153.561L107.015 151.969C106.678 151.665 106.385 151.348 106.296 150.886C105.701 147.786 106.161 143.781 106.172 140.574C106.201 131.863 106.055 123.19 105.856 114.483C105.759 110.233 106.425 104.744 105.042 100.714C105.006 100.191 104.938 99.5998 104.987 99.0771C105.061 98.2969 105.675 97.9922 106.23 97.5527C106.576 97.3495 106.793 97.3196 107.194 97.3074C107.238 97.3061 107.283 97.3057 107.327 97.3049L107.664 96.7684Z"/>
	<path fill="#B70615" transform="scale(2.34239 2.34239)" d="M106.23 97.5527C106.911 97.6839 107.446 97.6521 107.933 98.1614C109.307 107.695 108.091 117.929 107.877 127.546C107.729 134.178 108.094 140.863 107.717 147.483C107.633 148.959 107.565 150.581 107.015 151.969C106.678 151.665 106.385 151.348 106.296 150.886C105.701 147.786 106.161 143.781 106.172 140.574C106.201 131.863 106.055 123.19 105.856 114.483C105.759 110.233 106.425 104.744 105.042 100.714C105.006 100.191 104.938 99.5998 104.987 99.0771C105.061 98.2969 105.675 97.9922 106.23 97.5527Z"/>
	<path fill="#DBD9DE" transform="scale(2.34239 2.34239)" d="M159.506 126.523L159.757 126.504C159.805 127.246 159.927 128.001 159.606 128.695L159.333 128.332C158.352 128.353 157.515 128.499 156.571 128.763C156.769 129.411 156.996 129.812 156.824 130.475C156.795 132.233 156.991 133.998 156.938 135.744C155.51 135.936 153.955 136.011 152.68 136.74L152.15 137.181L152.251 137.572C153.072 137.351 153.303 137.24 154.141 137.476C154.696 137.934 154.887 138.409 154.964 139.103C155.115 140.466 154.599 142.964 153.718 144.024C153.53 144.251 153.312 144.403 153.055 144.54L153.262 145.399C150.382 146.34 147.471 147.264 144.65 148.368C139.476 150.393 134.563 152.731 129.033 153.629C127.409 149.187 127.069 142.793 128.088 138.144C129.458 137.937 130.74 137.576 132.064 137.177C131.829 136.74 131.538 136.423 131.195 136.071L132.171 135.382L133.993 134.707L136.511 133.695C137.369 133.583 138.139 133.23 138.932 132.902C141.488 132.298 143.958 131.518 146.453 130.701C148.03 130.254 149.62 129.829 151.179 129.322C153.461 127.681 157.264 128.334 159.506 126.523Z"/>
	<path fill="#4C4B4C" transform="scale(2.34239 2.34239)" d="M137.819 136.348C138.475 138.111 137.602 139.115 139.218 140.637C139.242 140.887 139.302 141.175 139.276 141.422C137.977 141.81 135.306 143.153 134.013 142.681C133.539 142.509 133.295 142.225 133.112 141.773C132.803 141.012 132.919 139.777 133.257 139.035C133.969 137.47 136.324 136.919 137.819 136.348Z"/>
	<path fill="#F11832" transform="scale(2.34239 2.34239)" d="M159.506 126.523L159.757 126.504C159.805 127.246 159.927 128.001 159.606 128.695L159.333 128.332C158.352 128.353 157.515 128.499 156.571 128.763C154.8 129.274 152.834 129.778 151.19 130.604C149.177 131.171 147.149 131.689 145.238 132.55C140.756 133.66 136.363 135.503 132.064 137.177C131.829 136.74 131.538 136.423 131.195 136.071L132.171 135.382L133.993 134.707L136.511 133.695C137.369 133.583 138.139 133.23 138.932 132.902C141.488 132.298 143.958 131.518 146.453 130.701C148.03 130.254 149.62 129.829 151.179 129.322C153.461 127.681 157.264 128.334 159.506 126.523Z"/>
	<path fill="#666365" transform="scale(2.34239 2.34239)" d="M138.879 136.094C140.688 134.439 144.419 134.269 146.693 133.117C146.89 134.561 147.659 137.752 147.042 139.049L146.378 139.452C145.001 139.385 143.193 140.153 141.909 140.65C141.083 140.904 140.124 141.32 139.276 141.422C139.302 141.175 139.242 140.887 139.218 140.637C137.602 139.115 138.475 138.111 137.819 136.348L138.879 136.094Z"/>
	<path fill="#797778" transform="scale(2.34239 2.34239)" d="M138.879 136.094C139.238 138.041 140.563 138.326 141.233 140.002C141.358 140.316 141.632 140.48 141.909 140.65C141.083 140.904 140.124 141.32 139.276 141.422C139.302 141.175 139.242 140.887 139.218 140.637C137.602 139.115 138.475 138.111 137.819 136.348L138.879 136.094Z"/>
	<path fill="#AFA7B1" transform="scale(2.34239 2.34239)" d="M151.19 130.604C152.834 129.778 154.8 129.274 156.571 128.763C156.769 129.411 156.996 129.812 156.824 130.475C156.795 132.233 156.991 133.998 156.938 135.744C155.51 135.936 153.955 136.011 152.68 136.74L152.15 137.181L152.251 137.572C151.654 137.99 151.208 138.116 150.496 138.229C149.945 138.482 149.317 138.716 148.803 139.033C148.365 139.309 147.931 139.596 147.475 139.841L146.378 139.452L147.042 139.049C147.659 137.752 146.89 134.561 146.693 133.117C146.217 132.909 145.724 132.734 145.238 132.55C147.149 131.689 149.177 131.171 151.19 130.604Z"/>
	<path fill="#DBD9DE" transform="scale(2.34239 2.34239)" d="M145.238 132.55C147.149 131.689 149.177 131.171 151.19 130.604C151.009 131.202 150.965 131.713 150.374 132.051C149.832 132.361 148.322 132.38 148.169 132.998C147.912 134.032 147.914 136.748 148.496 137.617C148.601 137.774 148.744 137.891 148.898 137.996C149.586 138.033 151.253 136.97 152.081 136.687L152.68 136.74L152.15 137.181L152.251 137.572C151.654 137.99 151.208 138.116 150.496 138.229C149.945 138.482 149.317 138.716 148.803 139.033C148.365 139.309 147.931 139.596 147.475 139.841L146.378 139.452L147.042 139.049C147.659 137.752 146.89 134.561 146.693 133.117C146.217 132.909 145.724 132.734 145.238 132.55Z"/>
	<path fill="#797778" transform="scale(2.34239 2.34239)" d="M152.081 136.687C152.104 135.775 152.121 134.855 152.217 133.948C152.339 132.795 152.681 131.514 153.69 130.816C154.39 130.331 156.01 130.324 156.824 130.475C156.795 132.233 156.991 133.998 156.938 135.744C155.51 135.936 153.955 136.011 152.68 136.74L152.081 136.687Z"/>
	<path fill="#666365" transform="scale(2.34239 2.34239)" d="M152.251 137.572C153.072 137.351 153.303 137.24 154.141 137.476C154.696 137.934 154.887 138.409 154.964 139.103C155.115 140.466 154.599 142.964 153.718 144.024C153.53 144.251 153.312 144.403 153.055 144.54C151.613 145.165 149.833 145.154 148.543 145.95L147.221 146.442C144.835 147.304 142.444 148.176 140.035 148.971C138.883 149.352 137.193 149.922 136.055 149.258C135.466 148.914 135.135 148.31 134.986 147.661C134.763 146.696 134.867 145.635 135.418 144.794C137 142.382 144.671 140.407 147.475 139.841C147.931 139.596 148.365 139.309 148.803 139.033C149.317 138.716 149.945 138.482 150.496 138.229C151.208 138.116 151.654 137.99 152.251 137.572Z"/>
	<path fill="#4C4B4C" transform="scale(2.34239 2.34239)" d="M147.221 146.442C146.815 145.239 146.772 143.704 147.024 142.466C147.13 141.943 147.246 141.445 147.702 141.157C148.339 142.244 148.28 144.625 148.543 145.95L147.221 146.442Z"/>
	<path fill="#4C4B4C" transform="scale(2.34239 2.34239)" d="M148.803 139.033C149.317 138.716 149.945 138.482 150.496 138.229C151.094 138.924 151.015 139.287 150.947 140.179C150.87 141.206 150.769 142.778 149.973 143.492C149.529 143.052 149.49 142.07 149.488 141.447C149.485 140.47 149.233 139.896 148.803 139.033Z"/>
	<path fill="#F11832" transform="scale(2.34239 2.34239)" d="M147.647 64.0201C148.303 63.8858 148.952 63.7264 149.603 63.5668C149.619 64.3339 149.535 65.0929 150.102 65.6831C151.193 66.3929 152.509 66.4377 153.715 66.8699C156.315 67.4748 158.346 68.1584 160.328 70.0408C162.149 71.8986 163.175 73.6199 164.099 76.0455C162.212 76.5054 157.669 74.0966 154.729 74.1265C148.963 74.1852 143.12 76.6213 137.606 78.0414C132.636 79.3214 126.953 80.1041 122.331 82.3568C121.415 82.8034 120.331 84.0284 119.674 84.8188C117.789 85.2857 115.468 86.0428 113.52 85.8106C114.408 84.8957 115.397 83.9726 116.132 82.9289C116.629 82.2237 116.757 81.6597 116.618 80.8263L116.24 80.8594C116.12 81.328 116.068 81.7864 116.016 82.2656L115.609 82.4994C114.969 81.3465 116.321 79.5289 115.366 78.1981C114.973 77.6504 114.671 77.5768 114.026 77.5001C107.415 76.4161 110.505 75.0563 108.199 72.7722L108.374 72.3268L109.465 72.2157C110.174 72.1904 110.889 72.1708 111.597 72.1057C113.132 71.9645 113.525 70.1468 114.39 69.0933C114.98 69.5889 115.17 69.8678 115.949 69.9532L117.241 69.3159C117.865 68.1015 117.21 66.6232 117.238 65.2963L118.308 64.8584C120.221 65.2427 122.154 65.4275 124.092 65.6304C128.366 64.8708 133.132 66.3987 137.653 65.7405C140.753 65.2844 143.767 64.7238 146.814 63.9935L147.647 64.0201Z"/>
	<path fill="#F65060" transform="scale(2.34239 2.34239)" d="M117.743 69.8532C121.131 70.3643 123.968 71.0674 127.091 72.5687C126.763 73.0812 126.398 73.6841 125.841 73.9726C124.81 74.5075 123.314 74.3225 122.264 73.9379C120.228 73.1924 118.659 71.8149 117.743 69.8532Z"/>
	<path fill="#B70615" transform="scale(2.34239 2.34239)" d="M147.647 64.0201C148.303 63.8858 148.952 63.7264 149.603 63.5668C149.619 64.3339 149.535 65.0929 150.102 65.6831C151.193 66.3929 152.509 66.4377 153.715 66.8699C156.315 67.4748 158.346 68.1584 160.328 70.0408C157.91 71.9062 156.161 70.1142 153.327 70.8313C147.405 72.3296 142.415 75.8942 136.235 76.4341C133.972 74.8222 129.823 72.8677 127.091 72.5687C123.968 71.0674 121.131 70.3643 117.743 69.8532L117.241 69.3159C117.865 68.1015 117.21 66.6232 117.238 65.2963L118.308 64.8584C120.221 65.2427 122.154 65.4275 124.092 65.6304C128.366 64.8708 133.132 66.3987 137.653 65.7405C140.753 65.2844 143.767 64.7238 146.814 63.9935L147.647 64.0201Z"/>
	<path fill="#F65060" transform="scale(2.34239 2.34239)" d="M118.308 64.8584C120.221 65.2427 122.154 65.4275 124.092 65.6304L124.776 65.8721L124.947 66.2697C124.587 66.7319 124.447 66.7732 123.868 66.8704C121.88 67.2039 118.892 66.5081 117.238 65.2963L118.308 64.8584Z"/>
	<path fill="#F65060" transform="scale(2.34239 2.34239)" d="M147.647 64.0201C148.303 63.8858 148.952 63.7264 149.603 63.5668C149.619 64.3339 149.535 65.0929 150.102 65.6831C151.193 66.3929 152.509 66.4377 153.715 66.8699C153.642 66.9715 153.618 67.0105 153.528 67.1125C152.298 68.5067 149.88 68.6284 148.158 68.7853C148.062 67.9651 148.178 67.0275 147.885 66.2498C147.74 65.8653 147.519 65.8654 147.158 65.7063L147.153 65.6769L147.44 65.2989L147.468 65.3882C147.386 64.7486 147.401 64.6158 147.647 64.0201Z"/>
	<path fill="#F11832" transform="scale(2.34239 2.34239)" d="M146.814 63.9935L147.647 64.0201C147.401 64.6158 147.386 64.7486 147.468 65.3882L147.44 65.2989L147.153 65.6769L147.158 65.7063C144.898 66.743 141.89 67.5357 139.396 67.0455C138.506 66.8706 138.134 66.4808 137.653 65.7405C140.753 65.2844 143.767 64.7238 146.814 63.9935Z"/>
	<path fill="#010000" transform="scale(2.34239 2.34239)" d="M143.157 95.8053C144.438 94.0783 155.977 92.3069 158.568 91.5022C158.506 93.807 157.903 96.098 157.448 98.351C156.379 103.641 154.94 109.403 154.974 114.826C152.835 115.323 150.645 115.789 148.605 116.611C147.194 118.573 146.223 120.875 145.171 123.044L144.633 123.798C145.536 125.592 145.752 127.333 145.932 129.303C146.042 129.781 146.095 130.344 146.453 130.701C143.958 131.518 141.488 132.298 138.932 132.902C138.139 133.23 137.369 133.583 136.511 133.695C136.373 133.033 136.374 132.968 135.871 132.526L135.832 132.246C135.821 130.57 136.098 128.965 135.874 127.283C136.476 127.387 137.171 127.018 137.735 126.813L137.936 126.175L137.284 125.779L138.763 125.282L139.827 124.883C138.71 123.214 137.64 121.535 136.214 120.107C132.813 121.283 129.354 122.238 125.871 123.135C127.098 115.055 127.335 106.905 127.996 98.7769C130.451 98.0424 134.135 96.8807 136.686 96.9849C139.019 95.7511 140.483 95.1417 143.157 95.8053Z"/>
	<path fill="#AFA7B1" transform="scale(2.34239 2.34239)" d="M146.767 114.473C146.999 114.861 147.17 115.238 147.6 115.435C146.965 118.349 144.339 121.731 142.698 124.21C143.241 120.713 145.183 117.592 146.767 114.473Z"/>
	<path fill="#FEFDFE" transform="scale(2.34239 2.34239)" d="M142.941 98.4469C147.062 97.1267 151.711 95.2857 156.024 94.8954L156.249 95.0932C156.098 96.2217 155.894 97.3336 155.679 98.4511L154.442 97.8635C153.644 97.4335 151.848 98.2198 150.915 98.4995C149.084 99.0488 147.27 99.7587 145.39 100.12L142.941 98.4469Z"/>
	<path fill="#DBD9DE" transform="scale(2.34239 2.34239)" d="M154.442 97.8635L155.679 98.4511C155.46 101.334 154.62 108.902 153.784 111.392C152.424 112.737 151.013 113.129 149.229 113.624L147.6 115.435C147.17 115.238 146.999 114.861 146.767 114.473C146.852 114.314 146.943 114.167 147.041 114.017C148.168 112.287 150.243 111.544 152.174 111.136C153.093 109.071 152.862 105.93 153.137 103.665C153.381 101.663 153.833 99.783 154.442 97.8635Z"/>
	<path fill="#FAB3C4" transform="scale(2.34239 2.34239)" d="M144.633 123.798C145.536 125.592 145.752 127.333 145.932 129.303C146.042 129.781 146.095 130.344 146.453 130.701C143.958 131.518 141.488 132.298 138.932 132.902C138.139 133.23 137.369 133.583 136.511 133.695C136.373 133.033 136.374 132.968 135.871 132.526L135.832 132.246C135.821 130.57 136.098 128.965 135.874 127.283C136.476 127.387 137.171 127.018 137.735 126.813L137.936 126.175L137.284 125.779L138.763 125.282L139.827 124.883L139.932 125.045C140.969 126.672 140.972 128.799 142.871 129.699L143.615 129.694C143.135 129.406 142.738 129.182 142.588 128.622C142.193 127.153 143.891 124.968 144.633 123.798Z"/>
	<path fill="#F7DBDD" transform="scale(2.34239 2.34239)" d="M145.932 129.303C146.042 129.781 146.095 130.344 146.453 130.701C143.958 131.518 141.488 132.298 138.932 132.902L138.622 132.591L138.743 131.985C139.19 131.538 139.337 131.406 139.969 131.229C141.378 130.901 142.483 130.095 143.97 129.827C144.54 129.887 145.01 129.875 145.575 129.804L145.932 129.303Z"/>
	<path fill="#FEFDFE" transform="scale(2.34239 2.34239)" d="M136.686 96.9849C139.019 95.7511 140.483 95.1417 143.157 95.8053C141.982 98.0003 138.258 99.2505 136.027 99.9262Q135.902 99.9641 135.777 99.9993C136.454 101.234 137.094 102.42 138.02 103.491C136.196 104.057 134.329 104.571 132.544 105.248C131.723 108.909 131.578 112.564 130.963 116.238C132.734 115.767 136.333 114.271 137.928 115.234C139.286 116.054 141.923 120.273 142.238 121.801C142.389 122.534 142.473 123.294 142.562 124.037L142.347 124.054C141 122.045 139.559 117.636 136.988 117.126C134.895 116.711 131.507 118.22 129.46 118.86C129.603 113.662 130.291 108.433 130.322 103.256C131.689 103.062 133.434 102.971 134.345 101.785C135.428 100.374 135.596 98.4953 136.686 96.9849Z"/>
	<path fill="#D10723" transform="scale(2.34239 2.34239)" d="M141.543 99.3128L142.237 99.2654C143.15 99.7973 143.729 100.766 144.339 101.606C147.224 101.033 149.894 99.7262 152.805 99.1895C152.381 102.791 151.818 106.375 151.386 109.976C149.783 110.419 148.415 111.046 146.969 111.854C145.622 114.006 144.615 116.446 143.517 118.736C143.464 118.757 143.413 118.787 143.358 118.8C141.785 119.169 140.514 115.634 139.296 114.778C137.062 113.21 134.551 113.924 132.098 114.367C132.153 112.535 132.12 110.419 132.789 108.697C133.864 105.933 136.942 104.955 139.434 103.841Q138.998 103.095 138.581 102.338C138.174 101.587 138.015 101.22 138.26 100.397C139.096 99.6841 140.49 99.5484 141.543 99.3128Z"/>
</svg>
