<?xml version="1.0" encoding="utf-8" ?>
<svg xmlns="http://www.w3.org/2000/svg" xmlns:xlink="http://www.w3.org/1999/xlink" width="3218" height="3218">
	<path fill="#458BE5" transform="scale(4.02269 4.02269)" d="M361.493 628.344C364.326 627.066 366.765 626.847 369.791 627.607C370.264 629.213 371.402 629.371 372.375 630.631C368.742 630.152 365.077 629.131 361.493 628.344Z"/>
	<path fill="#1763C7" transform="scale(4.02269 4.02269)" d="M341.316 567.683C344.246 567.736 346.812 567.961 349.619 568.916C352.933 569.689 356.529 570.987 359.894 571.275C361.555 571.847 363.909 571.613 365.204 572.669C369.425 572.527 374.143 574.682 378.372 575.384C387.292 577.875 396.464 579.532 405.499 581.551C411.718 582.94 421.098 586.144 427.186 585.884Q469.857 595.905 512.755 604.906C525.687 607.497 538.939 608.847 551.711 612.031C577.02 614.569 602.013 620.679 626.876 625.795C633.095 626.575 640.058 623.391 645.761 621.38C647.059 620.922 648.261 620.738 649.46 620.017C648.246 615.233 647.88 610.24 647.462 605.336C648.958 603.108 654.659 605.526 658.654 603.486C658.57 613.966 658.555 624.471 657.997 634.938C666.938 644.178 676.167 653.142 685.088 662.396C646.451 652.863 607.238 644.741 568.14 637.317C556.622 635.13 545.015 633.409 533.477 631.319C521.848 629.212 510.36 626.749 498.826 624.179L494.457 623.222C496.449 638.978 504.502 648.78 515.327 659.705C488.036 653.473 460.304 648.992 432.827 643.657C420.72 641.306 408.564 639.024 396.526 636.344C388.448 634.545 380.477 632.368 372.375 630.631C371.402 629.371 370.264 629.213 369.791 627.607Q370.641 627.703 371.493 627.773C377.075 628.221 381.66 627.939 386.086 624.149Q386.312 623.471 386.482 622.776C387.159 619.995 388.087 614.774 386.622 612.269C394.436 614.376 402.494 615.815 410.247 618.057C410.327 617.946 410.411 617.839 410.487 617.725C411.998 615.439 415.007 609.269 414.49 606.582L413.442 605.918C403.037 603.74 392.546 601.516 382.268 598.797C378.338 597.757 374.513 596.351 370.602 595.246C362.324 592.906 353.6 590.765 345.132 589.266C338.326 588.062 331.527 587.486 324.628 587.161C318.807 586.886 312.69 586.898 306.963 585.795L306.857 585.52Q324.378 577.165 341.316 567.683Z"/>
	<path fill="#B6C8D1" transform="scale(4.02269 4.02269)" d="M483.193 620.818C484.695 621.218 485.859 621.471 486.708 622.915C488.64 626.203 487.744 631.342 488.226 635.057C486.299 634.679 484.266 634.107 482.298 634.173C482.145 632.861 481.711 630.403 482.37 629.235C482.426 629.136 482.51 629.055 482.58 628.966L482.418 628.987L482.844 629.24C482.863 630.052 482.857 630.677 483.187 631.429L483.778 631.479C485.147 628.24 482.447 624.159 483.193 620.818Z"/>
	<path fill="#99C0D7" transform="scale(4.02269 4.02269)" d="M649.46 620.017C650.275 624.033 650.758 627.967 651.132 632.041C643.071 629.908 634.881 628.115 626.876 625.795C633.095 626.575 640.058 623.391 645.761 621.38C647.059 620.922 648.261 620.738 649.46 620.017Z"/>
	<path fill="#458BE5" transform="scale(4.02269 4.02269)" d="M413.442 605.918C416.83 604.941 450.845 613.433 457.846 615.062C461.551 615.924 466.101 617.483 469.879 617.593C474.259 618.797 478.739 619.92 483.193 620.818C482.447 624.159 485.147 628.24 483.778 631.479L483.187 631.429C482.857 630.677 482.863 630.052 482.844 629.24L482.418 628.987L482.58 628.966C482.51 629.055 482.426 629.136 482.37 629.235C481.711 630.403 482.145 632.861 482.298 634.173C479.87 633.632 480.372 632.513 479.029 630.997C479.065 631.813 478.975 632.471 478.806 633.269C476.279 633.623 413.178 619.779 410.247 618.057C410.327 617.946 410.411 617.839 410.487 617.725C411.998 615.439 415.007 609.269 414.49 606.582L413.442 605.918Z"/>
	<path fill="#458BE5" transform="scale(4.02269 4.02269)" d="M365.204 572.669C369.425 572.527 374.143 574.682 378.372 575.384C387.292 577.875 396.464 579.532 405.499 581.551C411.718 582.94 421.098 586.144 427.186 585.884Q469.857 595.905 512.755 604.906C525.687 607.497 538.939 608.847 551.711 612.031C550.902 612.064 550.113 612.14 549.31 612.236C547.72 615.085 545.99 617.659 543.18 619.457C539.416 621.867 534.565 622.69 530.137 622.601C525.784 622.514 521.122 621.589 516.837 620.787C501.564 617.927 486.901 612.951 471.807 609.398C458.173 606.188 444.244 603.979 430.619 600.71C421.394 598.497 412.312 595.643 403.155 593.167C397.308 591.586 379.475 587.901 375.5 585.435C371.252 582.8 367.796 576.885 365.204 572.669Z"/>
	<defs>
		<linearGradient id="gradient_0" gradientUnits="userSpaceOnUse" x1="223.27118" y1="545.78766" x2="168.2343" y2="657.28406">
			<stop offset="0" stop-color="#129249"/>
			<stop offset="1" stop-color="#137B4F"/>
		</linearGradient>
	</defs>
	<path fill="url(#gradient_0)" transform="scale(4.02269 4.02269)" d="M82.7876 480.275C88.1027 481.137 93.6509 482.731 99.0133 482.954L99.1397 483.152C95.9347 499.682 91.0092 519.894 85.2983 535.711C83.2205 541.465 80.6242 546.992 78.2642 552.63C76.9154 555.853 75.8222 559.209 74.3545 562.376C72.8826 566.243 71.2494 569.997 70.7342 574.135C74.6297 574.687 78.4604 576.193 82.2489 577.244C87.2668 578.636 92.5811 579.589 97.4275 581.505C98.2296 581.568 98.5121 581.661 99.1245 582.186C100.319 583.558 109.373 585.681 111.561 585.857C111.765 585.873 111.969 585.853 112.173 585.85C114.398 585.578 113.874 582.192 115.607 580.777C115.549 582.453 114.879 585.335 115.518 586.835C116.95 587.957 119.547 588.084 121.327 588.6C122.443 588.996 123.667 589.168 124.74 589.612L128.592 590.231C129.847 590.383 131.57 590.849 132.708 590.36C134.326 590.243 135.861 590.195 137.479 590.324L137.552 590.282C142.983 589.356 148.515 590.056 154.073 588.965C162.645 586.415 171.091 582.434 179.054 578.371C182.604 576.56 186.737 573.491 190.533 572.501C193.07 572.178 195.535 572.031 198.091 571.995C209.212 573.987 220.271 576.253 231.377 578.31C244.873 580.808 258.42 583.136 271.821 586.112C283.045 588.604 294.17 591.572 305.344 594.276L364.447 608.034C371.773 609.684 379.259 610.638 386.622 612.269C388.087 614.774 387.159 619.995 386.482 622.776Q386.312 623.471 386.086 624.149C381.66 627.939 377.075 628.221 371.493 627.773Q370.641 627.703 369.791 627.607C366.765 626.847 364.326 627.066 361.493 628.344L336.873 623.428C333.658 622.996 330.461 622.408 327.264 621.862C332.545 632.769 339.169 641.912 347.417 650.756C335.641 647.882 323.621 645.907 311.713 643.671L254.484 632.825L101.464 601.938C97.2042 600.36 91.8021 599.876 87.3285 599.031C68.7589 595.524 50.0736 592.421 31.1462 591.896C38.3098 588.125 45.5244 583.263 52.1884 578.657C54.788 576.861 57.0505 574.794 58.4563 571.916C61.8391 564.992 62.7014 555.443 64.8412 547.917C67.4291 538.815 70.7732 529.923 73.4295 520.832C77.3181 507.525 80.2297 493.895 82.7876 480.275Z"/>
	<path fill="#1CA45D" transform="scale(4.02269 4.02269)" d="M97.4275 581.505C93.4691 582.489 76.1905 577.012 71.9653 575.496C70.8102 575.082 69.664 574.786 69.1313 573.651C69.3286 570.439 72.2725 564.884 74.3545 562.376C72.8826 566.243 71.2494 569.997 70.7342 574.135C74.6297 574.687 78.4604 576.193 82.2489 577.244C87.2668 578.636 92.5811 579.589 97.4275 581.505Z"/>
	<path fill="#1CA45D" transform="scale(4.02269 4.02269)" d="M167.115 593.252C182.538 593.485 191.39 593.148 206.641 597.344Q206.466 598.324 206.275 599.301C205.77 601.882 204.828 606.942 202.541 608.484C201.566 608.271 201.735 608.207 201.189 607.451C201.311 606.492 201.463 605.554 201.64 604.604L201.203 604.235C200.731 604.901 200.849 604.649 200.588 605.266C200.317 605.909 200.109 606.552 199.642 607.086C199.015 607.803 198.906 607.803 198.018 607.817C197.049 606.849 196.771 605.439 196.374 604.163L195.927 604.072C195.629 604.651 195.302 605.164 194.926 605.695C190.939 607.253 182.732 604.003 178.632 602.876C179.012 601.458 179.604 599.64 179.195 598.206L178.747 598.203C178.333 599.708 177.932 601.156 177.304 602.589L176.534 602.709C175.036 600.646 178.115 597.57 177.576 595.114L176.879 595.355C176.324 597.454 175.689 599.956 174.463 601.752L173.957 601.77C173.814 599.652 174.801 597.747 174.973 595.656C174.991 595.434 175.002 595.212 175.017 594.99L174.362 595.474C173.893 597.716 173.345 599.809 171.637 601.429C170.67 601.716 170.387 601.835 169.434 601.303C166.407 599.616 169.252 597.223 168.549 594.967C167.88 595.59 168.031 595.297 167.746 596.098C167.373 597.145 167.166 598.2 166.403 599.051C165.887 599.627 166.143 599.516 165.532 599.556C165.06 597.334 166.169 595.192 167.115 593.252Z"/>
	<defs>
		<linearGradient id="gradient_1" gradientUnits="userSpaceOnUse" x1="246.83606" y1="640.16534" x2="280.25143" y2="565.771">
			<stop offset="0" stop-color="#0940A6"/>
			<stop offset="1" stop-color="#2495FC"/>
		</linearGradient>
	</defs>
	<path fill="url(#gradient_1)" transform="scale(4.02269 4.02269)" d="M198.091 571.995C209.212 573.987 220.271 576.253 231.377 578.31C244.873 580.808 258.42 583.136 271.821 586.112C283.045 588.604 294.17 591.572 305.344 594.276L364.447 608.034C371.773 609.684 379.259 610.638 386.622 612.269C388.087 614.774 387.159 619.995 386.482 622.776Q386.312 623.471 386.086 624.149C381.66 627.939 377.075 628.221 371.493 627.773Q370.641 627.703 369.791 627.607C366.765 626.847 364.326 627.066 361.493 628.344L336.873 623.428C333.658 622.996 330.461 622.408 327.264 621.862C323.609 620.343 318.824 620.156 314.916 619.316C299.538 616.01 284.059 613.14 268.7 609.773C263.05 609.113 257.295 607.614 251.711 606.49C236.709 603.47 221.722 599.887 206.641 597.344C191.39 593.148 182.538 593.485 167.115 593.252C158.784 592.273 138.169 594.192 132.708 590.36C134.326 590.243 135.861 590.195 137.479 590.324L137.552 590.282C142.983 589.356 148.515 590.056 154.073 588.965C162.645 586.415 171.091 582.434 179.054 578.371C182.604 576.56 186.737 573.491 190.533 572.501C193.07 572.178 195.535 572.031 198.091 571.995Z"/>
	<path fill="#1763C7" transform="scale(4.02269 4.02269)" d="M268.7 609.773C268.825 609.775 268.951 609.78 269.076 609.78C272.278 609.788 274.969 608.314 278.319 608.696C287.775 609.774 297.778 613.282 307.117 615.428C313.976 617.004 321.029 617.692 327.845 619.377C329.922 619.89 334.14 620.695 335.762 622.044C336.22 622.426 336.543 622.942 336.873 623.428C333.658 622.996 330.461 622.408 327.264 621.862C323.609 620.343 318.824 620.156 314.916 619.316C299.538 616.01 284.059 613.14 268.7 609.773Z"/>
	<defs>
		<linearGradient id="gradient_2" gradientUnits="userSpaceOnUse" x1="304.69559" y1="607.49097" x2="315.82693" y2="479.71817">
			<stop offset="0" stop-color="#A6BFD0"/>
			<stop offset="1" stop-color="#CAE6E8"/>
		</linearGradient>
	</defs>
	<path fill="url(#gradient_2)" transform="scale(4.02269 4.02269)" d="M233.399 471.284C242.47 472.647 251.662 475.067 260.596 477.188C260.708 477.247 260.824 477.3 260.933 477.365C261.402 477.641 261.622 477.924 261.945 478.347C269.622 480.312 277.433 481.823 285.163 483.573C297.502 486.366 309.823 489.3 322.197 491.931C328.899 493.357 335.836 494.147 342.471 495.813C343.727 496.128 344.738 496.459 345.692 497.349C345.812 498.112 345.649 498.463 345.379 499.155C344.991 500.149 345.022 500.565 345.268 501.587L345.6 501.687C346.778 500.802 347.631 501.043 349.082 501.253C352.552 501.756 355.557 503.685 358.888 504.369C353.773 518.525 348.172 532.429 344.76 547.135C343.168 553.995 342.365 560.75 341.316 567.683Q324.378 577.165 306.857 585.52L306.963 585.795C312.69 586.898 318.807 586.886 324.628 587.161C331.527 587.486 338.326 588.062 345.132 589.266C353.6 590.765 362.324 592.906 370.602 595.246C374.513 596.351 378.338 597.757 382.268 598.797C392.546 601.516 403.037 603.74 413.442 605.918L414.49 606.582C415.007 609.269 411.998 615.439 410.487 617.725C410.411 617.839 410.327 617.946 410.247 618.057C402.494 615.815 394.436 614.376 386.622 612.269C379.259 610.638 371.773 609.684 364.447 608.034L305.344 594.276C294.17 591.572 283.045 588.604 271.821 586.112C258.42 583.136 244.873 580.808 231.377 578.31C220.271 576.253 209.212 573.987 198.091 571.995C200.394 566.984 202.342 561.75 204.522 556.676C210.331 543.151 216.063 529.632 220.611 515.617C224.8 502.704 227.871 489.393 232.299 476.583C233.012 474.88 233.158 473.1 233.399 471.284Z"/>
	<path fill="#CDE9F6" transform="scale(4.02269 4.02269)" d="M220.461 553.787C220.892 555.682 221.31 559.365 220.062 560.998C219.297 562.001 218.159 561.729 217.038 561.757L216.965 561.245L217.225 560.874C217.342 560.707 217.452 560.536 217.572 560.371C219.038 558.346 218.818 555.73 220.461 553.787Z"/>
	<path fill="#B6C8D1" transform="scale(4.02269 4.02269)" d="M249.514 568.694C250.588 569.708 250.225 570.995 251.936 570.993C252.093 570.993 252.251 570.98 252.408 570.974L252.773 571.314C252.284 572.23 251.69 573.72 250.992 574.466C250.32 575.182 249.62 575.474 248.626 575.416C247.607 575.356 247.453 575.004 246.969 574.237C246.957 573.21 247.019 572.148 246.681 571.165C246.631 571.019 246.554 570.883 246.491 570.743C246.466 570.181 246.4 570.476 246.853 569.912L248.007 570.288L248.66 570.177L249.514 568.694Z"/>
	<path fill="#99C0D7" transform="scale(4.02269 4.02269)" d="M235.722 566.501L236.436 564.684L237.05 564.57C237.196 565.302 237.315 566.03 237.418 566.769C238.159 567.219 237.772 567.158 238.499 567.045C239.519 566.887 240.926 566.562 241.892 567.117C242.11 567.241 242.284 567.429 242.479 567.586L242.301 569.06L242.858 569.307C243.41 568.692 244.147 568.034 244.577 567.337L245.073 567.206L245.151 566.62L245.119 568.254L245.514 568.657C246.274 568.316 246.936 567.936 247.634 567.479C248.188 567.988 248.027 568.228 248.053 568.934C248.07 569.391 248.046 569.833 248.007 570.288L246.853 569.912C246.4 570.476 246.466 570.181 246.491 570.743C245.728 571.693 245.29 572.536 244.148 572.998L243.689 572.431C243.986 571.307 244.76 571.157 245.715 570.567L245.518 570.125L244.633 569.928C243.296 570.452 242.603 571.254 241.646 572.3C238.566 570.466 233.016 568.539 229.479 569.391C228.476 569.632 229.006 569.614 227.976 569.452L227.784 568.761C228.158 567.682 228.461 566.746 229.177 565.832C231.282 565.906 232.731 566.133 234.713 566.921L235.303 567.151C235.42 567.198 235.536 567.248 235.653 567.297L235.722 566.501Z"/>
	<path fill="#C0E0EA" transform="scale(4.02269 4.02269)" d="M229.177 565.832C228.932 565.695 228.684 565.564 228.439 565.425C227.942 565.143 227.674 564.948 227.129 564.738C226.109 564.345 225.421 564.562 224.457 564.929C223.307 566.304 223.891 567.455 223.438 569.113C223.265 569.747 223.324 569.535 222.673 569.926L222.112 569.394C222.07 568.908 222.05 568.38 221.962 567.897C221.656 566.22 220.664 565.64 219.347 564.712C217.932 565.579 218.013 567.561 216.773 568.748L216.154 568.484L215.617 566.299C214.432 565.433 210.442 562.718 210.201 561.458C211.524 561.361 213.655 563.192 215.13 563.65C216.107 563.154 217.096 563.19 218.166 563.145C219.907 563.073 220.775 562.179 222.099 561.141C222.648 560.71 222.703 560.664 223.427 560.504L223.876 560.972L223.614 562.683L224.232 562.992L225.231 562.141C226.412 562.374 226.18 563.26 227.209 563.943L228.316 563.684C229.329 563.412 230.304 563.128 231.285 562.749C233.079 563.01 234.042 563.76 235.066 565.232C235.34 565.626 235.526 566.067 235.722 566.501L235.653 567.297C235.536 567.248 235.42 567.198 235.303 567.151L234.713 566.921C232.731 566.133 231.282 565.906 229.177 565.832Z"/>
	<path fill="#CDE9F6" transform="scale(4.02269 4.02269)" d="M245.518 555.364C246.116 553.995 246.658 552.595 247.499 551.353C248.294 551.987 248.284 553.661 248.656 554.666C248.87 553.647 248.846 552.761 248.793 551.733C249.752 551.413 250.355 551.744 251.224 552.195C252.609 552.913 253.893 553.799 254.956 554.941C255.082 556.166 254.736 557.094 254.463 558.264C254.28 559.047 254.299 558.738 254.509 559.526C255.911 560.018 257.318 560.405 258.757 560.772C258.936 562.245 258.406 564.215 259.245 565.425C260.12 565.088 259.937 564.918 260.582 564.479C260.682 564.411 260.813 564.405 260.928 564.368C261.405 565.258 261.256 566.038 261.173 567.002C261.631 567.725 262.003 567.987 262.743 568.406C262.242 569.005 262.491 568.807 262.075 569.087L261.55 569.802L262.115 571.469C261.545 572.275 261.9 572.092 260.97 572.24C258.841 572.579 254.681 572.264 252.773 571.314L252.408 570.974C252.251 570.98 252.093 570.993 251.936 570.993C250.225 570.995 250.588 569.708 249.514 568.694L248.66 570.177L248.007 570.288C248.046 569.833 248.07 569.391 248.053 568.934C248.027 568.228 248.188 567.988 247.634 567.479C246.936 567.936 246.274 568.316 245.514 568.657L245.119 568.254L245.151 566.62L245.073 567.206L244.577 567.337C244.147 568.034 243.41 568.692 242.858 569.307L242.301 569.06L242.479 567.586C242.284 567.429 242.11 567.241 241.892 567.117C240.926 566.562 239.519 566.887 238.499 567.045C237.772 567.158 238.159 567.219 237.418 566.769C237.315 566.03 237.196 565.302 237.05 564.57L236.436 564.684L235.722 566.501C235.526 566.067 235.34 565.626 235.066 565.232C234.042 563.76 233.079 563.01 231.285 562.749C230.304 563.128 229.329 563.412 228.316 563.684C228.267 563.297 228.235 561.956 228.062 561.693C226.827 559.813 224.594 560.036 224.913 557.168C225.641 556.603 225.294 556.643 226.096 556.763C226.959 556.892 227.701 557.137 228.527 557.407C229.484 556.906 229.321 556.732 229.64 555.721C229.989 554.616 229.94 554.494 230.824 553.765C232.994 553.549 235.157 553.413 237.322 553.128C237.895 553.743 238.431 554.391 238.997 555.013C238.925 555.884 238.262 557.466 238.681 558.138C240.296 557.027 239.778 552.134 242.352 552.525C242.972 554.235 241.507 556.062 242.189 557.818L242.682 557.575C243.155 555.826 243.119 553.222 244.106 551.745L244.73 551.542C245.562 552.544 245.405 554.115 245.518 555.364Z"/>
	<path fill="#C0E0EA" transform="scale(4.02269 4.02269)" d="M249.514 568.694C250.252 567.349 249.766 565.817 250.828 564.481L251.393 564.619L252.059 566.576L252.543 566.734Q253.418 566.062 254.256 565.344C254.426 566.192 254.518 567.035 254.618 567.894L255.833 567.995C257.658 569.067 260.01 568.873 262.075 569.087L261.55 569.802L262.115 571.469C261.545 572.275 261.9 572.092 260.97 572.24C258.841 572.579 254.681 572.264 252.773 571.314L252.408 570.974C252.251 570.98 252.093 570.993 251.936 570.993C250.225 570.995 250.588 569.708 249.514 568.694Z"/>
	<path fill="#7BE9C7" transform="scale(4.02269 4.02269)" d="M118.584 387.321C121.476 387.96 136.335 389.44 137.502 390.679C153.979 393.811 170.472 396.664 186.918 399.988Q196.535 401.867 206.128 403.866C209.711 404.647 213.349 405.736 216.951 406.321L217.172 406.551C216.954 407.556 216.717 408.549 216.583 409.57C217.991 411.246 228.121 412.93 230.863 413.527C227.681 426.107 224.981 438.802 221.749 451.369C220.363 456.76 219.037 462.56 217.116 467.78C222.425 469.331 227.96 470.308 233.399 471.284C233.158 473.1 233.012 474.88 232.299 476.583C227.871 489.393 224.8 502.704 220.611 515.617C216.063 529.632 210.331 543.151 204.522 556.676C202.342 561.75 200.394 566.984 198.091 571.995C195.535 572.031 193.07 572.178 190.533 572.501C186.737 573.491 182.604 576.56 179.054 578.371C171.091 582.434 162.645 586.415 154.073 588.965C148.515 590.056 142.983 589.356 137.552 590.282L137.479 590.324C135.861 590.195 134.326 590.243 132.708 590.36C131.57 590.849 129.847 590.383 128.592 590.231L124.74 589.612C123.667 589.168 122.443 588.996 121.327 588.6C119.547 588.084 116.95 587.957 115.518 586.835C114.879 585.335 115.549 582.453 115.607 580.777C113.874 582.192 114.398 585.578 112.173 585.85C111.969 585.853 111.765 585.873 111.561 585.857C109.373 585.681 100.319 583.558 99.1245 582.186C98.5121 581.661 98.2296 581.568 97.4275 581.505C92.5811 579.589 87.2668 578.636 82.2489 577.244C78.4604 576.193 74.6297 574.687 70.7342 574.135C71.2494 569.997 72.8826 566.243 74.3545 562.376C75.8222 559.209 76.9154 555.853 78.2642 552.63C80.6242 546.992 83.2205 541.465 85.2983 535.711C91.0092 519.894 95.9347 499.682 99.1397 483.152L99.0133 482.954C93.6509 482.731 88.1027 481.137 82.7876 480.275L83.5027 476.704C88.9586 477.495 95.4086 479.464 100.679 479.688C100.868 474.031 105.07 459.498 106.403 453.07Q112.558 422.481 117.912 391.742L118.584 387.321Z"/>
	<path fill="#75D2BB" transform="scale(4.02269 4.02269)" d="M152.467 571.94C154.38 571.063 157.046 568.761 159.123 569.295L159.78 572.34L160.062 572.406C160.126 572.281 160.188 572.155 160.254 572.031C161.018 570.573 161.524 570.288 162.69 569.239C163.878 568.17 163.844 566.191 165.204 565.319C165.976 566.14 166.029 566.832 166.006 567.932C165.952 570.468 165.359 572.877 165.193 575.365C164.508 575.285 164.783 575.295 164.154 575.298Q161.632 575.327 159.117 575.127C156.302 574.901 154.307 574.114 152.467 571.94Z"/>
	<path fill="#75D2BB" transform="scale(4.02269 4.02269)" d="M118.584 387.321C121.476 387.96 136.335 389.44 137.502 390.679C137.451 391.835 137.381 392.989 137.417 394.146C130.904 393.714 124.472 391.785 117.912 391.742L118.584 387.321Z"/>
	<path fill="#75D2BB" transform="scale(4.02269 4.02269)" d="M122.053 556.351C121.57 555.697 121.117 555.077 120.689 554.385C122.161 554.347 122.693 554.973 123.8 555.878C124.895 556.773 126.222 557.745 127.74 557.45C128.631 557.276 129.058 556.723 129.547 556.026L129.974 556.35C129.916 557.344 129.903 557.984 129.135 558.709C128.61 559.204 127.93 559.608 127.329 560.006C127.513 560.084 127.695 560.165 127.88 560.24C128.463 560.479 129.009 560.65 129.615 560.808C130.74 562.077 130.68 563.255 130.937 564.878C135.34 566.627 140.554 568.559 144.297 571.485L144.456 572.037C143.547 571.957 143.263 571.776 142.458 571.38C141.262 570.792 140.301 570.279 138.943 570.649C138.386 570.8 137.966 571.163 137.699 571.688C137.231 572.61 137.293 573.525 137.51 574.495C137.024 575.027 137.326 574.801 136.569 575.119C136.452 574.753 136.325 574.39 136.223 574.019C136.013 573.264 135.526 572.912 134.995 572.342C133.826 571.946 133.053 572.163 131.898 572.427C131.617 574.482 131.421 576.601 130.682 578.552C129.724 577.762 129.306 576.636 128.24 575.785C127.977 574.283 128.27 572.64 128.412 571.129L127.913 570.715C126.705 570.67 125.737 570.654 124.613 570.139C123.481 567.778 125.553 563.504 125.939 560.909C125.955 560.801 125.968 560.693 125.983 560.585C124.85 560.12 123.928 559.864 122.708 559.731C123.471 559.24 123.786 558.934 124.212 558.131C123.673 557.058 123.085 556.925 122.053 556.351Z"/>
	<path fill="#7BE9C7" transform="scale(4.02269 4.02269)" d="M126.108 560.126L127.073 560.38C127.268 562.027 125.513 562.427 127.247 563.979C127.825 563.332 128.125 562.697 128.5 561.924L129.123 561.942C129.54 562.962 129.269 563.894 129.091 564.94C128.621 565.934 128.278 566.342 128.415 567.45C129.562 567.955 131.02 567.504 131.863 568.317C131.814 569.654 131.617 571.118 131.898 572.427C131.617 574.482 131.421 576.601 130.682 578.552C129.724 577.762 129.306 576.636 128.24 575.785C127.977 574.283 128.27 572.64 128.412 571.129L127.913 570.715C126.705 570.67 125.737 570.654 124.613 570.139C123.481 567.778 125.553 563.504 125.939 560.909C125.955 560.801 125.968 560.693 125.983 560.585L126.108 560.126Z"/>
	<path fill="#67C6AD" transform="scale(4.02269 4.02269)" d="M131.898 572.427C133.053 572.163 133.826 571.946 134.995 572.342C135.526 572.912 136.013 573.264 136.223 574.019C136.325 574.39 136.452 574.753 136.569 575.119C137.326 574.801 137.024 575.027 137.51 574.495C137.583 574.629 137.673 574.754 137.728 574.896C138.093 575.829 137.906 576.742 137.873 577.714C137.847 578.493 137.801 578.188 138.137 578.887C138.801 578.632 138.997 578.525 139.505 578.084L140.144 578.352C140.446 579.671 140.42 580.974 140.437 582.322C140.666 582.312 140.896 582.297 141.126 582.293C141.269 582.291 141.413 582.299 141.557 582.303C141.652 582.683 141.832 583.145 141.803 583.533C141.696 584.969 141.47 586.494 141.756 587.908C143.715 585.155 142.936 581.407 144.554 578.521L145.159 578.498C145.709 579.383 145.735 579.844 145.48 580.873C145.275 581.705 144.942 582.531 144.648 583.336L145.751 583.611C146.098 582.772 146.311 582.2 147.011 581.603C147.877 581.869 147.851 581.884 148.257 582.652C148.97 584 149.561 585.955 149.771 587.451C150.549 587.581 150.184 587.618 150.869 587.387C151.999 588.57 152.338 588.897 154.073 588.965C148.515 590.056 142.983 589.356 137.552 590.282C137.7 589.914 137.956 589.314 138.035 588.941C138.664 585.945 134.891 586.423 133.639 584.185C133.794 583.383 133.879 582.657 133.89 581.84C130.899 579.476 131.236 581.48 129.116 581.674L128.963 581.078C129.471 580.044 129.841 579.369 130.682 578.552C131.421 576.601 131.617 574.482 131.898 572.427Z"/>
	<path fill="#88C0BE" transform="scale(4.02269 4.02269)" d="M145.751 583.611C145.679 585.123 145.657 586.823 144.78 588.099L144.143 588.179C144.072 588.034 143.989 587.895 143.932 587.745C143.35 586.222 144.076 584.742 144.648 583.336L145.751 583.611Z"/>
	<path fill="#A6F3E8" transform="scale(4.02269 4.02269)" d="M137.502 390.679C153.979 393.811 170.472 396.664 186.918 399.988Q196.535 401.867 206.128 403.866C209.711 404.647 213.349 405.736 216.951 406.321L217.172 406.551C216.954 407.556 216.717 408.549 216.583 409.57L216.216 409.772C213.908 410.13 146.003 395.962 137.417 394.146C137.381 392.989 137.451 391.835 137.502 390.679Z"/>
	<path fill="#75D2BB" transform="scale(4.02269 4.02269)" d="M117.093 557.753C117.333 556.84 117.567 555.936 117.743 555.008L118.371 554.646C119.191 555.806 118.251 557.898 119.419 558.34L120.706 557.218C121.033 557.278 121.53 557.323 121.834 557.443L121.411 559.627L121.797 560.028L122.708 559.731C123.928 559.864 124.85 560.12 125.983 560.585C125.968 560.693 125.955 560.801 125.939 560.909C125.553 563.504 123.481 567.778 124.613 570.139C125.737 570.654 126.705 570.67 127.913 570.715L128.412 571.129C128.27 572.64 127.977 574.283 128.24 575.785C129.306 576.636 129.724 577.762 130.682 578.552C129.841 579.369 129.471 580.044 128.963 581.078L129.116 581.674C131.236 581.48 130.899 579.476 133.89 581.84C133.879 582.657 133.794 583.383 133.639 584.185C134.891 586.423 138.664 585.945 138.035 588.941C137.956 589.314 137.7 589.914 137.552 590.282L137.479 590.324C135.861 590.195 134.326 590.243 132.708 590.36C131.57 590.849 129.847 590.383 128.592 590.231L124.74 589.612C123.667 589.168 122.443 588.996 121.327 588.6C119.547 588.084 116.95 587.957 115.518 586.835C114.879 585.335 115.549 582.453 115.607 580.777C115.868 581.684 115.884 582.452 116.644 583.046C117.769 581.904 117.71 578.927 118.325 577.351C118.414 577.125 118.509 576.901 118.601 576.676L119.43 576.676C119.756 575.664 119.025 571.889 118.976 570.385C118.417 571.299 118.323 572.158 118.168 573.195L118.103 573.654C117.616 572.79 117.732 572.27 117.851 571.309C117.603 571.299 116.855 570.976 116.608 570.887C115.625 569.64 115.444 568.054 115.105 566.536C115.125 563.51 116.201 563.192 117.822 561.047C118.647 559.956 118.344 559.401 118.17 558.15L117.093 557.753Z"/>
	<path fill="#67C6AD" transform="scale(4.02269 4.02269)" d="M118.601 576.676C118.688 576.821 118.784 576.961 118.86 577.111C119.252 577.884 119.27 578.503 119.349 579.35C121.031 580.484 126.071 581.743 126.119 581.926C126.332 582.739 126.115 583.578 125.98 584.39L126.502 585.039C126.928 584.449 127.118 584.05 127.377 583.385C128.852 585.078 128.201 588.132 128.592 590.231L124.74 589.612C123.667 589.168 122.443 588.996 121.327 588.6C119.547 588.084 116.95 587.957 115.518 586.835C114.879 585.335 115.549 582.453 115.607 580.777C115.868 581.684 115.884 582.452 116.644 583.046C117.769 581.904 117.71 578.927 118.325 577.351C118.414 577.125 118.509 576.901 118.601 576.676Z"/>
	<path fill="#1CA45D" transform="scale(4.02269 4.02269)" d="M121.327 588.6C121.567 587.138 121.656 585.895 122.602 584.711C123.544 584.197 123.557 584.159 124.608 584.335C125.252 585 125.648 585.514 125.66 586.487C125.671 587.416 125.071 588.737 124.74 589.612C123.667 589.168 122.443 588.996 121.327 588.6Z"/>
	<path fill="#67C6AD" transform="scale(4.02269 4.02269)" d="M117.093 557.753C117.333 556.84 117.567 555.936 117.743 555.008L118.371 554.646C119.191 555.806 118.251 557.898 119.419 558.34L120.706 557.218C121.033 557.278 121.53 557.323 121.834 557.443L121.411 559.627L121.797 560.028L122.708 559.731C123.928 559.864 124.85 560.12 125.983 560.585C125.968 560.693 125.955 560.801 125.939 560.909C125.553 563.504 123.481 567.778 124.613 570.139C125.737 570.654 126.705 570.67 127.913 570.715L128.412 571.129C128.27 572.64 127.977 574.283 128.24 575.785C128.25 576.458 128.174 577.124 128.12 577.794C127.388 578.357 127.248 578.354 126.317 578.438C124.418 577.284 125.57 576.099 124.259 574.644C123.571 575.925 124.158 577.421 123.488 578.676C123.228 579.164 123.194 578.997 122.541 579.126C121.681 577.219 123.747 574.433 122.677 572.726C121.525 574.005 121.287 575.949 120.512 577.461L120.372 577.358C119.531 574.486 119.971 571.278 119.536 568.303C118.724 568.684 118.228 570.442 117.851 571.309C117.603 571.299 116.855 570.976 116.608 570.887C115.625 569.64 115.444 568.054 115.105 566.536C115.125 563.51 116.201 563.192 117.822 561.047C118.647 559.956 118.344 559.401 118.17 558.15L117.093 557.753Z"/>
	<path fill="#88C0BE" transform="scale(4.02269 4.02269)" d="M216.216 409.772L216.583 409.57C217.991 411.246 228.121 412.93 230.863 413.527C227.681 426.107 224.981 438.802 221.749 451.369C220.363 456.76 219.037 462.56 217.116 467.78C216.583 469.25 216.024 470.662 215.834 472.226C213.604 482.1 210.417 492.109 207.259 501.728C202.594 500.951 197.974 499.922 193.347 498.941C196.393 489.557 198.655 479.836 201.225 470.306Q207.32 448.415 212.804 426.363C213.617 423.015 216.431 414.08 216.572 411.161C216.599 410.605 216.428 410.27 216.216 409.772Z"/>
	<path fill="#88C0BE" transform="scale(4.02269 4.02269)" d="M191.855 504.059C196.772 502.895 201.212 504.321 205.976 505.461C202.046 517.973 198.266 530.547 195.465 543.368C194.018 549.989 193.052 556.715 191.787 563.372C191.325 565.805 189.77 569.775 189.96 572.106L190.533 572.501C186.737 573.491 182.604 576.56 179.054 578.371C171.091 582.434 162.645 586.415 154.073 588.965C152.338 588.897 151.999 588.57 150.869 587.387C151.554 586.303 152.033 585.085 152.782 584.042C153.684 582.788 154.427 584.183 155.868 583.968L156.26 583.22C156.321 579.976 152.407 578.099 150.909 575.46C150.456 574.662 150.349 574.022 150.595 573.13C151.232 572.522 151.608 572.172 152.467 571.94C154.307 574.114 156.302 574.901 159.117 575.127Q161.632 575.327 164.154 575.298C164.783 575.295 164.508 575.285 165.193 575.365C165.294 575.329 165.399 575.303 165.495 575.255C171.174 572.374 189.514 512.154 191.855 504.059Z"/>
	<defs>
		<linearGradient id="gradient_3" gradientUnits="userSpaceOnUse" x1="230.04297" y1="475.96277" x2="183.79411" y2="567.84961">
			<stop offset="0" stop-color="#FF860F"/>
			<stop offset="1" stop-color="#D65826"/>
		</linearGradient>
	</defs>
	<path fill="url(#gradient_3)" transform="scale(4.02269 4.02269)" d="M217.116 467.78C222.425 469.331 227.96 470.308 233.399 471.284C233.158 473.1 233.012 474.88 232.299 476.583C227.871 489.393 224.8 502.704 220.611 515.617C216.063 529.632 210.331 543.151 204.522 556.676C202.342 561.75 200.394 566.984 198.091 571.995C195.535 572.031 193.07 572.178 190.533 572.501L189.96 572.106C189.77 569.775 191.325 565.805 191.787 563.372C193.052 556.715 194.018 549.989 195.465 543.368C198.266 530.547 202.046 517.973 205.976 505.461L207.259 501.728C210.417 492.109 213.604 482.1 215.834 472.226C216.024 470.662 216.583 469.25 217.116 467.78Z"/>
	<path fill="#C6BFC2" transform="scale(4.02269 4.02269)" d="M217.116 467.78C222.425 469.331 227.96 470.308 233.399 471.284C233.158 473.1 233.012 474.88 232.299 476.583L231.964 476.081C226.944 473.693 221.266 473.148 215.834 472.226C216.024 470.662 216.583 469.25 217.116 467.78Z"/>
	<defs>
		<linearGradient id="gradient_4" gradientUnits="userSpaceOnUse" x1="63.039856" y1="548.43945" x2="141.11443" y2="521.64661">
			<stop offset="0" stop-color="#54BF97"/>
			<stop offset="1" stop-color="#78E4C6"/>
		</linearGradient>
	</defs>
	<path fill="url(#gradient_4)" transform="scale(4.02269 4.02269)" d="M99.1397 483.152C102.38 483.219 105.936 484.735 109.195 485.297C116.107 486.489 125.332 485.815 131.563 489.258C132.972 493.09 128.066 506.846 126.211 510.816C123.624 516.35 121.369 520.367 115.366 522.515C112.463 523.554 109.799 524.42 107.15 526.047C106.245 533.335 107.553 537.654 111.065 543.938C111.977 545.57 113.132 547.307 113.774 549.06C114.904 552.15 115.039 554.913 117.093 557.753L118.17 558.15C118.344 559.401 118.647 559.956 117.822 561.047C116.201 563.192 115.125 563.51 115.105 566.536C115.444 568.054 115.625 569.64 116.608 570.887C116.855 570.976 117.603 571.299 117.851 571.309C117.732 572.27 117.616 572.79 118.103 573.654L118.168 573.195C118.323 572.158 118.417 571.299 118.976 570.385C119.025 571.889 119.756 575.664 119.43 576.676L118.601 576.676C118.509 576.901 118.414 577.125 118.325 577.351C117.71 578.927 117.769 581.904 116.644 583.046C115.884 582.452 115.868 581.684 115.607 580.777C113.874 582.192 114.398 585.578 112.173 585.85C111.969 585.853 111.765 585.873 111.561 585.857C109.373 585.681 100.319 583.558 99.1245 582.186C98.5121 581.661 98.2296 581.568 97.4275 581.505C92.5811 579.589 87.2668 578.636 82.2489 577.244C78.4604 576.193 74.6297 574.687 70.7342 574.135C71.2494 569.997 72.8826 566.243 74.3545 562.376C75.8222 559.209 76.9154 555.853 78.2642 552.63C80.6242 546.992 83.2205 541.465 85.2983 535.711C91.0092 519.894 95.9347 499.682 99.1397 483.152Z"/>
	<path fill="#67C6AD" transform="scale(4.02269 4.02269)" d="M104.751 573.622C104.133 573.038 103.697 572.883 103.553 572.021C104.351 572.319 105.129 572.655 105.912 572.992C106.356 573.981 106.392 574.825 106.445 575.885C107.241 576.877 108.375 576.572 108.521 577.737L108.146 578.6C107.723 577.801 107.837 577.8 106.978 577.323C106.355 577.934 106.48 578.173 106.32 579.026C106.041 580.515 105.925 581.651 104.63 582.533C103.514 582.408 103.134 582.018 102.309 581.319C101.698 579.865 101.83 578.556 101.889 577.003L101.055 577.332C101.56 576.828 101.645 576.463 101.755 575.781C102.083 573.742 103.385 574.824 104.751 573.622Z"/>
	<path fill="#7BE9C7" transform="scale(4.02269 4.02269)" d="M111.728 564.041C113.793 561.903 115.801 559.955 118.17 558.15C118.344 559.401 118.647 559.956 117.822 561.047C116.201 563.192 115.125 563.51 115.105 566.536C114.563 568.471 114.138 572.397 112.524 573.658L111.987 573.272C111.027 570.252 111.16 567.116 111.728 564.041Z"/>
	<path fill="#1CA45D" transform="scale(4.02269 4.02269)" d="M101.889 577.003C101.83 578.556 101.698 579.865 102.309 581.319C103.134 582.018 103.514 582.408 104.63 582.533C105.925 581.651 106.041 580.515 106.32 579.026C106.48 578.173 106.355 577.934 106.978 577.323C107.837 577.8 107.723 577.801 108.146 578.6L108.481 579.86L109.745 580.156C110.303 581.186 110.112 582.336 110.068 583.469L110.461 583.815C111.881 582.041 111.785 579.654 113.266 577.872L113.805 577.926C114.311 579.681 112.343 583.704 112.173 585.85C111.969 585.853 111.765 585.873 111.561 585.857C109.373 585.681 100.319 583.558 99.1245 582.186C100.086 580.784 100.52 578.939 101.055 577.332L101.889 577.003Z"/>
	<path fill="#CDE9F6" transform="scale(4.02269 4.02269)" d="M409.711 376.884L410.265 376.164C411.778 378.099 427.715 381.151 431.03 381.86C428.715 392.935 428.7 410.65 428.049 422.432C427.333 435.372 425.752 448.004 423.929 460.828C423.305 465.215 422.53 473.4 420.714 477.236L519.214 495.533C534.566 498.502 550.271 500.909 565.457 504.573C573.879 506.606 582.178 509.343 590.491 511.78Q610.623 517.679 630.837 523.286C636.147 524.765 641.551 526.772 646.912 527.942C651.88 528.126 656.769 528.651 661.704 529.217C661.672 530.785 661.775 532.494 661.466 534.031C659.731 557.101 659.943 580.369 658.654 603.486C654.659 605.526 648.958 603.108 647.462 605.336C647.88 610.24 648.246 615.233 649.46 620.017C648.261 620.738 647.059 620.922 645.761 621.38C640.058 623.391 633.095 626.575 626.876 625.795C602.013 620.679 577.02 614.569 551.711 612.031C538.939 608.847 525.687 607.497 512.755 604.906Q469.857 595.905 427.186 585.884C421.098 586.144 411.718 582.94 405.499 581.551C396.464 579.532 387.292 577.875 378.372 575.384C374.143 574.682 369.425 572.527 365.204 572.669C363.909 571.613 361.555 571.847 359.894 571.275C356.529 570.987 352.933 569.689 349.619 568.916C346.812 567.961 344.246 567.736 341.316 567.683C342.365 560.75 343.168 553.995 344.76 547.135C348.172 532.429 353.773 518.525 358.888 504.369L360.371 500.68C364.617 490.817 367.12 480.224 371.189 470.302C376.081 471.203 380.814 472.721 385.679 473.722C386.165 472.497 386.933 471.466 387.393 470.202C387.864 464.339 391.473 454.962 393.023 448.926C394.777 442.1 410.398 378.48 409.711 376.884Z"/>
	<path fill="#C0E0EA" transform="scale(4.02269 4.02269)" d="M430.674 566.96C431.333 567.435 431.382 567.305 431.61 568.163C432.288 570.709 431.596 573.464 430.277 575.673C430.217 574.869 430.126 574.191 429.903 573.411L429.69 572.686C428.943 570.061 429.386 569.306 430.674 566.96Z"/>
	<path fill="#B6C8D1" transform="scale(4.02269 4.02269)" d="M405.636 559.19L405.974 561.352L406.41 561.612C407.528 560.281 408.113 558.398 408.782 556.801C409.647 556.84 410.328 557.039 411.148 557.307C411.946 556.258 410.872 555.517 412.271 555.211L412.614 555.389C412.43 556.087 412.291 556.383 411.921 556.972L412.459 557.245C414.867 556.371 416.976 555.385 419.572 555.987C420.529 556.763 421.032 557.352 421.163 558.623C421.368 560.612 420.535 562.607 420.388 564.592L420.387 563.823L420.581 564.847L421.665 564.685C421.682 565.578 421.66 565.724 421.042 566.441C420.674 566.866 420.178 567.244 419.752 567.613C419.557 568.603 419.52 568.905 420.066 569.831C420.232 570.114 420.525 570.425 420.747 570.675C419.715 571.073 418.278 571.396 417.158 571.289C414.299 571.014 416.496 567.727 415.037 566.093C413.878 566.826 413.025 567.331 411.663 567.561C410.116 567.293 409.539 566.291 408.451 565.295C407.35 564.287 405.041 563.992 403.585 564.047C403.367 562.245 403.883 560.647 404.667 559.052L405.636 559.19Z"/>
	<path fill="#14AFFC" transform="scale(4.02269 4.02269)" d="M647.154 532.224C651.866 533.24 656.667 533.662 661.466 534.031C659.731 557.101 659.943 580.369 658.654 603.486C654.659 605.526 648.958 603.108 647.462 605.336C645.459 600.292 645.486 570.91 645.489 563.366C645.491 559.738 645.421 535.476 646.517 532.862C646.633 532.585 646.942 532.437 647.154 532.224Z"/>
	<path fill="#FAFBFB" transform="scale(4.02269 4.02269)" d="M387.872 470.686C398.846 472.853 409.676 475.314 420.714 477.236L519.214 495.533C534.566 498.502 550.271 500.909 565.457 504.573C573.879 506.606 582.178 509.343 590.491 511.78Q610.623 517.679 630.837 523.286C636.147 524.765 641.551 526.772 646.912 527.942C651.88 528.126 656.769 528.651 661.704 529.217C661.672 530.785 661.775 532.494 661.466 534.031C656.667 533.662 651.866 533.24 647.154 532.224C645.003 531.111 641.44 530.606 639.033 529.977C632.255 528.207 625.412 526.565 618.694 524.582C601.512 519.508 584.36 513.381 566.931 509.297C552.521 505.92 537.922 503.481 523.379 500.776L461.217 489.133C447.4 486.583 433.574 484.32 419.818 481.421C410.723 480.588 394.817 477.028 386.148 474.01L387.872 470.686Z"/>
	<path fill="#C0E0EA" transform="scale(4.02269 4.02269)" d="M409.711 376.884L410.265 376.164C411.778 378.099 427.715 381.151 431.03 381.86C428.715 392.935 428.7 410.65 428.049 422.432C427.333 435.372 425.752 448.004 423.929 460.828C423.305 465.215 422.53 473.4 420.714 477.236C409.676 475.314 398.846 472.853 387.872 470.686L386.148 474.01C394.817 477.028 410.723 480.588 419.818 481.421C419.904 488.606 412.124 504.722 407.136 509.942Q406.332 510.781 405.449 511.536C402.082 512.102 396.102 512.436 393.848 515.355C392.766 516.755 392.621 518.337 392.889 520.036C394.077 527.589 399.841 533.91 403.124 540.582C405.421 545.248 406.737 550.487 408.215 555.456Q406.89 557.299 405.636 559.19L404.667 559.052C403.883 560.647 403.367 562.245 403.585 564.047C405.041 563.992 407.35 564.287 408.451 565.295C409.539 566.291 410.116 567.293 411.663 567.561C413.025 567.331 413.878 566.826 415.037 566.093C416.496 567.727 414.299 571.014 417.158 571.289C418.278 571.396 419.715 571.073 420.747 570.675C422.16 571.836 423.477 572.917 425.129 573.737L425.142 574.366C423.299 575.512 421.8 575.612 419.653 575.583C420.295 576.704 420.99 577.82 421.532 578.992L420.66 583.622C423.106 584.036 425.329 584.075 427.186 585.884C421.098 586.144 411.718 582.94 405.499 581.551C396.464 579.532 387.292 577.875 378.372 575.384C374.143 574.682 369.425 572.527 365.204 572.669C363.909 571.613 361.555 571.847 359.894 571.275C356.529 570.987 352.933 569.689 349.619 568.916C346.812 567.961 344.246 567.736 341.316 567.683C342.365 560.75 343.168 553.995 344.76 547.135C348.172 532.429 353.773 518.525 358.888 504.369L360.371 500.68C364.617 490.817 367.12 480.224 371.189 470.302C376.081 471.203 380.814 472.721 385.679 473.722C386.165 472.497 386.933 471.466 387.393 470.202C387.864 464.339 391.473 454.962 393.023 448.926C394.777 442.1 410.398 378.48 409.711 376.884Z"/>
	<path fill="#B6C8D1" transform="scale(4.02269 4.02269)" d="M395.728 560.525C397.013 561.315 397.575 561.745 397.913 563.308C397.949 563.471 397.97 563.638 397.998 563.803C397.829 564.056 397.387 564.621 397.293 564.898C396.512 564.067 395.814 563.241 395.125 562.332C395.038 561.27 395.045 561.35 395.728 560.525Z"/>
	<path fill="#B6C8D1" transform="scale(4.02269 4.02269)" d="M387.959 556.068L388.578 556.691C388.953 558.621 387.868 561.667 387.287 563.545C386.97 563.299 386.609 563.029 386.459 562.638C385.791 560.891 387.344 557.738 387.959 556.068Z"/>
	<path fill="#B6C8D1" transform="scale(4.02269 4.02269)" d="M372.053 555.495C372.881 555.59 373.761 555.763 374.591 555.742L374.793 556.473C375.036 557.38 375.079 558.198 375.109 559.132L375.644 559.379L376.999 558.571C376.485 559.891 376.271 562.087 375.287 563.028C374.192 563.353 373.201 563.606 372.387 564.458C371.692 565.185 372.158 565.003 371.242 565.078L370.778 564.256L371.22 565.033L371.753 564.276L370.754 564.008C370.462 561.698 371.033 557.739 371.365 555.403L372.053 555.495Z"/>
	<path fill="#C0E0EA" transform="scale(4.02269 4.02269)" d="M372.053 555.495C372.881 555.59 373.761 555.763 374.591 555.742C374.405 556.119 374.208 556.491 374.045 556.878C373.626 557.869 373.462 558.429 372.67 559.19C371.994 558.132 372.138 556.745 372.053 555.495Z"/>
	<path fill="#B6C8D1" transform="scale(4.02269 4.02269)" d="M353.609 561C354.782 562.511 355.49 563.523 355.417 565.479C355.366 566.825 355.857 567.898 356.747 568.905C357.361 569.599 358.194 570.061 358.967 570.553C359.574 570.938 359.317 570.752 359.894 571.275C356.529 570.987 352.933 569.689 349.619 568.916C350.611 566.178 352.153 563.518 353.609 561Z"/>
	<path fill="#CDE9F6" transform="scale(4.02269 4.02269)" d="M371.365 555.403C370.234 554.252 370.422 552.734 369.506 551.401L369.779 550.327L370.226 550.204L371.487 552.008C372.753 551.917 373.207 551.082 374.331 550.574C374.609 551.181 374.763 551.749 374.911 552.399C377.177 553.957 380.544 554.384 383.121 555.373C381.668 556.168 378.382 558.67 376.999 558.571L375.644 559.379L375.109 559.132C375.079 558.198 375.036 557.38 374.793 556.473L374.591 555.742C373.761 555.763 372.881 555.59 372.053 555.495L371.365 555.403Z"/>
	<path fill="#CDE9F6" transform="scale(4.02269 4.02269)" d="M395.728 560.525C394.646 560.591 393.894 560.714 392.941 560.084C392.908 559.156 392.999 559.097 393.632 558.445C395.437 556.588 399.383 554.762 401.958 554.817C402.784 554.835 403.588 554.998 404.137 555.658C405.139 556.865 404.895 557.643 404.667 559.052C403.883 560.647 403.367 562.245 403.585 564.047L402.179 565.036L401.948 564.894C401.917 564.002 401.923 563.438 401.447 562.666L400.693 562.75C400.645 563.478 400.599 563.8 400.303 564.49C399.322 564.502 398.851 564.271 397.998 563.803C397.97 563.638 397.949 563.471 397.913 563.308C397.575 561.745 397.013 561.315 395.728 560.525Z"/>
	<path fill="#99C0D7" transform="scale(4.02269 4.02269)" d="M397.998 563.803C398.851 564.271 399.322 564.502 400.303 564.49C400.599 563.8 400.645 563.478 400.693 562.75L401.447 562.666C401.923 563.438 401.917 564.002 401.948 564.894L402.179 565.036L403.585 564.047C405.041 563.992 407.35 564.287 408.451 565.295C409.539 566.291 410.116 567.293 411.663 567.561C413.025 567.331 413.878 566.826 415.037 566.093C416.496 567.727 414.299 571.014 417.158 571.289C418.278 571.396 419.715 571.073 420.747 570.675C422.16 571.836 423.477 572.917 425.129 573.737L425.142 574.366C423.299 575.512 421.8 575.612 419.653 575.583C416.261 574.432 415.302 571.714 412.453 570.03C411.18 569.966 410.9 570.553 409.955 571.362L409.336 571.213Q409.023 570.819 408.701 570.432C407.414 568.899 406.727 568.868 404.791 568.676C402.213 568.278 403.055 571.411 401.145 572.194C400.327 571.299 400.604 569.697 400.36 568.477L399.895 568.613C399.558 569.649 399.189 570.613 398.743 571.607L398.187 571.519L397.689 570.493C397.809 569.39 397.861 568.458 397.697 567.347L397.096 567.211C396.228 568.904 396.751 570.861 395.697 572.493L395.199 572.411L394.176 570.605C393.304 570.912 393.137 572.42 392.438 573.177L392.16 572.84C392.147 571.753 391.989 571.142 391.53 570.158L390.899 569.942C390.624 570.939 390.354 571.793 389.845 572.706L389.278 572.468C388.962 570.815 388.825 568.268 389.359 566.669L389.811 566.542C390.106 567.309 390.375 567.985 390.759 568.714C390.948 567.69 391.089 566.581 391.391 565.585C391.692 564.593 391.887 564.328 392.801 563.863C392.698 564.514 392.612 565.161 392.543 565.816C393.592 566.557 393.605 565.312 394.829 565.684L395.354 566.983L395.816 567.155L397.293 564.898C397.387 564.621 397.829 564.056 397.998 563.803Z"/>
	<path fill="#B6C8D1" transform="scale(4.02269 4.02269)" d="M404.791 568.676C406.727 568.868 407.414 568.899 408.701 570.432Q409.023 570.819 409.336 571.213L409.955 571.362C410.9 570.553 411.18 569.966 412.453 570.03C415.302 571.714 416.261 574.432 419.653 575.583C420.295 576.704 420.99 577.82 421.532 578.992L420.66 583.622C423.106 584.036 425.329 584.075 427.186 585.884C421.098 586.144 411.718 582.94 405.499 581.551C396.464 579.532 387.292 577.875 378.372 575.384C383.426 575.368 388.392 576.691 393.265 577.894C395.763 578.51 398.794 579.401 401.125 577.842C403.914 575.976 404.258 571.689 404.791 568.676Z"/>
	<path fill="#F25C3C" transform="scale(4.02269 4.02269)" d="M371.189 470.302C376.081 471.203 380.814 472.721 385.679 473.722C385.977 476.069 383.938 480.687 383.221 483.023Q370.576 522.832 353.609 561C352.153 563.518 350.611 566.178 349.619 568.916C346.812 567.961 344.246 567.736 341.316 567.683C342.365 560.75 343.168 553.995 344.76 547.135C348.172 532.429 353.773 518.525 358.888 504.369L360.371 500.68C364.617 490.817 367.12 480.224 371.189 470.302Z"/>
	<path fill="#C0E0EA" transform="scale(4.02269 4.02269)" d="M256.716 182.724C257.613 183.638 258.526 184.54 259.389 185.485C262.183 185.368 264.931 185.176 267.708 184.842C268.975 184.963 270.257 185.129 271.53 185.142C280.477 185.155 297.148 190.413 306.56 192.633C321.618 196.184 336.924 198.676 351.956 202.344C368.832 206.461 385.272 211.849 402.437 214.755C410.271 216.521 418.148 218.293 425.849 220.582C425.972 220.463 426.116 220.364 426.217 220.226C426.873 219.327 426.596 216.879 426.584 215.778C426.945 215.454 427.342 215.117 427.535 214.656C429.078 210.973 426.585 201.39 425.589 197.656C424.441 193.112 423.458 188.804 423.294 184.107C426.53 183.884 429.698 183.552 432.903 183.048C433.796 183.026 434.611 183.004 435.502 183.12C438.419 191.976 440.49 200.281 441.495 209.604C441.766 219.404 442.078 229.077 441.218 238.861C439.184 262.001 433.183 284.49 427.495 306.933C421.942 328.843 416.313 350.852 411.337 372.898C409.866 372.719 409.039 372.687 407.661 373.265L407.007 374.047C407.146 375.047 407.174 375.287 408.022 375.96C408.494 376.334 409.17 376.612 409.711 376.884C410.398 378.48 394.777 442.1 393.023 448.926C391.473 454.962 387.864 464.339 387.393 470.202C386.933 471.466 386.165 472.497 385.679 473.722C380.814 472.721 376.081 471.203 371.189 470.302C367.12 480.224 364.617 490.817 360.371 500.68L358.888 504.369C355.557 503.685 352.552 501.756 349.082 501.253C347.631 501.043 346.778 500.802 345.6 501.687L345.268 501.587C345.022 500.565 344.991 500.149 345.379 499.155C345.649 498.463 345.812 498.112 345.692 497.349C344.738 496.459 343.727 496.128 342.471 495.813C335.836 494.147 328.899 493.357 322.197 491.931C309.823 489.3 297.502 486.366 285.163 483.573C277.433 481.823 269.622 480.312 261.945 478.347C261.622 477.924 261.402 477.641 260.933 477.365C260.824 477.3 260.708 477.247 260.596 477.188C251.662 475.067 242.47 472.647 233.399 471.284C227.96 470.308 222.425 469.331 217.116 467.78C219.037 462.56 220.363 456.76 221.749 451.369C224.981 438.802 227.681 426.107 230.863 413.527C228.121 412.93 217.991 411.246 216.583 409.57C216.717 408.549 216.954 407.556 217.172 406.551L216.951 406.321C213.349 405.736 209.711 404.647 206.128 403.866Q196.535 401.867 186.918 399.988C170.472 396.664 153.979 393.811 137.502 390.679C136.335 389.44 121.476 387.96 118.584 387.321C121.498 363.303 125.65 339.083 130.289 315.339C135.03 291.072 142.128 260.823 141.944 236.454C141.847 223.624 138.616 205.435 131.632 194.454C164.297 197.447 196.663 205.93 228.178 214.681C235.947 217.129 243.812 219.408 251.389 222.416C253.449 222.943 255.316 223.469 257.239 224.401C259.267 222.625 261.962 221.141 263.31 218.744C265.149 215.474 262.851 210.662 261.813 207.353C262.399 207.107 262.986 207.049 263.609 206.945C263.728 205.322 263.306 204.159 262.774 202.637C261.853 195.306 260.808 189.095 255.89 183.303L256.716 182.724Z"/>
	<path fill="#EAF5F9" transform="scale(4.02269 4.02269)" d="M287.624 207.493L286.203 203.806L286.417 203.41L286.84 203.784L290.402 204.004C292.906 206.632 297.169 212.217 300.477 213.501C301.221 214.178 301.61 214.744 302.076 215.634C299.323 215.423 292.641 207.75 289.744 205.988C289.383 206.719 289.143 207.262 288.497 207.776L287.624 207.493Z"/>
	<path fill="#CDE9F6" transform="scale(4.02269 4.02269)" d="M392.513 223.65C394.782 223.215 397.415 225.703 400.632 225.259Q401.784 226.725 402.965 228.167C403.558 227.219 404.096 226.116 404.994 225.427C405.131 226.15 405.107 226.723 405.076 227.453C405.918 227.879 406.656 227.817 407.579 227.832L408.557 230.382L407.73 232.267C407.601 234.499 409.055 236.817 409.962 238.825C408.458 237.31 406.905 235.388 405.126 234.244C405.46 236.97 410.874 239.15 409.452 241.867C407.135 242.973 404.21 241.774 401.793 241.404C400.266 240.691 399.247 239.408 398.138 238.186C396.718 236.034 394.977 234.082 393.33 232.1C393.263 232.062 393.192 232.033 393.131 231.987C391.585 230.825 390.051 229.337 389.726 227.354C389.476 225.831 390.084 224.937 390.915 223.767L392.513 223.65Z"/>
	<path fill="#C3ECF2" transform="scale(4.02269 4.02269)" d="M392.513 223.65C394.782 223.215 397.415 225.703 400.632 225.259C399.182 226.151 397.192 227.169 396.584 228.892C396.094 230.279 396.687 231.807 397.473 232.956C398.832 234.942 403.18 238.221 403.028 240.519L402.237 240.866L401.793 241.404C400.266 240.691 399.247 239.408 398.138 238.186C396.718 236.034 394.977 234.082 393.33 232.1C393.263 232.062 393.192 232.033 393.131 231.987C391.585 230.825 390.051 229.337 389.726 227.354C389.476 225.831 390.084 224.937 390.915 223.767L392.513 223.65Z"/>
	<path fill="#FAFBFB" transform="scale(4.02269 4.02269)" d="M393.33 232.1L394.512 231.559C397.589 234.504 400.031 237.223 402.237 240.866L401.793 241.404C400.266 240.691 399.247 239.408 398.138 238.186C396.718 236.034 394.977 234.082 393.33 232.1Z"/>
	<path fill="#EAF5F9" transform="scale(4.02269 4.02269)" d="M390.915 223.767L392.513 223.65L392.78 224.992C392.182 225.817 391.615 226.632 391.1 227.515C391.747 227.982 391.438 227.948 392.171 227.81C393.364 227.586 394.432 226.649 395.478 226.058L395.959 226.512C395.455 229.097 392.762 228.49 394.512 231.559L393.33 232.1C393.263 232.062 393.192 232.033 393.131 231.987C391.585 230.825 390.051 229.337 389.726 227.354C389.476 225.831 390.084 224.937 390.915 223.767Z"/>
	<path fill="#FAFBFB" transform="scale(4.02269 4.02269)" d="M356.022 215.968L357.401 216.101C365.589 216.159 374.176 218.875 381.934 221.356C382.356 220.658 382.357 220.156 382.386 219.352L383.042 218.454L383.072 218.762L383.357 218.231C383.807 218.837 383.903 219.365 384.1 220.082C384.453 221.366 384.755 222.234 385.947 222.978C386.985 223.627 389.737 223.808 390.915 223.767C390.084 224.937 389.476 225.831 389.726 227.354C390.051 229.337 391.585 230.825 393.131 231.987C393.192 232.033 393.263 232.062 393.33 232.1C394.977 234.082 396.718 236.034 398.138 238.186L397.593 238.923C397.868 239.416 398.026 239.856 398.206 240.389L397.813 240.866C393.545 239.894 386.999 230.195 384.299 226.599C385.374 231.856 390.461 236.368 393.577 240.591C387.593 237.62 385.467 233.28 380.947 228.765C380.84 228.658 380.731 228.554 380.623 228.448C382.688 233.081 385.439 236.167 388.913 239.775C387.691 239.077 386.299 238.487 385.208 237.597C383.397 236.119 382.11 233.898 380.142 232.657C379.533 233.345 379.887 233.033 379.065 233.573C376.237 232.364 373.411 227.533 371.411 225.118C373.625 230.126 376.07 232.983 380.398 236.275L380.344 236.703C380.081 236.695 379.812 236.738 379.556 236.679C375.742 235.805 369.259 227.214 366.578 224.262C368.772 227.953 371.408 231.388 373.652 235.062C369.32 232.118 366.539 227.78 362.367 224.771C364.483 227.868 366.704 230.818 368.045 234.349C364.691 231.964 362.433 228.331 359.13 225.782C360.803 228.951 363.338 231.772 365.55 234.583C362.808 232.839 360.644 230.72 358.313 228.468C355.049 224.106 350.872 220.651 348.007 215.976L352.933 219.202L356.022 215.968Z"/>
	<path fill="#C3ECF2" transform="scale(4.02269 4.02269)" d="M357.401 216.101C365.589 216.159 374.176 218.875 381.934 221.356C382.356 220.658 382.357 220.156 382.386 219.352L383.042 218.454L383.072 218.762L383.357 218.231C383.807 218.837 383.903 219.365 384.1 220.082C384.453 221.366 384.755 222.234 385.947 222.978C386.985 223.627 389.737 223.808 390.915 223.767C390.084 224.937 389.476 225.831 389.726 227.354C390.051 229.337 391.585 230.825 393.131 231.987C393.192 232.033 393.263 232.062 393.33 232.1C394.977 234.082 396.718 236.034 398.138 238.186L397.593 238.923C394.709 237.331 391.84 232.459 389.713 229.802C388.544 228.342 387.015 226.353 385.06 226.142L383.873 227.243L383.087 227.182C382.846 226.553 382.591 226.068 382.205 225.516C380.472 225.084 378.742 224.607 376.979 224.316L375.679 225.29C374.588 225.13 373.416 223.666 372.523 222.906C371.233 222.756 371.126 223.007 370.071 223.689L369.353 223.442C369.131 222.729 368.912 222.155 368.519 221.518C367.314 221.32 365.907 222.305 364.843 222.858L364.338 222.624C364.141 221.707 363.966 220.99 363.533 220.147L362.935 220.043L360.946 221.531L360.412 221.371L359.964 219.92C358.807 219.149 356.901 220.122 355.387 219.875L355.156 219.368C355.639 218.101 356.552 217.136 357.401 216.101Z"/>
	<path fill="#CDE9F6" transform="scale(4.02269 4.02269)" d="M372.787 407.518C364.953 405.393 356.99 403.966 349.077 402.187L298.133 390.848C291.503 389.37 277.871 387.098 272.308 384.742C271.807 383.65 271.879 382.559 271.866 381.384L272.387 381.118C279.372 381.135 287.399 383.702 294.253 385.212Q319.544 390.847 344.729 396.942C353.151 398.922 365.541 400.816 373.192 403.576L374.115 403.737C378.64 404.883 383.142 405.971 387.727 406.851L386.516 411.198C382.119 409.71 377.457 408.794 372.946 407.702L372.787 407.518Z"/>
	<path fill="#FAFBFB" transform="scale(4.02269 4.02269)" d="M317.745 205.445C320.168 205.852 322.533 206.542 324.907 207.172L329.43 208.057L331.169 208.467C333.538 209.054 335.898 209.591 338.295 210.049L341.311 210.988C346.111 212.548 351.484 213.817 356.022 215.968L352.933 219.202L348.007 215.976C350.872 220.651 355.049 224.106 358.313 228.468C358.001 229.683 358.075 230.085 357.055 230.869C355.692 231.073 354.465 230.832 353.114 230.618L351.87 229.628C347.846 226.668 345.377 221.97 341.4 218.953L341.255 219.434C341.727 220.419 342.508 221.353 343.082 222.3C343.602 223.158 345.758 226.15 345.558 226.967C343.433 225.567 341.904 223.455 340.111 221.665L339.124 222.331C340.509 224.192 341.753 226.201 343.041 228.134C339.669 225.637 337.14 222.464 333.926 219.832C334.068 221.288 336.589 224.356 337.331 226.001L337.577 226.552C335.626 224.82 333.918 223.048 332.237 221.054C332.152 221.227 332.055 221.394 331.981 221.572C331.632 222.416 331.701 222.887 331.767 223.769C330.941 224.151 330.752 224.107 329.878 224.028Q325.074 222.516 320.297 220.922C319.741 218.956 318.673 217.353 317.614 215.629C316.392 213.709 314.924 211.968 313.504 210.194C315.039 208.741 316.37 207.05 317.745 205.445Z"/>
	<path fill="#EAF5F9" transform="scale(4.02269 4.02269)" d="M339.124 222.331C338.54 221.51 337.706 220.767 337.053 219.985C336.401 219.204 335.518 218.154 335.606 217.118C337.721 217.847 338.549 219.627 339.811 221.283C339.909 221.411 340.011 221.538 340.111 221.665L339.124 222.331Z"/>
	<path fill="#C3ECF2" transform="scale(4.02269 4.02269)" d="M338.295 210.049L341.311 210.988L340.884 211.364C339.606 212.463 338.439 213.555 337.335 214.83C335.695 214.257 334.06 213.648 332.401 213.134C334.218 210.99 336.174 212.842 338.074 211.473L338.295 210.049Z"/>
	<path fill="#EAF5F9" transform="scale(4.02269 4.02269)" d="M341.35 215.86C343.178 216.108 344.502 216.497 346.116 217.384C346.025 217.953 345.867 218.039 346.228 218.527C347.844 220.715 350.227 222.443 351.673 224.666C350.958 225.037 350.575 225.165 350.103 225.839C346.271 223.874 345.271 218.107 341.35 215.86Z"/>
	<path fill="#EAF5F9" transform="scale(4.02269 4.02269)" d="M331.169 208.467C333.538 209.054 335.898 209.591 338.295 210.049L338.074 211.473C336.174 212.842 334.218 210.99 332.401 213.134L331.269 212.849L331.541 211.885C330.878 210.916 330.029 210.9 328.941 210.55C329.596 209.765 330.397 209.131 331.169 208.467Z"/>
	<path fill="#C3ECF2" transform="scale(4.02269 4.02269)" d="M324.907 207.172L329.43 208.057L331.169 208.467C330.397 209.131 329.596 209.765 328.941 210.55C330.029 210.9 330.878 210.916 331.541 211.885L331.269 212.849C330.463 212.646 330.69 212.743 330.08 212.479C328.041 211.6 327.575 211.623 325.441 212.432L324.907 212.64L324.469 212.256C324.48 211.51 324.461 211.162 324.221 210.435L322.926 209.831L321.882 209.848L321.692 209.38C322.405 208.427 322.834 208.258 323.908 207.868L324.907 207.172Z"/>
	<path fill="#FAFBFB" transform="scale(4.02269 4.02269)" d="M324.907 207.172L329.43 208.057C328.357 209.03 327.463 209.788 325.976 209.905C324.69 209.326 324.626 209.031 323.908 207.868L324.907 207.172Z"/>
	<path fill="#CDE9F6" transform="scale(4.02269 4.02269)" d="M340.884 211.364L341.311 210.988C346.111 212.548 351.484 213.817 356.022 215.968L352.933 219.202L348.007 215.976C350.872 220.651 355.049 224.106 358.313 228.468C358.001 229.683 358.075 230.085 357.055 230.869C355.692 231.073 354.465 230.832 353.114 230.618L351.87 229.628C351.732 227.946 351.11 227.115 350.103 225.839C350.575 225.165 350.958 225.037 351.673 224.666C350.227 222.443 347.844 220.715 346.228 218.527C345.867 218.039 346.025 217.953 346.116 217.384C344.502 216.497 343.178 216.108 341.35 215.86C340.875 215.76 340.585 215.495 340.191 215.223C340.088 214.065 340.709 213.299 341.22 212.276L340.884 211.364Z"/>
	<path fill="#FAFBFB" transform="scale(4.02269 4.02269)" d="M346.116 217.384C349.112 219.391 354.239 223.629 355.207 227.264C355.389 227.947 355.311 228.191 355.036 228.808L354.797 229.803L353.114 230.618L351.87 229.628C351.732 227.946 351.11 227.115 350.103 225.839C350.575 225.165 350.958 225.037 351.673 224.666C350.227 222.443 347.844 220.715 346.228 218.527C345.867 218.039 346.025 217.953 346.116 217.384Z"/>
	<path fill="#C3ECF2" transform="scale(4.02269 4.02269)" d="M350.103 225.839C350.575 225.165 350.958 225.037 351.673 224.666L355.036 228.808L354.797 229.803L353.114 230.618L351.87 229.628C351.732 227.946 351.11 227.115 350.103 225.839Z"/>
	<path fill="#EAF5F9" transform="scale(4.02269 4.02269)" d="M317.745 205.445C320.168 205.852 322.533 206.542 324.907 207.172L323.908 207.868C322.834 208.258 322.405 208.427 321.692 209.38L321.882 209.848L322.926 209.831C322.402 210.966 322.333 211.401 322.808 212.592C323.724 214.89 327.887 219.144 330.198 220.054C330.679 220.244 331.233 220.235 331.74 220.236C331.925 220.489 332.187 220.742 332.237 221.054C332.152 221.227 332.055 221.394 331.981 221.572C331.632 222.416 331.701 222.887 331.767 223.769C330.941 224.151 330.752 224.107 329.878 224.028Q325.074 222.516 320.297 220.922C319.741 218.956 318.673 217.353 317.614 215.629C316.392 213.709 314.924 211.968 313.504 210.194C315.039 208.741 316.37 207.05 317.745 205.445Z"/>
	<path fill="#C3ECF2" transform="scale(4.02269 4.02269)" d="M317.614 215.629C318.513 215.353 318.576 215.268 319.432 215.773C322.952 217.852 324.77 221.024 329.275 221.203C330 222.117 329.881 222.88 329.878 224.028Q325.074 222.516 320.297 220.922C319.741 218.956 318.673 217.353 317.614 215.629Z"/>
	<path fill="#B6C8D1" transform="scale(4.02269 4.02269)" d="M372.946 407.702C377.457 408.794 382.119 409.71 386.516 411.198Q382.269 427.997 377.788 444.736C375.872 452.038 374.231 459.576 371.828 466.73C370.468 466.857 369.947 466.739 368.877 467.63C368.97 468.634 369.124 468.819 369.926 469.528C370.264 469.828 370.804 470.085 371.189 470.302C367.12 480.224 364.617 490.817 360.371 500.68C356.095 499.424 351.768 498.305 347.469 497.129L372.946 407.702Z"/>
	<path fill="#B6C8D1" transform="scale(4.02269 4.02269)" d="M413.376 243.152C417.259 244.138 421.236 245.275 425.259 245.419C422.234 265.102 417.141 284.431 412.461 303.77L399.057 360.029C395.249 375.632 391.124 391.149 387.727 406.851C383.142 405.971 378.64 404.883 374.115 403.737C374.231 400.473 376.831 393.812 377.816 390.351Q382.28 374.97 386.293 359.465Q397.599 316.669 406.927 273.399C409.102 263.342 411.537 253.272 413.376 243.152Z"/>
	<path fill="#B6C8D1" transform="scale(4.02269 4.02269)" d="M271.53 185.142C280.477 185.155 297.148 190.413 306.56 192.633C321.618 196.184 336.924 198.676 351.956 202.344C368.832 206.461 385.272 211.849 402.437 214.755C410.271 216.521 418.148 218.293 425.849 220.582C426.862 221.123 427.403 221.278 427.697 222.446C429.162 228.248 425.921 238.121 425.721 244.33L425.259 245.419C421.236 245.275 417.259 244.138 413.376 243.152C413.65 241.833 413.184 240.585 413.546 239.298L414.511 239.067C414.198 235.278 408.892 234.046 408.557 230.382L407.579 227.832C406.656 227.817 405.918 227.879 405.076 227.453C405.107 226.723 405.131 226.15 404.994 225.427C404.096 226.116 403.558 227.219 402.965 228.167Q401.784 226.725 400.632 225.259C397.415 225.703 394.782 223.215 392.513 223.65L390.915 223.767C389.737 223.808 386.985 223.627 385.947 222.978C384.755 222.234 384.453 221.366 384.1 220.082C383.903 219.365 383.807 218.837 383.357 218.231L383.072 218.762L383.042 218.454L382.386 219.352C382.357 220.156 382.356 220.658 381.934 221.356C374.176 218.875 365.589 216.159 357.401 216.101L356.022 215.968C351.484 213.817 346.111 212.548 341.311 210.988L338.295 210.049C335.898 209.591 333.538 209.054 331.169 208.467L329.43 208.057L324.907 207.172C322.533 206.542 320.168 205.852 317.745 205.445C316.37 207.05 315.039 208.741 313.504 210.194C314.924 211.968 316.392 213.709 317.614 215.629C318.673 217.353 319.741 218.956 320.297 220.922C317.768 219.706 316.397 217.423 314.24 215.716C314.23 215.847 314.202 215.978 314.211 216.109C314.29 217.153 315.242 218.26 315.811 219.12L315.734 219.658C314.658 219.558 313.926 218.834 313.099 218.2C312.966 218.257 312.836 218.321 312.699 218.37C311.576 218.777 310.855 218.745 309.778 218.276C309.168 218.01 308.669 217.791 308.004 217.694C307.809 217.666 307.613 217.643 307.418 217.618C304.988 216.999 303.297 214.342 301.797 212.477L302.066 213.874L300.477 213.501C297.169 212.217 292.906 206.632 290.402 204.004L286.84 203.784L286.417 203.41L286.203 203.806L287.624 207.493C286.943 207.368 287.1 207.494 286.667 207.15C286.243 206.814 285.824 206.492 285.384 206.176C284.691 206.578 283.939 207.055 283.147 207.218C281.303 207.598 279.976 206.504 278.572 205.512C278.594 204.9 281.543 204.666 282.255 203.97L282.116 203.108C281.379 202.358 281.324 202.295 280.296 202.102C278.596 202.537 277.518 203.786 276.291 204.978C274.919 198.397 273.804 191.485 271.53 185.142Z"/>
	<path fill="#CDE9F6" transform="scale(4.02269 4.02269)" d="M414.511 239.067L415.326 239.142L415.985 238.234C418.684 238.43 422.463 240.031 424.202 242.14C424.755 242.811 425.323 243.555 425.721 244.33L425.259 245.419C421.236 245.275 417.259 244.138 413.376 243.152C413.65 241.833 413.184 240.585 413.546 239.298L414.511 239.067Z"/>
	<path fill="#CDE9F6" transform="scale(4.02269 4.02269)" d="M286.84 203.784C287.568 203.675 288.281 203.503 289 203.344L289.18 202.686C288.235 201.152 285.27 201.805 283.903 200.378C284.113 199.898 284.032 199.805 284.453 199.604C286.544 198.608 295.352 200.61 297.561 201.672C298.058 201.911 298.356 201.684 298.878 201.545L299.812 201.863C299.887 202.93 299.502 203.587 298.775 204.371C298.219 204.97 297.597 205.441 296.916 205.886C297.124 208.654 300.261 210.326 301.797 212.477L302.066 213.874L300.477 213.501C297.169 212.217 292.906 206.632 290.402 204.004L286.84 203.784Z"/>
	<path fill="#EAF5F9" transform="scale(4.02269 4.02269)" d="M298.878 201.545C300.404 201.098 301.538 200.884 303.025 201.677L303.442 202.23C304.939 202.656 306.437 203.007 307.96 203.33C311.333 203.819 314.481 204.459 317.745 205.445C316.37 207.05 315.039 208.741 313.504 210.194C314.924 211.968 316.392 213.709 317.614 215.629C318.673 217.353 319.741 218.956 320.297 220.922C317.768 219.706 316.397 217.423 314.24 215.716C314.23 215.847 314.202 215.978 314.211 216.109C314.29 217.153 315.242 218.26 315.811 219.12L315.734 219.658C314.658 219.558 313.926 218.834 313.099 218.2C312.966 218.257 312.836 218.321 312.699 218.37C311.576 218.777 310.855 218.745 309.778 218.276C309.168 218.01 308.669 217.791 308.004 217.694C307.809 217.666 307.613 217.643 307.418 217.618C304.988 216.999 303.297 214.342 301.797 212.477C300.261 210.326 297.124 208.654 296.916 205.886C297.597 205.441 298.219 204.97 298.775 204.371C299.502 203.587 299.887 202.93 299.812 201.863L298.878 201.545Z"/>
	<path fill="#C3ECF2" transform="scale(4.02269 4.02269)" d="M298.878 201.545C300.404 201.098 301.538 200.884 303.025 201.677L303.442 202.23C302.528 202.905 301.518 203.478 301.033 204.543L301.45 204.9C302.599 204.827 304.375 204.491 305.316 205.299C305.616 205.557 305.737 205.773 305.947 206.085L305.784 206.9L304.954 207.378C304.208 207.162 303.741 206.936 303.117 206.474L302.575 206.144L299.133 205.937L296.916 205.886C297.597 205.441 298.219 204.97 298.775 204.371C299.502 203.587 299.887 202.93 299.812 201.863L298.878 201.545Z"/>
	<path fill="#FAFBFB" transform="scale(4.02269 4.02269)" d="M311.028 208.029C311.864 208.739 312.717 209.429 313.504 210.194C314.924 211.968 316.392 213.709 317.614 215.629C318.673 217.353 319.741 218.956 320.297 220.922C317.768 219.706 316.397 217.423 314.24 215.716C313.964 213.097 312.193 211.124 310.785 208.968L311.028 208.029Z"/>
	<path fill="#C3ECF2" transform="scale(4.02269 4.02269)" d="M304.751 211.726L305.294 212.174C306.172 212.913 307.265 214.691 308.298 214.858C308.393 213.924 308.355 213.122 308.27 212.193L308.82 212.02C310.654 213.531 311.889 216.173 313.099 218.2C312.966 218.257 312.836 218.321 312.699 218.37C311.576 218.777 310.855 218.745 309.778 218.276C309.168 218.01 308.669 217.791 308.004 217.694C307.809 217.666 307.613 217.643 307.418 217.618C306.672 215.685 304.89 213.826 303.636 212.185L304.751 211.726Z"/>
	<path fill="#FAFBFB" transform="scale(4.02269 4.02269)" d="M299.133 205.937L302.575 206.144L303.117 206.474L302.593 207.033C303.136 208.715 303.921 210.177 304.751 211.726L303.636 212.185C304.89 213.826 306.672 215.685 307.418 217.618C304.988 216.999 303.297 214.342 301.797 212.477C300.261 210.326 297.124 208.654 296.916 205.886L299.133 205.937Z"/>
	<path fill="#CDE9F6" transform="scale(4.02269 4.02269)" d="M299.133 205.937L302.575 206.144L303.117 206.474L302.593 207.033C303.136 208.715 303.921 210.177 304.751 211.726L303.636 212.185C302.013 210.263 301.094 207.509 299.133 205.937Z"/>
	<path fill="#C3ECF2" transform="scale(4.02269 4.02269)" d="M307.96 203.33C311.333 203.819 314.481 204.459 317.745 205.445C316.37 207.05 315.039 208.741 313.504 210.194C312.717 209.429 311.864 208.739 311.028 208.029L310.655 208.051C310.313 208.513 310.005 208.874 309.596 209.287L308.634 209.053C308.018 208.536 307.731 208.259 307.453 207.479C306.885 205.888 307.274 204.752 307.96 203.33Z"/>
	<path fill="#CDE9F6" transform="scale(4.02269 4.02269)" d="M277.111 208.898L277.295 208.171C278.192 209.285 278.327 211.547 278.602 212.987C280.796 224.481 281.046 236.21 279.781 247.844C277.844 265.659 272.622 283.076 269.243 300.643L258.84 356.972C257.667 363.264 256.833 369.709 255.466 375.949L255.787 376.497C258.477 376.994 261.376 377.194 264.006 377.861C266.134 378.4 268.263 379.596 270.466 379.62C271.68 378.331 271.382 371.378 271.442 369.297C271.665 361.557 271.55 353.821 272.304 346.098C272.896 340.033 274.196 334.071 274.854 328.021C275.384 329.186 272.657 347.3 272.45 350.434C271.971 357.675 272.025 364.914 271.76 372.16C271.614 376.128 271.068 380.081 271.002 384.051C270.912 389.378 271.158 394.714 270.896 400.038C270.064 416.968 268.142 433.954 266.003 450.764C265.011 458.558 264.447 467.9 261.778 475.315C261.493 476.107 261.208 476.609 260.596 477.188C251.662 475.067 242.47 472.647 233.399 471.284C235.03 461.812 237.963 452.335 240.149 442.959Q245.614 419.133 250.604 395.204C257.296 364.618 262.408 333.734 268.068 302.95C274.601 267.418 284.174 246.08 277.111 208.898Z"/>
	<defs>
		<linearGradient id="gradient_5" gradientUnits="userSpaceOnUse" x1="237.62485" y1="325.94669" x2="266.81174" y2="329.97235">
			<stop offset="0" stop-color="#F57619"/>
			<stop offset="1" stop-color="#F49720"/>
		</linearGradient>
	</defs>
	<path fill="url(#gradient_5)" transform="scale(4.02269 4.02269)" d="M256.716 182.724C257.613 183.638 258.526 184.54 259.389 185.485C262.183 185.368 264.931 185.176 267.708 184.842C268.975 184.963 270.257 185.129 271.53 185.142C273.804 191.485 274.919 198.397 276.291 204.978C276.538 206.277 276.718 207.636 277.111 208.898C284.174 246.08 274.601 267.418 268.068 302.95C262.408 333.734 257.296 364.618 250.604 395.204Q245.614 419.133 240.149 442.959C237.963 452.335 235.03 461.812 233.399 471.284C227.96 470.308 222.425 469.331 217.116 467.78C219.037 462.56 220.363 456.76 221.749 451.369C224.981 438.802 227.681 426.107 230.863 413.527C231.331 412.277 231.6 410.893 231.94 409.599C235.734 391.816 240.049 374.149 243.948 356.389C248.113 337.415 251.818 318.313 255.672 299.272C259.436 280.68 263.406 262.166 265.993 243.36C265.97 241.843 265.896 240.323 265.842 238.806C264.307 238.553 262.436 238.433 261.044 237.738C260.512 237.472 260.259 237.355 259.669 237.265C259.399 236.913 258.921 236.641 258.564 236.376C257.055 236.313 255.544 235.737 254.092 235.326C253.308 236.139 252.552 237.015 251.67 237.721C250.9 235.782 250.491 234.658 248.704 233.461L248.824 229.216C249.93 227.116 250.624 224.663 251.389 222.416C253.449 222.943 255.316 223.469 257.239 224.401C259.267 222.625 261.962 221.141 263.31 218.744C265.149 215.474 262.851 210.662 261.813 207.353C262.399 207.107 262.986 207.049 263.609 206.945C263.728 205.322 263.306 204.159 262.774 202.637C261.853 195.306 260.808 189.095 255.89 183.303L256.716 182.724Z"/>
	<path fill="#88C0BE" transform="scale(4.02269 4.02269)" d="M261.813 207.353C262.399 207.107 262.986 207.049 263.609 206.945C265.313 217.623 265.738 228.022 265.842 238.806C264.307 238.553 262.436 238.433 261.044 237.738C260.512 237.472 260.259 237.355 259.669 237.265C259.399 236.913 258.921 236.641 258.564 236.376C257.055 236.313 255.544 235.737 254.092 235.326C253.308 236.139 252.552 237.015 251.67 237.721C250.9 235.782 250.491 234.658 248.704 233.461L248.824 229.216C249.93 227.116 250.624 224.663 251.389 222.416C253.449 222.943 255.316 223.469 257.239 224.401C259.267 222.625 261.962 221.141 263.31 218.744C265.149 215.474 262.851 210.662 261.813 207.353Z"/>
	<path fill="#C3ECF2" transform="scale(4.02269 4.02269)" d="M248.824 229.216C249.028 229.369 249.231 229.526 249.438 229.676C251.021 230.82 252.935 231.103 254.403 232.432C253.594 233.058 251.351 232.385 250.16 232.847C250.873 234.005 252.877 234.727 254.092 235.326C253.308 236.139 252.552 237.015 251.67 237.721C250.9 235.782 250.491 234.658 248.704 233.461L248.824 229.216Z"/>
	<path fill="#F25C3C" transform="scale(4.02269 4.02269)" d="M432.903 183.048C433.796 183.026 434.611 183.004 435.502 183.12C438.419 191.976 440.49 200.281 441.495 209.604C441.766 219.404 442.078 229.077 441.218 238.861C439.184 262.001 433.183 284.49 427.495 306.933C421.942 328.843 416.313 350.852 411.337 372.898C409.866 372.719 409.039 372.687 407.661 373.265L407.007 374.047C407.146 375.047 407.174 375.287 408.022 375.96C408.494 376.334 409.17 376.612 409.711 376.884C410.398 378.48 394.777 442.1 393.023 448.926C391.473 454.962 387.864 464.339 387.393 470.202C386.933 471.466 386.165 472.497 385.679 473.722C380.814 472.721 376.081 471.203 371.189 470.302C370.804 470.085 370.264 469.828 369.926 469.528C369.124 468.819 368.97 468.634 368.877 467.63C369.947 466.739 370.468 466.857 371.828 466.73C374.231 459.576 375.872 452.038 377.788 444.736Q382.269 427.997 386.516 411.198L387.727 406.851C391.124 391.149 395.249 375.632 399.057 360.029L412.461 303.77C417.141 284.431 422.234 265.102 425.259 245.419L425.721 244.33C425.921 238.121 429.162 228.248 427.697 222.446C427.403 221.278 426.862 221.123 425.849 220.582C425.972 220.463 426.116 220.364 426.217 220.226C426.873 219.327 426.596 216.879 426.584 215.778C426.945 215.454 427.342 215.117 427.535 214.656C429.078 210.973 426.585 201.39 425.589 197.656C424.441 193.112 423.458 188.804 423.294 184.107C426.53 183.884 429.698 183.552 432.903 183.048Z"/>
	<path fill="#EAF5F9" transform="scale(4.02269 4.02269)" d="M371.828 466.73C376.995 467.97 382.16 469.266 387.393 470.202C386.933 471.466 386.165 472.497 385.679 473.722C380.814 472.721 376.081 471.203 371.189 470.302C370.804 470.085 370.264 469.828 369.926 469.528C369.124 468.819 368.97 468.634 368.877 467.63C369.947 466.739 370.468 466.857 371.828 466.73Z"/>
	<path fill="#7BE9C7" transform="scale(4.02269 4.02269)" d="M131.632 194.454C164.297 197.447 196.663 205.93 228.178 214.681C235.947 217.129 243.812 219.408 251.389 222.416C250.624 224.663 249.93 227.116 248.824 229.216L248.704 233.461C250.491 234.658 250.9 235.782 251.67 237.721C252.552 237.015 253.308 236.139 254.092 235.326C255.544 235.737 257.055 236.313 258.564 236.376C258.921 236.641 259.399 236.913 259.669 237.265C260.259 237.355 260.512 237.472 261.044 237.738C262.436 238.433 264.307 238.553 265.842 238.806C265.896 240.323 265.97 241.843 265.993 243.36C263.406 262.166 259.436 280.68 255.672 299.272C251.818 318.313 248.113 337.415 243.948 356.389C240.049 374.149 235.734 391.816 231.94 409.599C231.6 410.893 231.331 412.277 230.863 413.527C228.121 412.93 217.991 411.246 216.583 409.57C216.717 408.549 216.954 407.556 217.172 406.551L216.951 406.321C213.349 405.736 209.711 404.647 206.128 403.866Q196.535 401.867 186.918 399.988C170.472 396.664 153.979 393.811 137.502 390.679C136.335 389.44 121.476 387.96 118.584 387.321C121.498 363.303 125.65 339.083 130.289 315.339C135.03 291.072 142.128 260.823 141.944 236.454C141.847 223.624 138.616 205.435 131.632 194.454Z"/>
	<path fill="#C3ECF2" transform="scale(4.02269 4.02269)" d="M200.302 227.961L199.677 227.73L199.525 226.984C200.09 225.859 200.032 225.844 201.19 225.373C202.577 225.374 203.534 226.08 204.685 226.761C203.393 228.118 202.097 227.91 200.302 227.961Z"/>
	<path fill="#CDE9F6" transform="scale(4.02269 4.02269)" d="M237.466 231.572C237.972 232.108 238.218 232.71 238.166 233.465C238.031 235.396 235.941 237.042 234.646 238.32C233.796 237.721 234.083 238.119 233.782 237.126C234.527 235.169 236.226 233.71 237.286 231.887L237.466 231.572Z"/>
	<path fill="#C3ECF2" transform="scale(4.02269 4.02269)" d="M240.507 243.709C240.144 242.689 239.922 241.638 240.028 240.552C240.308 237.68 242.719 235.846 244.761 234.119C245.118 234.973 245.149 234.599 244.816 235.399C244.192 236.9 242.998 238.049 242.266 239.484C241.822 241.008 241.474 242.412 240.507 243.709Z"/>
	<path fill="#C3ECF2" transform="scale(4.02269 4.02269)" d="M241.094 231.403C241.207 231.479 241.329 231.542 241.433 231.63C242.357 232.412 242.344 232.571 242.453 233.726C241.752 235.738 240.149 237.283 238.779 238.879L237.773 238.531L237.538 237.729C238.1 235.544 239.912 233.366 241.094 231.403Z"/>
	<path fill="#C3ECF2" transform="scale(4.02269 4.02269)" d="M212.239 228.134C213.201 229.068 213.989 230.105 215.381 230.112C215.756 229.726 216.024 229.381 216.272 228.902C216.517 228.429 216.747 227.904 217.071 227.478C217.738 226.604 218.684 226.343 219.722 226.203C219.187 228.594 217.321 229.82 216.635 231.992C216.221 232.203 215.875 232.401 215.42 232.53C214.222 232.872 212.312 231.529 211.272 230.963C210.829 229.974 210.489 229.729 210.87 228.683L212.239 228.134Z"/>
	<path fill="#A6F3E8" transform="scale(4.02269 4.02269)" d="M204.685 226.761L205.488 227.411C206.972 227.076 207.772 226.065 208.806 224.968L212.239 228.134L210.87 228.683C210.489 229.729 210.829 229.974 211.272 230.963C209.5 230.766 207.683 230.618 205.996 230.011C203.915 229.262 202.61 228.083 200.302 227.961C202.097 227.91 203.393 228.118 204.685 226.761Z"/>
	<path fill="#A6F3E8" transform="scale(4.02269 4.02269)" d="M219.722 226.203L220.038 226.313C223.424 227.466 229.743 228.111 232.169 230.66C232.104 231.511 231.801 232.009 231.38 232.741L231.819 233.201C233.794 232.632 232.908 229.789 235.672 231.049C234.775 233.452 232.163 235.58 232.011 238.031C232.531 239.128 233.076 240.192 233.667 241.253L233.305 241.692C229.775 240.49 230.358 233.79 226.025 234.811C224.818 235.095 223.839 235.16 222.711 234.508C221.56 233.843 222.034 232.724 220.467 232.294C219.821 232.78 219.751 232.896 219.416 233.586C218.143 233.434 217.645 232.733 216.635 231.992C217.321 229.82 219.187 228.594 219.722 226.203Z"/>
	<path fill="#A6F3E8" transform="scale(4.02269 4.02269)" d="M248.704 233.461C250.491 234.658 250.9 235.782 251.67 237.721C252.552 237.015 253.308 236.139 254.092 235.326C255.544 235.737 257.055 236.313 258.564 236.376C257.933 237.983 257.479 239.538 257.103 241.223L257.408 241.904L258.455 241.163C259.285 241.32 259.128 241.107 259.498 241.705C259.995 242.509 260.24 243.386 260.523 244.28C261.038 245.154 261.58 245.843 261.437 246.904C259.172 248.152 253.206 246.118 250.53 245.834L250.014 246.016L248.479 245.228C248.609 244.553 249.242 243.749 249.596 243.153L249.375 242.559C248.357 241.881 247.646 241.485 246.435 241.267L246.051 241.775C246.078 242.573 246.134 243.211 245.898 243.985C245.854 244.132 245.791 244.272 245.737 244.416L242.821 243.776C243.543 242.919 244.341 242.169 244.549 241.03C243.883 240 243.376 239.952 242.266 239.484C242.998 238.049 244.192 236.9 244.816 235.399C245.149 234.599 245.118 234.973 244.761 234.119C245.848 233.673 247.523 233.642 248.704 233.461Z"/>
	<path fill="#75D2BB" transform="scale(4.02269 4.02269)" d="M252.246 238.297C253.363 240.152 254.745 242.359 256.552 243.615C257.891 243.929 259.151 244.172 260.523 244.28C261.038 245.154 261.58 245.843 261.437 246.904C259.172 248.152 253.206 246.118 250.53 245.834C250.83 243.267 251.577 240.787 252.246 238.297Z"/>
	<path fill="#88C0BE" transform="scale(4.02269 4.02269)" d="M258.564 236.376C258.921 236.641 259.399 236.913 259.669 237.265C260.259 237.355 260.512 237.472 261.044 237.738C262.436 238.433 264.307 238.553 265.842 238.806C265.896 240.323 265.97 241.843 265.993 243.36C263.406 262.166 259.436 280.68 255.672 299.272C251.818 318.313 248.113 337.415 243.948 356.389C240.049 374.149 235.734 391.816 231.94 409.599C231.6 410.893 231.331 412.277 230.863 413.527C228.121 412.93 217.991 411.246 216.583 409.57C216.717 408.549 216.954 407.556 217.172 406.551L216.951 406.321C218.966 401.694 220.281 393.403 221.631 388.235C225.989 371.554 229.497 354.727 233.434 337.949Q239.248 313.676 244.043 289.182C246.846 275.07 249.965 260.438 250.014 246.016L250.53 245.834C253.206 246.118 259.172 248.152 261.437 246.904C261.58 245.843 261.038 245.154 260.523 244.28C260.24 243.386 259.995 242.509 259.498 241.705C259.128 241.107 259.285 241.32 258.455 241.163L257.408 241.904L257.103 241.223C257.479 239.538 257.933 237.983 258.564 236.376Z"/>
	<path fill="#C3ECF2" transform="scale(4.02269 4.02269)" d="M259.669 237.265C260.259 237.355 260.512 237.472 261.044 237.738C262.436 238.433 264.307 238.553 265.842 238.806C265.896 240.323 265.97 241.843 265.993 243.36C264.928 243.354 263.945 243.316 262.886 243.162C262.126 242.47 261.73 241.958 261.293 241.027C260.704 239.776 260.144 238.567 259.669 237.265Z"/>
	<path fill="#C3ECF2" transform="scale(4.02269 4.02269)" d="M217.172 406.551C222.152 407.09 226.947 408.951 231.94 409.599C231.6 410.893 231.331 412.277 230.863 413.527C228.121 412.93 217.991 411.246 216.583 409.57C216.717 408.549 216.954 407.556 217.172 406.551Z"/>
	<path fill="#CDE9F6" transform="scale(4.02269 4.02269)" d="M435.502 183.12C440.09 181.722 523.403 202.665 536.278 205.781C546.5 208.256 557.082 211.709 567.538 212.785C574.296 214.688 581.233 216.081 588.083 217.614C593.399 218.803 599.402 220.542 604.831 220.75C612.182 223.126 620.551 223.87 628.185 225.237Q660.749 231.069 693.58 235.145L699.293 235.678Q703.535 236.039 707.751 236.624C706.046 239.162 703.975 242.056 702.899 244.903C701.017 247.02 699.393 249.151 698.256 251.771C691.034 264.349 686.847 277.64 684.422 291.877C683.695 296.142 683.365 302.812 681.812 306.611C677.103 344.104 671.903 381.577 668.595 419.231C666.267 445.734 664.296 472.471 662.822 499.03C662.264 509.084 662.348 519.164 661.704 529.217C656.769 528.651 651.88 528.126 646.912 527.942C641.551 526.772 636.147 524.765 630.837 523.286Q610.623 517.679 590.491 511.78C582.178 509.343 573.879 506.606 565.457 504.573C550.271 500.909 534.566 498.502 519.214 495.533L420.714 477.236C422.53 473.4 423.305 465.215 423.929 460.828C425.752 448.004 427.333 435.372 428.049 422.432C428.7 410.65 428.715 392.935 431.03 381.86C427.715 381.151 411.778 378.099 410.265 376.164L409.711 376.884C409.17 376.612 408.494 376.334 408.022 375.96C407.174 375.287 407.146 375.047 407.007 374.047L407.661 373.265C409.039 372.687 409.866 372.719 411.337 372.898C416.313 350.852 421.942 328.843 427.495 306.933C433.183 284.49 439.184 262.001 441.218 238.861C442.078 229.077 441.766 219.404 441.495 209.604C440.49 200.281 438.419 191.976 435.502 183.12Z"/>
	<path fill="#FAFBFB" transform="scale(4.02269 4.02269)" d="M549.935 223.794L550.594 223.32C553.167 223.919 555.939 224.519 557.751 226.597L557.407 226.959C556.767 226.972 556.132 227.007 555.494 226.951C555.154 225.881 555.185 225.694 554.294 225.043C552.982 224.927 551.942 225.572 550.79 226.114C550.062 225.161 550.045 224.997 549.935 223.794Z"/>
	<path fill="#C3ECF2" transform="scale(4.02269 4.02269)" d="M448.587 200.012C450.962 202.516 452.938 206.061 453.135 209.546C452.466 209.218 452.137 208.938 451.731 208.305C450.325 206.116 447.984 202.548 448.587 200.012Z"/>
	<path fill="#FAFBFB" transform="scale(4.02269 4.02269)" d="M442.113 198.706C442.266 198.773 442.431 198.82 442.573 198.908C444.604 200.165 446.887 205.649 447.352 207.945C446.838 207.77 446.46 207.613 446.029 207.247C443.855 205.397 442.069 201.53 442.113 198.706Z"/>
	<path fill="#FAFBFB" transform="scale(4.02269 4.02269)" d="M642.136 242.102C642.633 242.282 642.806 242.304 643.257 242.702C643.544 242.955 652.473 254.485 653.234 255.582C650.977 255.172 648.428 252.578 646.871 250.914C644.655 248.546 642.042 245.484 642.136 242.102Z"/>
	<path fill="#FAFBFB" transform="scale(4.02269 4.02269)" d="M599.682 235.93L599.587 234.663L600.19 234.215C600.444 234.354 600.751 234.425 600.952 234.634C602.463 236.207 603.652 239.129 604.893 241.001C606.34 243.184 609.263 245.875 610.071 248.232L609.72 248.57C607.012 247.651 605.243 244.486 603.62 242.281C602.853 239.778 600.81 238.249 599.682 235.93Z"/>
	<path fill="#FAFBFB" transform="scale(4.02269 4.02269)" d="M645.728 242.752C646.135 242.813 646.375 242.831 646.782 242.983C649.942 244.161 655.81 253.424 656.924 256.417C653.471 255.176 647.464 246.034 645.728 242.752Z"/>
	<path fill="#FAFBFB" transform="scale(4.02269 4.02269)" d="M632.009 240.098C632.184 240.163 632.361 240.218 632.532 240.292C634.56 241.164 642.385 252.172 643.362 254.45C642.956 254.26 642.544 254.064 642.168 253.818C638.215 251.228 632.93 244.803 632.009 240.098Z"/>
	<path fill="#FAFBFB" transform="scale(4.02269 4.02269)" d="M649.871 242.965C650.409 243.109 650.41 243.087 650.984 243.363C653.945 244.786 660.511 254.806 661.417 258.007C660.953 257.691 660.861 257.644 660.459 257.318C658.238 255.514 650.22 245.767 649.871 242.965Z"/>
	<path fill="#FAFBFB" transform="scale(4.02269 4.02269)" d="M627.549 239.443C628.065 239.588 628.734 239.735 629.218 239.995C631.584 241.266 637.239 251.319 638.012 253.979C634.657 251.204 628.076 243.904 627.549 239.443Z"/>
	<path fill="#FAFBFB" transform="scale(4.02269 4.02269)" d="M555.494 226.951C555.731 227.677 555.927 228.159 556.388 228.785C556.829 229.383 556.596 229.253 557.191 229.338C557.86 228.806 558.286 228.377 559.16 228.286C560.975 229.374 561.802 231.583 563.389 233.021C563.457 232.965 563.533 232.918 563.592 232.853C563.767 232.659 563.924 232.45 564.09 232.249C566.56 233.52 568.86 237.766 570.473 240.089C566.521 239.849 562.444 232.238 559.3 230.061C558.19 230.307 557.3 230.478 556.149 230.357C555.242 229.473 555.198 228.931 554.851 227.733L555.494 226.951Z"/>
	<path fill="#FAFBFB" transform="scale(4.02269 4.02269)" d="M661.204 244.785C662.792 245.369 663.506 247.315 665.135 247.513L666.324 245.932C667.621 246.053 667.628 247.186 668.618 247.816C669.738 248.528 669.944 246.891 671.082 246.491C672.384 247.626 673.509 250.499 673.787 252.199C672.635 252.164 671.875 250.655 670.438 250.388L669.853 250.846L669.795 251.889L670.845 252.961C672.984 255.126 674.222 258.009 675.564 260.697C671.996 256.498 662.82 249.058 661.204 244.785Z"/>
	<path fill="#EAF5F9" transform="scale(4.02269 4.02269)" d="M606.152 248.635C604.091 248.091 601.803 247.611 599.914 246.618C598.885 246.078 597.405 245.141 597.039 244.011C598.473 243.776 600.582 243.976 601.702 243.068C601.685 242.935 601.683 242.799 601.651 242.669C600.988 239.978 595.743 234.841 593.423 233.305C592.053 232.398 575.674 230.275 573.896 230.594C573.757 230.619 573.619 230.65 573.48 230.675L572.77 230.798C572.614 230.827 572.459 230.86 572.304 230.89C571.435 230.317 571.334 230.244 570.916 229.297L571.297 228.74C572.589 228.532 573.635 228.89 574.861 229.257C580.771 231.022 591.694 230.828 596.502 233.831C597.738 234.603 597.976 235.39 598.293 236.729C598.438 237.342 598.256 237.039 598.898 237.495L599.538 237.102L599.682 235.93C600.81 238.249 602.853 239.778 603.62 242.281L603.359 243.2C603.909 245.196 605.081 246.881 606.152 248.635Z"/>
	<path fill="#EAF5F9" transform="scale(4.02269 4.02269)" d="M611.422 236.659C616.301 237.215 620.195 239.397 625.424 239.592C627.152 241.641 633.331 249.228 633.217 251.676C632.3 252.035 632.764 252.034 631.825 251.641C630.917 250.329 629.955 248.497 628.567 247.683L628.159 248.306C625.606 248.824 623 245.856 620.316 246.138L619.589 247.048C618.137 246.279 612.675 238.432 611.422 236.659Z"/>
	<path fill="#EAF5F9" transform="scale(4.02269 4.02269)" d="M452.147 199.197C454.46 200.28 457.042 201.775 459.525 202.365C463.632 203.342 468.087 203.192 472.779 204.373C481.325 206.523 489.913 208.515 498.44 210.74C503.404 212.035 508.346 213.687 513.337 214.832C516.225 215.494 523.361 215.978 525.457 217.447C525.629 218.37 525.337 218.897 525.002 219.742L525.256 220.162L525.484 220.191C525.767 219.553 526.094 218.934 526.409 218.311C527.454 217.765 527.754 217.886 528.898 217.993C531.067 219.613 531.592 216.99 533.436 220.601C534.202 220.313 534.665 220.012 535.328 219.548C537.953 219.608 544.285 223.028 546.244 221.125C547.334 220.066 547.443 217.743 549.241 217.592C548.934 218.361 548.621 218.996 548.198 219.707C547.601 220.709 547.263 221.777 547.605 222.933C547.787 223.547 548.158 223.665 548.642 224.028C549.172 224.012 549.447 224.025 549.935 223.794C550.045 224.997 550.062 225.161 550.79 226.114C549.646 226.902 550.449 227.818 549.394 228.811C548.382 228.792 547.475 228.793 546.47 228.949L546.253 229.537C548.849 232.148 552.286 233.451 554.869 236.22L555.31 236.697C552.233 235.951 549.403 234.443 546.339 233.812L545.157 234.668C538.983 234.017 536.621 231.977 531.317 229.828C531.191 230.384 531.054 230.781 530.831 231.323C530.597 231.283 530.351 231.291 530.13 231.205C527.699 230.254 526.026 226.383 524.85 224.243C525.16 226.045 526.517 228.28 525.674 230.027C523.849 228.926 521.44 224.269 519.579 222.334L519.137 221.88C519.947 224.373 521.584 226.321 522.377 228.784L522.054 229.114C519.209 227.604 517.729 225.149 515.952 222.567C514.341 219.721 512.831 217.24 510.326 215.064C511.356 217.772 512.615 221.418 514.961 223.242C516.194 225.427 518.163 227.501 519.702 229.509C514.759 226.492 512.547 222.051 508.341 218.38C509.939 221.132 511.458 223.816 512.656 226.767C511.419 225.857 510.091 224.982 509.141 223.761C508.732 223.235 508.563 223.02 508.02 222.573L507.746 222.921C507.899 223.823 508.049 224.351 507.639 225.195C504.506 223.95 502.703 220.249 500.216 218.025C500.091 217.913 499.963 217.804 499.837 217.693C501.059 220.374 502.51 222.53 504.307 224.84C498.21 222.314 491.936 221.386 485.526 219.968C483.369 217.098 481.434 214.858 478.479 212.772C479.555 214.96 481.275 216.742 482.279 218.905L481.672 219.491C481.463 219.399 481.249 219.317 481.046 219.214C479.137 218.254 478.277 214.252 476.246 213.987C476.227 215.664 478.396 217.753 479.443 218.952C474.381 217.489 469.297 216.211 464.626 213.709C463.718 212.201 462.814 210.228 461.424 209.135L460.964 209.559C461.067 210.973 462.747 212.1 463.441 213.359C462.502 213.701 462.49 213.551 461.577 213.293C458.002 209.652 454.63 203.675 452.147 199.197Z"/>
	<path fill="#FAFBFB" transform="scale(4.02269 4.02269)" d="M525.484 220.191C525.767 219.553 526.094 218.934 526.409 218.311C527.454 217.765 527.754 217.886 528.898 217.993C528.32 219.079 527.855 220.379 526.723 220.973C525.85 220.758 526.01 220.795 525.484 220.191Z"/>
	<path fill="#FAFBFB" transform="scale(4.02269 4.02269)" d="M409.711 376.884C409.17 376.612 408.494 376.334 408.022 375.96C407.174 375.287 407.146 375.047 407.007 374.047L407.661 373.265C409.039 372.687 409.866 372.719 411.337 372.898C411.714 373.15 412.14 373.491 412.547 373.683C418.375 373.84 424.819 375.94 430.498 377.277L571.547 409.794L615.108 419.646C623.152 421.428 631.295 422.934 639.256 425.066C641.563 425.684 643.44 426.357 645.173 428.058L645.237 428.779C643.001 430.349 638.354 429.602 635.76 429.165C633.602 428.802 631.553 428.041 629.407 427.606C617.997 425.293 606.717 422.509 595.39 419.825L526.075 403.757L461.67 389.003C452.227 386.838 440.01 384.778 431.03 381.86C427.715 381.151 411.778 378.099 410.265 376.164L409.711 376.884Z"/>
	<path fill="#458BE5" transform="scale(4.02269 4.02269)" d="M693.58 235.145L699.293 235.678Q703.535 236.039 707.751 236.624C706.046 239.162 703.975 242.056 702.899 244.903C701.017 247.02 699.393 249.151 698.256 251.771C691.034 264.349 686.847 277.64 684.422 291.877C683.695 296.142 683.365 302.812 681.812 306.611C678.013 306.177 672.238 306.536 669.081 308.946C667.961 309.8 667.394 310.921 666.831 312.179C667.939 296.261 671.458 278.487 677.31 263.628C679.547 257.948 682.585 252.303 685.604 246.995C687.953 242.865 690.354 238.658 693.58 235.145Z"/>
	<path fill="#C0E0EA" transform="scale(4.02269 4.02269)" d="M441.495 209.604C444.032 210.176 452.428 210.606 453.79 212.838C455.563 215.745 455.43 220.741 455.731 224.096C457.321 241.827 457.416 258.223 452.488 275.571C448.402 289.953 440.827 302.734 437.727 317.529C435.908 326.205 434.673 335.175 433.857 344.003C433.275 350.298 432.259 372.681 430.498 377.277C424.819 375.94 418.375 373.84 412.547 373.683C412.14 373.491 411.714 373.15 411.337 372.898C416.313 350.852 421.942 328.843 427.495 306.933C433.183 284.49 439.184 262.001 441.218 238.861C442.078 229.077 441.766 219.404 441.495 209.604Z"/>
	<path fill="#2ED6FA" transform="scale(4.02269 4.02269)" d="M666.831 312.179C667.394 310.921 667.961 309.8 669.081 308.946C672.238 306.536 678.013 306.177 681.812 306.611C677.103 344.104 671.903 381.577 668.595 419.231C666.267 445.734 664.296 472.471 662.822 499.03C662.264 509.084 662.348 519.164 661.704 529.217C656.769 528.651 651.88 528.126 646.912 527.942C647.042 508.409 649.198 488.837 651.226 469.429L658.383 400.794L663.886 339.853C664.764 330.701 665.204 321.216 666.831 312.179Z"/>
	<path fill="#F25C3C" transform="scale(4.02269 4.02269)" d="M744.261 214.758C740.892 217.893 737.285 220.587 734.072 223.922C743.779 223.391 753.449 222.054 763.184 222.148C748.783 226.554 734.519 230.474 720.578 236.283C714.519 238.808 708.883 242.239 702.899 244.903C703.975 242.056 706.046 239.162 707.751 236.624Q703.535 236.039 699.293 235.678L699.044 235.213C701.149 232.472 704.65 230.312 707.59 228.537C719.316 221.459 731.017 217.839 744.261 214.758Z"/>
	<path fill="#1AA735" transform="scale(4.02269 4.02269)" d="M77.2212 172.884C82.5635 173.978 87.7967 175.56 92.9817 177.232C96.2432 185.38 115.776 190.132 116.216 198.695Q112.805 195.464 109.044 192.647Q105.283 189.831 101.222 187.468C93.5223 182.392 85.413 177.101 77.2212 172.884Z"/>
	<path fill="#1CA45D" transform="scale(4.02269 4.02269)" d="M92.1369 166.399Q96.3298 168.412 100.4 170.663C102.307 173.288 114.607 181.001 118.11 183.672C122.694 187.167 127.05 190.955 131.632 194.454C138.616 205.435 141.847 223.624 141.944 236.454C142.128 260.823 135.03 291.072 130.289 315.339C125.65 339.083 121.498 363.303 118.584 387.321L117.912 391.742Q112.558 422.481 106.403 453.07C105.07 459.498 100.868 474.031 100.679 479.688C95.4086 479.464 88.9586 477.495 83.5027 476.704C87.997 460.709 91.0289 444.118 94.6353 427.895C96.9131 417.649 100.645 404.781 101.719 394.548C103.844 390.668 106.524 373.992 107.55 368.717C114.964 330.595 122.009 292.326 126.131 253.682C128.291 233.436 129.726 215.471 116.216 198.695C115.776 190.132 96.2432 185.38 92.9817 177.232Q97.6124 178.72 102.288 180.06C99.4984 175.181 95.6128 170.797 92.1369 166.399Z"/>
	<path fill="#F25C3C" transform="scale(4.02269 4.02269)" d="M402.437 214.755C403.763 211.526 410.199 208.864 413.25 207.606Q419.314 205.153 425.653 203.542C426.166 207.628 426.595 211.653 426.584 215.778C426.596 216.879 426.873 219.327 426.217 220.226C426.116 220.364 425.972 220.463 425.849 220.582C418.148 218.293 410.271 216.521 402.437 214.755Z"/>
	<path fill="#FCD905" transform="scale(4.02269 4.02269)" d="M231.075 153.677C245.085 162.638 256.956 172.055 267.708 184.842C264.931 185.176 262.183 185.368 259.389 185.485C258.526 184.54 257.613 183.638 256.716 182.724C256.613 182.615 256.512 182.504 256.408 182.396C253.626 179.512 250.2 177.126 247.082 174.614C239.887 168.815 235.138 161.908 231.075 153.677Z"/>
	<path fill="#FCD905" transform="scale(4.02269 4.02269)" d="M208.172 157.309C213.332 159.326 218.646 160.922 223.787 162.976C235.355 167.596 246.953 174.556 255.89 183.303C260.808 189.095 261.853 195.306 262.774 202.637C261.761 202.819 261.126 202.66 260.144 202.432L259.789 201.61C254.217 192.439 245.112 184.429 236.327 178.423C232.074 175.514 227.582 172.976 223.357 170.014C217.911 166.197 212.927 161.951 208.172 157.309Z"/>
	<path fill="#F25C3C" transform="scale(4.02269 4.02269)" d="M259.789 201.61L260.144 202.432C261.126 202.66 261.761 202.819 262.774 202.637C263.306 204.159 263.728 205.322 263.609 206.945C262.986 207.049 262.399 207.107 261.813 207.353C262.851 210.662 265.149 215.474 263.31 218.744C261.962 221.141 259.267 222.625 257.239 224.401C255.316 223.469 253.449 222.943 251.389 222.416C243.812 219.408 235.947 217.129 228.178 214.681L228.405 214.012C235.154 209.072 251.543 204.296 259.789 201.61Z"/>
	<path fill="#DEA05C" transform="scale(4.02269 4.02269)" d="M260.144 202.432C261.126 202.66 261.761 202.819 262.774 202.637C263.306 204.159 263.728 205.322 263.609 206.945C262.986 207.049 262.399 207.107 261.813 207.353C261.427 205.682 260.727 204.046 260.144 202.432Z"/>
	<path fill="#F25C3C" transform="scale(4.02269 4.02269)" d="M567.538 212.785C569.827 211.147 573.263 210.525 575.961 209.746C583.11 207.685 590.273 205.687 597.58 204.257C602.145 203.364 606.849 202.971 611.362 201.874C608.123 204.574 604.77 207.206 601.738 210.138Q614.708 209.963 627.68 210.02C620.319 214.091 611.924 216.38 604.831 220.75C599.402 220.542 593.399 218.803 588.083 217.614C581.233 216.081 574.296 214.688 567.538 212.785Z"/>
	<path fill="#FCD905" transform="scale(4.02269 4.02269)" d="M398.971 158.034C411.699 163.106 424.633 171.939 432.903 183.048C429.698 183.552 426.53 183.884 423.294 184.107C423.458 188.804 424.441 193.112 425.589 197.656C423.684 197.336 418.15 188.806 416.402 187.008C409.888 180.309 401.165 175.191 393.571 169.764C388.981 166.483 384.696 162.855 380.383 159.225C390.962 162.495 400.355 166.372 410.1 171.598C406.439 166.748 402.399 163.404 398.971 158.034Z"/>
</svg>
