<?xml version="1.0" encoding="utf-8" ?>
<svg xmlns="http://www.w3.org/2000/svg" xmlns:xlink="http://www.w3.org/1999/xlink" width="699" height="1435">
	<defs>
		<linearGradient id="gradient_0" gradientUnits="userSpaceOnUse" x1="87.853897" y1="86.328217" x2="65.795067" y2="78.359894">
			<stop offset="0" stop-color="#8CA78C"/>
			<stop offset="1" stop-color="#C4D0BD"/>
		</linearGradient>
	</defs>
	<path fill="url(#gradient_0)" transform="scale(7.2127 7.2127)" d="M72.0062 65.5177C76.5363 66.4471 81.3035 71.7334 83.7245 75.3993C86.4538 79.532 88.0982 83.83 87.9564 88.8251C85.8495 89.8425 67.4947 91.8037 64.0092 92.0528C63.3554 92.0196 62.6814 92.0925 62.0275 92.1322L61.1581 91.9008C61.5483 89.3524 65.0753 81.5364 66.2005 78.4622C67.3301 75.3761 68.2465 71.5198 69.6701 68.6379C70.0111 67.9476 70.8165 67.4227 71.348 66.8722C71.8322 66.3707 71.7801 66.2171 71.7707 65.5621L72.0062 65.5177Z"/>
	<path fill="#1F8E39" transform="scale(7.2127 7.2127)" d="M87.9564 88.8251L87.9676 144.191L87.9796 159.976C87.9874 162.307 88.2643 164.983 87.9717 167.284C87.4917 168.367 85.0761 169.321 83.9956 169.738C79.1638 171.602 70.6328 173.014 65.5255 172.744C65.0775 172.782 64.7969 172.787 64.3957 172.57C64.2097 172.269 64.0702 171.945 64.0002 171.597C63.7541 170.376 64.0321 168.061 64.733 167.026C67.0504 167.405 70.7082 166.728 73.0735 166.357C75.3522 165.999 78.575 165.472 80.0208 163.486C80.1453 161.407 80.0019 159.234 80.0001 157.142L79.9915 143.482L80.0047 98.885C79.9238 98.9518 79.837 99.008 79.7546 99.0721C79.5121 99.2609 79.2845 99.4282 78.9975 99.5468C77.0203 100.365 68.5651 101.347 66.4354 100.478C65.5935 100.474 65.0192 100.601 64.3023 100.114C63.0681 97.9223 63.9121 94.4927 64.0092 92.0528C67.4947 91.8037 85.8495 89.8425 87.9564 88.8251Z"/>
	<defs>
		<linearGradient id="gradient_1" gradientUnits="userSpaceOnUse" x1="58.221989" y1="190.49055" x2="52.095257" y2="173.12039">
			<stop offset="0" stop-color="#89A387"/>
			<stop offset="1" stop-color="#E7E8D2"/>
		</linearGradient>
	</defs>
	<path fill="url(#gradient_1)" transform="scale(7.2127 7.2127)" d="M8.80276 166.953C9.22914 167.532 9.30525 167.765 10.0015 167.997C10.4485 168.814 11.6562 169.4 12.5292 169.655C13.069 169.812 13.4921 169.769 14.0237 169.607C14.2447 169.781 14.4741 170.012 14.7536 170.073C15.6551 170.769 16.4655 171.066 17.6143 170.916C17.9274 170.875 18.203 170.779 18.4792 170.625L19.0373 171.177C20.851 172.973 31.053 173.573 33.8503 173.563C34.7405 173.56 35.6903 173.609 36.5032 173.195C36.5667 173.259 36.5525 173.249 36.613 173.298C36.635 173.316 36.6578 173.333 36.6797 173.352C36.7311 173.394 36.7781 173.438 36.8327 173.477C38.1656 174.437 56.0721 174.024 58.8944 173.827C61.1459 173.67 63.3042 173.295 65.5256 172.925L65.5255 172.744C70.6328 173.014 79.1638 171.602 83.9956 169.738C85.0761 169.321 87.4917 168.367 87.9717 167.284C88.0089 168.35 88.3544 171.675 87.7148 172.419C87.5033 175.951 86.0071 178.842 83.3529 181.206C76.3627 187.43 50.2948 188.459 40.7831 187.882C37.5306 187.684 22.2609 185.968 20.2008 184.107C20.1796 184.088 20.1576 184.069 20.1364 184.05C20.0825 184.002 20.0888 184.005 20.0322 183.945C20.0177 183.951 20.0033 183.957 19.9885 183.963C19.0598 184.311 17.1217 183.429 16.2601 183.028C15.2679 182.567 13.6281 181.789 13.2348 180.712C13.2068 180.714 13.1789 180.716 13.1509 180.717C12.4849 180.731 11.5604 179.796 11.1052 179.315C9.0526 177.147 8.44388 174.265 8.52283 171.375C8.42778 169.922 8.66414 168.402 8.80276 166.953Z"/>
	<path fill="#BBA519" transform="scale(7.2127 7.2127)" d="M87.9717 167.284C88.0089 168.35 88.3544 171.675 87.7148 172.419C84.0474 174.388 68.9178 178.195 65.2034 177.055C65.0959 177.022 64.9928 176.981 64.8874 176.942C64.8618 176.933 64.8357 176.924 64.8101 176.915C64.7947 176.909 64.7797 176.902 64.7645 176.896C64.9978 176.887 65.2586 176.788 65.4861 176.729Q65.8411 176.367 66.1069 175.934Q66.3728 175.502 66.5361 175.022C66.7015 174.55 66.7718 173.853 66.5346 173.395C66.365 173.067 65.8686 173.026 65.5256 172.925L65.5255 172.744C70.6328 173.014 79.1638 171.602 83.9956 169.738C85.0761 169.321 87.4917 168.367 87.9717 167.284Z"/>
	<path fill="#D6D9C6" transform="scale(7.2127 7.2127)" d="M36.4602 177.473C38.6805 178.503 49.634 178.754 52.2367 177.947C51.9195 178.934 51.6124 179.298 50.6506 179.791C46.9339 181.694 42.5515 181.245 38.5657 182.066C36.8017 182.429 34.8424 183.436 33.1016 183.519C30.1858 183.658 27.1807 182.92 24.3056 183.113C23.1188 183.192 21.0972 184.23 20.0322 183.945C20.0177 183.951 20.0033 183.957 19.9885 183.963C19.0598 184.311 17.1217 183.429 16.2601 183.028C15.2679 182.567 13.6281 181.789 13.2348 180.712C13.3437 180.769 13.4515 180.812 13.5662 180.854C14.8218 181.316 18.8341 180.053 20.432 179.933C25.2417 179.571 30.4524 180.944 35.1762 179.913C35.92 179.75 36.7007 179.52 37.1314 178.847C37.0896 178.069 37.0144 178.014 36.4602 177.473Z"/>
	<path fill="#FDFDFB" transform="scale(7.2127 7.2127)" d="M8.80276 166.953C9.22914 167.532 9.30525 167.765 10.0015 167.997C10.4485 168.814 11.6562 169.4 12.5292 169.655C13.069 169.812 13.4921 169.769 14.0237 169.607C14.2447 169.781 14.4741 170.012 14.7536 170.073C15.6551 170.769 16.4655 171.066 17.6143 170.916C17.9274 170.875 18.203 170.779 18.4792 170.625L19.0373 171.177C18.8077 172.261 17.9362 174.173 18.2901 175.178C18.4593 175.299 18.7207 175.543 18.9051 175.619C19.8868 176.023 34.6479 177.882 35.8694 177.692C36.078 177.66 36.2788 177.58 36.4602 177.473C37.0144 178.014 37.0896 178.069 37.1314 178.847C36.7007 179.52 35.92 179.75 35.1762 179.913C30.4524 180.944 25.2417 179.571 20.432 179.933C18.8341 180.053 14.8218 181.316 13.5662 180.854C13.4515 180.812 13.3437 180.769 13.2348 180.712C13.2068 180.714 13.1789 180.716 13.1509 180.717C12.4849 180.731 11.5604 179.796 11.1052 179.315C9.0526 177.147 8.44388 174.265 8.52283 171.375C8.42778 169.922 8.66414 168.402 8.80276 166.953Z"/>
	<path fill="#EFB022" transform="scale(7.2127 7.2127)" d="M14.7536 170.073C15.6551 170.769 16.4655 171.066 17.6143 170.916C17.9274 170.875 18.203 170.779 18.4792 170.625L19.0373 171.177C18.8077 172.261 17.9362 174.173 18.2901 175.178C17.8123 175.367 17.3851 175.268 16.8985 175.163C15.8615 174.94 14.6365 174.525 14.0378 173.601C13.9571 173.172 13.9527 172.679 13.9426 172.241C13.9214 171.313 14.1109 170.744 14.7536 170.073Z"/>
	<path fill="#F1DC2B" transform="scale(7.2127 7.2127)" d="M8.80276 166.953C9.22914 167.532 9.30525 167.765 10.0015 167.997C10.4485 168.814 11.6562 169.4 12.5292 169.655C13.069 169.812 13.4921 169.769 14.0237 169.607C14.2447 169.781 14.4741 170.012 14.7536 170.073C14.1109 170.744 13.9214 171.313 13.9426 172.241C13.9527 172.679 13.9571 173.172 14.0378 173.601C13.9124 173.651 13.7916 173.683 13.6587 173.704C11.6899 174.006 10.0165 172.454 8.52283 171.375C8.42778 169.922 8.66414 168.402 8.80276 166.953Z"/>
	<path fill="#F1DC2B" transform="scale(7.2127 7.2127)" d="M19.0373 171.177C20.851 172.973 31.053 173.573 33.8503 173.563C34.7405 173.56 35.6903 173.609 36.5032 173.195C36.5667 173.259 36.5525 173.249 36.613 173.298C36.635 173.316 36.6578 173.333 36.6797 173.352C36.7311 173.394 36.7781 173.438 36.8327 173.477C38.1656 174.437 56.0721 174.024 58.8944 173.827C61.1459 173.67 63.3042 173.295 65.5256 172.925C65.8686 173.026 66.365 173.067 66.5346 173.395C66.7718 173.853 66.7015 174.55 66.5361 175.022Q66.3727 175.502 66.1069 175.934Q65.8411 176.367 65.4861 176.729C65.2586 176.788 64.9978 176.887 64.7645 176.896C62.9657 178.06 55.0313 178.603 52.7476 178.115Q52.4833 178.058 52.2367 177.947C49.634 178.754 38.6805 178.503 36.4602 177.473C36.2788 177.58 36.078 177.66 35.8694 177.692C34.6479 177.882 19.8868 176.023 18.9051 175.619C18.7207 175.543 18.4593 175.299 18.2901 175.178C17.9362 174.173 18.8077 172.261 19.0373 171.177Z"/>
	<defs>
		<linearGradient id="gradient_2" gradientUnits="userSpaceOnUse" x1="80.820168" y1="132.82812" x2="62.145443" y2="133.72134">
			<stop offset="0" stop-color="#AE961F"/>
			<stop offset="1" stop-color="#C7B324"/>
		</linearGradient>
	</defs>
	<path fill="url(#gradient_2)" transform="scale(7.2127 7.2127)" d="M66.4354 100.478C68.5651 101.347 77.0203 100.365 78.9975 99.5468C79.2845 99.4282 79.5121 99.2609 79.7546 99.0721C79.837 99.008 79.9238 98.9518 80.0047 98.885L79.9915 143.482L80.0001 157.142C80.0019 159.234 80.1453 161.407 80.0208 163.486C78.575 165.472 75.3522 165.999 73.0735 166.357C70.7082 166.728 67.0504 167.405 64.733 167.026C64.0898 167.237 63.5317 166.885 62.9602 166.616L63.4654 166.571C64.2981 165.419 63.7283 153.733 63.8442 151.311C63.9258 149.606 64.2533 147.915 64.4122 146.214C64.1376 145.983 63.873 145.747 63.6141 145.499C64.2648 144.943 65.678 145.125 66.5418 145.13L66.8092 144.622C66.7751 144.463 66.7285 144.304 66.6655 144.153C66.3149 143.317 64.2872 140.796 63.3684 140.668C62.373 140.53 61.323 141.099 60.319 140.675C60.5686 140.044 62.284 140.303 63.0157 139.77C63.442 139.084 63.4333 138.833 63.4567 138.018C63.1709 138.211 62.8189 138.342 62.5047 138.486C61.7824 138.361 61.4823 138.399 60.9521 137.874C60.9068 137.078 61.6341 136.544 61.7386 135.687L61.7457 135.625C62.0435 134.321 63.5265 134.132 63.799 132.669C63.5834 132.511 63.4132 132.216 63.254 131.999C63.064 131.296 63.2734 130.764 63.4995 130.096L63.8546 128.436C63.6027 127.783 63.1428 127.713 62.5327 127.4C63.0912 127.403 63.2667 127.275 63.7426 127.011C64.1656 127.308 64.6015 127.64 65.09 127.817C65.5311 127.976 65.5967 127.983 66.0202 127.785Q66.1736 127.429 66.2867 127.059C67.134 124.225 63.7793 119.251 62.1306 117.013C61.5197 116.184 60.7223 115.519 60.24 114.6L60.2132 114.548L60.7514 114.242C62.0029 112.115 63.3628 103.867 63 101.382L62.2809 100.883C63.2318 101.261 65.3842 100.649 66.4354 100.478Z"/>
	<path fill="#EFB022" transform="scale(7.2127 7.2127)" d="M63.799 132.669C63.5834 132.511 63.4132 132.216 63.254 131.999C63.064 131.296 63.2734 130.764 63.4995 130.096C63.511 130.11 63.5223 130.123 63.5341 130.136C64.4726 131.168 66.281 130.181 66.7107 131.737C65.9192 132.466 64.7795 131.925 63.9861 132.629C65.0276 132.996 65.9601 133.139 67.0087 132.71C66.7252 133.437 66.302 134.815 65.5551 135.167C66.081 135.752 66.4663 135.972 66.4867 136.793C65.7931 137.388 63.6186 137.389 63.445 137.991L63.4567 138.018C63.1709 138.211 62.8189 138.342 62.5047 138.486C61.7824 138.361 61.4823 138.399 60.9521 137.874C60.9068 137.078 61.6341 136.544 61.7386 135.687L61.7457 135.625C62.0435 134.321 63.5265 134.132 63.799 132.669Z"/>
	<path fill="#FDFDFB" transform="scale(7.2127 7.2127)" d="M71.1252 51.6866C72.4162 51.5536 74.0597 51.5611 75.1226 52.42C75.9797 53.1125 76.36 54.1339 76.4673 55.2063C76.6385 56.9176 76.2735 58.8088 75.8548 60.4647C74.4125 61.098 72.9932 61.7483 71.458 62.1278C71.7954 63.2915 72.0199 64.3009 72.0062 65.5177L71.7707 65.5621C71.7801 66.2171 71.8322 66.3707 71.348 66.8722C70.8165 67.4227 70.0111 67.9476 69.6701 68.6379C68.2465 71.5198 67.3301 75.3761 66.2005 78.4622C65.0753 81.5364 61.5483 89.3524 61.1581 91.9008C56.4274 92.3637 51.4162 92.0595 46.6566 92.0743C42.3264 92.0877 36.062 92.6252 31.9091 91.7763C27.2835 91.5274 22.6748 90.9483 18.092 90.2937C16.7345 90.2277 15.365 90.0472 14.0109 89.9184C12.939 89.5781 11.8279 89.3664 10.7296 89.1296C10.0752 88.8685 9.40989 88.6502 8.73989 88.4331Q8.72848 87.9404 8.75128 87.4481C9.04668 81.0196 13.3513 73.8525 17.9217 69.4866C19.9473 67.5516 22.3085 65.9747 24.3531 64.0682C24.7963 63.655 25.0536 63.3494 25.0817 62.7495C24.1309 61.5702 21.4027 61.3395 19.9465 61.0478C19.8927 59.2366 19.7778 57.3275 20.0926 55.5379C20.2938 54.3945 20.7437 53.2126 21.7387 52.5333C22.9927 51.6771 24.3792 52.0012 25.7586 52.2656C29.8678 55.079 36.3755 53.5789 41.0975 54.0475C48.8862 53.9392 56.6124 54.2286 64.4089 53.9737C65.3776 53.7201 66.4677 53.7898 67.4654 53.7219C69.2098 53.6033 70.0261 52.9474 71.1252 51.6866Z"/>
	<path fill="#D6D9C6" transform="scale(7.2127 7.2127)" d="M29.1558 62.548C33.9628 62.5392 38.8878 62.4731 43.6797 62.8646L43.7086 62.9663C43.376 62.9958 42.5242 62.9743 42.292 63.1863C43.3259 63.4908 44.4398 63.2622 45.4666 63.5769C48.076 64.3769 52.0093 67.1107 54.4471 68.5C53.0434 68.4922 51.4582 68.3515 50.1032 68.7358C49.2514 68.9006 48.0804 68.7479 47.2169 68.6732C42.3409 68.2515 39.1516 66.2141 34.7758 64.3953C32.9611 63.641 31.0385 63.1066 29.1558 62.548Z"/>
	<defs>
		<linearGradient id="gradient_3" gradientUnits="userSpaceOnUse" x1="61.40033" y1="58.035576" x2="55.662209" y2="69.111168">
			<stop offset="0" stop-color="#9BAC92"/>
			<stop offset="1" stop-color="#DEE0D1"/>
		</linearGradient>
	</defs>
	<path fill="url(#gradient_3)" transform="scale(7.2127 7.2127)" d="M69.3374 62.6683C70.0026 62.6111 70.8034 62.2953 71.458 62.1278C71.7954 63.2915 72.0199 64.3009 72.0062 65.5177L71.7707 65.5621C71.1488 65.8195 70.609 66.2672 69.9909 66.4804C68.586 66.9651 63.3676 67.7707 62.7029 68.8445C59.6869 69.7303 53.3678 69.0207 50.1032 68.7358C51.4582 68.3515 53.0434 68.4922 54.4471 68.5C52.0093 67.1107 48.076 64.3769 45.4666 63.5769C44.4398 63.2622 43.3259 63.4908 42.292 63.1863C42.5242 62.9743 43.376 62.9958 43.7086 62.9663C47.8652 63.1232 52.0693 63.0163 56.2307 63.0296C60.5784 63.0435 65.0219 63.2644 69.3374 62.6683Z"/>
	<defs>
		<linearGradient id="gradient_4" gradientUnits="userSpaceOnUse" x1="65.984215" y1="57.894905" x2="44.723469" y2="59.121964">
			<stop offset="0" stop-color="#C3C9B0"/>
			<stop offset="1" stop-color="#F8F8DE"/>
		</linearGradient>
	</defs>
	<path fill="url(#gradient_4)" transform="scale(7.2127 7.2127)" d="M71.1252 51.6866C72.4162 51.5536 74.0597 51.5611 75.1226 52.42C75.9797 53.1125 76.36 54.1339 76.4673 55.2063C76.6385 56.9176 76.2735 58.8088 75.8548 60.4647C74.4125 61.098 72.9932 61.7483 71.458 62.1278C70.8034 62.2953 70.0026 62.6111 69.3374 62.6683C65.0219 63.2644 60.5784 63.0435 56.2307 63.0296C52.0693 63.0163 47.8652 63.1232 43.7086 62.9663L43.6797 62.8646C44.1608 62.8417 44.6398 62.7552 45.1158 62.6845L45.3537 62.2879C45.3441 60.1004 45.0538 56.9148 43.8338 55.0523C43.3229 54.2724 41.9514 54.2255 41.0975 54.0475C48.8862 53.9392 56.6124 54.2286 64.4089 53.9737C65.3776 53.7201 66.4677 53.7898 67.4654 53.7219C69.2098 53.6033 70.0261 52.9474 71.1252 51.6866Z"/>
	<path fill="#D6D9C6" transform="scale(7.2127 7.2127)" d="M71.1252 51.6866C72.4162 51.5536 74.0597 51.5611 75.1226 52.42C75.9797 53.1125 76.36 54.1339 76.4673 55.2063C76.6385 56.9176 76.2735 58.8088 75.8548 60.4647C74.4125 61.098 72.9932 61.7483 71.458 62.1278C70.8034 62.2953 70.0026 62.6111 69.3374 62.6683C68.3066 62.4028 67.0715 62.5116 66.0077 62.5C65.5246 59.8394 65.6195 57.0715 65.5388 54.3733C66.2098 54.3746 67.4087 54.5035 67.9812 54.1527C68.0847 54.0892 68.1842 54.0244 68.2784 53.9473C68.1801 53.9357 68.1258 53.9302 68.03 53.9648C66.9439 54.3572 65.5495 54.0753 64.4089 53.9737C65.3776 53.7201 66.4677 53.7898 67.4654 53.7219C69.2098 53.6033 70.0261 52.9474 71.1252 51.6866Z"/>
	<defs>
		<linearGradient id="gradient_5" gradientUnits="userSpaceOnUse" x1="64.499084" y1="83.163383" x2="41.962364" y2="74.888878">
			<stop offset="0" stop-color="#C4CFBC"/>
			<stop offset="1" stop-color="#FBFAEA"/>
		</linearGradient>
	</defs>
	<path fill="url(#gradient_5)" transform="scale(7.2127 7.2127)" d="M62.7029 68.8445C63.3676 67.7707 68.586 66.9651 69.9909 66.4804C70.609 66.2672 71.1488 65.8195 71.7707 65.5621C71.7801 66.2171 71.8322 66.3707 71.348 66.8722C70.8165 67.4227 70.0111 67.9476 69.6701 68.6379C68.2465 71.5198 67.3301 75.3761 66.2005 78.4622C65.0753 81.5364 61.5483 89.3524 61.1581 91.9008C56.4274 92.3637 51.4162 92.0595 46.6566 92.0743C42.3264 92.0877 36.062 92.6252 31.9091 91.7763C33.1445 91.5768 34.5364 91.7396 35.7896 91.7868C36.2934 90.3601 36.6877 88.9145 37.1588 87.4802C39.4144 80.6129 43.0294 77.3101 50.0244 75.7012C52.352 75.1658 54.9442 74.7433 57.3446 74.7482C58.8065 74.7512 61.6218 75.2171 62.894 74.5392C63.5553 74.1869 63.987 73.4165 64.1985 72.7266C64.473 71.8313 64.4254 70.6544 63.9689 69.8215C63.5915 69.1327 63.419 69.0627 62.7029 68.8445Z"/>
	<defs>
		<linearGradient id="gradient_6" gradientUnits="userSpaceOnUse" x1="75.661209" y1="36.431522" x2="23.536392" y2="25.796988">
			<stop offset="0" stop-color="#B3B798"/>
			<stop offset="1" stop-color="#FEFEFF"/>
		</linearGradient>
	</defs>
	<path fill="url(#gradient_6)" transform="scale(7.2127 7.2127)" d="M30.6185 10.8766C38.4809 11.1445 46.373 11.0172 54.2398 11.0308C58.2297 11.0377 62.3213 10.8749 66.293 11.2704C67.3876 14.2816 68.6227 17.1948 70.3045 19.9304L72.5566 20.6022C73.384 26.8743 73.455 33.3225 73.6578 39.6405C73.7529 42.6025 74.0927 45.6822 73.8909 48.6336C73.3724 49.1322 71.7022 49.0215 70.9387 49.0703C71.0573 49.9513 71.159 50.7943 71.1252 51.6866C70.0261 52.9474 69.2098 53.6033 67.4654 53.7219C66.4677 53.7898 65.3776 53.7201 64.4089 53.9737C56.6124 54.2286 48.8862 53.9392 41.0975 54.0475C36.3755 53.5789 29.8678 55.079 25.7586 52.2656C26.0415 51.4802 25.7832 50.2978 25.7088 49.468C25.0573 49.5187 24.0351 49.6452 23.4563 49.3105C23.0134 49.0544 22.8604 48.517 22.7457 48.0375C21.7935 44.0603 22.568 26.1757 24.0967 22.1029C25.5622 18.1982 28.4182 14.4006 30.6185 10.8766Z"/>
	<path fill="#D6D9C6" transform="scale(7.2127 7.2127)" d="M43.5543 20.5686C43.9099 20.7475 44.16 20.8144 44.3458 21.1891C44.9981 22.5042 44.7964 42.2547 43.9934 44.4292L43.4212 44.3748C42.793 43.4455 43.3241 22.8402 43.5543 20.5686Z"/>
	<path fill="#62BA38" transform="scale(7.2127 7.2127)" d="M25.7088 49.468C26.8406 48.9879 40.2799 49.9925 42.8109 50.0286C52.1642 50.1619 61.6292 50.0385 70.9387 49.0703C71.0573 49.9513 71.159 50.7943 71.1252 51.6866C70.0261 52.9474 69.2098 53.6033 67.4654 53.7219C66.4677 53.7898 65.3776 53.7201 64.4089 53.9737C56.6124 54.2286 48.8862 53.9392 41.0975 54.0475C36.3755 53.5789 29.8678 55.079 25.7586 52.2656C26.0415 51.4802 25.7832 50.2978 25.7088 49.468Z"/>
	<defs>
		<linearGradient id="gradient_7" gradientUnits="userSpaceOnUse" x1="16.545738" y1="133.80856" x2="65.728958" y2="132.61174">
			<stop offset="0" stop-color="#FFF301"/>
			<stop offset="1" stop-color="#E1BE12"/>
		</linearGradient>
	</defs>
	<path fill="url(#gradient_7)" transform="scale(7.2127 7.2127)" d="M8.73989 88.4331C9.40989 88.6502 10.0752 88.8685 10.7296 89.1296C11.8279 89.3664 12.939 89.5781 14.0109 89.9184C15.365 90.0472 16.7345 90.2277 18.092 90.2937C22.6748 90.9483 27.2835 91.5274 31.9091 91.7763C36.062 92.6252 42.3264 92.0877 46.6566 92.0743C51.4162 92.0595 56.4274 92.3637 61.1581 91.9008L62.0275 92.1322C62.6814 92.0925 63.3554 92.0196 64.0092 92.0528C63.9121 94.4927 63.0681 97.9223 64.3023 100.114C65.0192 100.601 65.5935 100.474 66.4354 100.478C65.3842 100.649 63.2318 101.261 62.2809 100.883L63 101.382C63.3628 103.867 62.0029 112.115 60.7514 114.242L60.2132 114.548L60.24 114.6C60.7223 115.519 61.5197 116.184 62.1306 117.013C63.7793 119.251 67.134 124.225 66.2867 127.059Q66.1736 127.429 66.0202 127.785C65.5967 127.983 65.5311 127.976 65.09 127.817C64.6015 127.64 64.1656 127.308 63.7426 127.011C63.2667 127.275 63.0912 127.403 62.5327 127.4C63.1428 127.713 63.6027 127.783 63.8546 128.436L63.4995 130.096C63.2734 130.764 63.064 131.296 63.254 131.999C63.4132 132.216 63.5834 132.511 63.799 132.669C63.5265 134.132 62.0435 134.321 61.7457 135.625L61.7386 135.687C61.6341 136.544 60.9068 137.078 60.9521 137.874C61.4823 138.399 61.7824 138.361 62.5047 138.486C62.8189 138.342 63.1709 138.211 63.4567 138.018C63.4333 138.833 63.442 139.084 63.0157 139.77C62.284 140.303 60.5686 140.044 60.319 140.675C61.323 141.099 62.373 140.53 63.3684 140.668C64.2872 140.796 66.3149 143.317 66.6655 144.153C66.7285 144.304 66.7751 144.463 66.8092 144.622L66.5418 145.13C65.678 145.125 64.2648 144.943 63.6141 145.499C63.873 145.747 64.1376 145.983 64.4122 146.214C64.2533 147.915 63.9258 149.606 63.8442 151.311C63.7283 153.733 64.2981 165.419 63.4654 166.571L62.9602 166.616C63.5317 166.885 64.0898 167.237 64.733 167.026C64.0321 168.061 63.7541 170.376 64.0002 171.597C64.0702 171.945 64.2097 172.269 64.3957 172.57C64.7969 172.787 65.0775 172.782 65.5255 172.744L65.5256 172.925C63.3042 173.295 61.1459 173.67 58.8944 173.827C56.0721 174.024 38.1656 174.437 36.8327 173.477C36.7781 173.438 36.7311 173.394 36.6797 173.352C36.6578 173.333 36.635 173.316 36.613 173.298C36.5525 173.249 36.5667 173.259 36.5032 173.195C35.6903 173.609 34.7405 173.56 33.8503 173.563C31.053 173.573 20.851 172.973 19.0373 171.177L18.4792 170.625C18.203 170.779 17.9274 170.875 17.6143 170.916C16.4655 171.066 15.6551 170.769 14.7536 170.073C14.4741 170.012 14.2447 169.781 14.0237 169.607C13.4921 169.769 13.069 169.812 12.5292 169.655C11.6562 169.4 10.4485 168.814 10.0015 167.997C9.30525 167.765 9.22914 167.532 8.80276 166.953C8.50075 161.041 8.89378 154.907 8.92374 148.971L8.90953 113.336C8.92633 105.065 9.22548 96.688 8.73989 88.4331Z"/>
	<path fill="#86890C" transform="scale(7.2127 7.2127)" d="M54.9886 132.278L55.042 132.263C56.2927 131.907 58.3379 130.01 59.4887 130.201C59.7959 130.652 59.7938 130.796 59.6844 131.337C59.4417 132.536 58.3984 133.574 57.4102 134.21C57.0657 134.432 56.7444 134.506 56.3292 134.41C56.2041 134.38 56.0806 134.341 55.959 134.3C55.6557 134.285 55.3406 134.058 55.0802 133.908C54.7977 133.22 54.8581 132.998 54.9886 132.278Z"/>
	<path fill="#FC6528" transform="scale(7.2127 7.2127)" d="M37.279 152.917L37.6751 152.435C39.7446 151.841 42.7935 152.688 44.9991 152.66C47.8962 152.622 57.979 151.065 60.0805 152.221C59.5153 153.021 59.125 153.1 58.1685 153.266C54.6908 153.872 40.6138 155.011 37.6952 153.509L37.279 152.917Z"/>
	<path fill="#F1DC2B" transform="scale(7.2127 7.2127)" d="M29.679 143.718C31.723 144.801 34.3164 143.171 35.9681 144.125C37.0693 144.761 36.0984 147.38 36.4042 148.515C36.4541 148.7 36.0998 149.326 36.0062 149.534C36.0135 149.913 36.0629 150.424 35.9201 150.777C35.7214 151.268 35.5126 151.296 35.052 151.494C34.3509 151.35 33.8783 151 33.3737 150.504C31.7717 148.93 29.7004 146.034 29.679 143.718Z"/>
	<path fill="#EFB022" transform="scale(7.2127 7.2127)" d="M37.279 152.917L36.8289 152.514C37.064 151.667 36.8323 150.838 36.6608 150.001C36.755 149.934 36.8583 149.869 36.9696 149.835C37.3922 149.704 62.4421 149.906 63.095 150.28C63.0826 150.401 63.048 150.491 62.9737 150.589C62.4563 151.267 60.9178 152.118 60.0805 152.221C57.979 151.065 47.8962 152.622 44.9991 152.66C42.7935 152.688 39.7446 151.841 37.6751 152.435L37.279 152.917Z"/>
	<path fill="#F1DC2B" transform="scale(7.2127 7.2127)" d="M35.9788 141.7L35.3055 141.834C34.9786 141.63 34.6262 141.452 34.2575 141.339C32.9834 140.947 30.8107 140.309 29.6104 140.958C29.1517 139.007 29.308 133.631 29.8573 131.686C30.2953 131.384 30.7075 131.543 31.2221 131.6C32.3439 131.724 33.7031 132.095 34.8137 131.984C35.4775 131.917 36.0567 131.631 36.7412 131.581L37.1284 131.934C37.5019 133.426 36.7951 135.36 36.7527 136.913C36.7419 137.307 36.8314 137.327 37.0965 137.606L37.7547 137.55C37.1532 138.799 36.1823 140.338 35.9788 141.7Z"/>
	<path fill="#FA4B49" transform="scale(7.2127 7.2127)" d="M36.7495 113.204C37.1181 115.549 36.8936 118.152 36.7905 120.519C37.5833 120.99 38.3571 121.155 39.2657 120.924C39.5236 120.858 39.7802 120.78 40.009 120.641C40.0155 121.825 40.3095 124.161 39.7621 125.167L40.1544 126.007C40.4551 126.011 40.6974 126.016 40.9784 125.893L41.0258 127.382C40.8642 127.544 40.6795 127.689 40.4651 127.775C40.0039 127.96 32.4136 127.995 31.4997 127.919C30.9185 127.87 30.3735 127.707 29.8383 127.481C30.219 120.024 31.4576 118.202 36.7495 113.204Z"/>
	<path fill="#EFB022" transform="scale(7.2127 7.2127)" d="M36.7905 120.519C37.5833 120.99 38.3571 121.155 39.2657 120.924C39.5236 120.858 39.7802 120.78 40.009 120.641C40.0155 121.825 40.3095 124.161 39.7621 125.167C39.7131 125.221 39.6646 125.275 39.6124 125.325C39.0236 125.893 36.0281 125.862 35.115 125.855C34.2168 125.848 33.8446 125.583 33.2497 124.981C32.7109 123.714 32.9484 121.864 32.968 120.492C33.2234 120.657 33.492 120.805 33.7856 120.89C34.8329 121.195 35.8492 121.043 36.7905 120.519Z"/>
	<path fill="#9FD75E" transform="scale(7.2127 7.2127)" d="M18.262 165.42C21.4997 165.996 34.2518 168.061 36.7843 166.75C36.7505 168.045 37.1274 172.214 36.5032 173.195C35.6903 173.609 34.7405 173.56 33.8503 173.563C31.053 173.573 20.851 172.973 19.0373 171.177L18.4792 170.625C18.4905 170.617 18.5028 170.61 18.5131 170.601C19.3881 169.828 18.2723 166.612 18.262 165.42Z"/>
	<path fill="#62BA38" transform="scale(7.2127 7.2127)" d="M62.9602 166.616C63.5317 166.885 64.0898 167.237 64.733 167.026C64.0321 168.061 63.7541 170.376 64.0002 171.597C64.0702 171.945 64.2097 172.269 64.3957 172.57C64.7969 172.787 65.0775 172.782 65.5255 172.744L65.5256 172.925C63.3042 173.295 61.1459 173.67 58.8944 173.827C56.0721 174.024 38.1656 174.437 36.8327 173.477C36.7781 173.438 36.7311 173.394 36.6797 173.352C36.6578 173.333 36.635 173.316 36.613 173.298C36.5525 173.249 36.5667 173.259 36.5032 173.195C37.1274 172.214 36.7505 168.045 36.7843 166.75C37.0661 166.932 37.4096 167.134 37.7466 167.176C40.7698 167.551 59.2413 167.796 61.7597 167.254C62.2032 167.158 62.6492 166.953 62.9602 166.616Z"/>
	<defs>
		<linearGradient id="gradient_8" gradientUnits="userSpaceOnUse" x1="43.372807" y1="132.12654" x2="47.7841" y2="143.58313">
			<stop offset="0" stop-color="#EC7A1A"/>
			<stop offset="1" stop-color="#FC6D2E"/>
		</linearGradient>
	</defs>
	<path fill="url(#gradient_8)" transform="scale(7.2127 7.2127)" d="M37.7547 137.55C38.3945 137.349 42.1098 132.72 43.56 131.809C45.891 130.345 48.5644 130.536 51.0161 129.627C51.4555 130.38 52.4207 131.134 53.1325 131.629C53.6826 132.012 54.292 132.404 54.9886 132.278C54.8581 132.998 54.7977 133.22 55.0802 133.908C55.3406 134.058 55.6557 134.285 55.959 134.3C55.9132 137.015 55.4713 139.197 53.45 141.152C51.0212 143.502 47.281 144.859 43.9225 144.798C41.672 144.758 38.0564 144.243 36.4326 142.513C36.2117 142.278 36.0762 142.007 35.9788 141.7C36.1823 140.338 37.1532 138.799 37.7547 137.55Z"/>
	<path fill="#EFB022" transform="scale(7.2127 7.2127)" d="M49.8121 131.274C51.345 131.627 52.8083 133.201 54.1356 133.296C53.5929 134.51 53.0088 135.244 51.8954 135.964C50.0672 137.146 45.0992 139.522 42.8875 139.049C42.3102 139.613 41.2458 139.843 40.4543 139.909C39.9431 139.952 39.8054 139.964 39.4136 139.632C39.3798 139.203 39.4321 138.82 39.5624 138.411C40.7691 134.617 46.6048 132.908 49.8121 131.274Z"/>
	<path fill="#E41C1B" transform="scale(7.2127 7.2127)" d="M36.7495 113.204L36.8106 113.196C40.6513 112.651 43.9987 110.405 48.0243 110.249C53.931 110.021 58.9917 114.512 60.2132 114.548L60.24 114.6C60.7223 115.519 61.5197 116.184 62.1306 117.013C63.7793 119.251 67.134 124.225 66.2867 127.059Q66.1736 127.429 66.0202 127.785C65.5967 127.983 65.5311 127.976 65.09 127.817C64.6015 127.64 64.1656 127.308 63.7426 127.011C63.2667 127.275 63.0912 127.403 62.5327 127.4C62.2863 127.638 62.0233 127.779 61.6918 127.859C59.3739 128.418 56.8121 127.929 54.4507 127.925C51.7934 127.92 43.046 128.61 41.0258 127.382L40.9784 125.893C40.6974 126.016 40.4551 126.011 40.1544 126.007L39.7621 125.167C40.3095 124.161 40.0155 121.825 40.009 120.641C39.7802 120.78 39.5236 120.858 39.2657 120.924C38.3571 121.155 37.5833 120.99 36.7905 120.519C36.8936 118.152 37.1181 115.549 36.7495 113.204Z"/>
	<defs>
		<linearGradient id="gradient_9" gradientUnits="userSpaceOnUse" x1="61.489609" y1="121.47762" x2="41.75486" y2="127.13849">
			<stop offset="0" stop-color="#005E31"/>
			<stop offset="1" stop-color="#037837"/>
		</linearGradient>
	</defs>
	<path fill="url(#gradient_9)" transform="scale(7.2127 7.2127)" d="M40.9784 125.893C40.9898 125.884 41.0013 125.875 41.0126 125.866C41.8847 125.152 42.428 123.52 43.0353 122.543C45.0728 119.263 49.9971 118.173 53.634 118.494C56.6121 118.757 59.7218 120.096 61.6578 122.43C62.5176 123.466 63.7281 125.664 63.7426 127.011C63.2667 127.275 63.0912 127.403 62.5327 127.4C62.2863 127.638 62.0233 127.779 61.6918 127.859C59.3739 128.418 56.8121 127.929 54.4507 127.925C51.7934 127.92 43.046 128.61 41.0258 127.382L40.9784 125.893Z"/>
	<path fill="#62BA38" transform="scale(7.2127 7.2127)" d="M18.092 90.2937C22.6748 90.9483 27.2835 91.5274 31.9091 91.7763C36.062 92.6252 42.3264 92.0877 46.6566 92.0743C51.4162 92.0595 56.4274 92.3637 61.1581 91.9008L62.0275 92.1322C62.6814 92.0925 63.3554 92.0196 64.0092 92.0528C63.9121 94.4927 63.0681 97.9223 64.3023 100.114C65.0192 100.601 65.5935 100.474 66.4354 100.478C65.3842 100.649 63.2318 101.261 62.2809 100.883C61.9702 101.032 61.6778 101.102 61.3378 101.142C58.4675 101.476 39.1976 102.42 37.1483 101.354C36.9363 101.244 36.6981 100.998 36.5056 100.845C36.2202 101.025 35.9326 101.139 35.6002 101.199C33.4822 101.582 19.1415 99.982 17.457 98.816C17.7692 95.9718 17.9836 93.153 18.092 90.2937Z"/>
	<path fill="#9FD75E" transform="scale(7.2127 7.2127)" d="M18.092 90.2937C22.6748 90.9483 27.2835 91.5274 31.9091 91.7763C36.062 92.6252 42.3264 92.0877 46.6566 92.0743C51.4162 92.0595 56.4274 92.3637 61.1581 91.9008L62.0275 92.1322C58.8858 92.4456 55.6116 92.2976 52.4525 92.3002L36.4045 92.3015C36.2583 94.8598 35.8118 98.3841 36.5056 100.845C36.2202 101.025 35.9326 101.139 35.6002 101.199C33.4822 101.582 19.1415 99.982 17.457 98.816C17.7692 95.9718 17.9836 93.153 18.092 90.2937Z"/>
	<path fill="#9FD75E" transform="scale(7.2127 7.2127)" d="M8.73989 88.4331C9.40989 88.6502 10.0752 88.8685 10.7296 89.1296C11.8279 89.3664 12.939 89.5781 14.0109 89.9184C15.365 90.0472 16.7345 90.2277 18.092 90.2937C17.9836 93.153 17.7692 95.9718 17.457 98.816C16.0313 102.787 16.712 135.182 16.714 142.073C16.7159 148.493 16.3738 155.127 16.7531 161.52C16.8085 162.454 16.9618 163.476 17.3728 164.321C17.5982 164.785 17.8079 165.174 18.262 165.42C18.2723 166.612 19.3881 169.828 18.5131 170.601C18.5028 170.61 18.4905 170.617 18.4792 170.625C18.203 170.779 17.9274 170.875 17.6143 170.916C16.4655 171.066 15.6551 170.769 14.7536 170.073C14.4741 170.012 14.2447 169.781 14.0237 169.607C13.4921 169.769 13.069 169.812 12.5292 169.655C11.6562 169.4 10.4485 168.814 10.0015 167.997C9.30525 167.765 9.22914 167.532 8.80276 166.953C8.50075 161.041 8.89378 154.907 8.92374 148.971L8.90953 113.336C8.92633 105.065 9.22548 96.688 8.73989 88.4331Z"/>
	<path fill="#62BA38" transform="scale(7.2127 7.2127)" d="M8.73989 88.4331C9.40989 88.6502 10.0752 88.8685 10.7296 89.1296C10.5904 97.3767 11.0597 166.92 10.4062 167.902L10.0015 167.997C9.30525 167.765 9.22914 167.532 8.80276 166.953C8.50075 161.041 8.89378 154.907 8.92374 148.971L8.90953 113.336C8.92633 105.065 9.22548 96.688 8.73989 88.4331Z"/>
	<path fill="#62BA38" transform="scale(7.2127 7.2127)" d="M14.0109 89.9184C15.365 90.0472 16.7345 90.2277 18.092 90.2937C17.9836 93.153 17.7692 95.9718 17.457 98.816C16.0313 102.787 16.712 135.182 16.714 142.073C16.7159 148.493 16.3738 155.127 16.7531 161.52C16.8085 162.454 16.9618 163.476 17.3728 164.321C17.5982 164.785 17.8079 165.174 18.262 165.42C18.2723 166.612 19.3881 169.828 18.5131 170.601C18.5028 170.61 18.4905 170.617 18.4792 170.625C18.203 170.779 17.9274 170.875 17.6143 170.916C16.4655 171.066 15.6551 170.769 14.7536 170.073C14.4741 170.012 14.2447 169.781 14.0237 169.607C14.0085 156.484 14.3798 143.305 13.9702 130.19C14.3247 127.201 14.0029 123.801 14.0023 120.752C14.001 114.619 14.1308 108.464 13.971 102.333C14.5136 99.6432 14.0381 92.9752 14.0109 89.9184Z"/>
</svg>
