<?xml version="1.0" encoding="utf-8" ?>
<svg xmlns="http://www.w3.org/2000/svg" xmlns:xlink="http://www.w3.org/1999/xlink" width="1801" height="1404">
	<path fill="#D80077" transform="scale(7.09259 7.09259)" d="M138.667 13.8615C141.784 13.459 148.367 14.1391 151.728 14.452C166.172 15.7966 182.13 20.2268 194.767 27.4441C199.423 30.103 203.558 34.0632 208.607 35.9459C212.156 37.2693 223.196 37.5028 224.957 39.6277C225.082 40.1052 225.023 40.5006 224.888 40.9678C223.393 46.1569 208.865 51.3762 203.991 54.1969C202.162 55.2556 200.925 57.1069 199.048 58.1215C202.305 59.1046 205.456 60.5039 208.81 61.1677C212.943 61.9854 218.13 61.4322 221.965 63.1483C222.647 63.4536 223.374 63.9264 223.62 64.6732C223.801 65.2221 223.669 65.7965 223.421 66.3004C220.499 72.2274 212.933 73.3101 207.764 76.3799C204.946 78.0536 202.516 80.7561 199.391 81.7724C205.573 84.0772 211.064 88.7897 217.423 90.557C221.422 91.6683 225.861 90.5771 229.871 91.6C230.854 91.851 232.056 92.2557 232.588 93.1872C232.821 93.5971 232.862 94.1395 232.722 94.5943C231.283 99.2554 220.366 102.991 216.422 105.684C212.888 108.098 209.592 111.706 205.788 113.575C208.886 114.61 212.216 115.664 215.141 117.118C218.741 118.906 221.847 121.225 225.765 122.357C229.39 123.405 236.167 122.206 238.573 123.441C239.257 123.793 239.892 124.489 240.114 125.233C240.354 126.042 240.081 126.889 239.676 127.594C237.211 131.892 227.441 137.321 222.592 138.609C226.547 139.343 238.101 140.876 240.91 142.458C241.677 142.889 241.887 143.282 242.105 144.092C241.963 144.949 241.638 145.509 241.052 146.149C237.379 150.163 231.138 152.03 226.38 154.541C223.005 156.322 220.5 159.409 217.07 161.087C202.61 168.165 176.807 171.474 160.624 172.119C157.485 172.23 154.293 172.323 151.166 171.995C154.052 174.571 156.065 178.529 157.061 182.214C156.266 182.887 155.048 184.09 154.013 184.259C150.322 184.858 146.502 184.348 142.796 184.07C136.917 183.629 130.957 182.98 125.06 182.968C112.628 182.943 100.16 184.387 87.7171 184.139C81.2364 184.009 74.6048 183.976 68.1472 183.484C60.6073 182.91 53.2535 181.89 45.6586 181.856C37.3176 181.819 28.9869 183.151 20.6818 182.96C18.7591 182.916 13.6133 182.66 12.267 181.151C11.9928 180.844 11.9399 180.202 11.9864 179.808C12.4493 175.878 20.9203 165.952 24.1515 163.336C23.6592 159.498 23.1238 155.543 23.2128 151.667C23.4234 142.484 26.8128 131.001 29.712 122.212C31.6924 116.208 33.802 110.342 34.6095 104.034C34.8935 101.816 35.0783 99.5774 34.9702 97.3405C34.6833 91.4001 32.3774 75.406 30.233 70.1647C28.9731 67.0852 26.6097 64.5703 24.8232 61.7905C24.0794 60.6332 23.6508 59.4184 22.7948 58.3128C26.6088 57.2522 30.5991 56.6834 34.2936 55.2285C37.5712 53.9377 40.7001 52.1 43.8859 50.586C47.8385 48.7076 52.1352 47.2515 56.3606 46.1237C61.9206 44.6397 67.7082 43.8947 73.4408 43.4866C76.8188 43.2462 80.1657 43.2075 83.5277 42.7148C81.2116 41.5497 79.0606 40.2172 77.0543 38.5688C74.788 36.7068 70.8579 32.7218 70.6294 29.6475C70.583 29.0237 70.7162 28.3516 71.1549 27.8853C72.3514 26.6136 82.1928 28.7872 85.7487 27.9381C91.7255 26.5109 97.179 23.0967 102.821 20.7169C114.382 15.8397 126.283 14.5837 138.667 13.8615Z"/>
	<path fill="#DED3D5" transform="scale(7.09259 7.09259)" d="M134.037 58.2557L134.705 58.4C134.847 58.6667 134.983 58.7765 134.889 59.0797C134.549 60.1747 133.249 61.3659 132.311 61.9794C131.73 61.2315 131.56 61.0893 130.691 60.7145C131.243 60.1422 131.964 59.968 132.643 59.6051C133.34 59.2329 133.794 59.0257 134.037 58.2557Z"/>
	<path fill="white" transform="scale(7.09259 7.09259)" d="M127.775 57.3815C129.752 58.0003 131.962 58.3743 134.037 58.2557C133.794 59.0257 133.34 59.2329 132.643 59.6051C131.964 59.968 131.243 60.1422 130.691 60.7145C129.668 59.8302 128.01 59.2195 127.501 57.8898L127.775 57.3815Z"/>
	<path fill="white" transform="scale(7.09259 7.09259)" d="M27.5065 59.3914C28.5348 60.5907 31.5847 60.9811 33.1301 61.2774C32.5055 62.1292 31.895 63.0623 31.1447 63.8074C30.7321 64.2172 30.6885 64.2419 30.1117 64.2381C28.5108 63.3402 26.6085 61.5046 26.0341 59.7242L26.2448 59.4622L27.5065 59.3914Z"/>
	<path fill="#E8154C" transform="scale(7.09259 7.09259)" d="M143.306 167.931Q147.55 171.8 151.097 176.317C152.127 177.626 152.981 179.058 154.053 180.331C148.51 179.343 143.007 177.97 139.039 173.731C140.381 171.737 142.009 169.96 143.306 167.931Z"/>
	<path fill="#D22750" transform="scale(7.09259 7.09259)" d="M159.843 122.556Q160.007 122.469 160.177 122.393C164.106 120.593 171.194 120.437 175.79 119.482C182.216 118.147 188.664 116.249 194.892 114.183C198.195 113.087 201.542 111.475 204.478 109.601C206.888 108.062 209.45 105.586 212.205 104.778C212.147 105.562 211.288 106.206 210.727 106.691C200.101 115.884 186.504 119.651 172.865 121.753C169.246 122.31 165.126 123.061 161.46 122.774Q160.645 122.71 159.843 122.556Z"/>
	<path fill="#D22750" transform="scale(7.09259 7.09259)" d="M139.039 173.731C143.007 177.97 148.51 179.343 154.053 180.331C153.946 180.642 153.816 180.964 153.567 181.191C152.753 181.935 150.65 181.917 149.581 181.94C146.521 182.008 143.403 181.627 140.347 181.432Q132.47 180.952 124.585 180.641C129.854 178.954 134.53 176.974 139.039 173.731Z"/>
	<path fill="#D22750" transform="scale(7.09259 7.09259)" d="M141.627 135.18C143.017 134.962 143.845 135.816 145.107 135.778L145.573 136.091C146.069 138.815 150.393 147.489 152.606 149.059C152.902 149.269 153.257 149.436 153.602 149.547C155.078 151.868 157.073 152.904 158.833 154.851C155.922 155.916 148.481 154.922 145.502 153.793C144.45 147.475 143.221 141.385 141.627 135.18Z"/>
	<path fill="#D22750" transform="scale(7.09259 7.09259)" d="M14.9897 178.464C15.4754 177.452 16.0172 176.444 16.6714 175.531C18.2251 173.362 22.7978 167.381 25.3763 166.957C27.9546 168.333 29.5429 171.252 31.9248 172.997C33.7942 174.365 37.6314 175.656 38.9236 177.073C38.8867 177.271 38.9022 177.521 38.7286 177.634C35.4023 179.804 20.1169 180.615 16.219 179.647C15.7229 179.523 15.4122 179.324 15.0839 178.932L14.9897 178.464Z"/>
	<path fill="#E8154C" transform="scale(7.09259 7.09259)" d="M14.9897 178.464C15.4754 177.452 16.0172 176.444 16.6714 175.531C18.2251 173.362 22.7978 167.381 25.3763 166.957C26.1802 169.837 28.8158 171.859 30.3137 174.41C25.2543 176.906 20.4563 177.561 14.9897 178.464Z"/>
	<path fill="#D22750" transform="scale(7.09259 7.09259)" d="M132.15 67.7448C135.179 68.7437 138.388 68.971 141.548 69.2318C142.545 69.314 143.792 69.2277 144.736 69.4988C145.098 69.6027 145.388 69.8034 145.664 70.052C144.885 70.6615 143.918 71.2716 143.404 72.1293C141.696 73.7004 139.064 74.8595 137.109 76.1987C136.861 77.8094 136.629 79.2541 137.054 80.8622C137.188 84.2294 140.828 86.0332 141.957 89.0047C140.526 89.1476 139.2 89.147 137.776 88.9396C135.666 88.6323 130.826 87.9985 129.485 86.2054C128.702 83.3994 131.532 71.0984 132.15 67.7448Z"/>
	<path fill="#D22750" transform="scale(7.09259 7.09259)" d="M135.02 100.182C137.013 100.369 139.093 100.813 141.031 101.316C141.071 102.095 141.298 103.687 140.784 104.317C140.764 104.341 140.739 104.359 140.716 104.38C140.231 105.049 139.982 105.585 139.1 105.728C137.969 105.912 136.841 105.891 135.712 106.141C137.874 109.27 139.462 113.365 142.126 116.062C143.254 118.345 144.83 120.934 147.363 121.788C150.064 122.698 153.245 122.198 156.076 122.805C150.512 124.881 143.23 123.164 137.334 122.996C134.831 116.021 131.62 109.401 129.314 102.321C130.359 102.404 133.894 102.878 134.657 103.501L135.02 100.182Z"/>
	<path fill="#FF005D" transform="scale(7.09259 7.09259)" d="M135.02 100.182C137.013 100.369 139.093 100.813 141.031 101.316C141.071 102.095 141.298 103.687 140.784 104.317C140.764 104.341 140.739 104.359 140.716 104.38C138.899 104.008 136.229 104.547 134.657 103.501L135.02 100.182Z"/>
	<path fill="#C2BEBD" transform="scale(7.09259 7.09259)" d="M159.639 158.064C172.051 157.567 184.543 156.409 196.427 152.556C202.015 150.744 207.202 148.543 212.391 145.798C214.717 144.568 216.932 143.004 219.328 141.934C220.287 141.506 221.515 141.009 222.574 141.15C223.287 141.246 224.504 141.36 224.959 141.962C224.887 142.797 224.744 142.866 224.104 143.402C221.386 145.678 217.559 146.937 214.318 148.333C202.432 153.454 190.773 157.563 177.884 159.391C174.913 159.812 171.957 160.268 168.95 160.288C166.286 159.933 163.63 159.573 160.95 159.365C160.223 158.957 160.073 158.772 159.639 158.064Z"/>
	<path fill="#C2BEBD" transform="scale(7.09259 7.09259)" d="M145.664 70.052C149.721 68.7803 154.975 69.2143 159.219 68.9185Q166.435 68.3837 173.562 67.1393C177.94 66.3845 182.227 65.6265 186.398 64.039C189.262 62.9489 192.128 60.9602 195.135 60.4452C196.993 60.127 198.916 60.4491 200.465 61.5568C199.857 62.8734 198.202 63.4243 196.905 63.903C192.869 65.3924 188.705 67.0514 184.551 68.1527C173.602 71.0548 162.098 72.3498 150.78 72.4485C148.392 72.4694 145.746 72.5902 143.404 72.1293C143.918 71.2716 144.885 70.6615 145.664 70.052Z"/>
	<path fill="white" transform="scale(7.09259 7.09259)" d="M44.7214 53.1111C67.8427 43.63 93.0497 42.2635 116.539 51.3394C116.129 51.7368 115.797 51.7938 115.255 51.839C112.913 52.0339 110.236 51.0028 107.915 50.5832C106.038 50.2438 95.9142 48.8513 95.0589 49.3754C83.3999 48.3387 70.609 48.1078 59.0752 50.4092C56.1002 51.0028 53.1042 51.8442 50.1905 52.683C48.571 53.1493 46.8487 53.8232 45.178 54.0352C45.0186 53.7346 44.8364 53.4312 44.7214 53.1111Z"/>
	<path fill="#D22750" transform="scale(7.09259 7.09259)" d="M145.085 157.109C149.902 158.006 154.761 158.036 159.639 158.064C160.073 158.772 160.223 158.957 160.95 159.365C160.634 159.46 160.314 159.468 160.138 159.767C159.673 160.555 159.998 162.151 160.09 163.051C162.014 165.209 163.777 166.563 166.518 167.553C167.412 167.876 168.398 168.117 169.194 168.647C164.319 170.646 157.638 170.865 152.44 170.244C148.689 169.795 146.934 167.559 144.747 164.776C144.738 162.237 144.972 159.648 145.085 157.109Z"/>
	<path fill="white" transform="scale(7.09259 7.09259)" d="M99.6767 25.1054C122.241 13.8789 153.409 14.5475 176.889 22.406C181.47 23.939 186.68 25.7241 190.728 28.4059C189.594 28.9514 187.366 27.8893 186.135 27.5015C174.163 23.7328 166.417 22.2842 153.925 20.8865C147.741 19.2832 128.941 19.5439 122.702 21.1698C117.75 21.6145 112.782 22.5461 107.938 23.6496C106.51 23.975 100.779 25.7871 99.7956 25.5409L99.6767 25.1054Z"/>
	<path fill="#C2BEBD" transform="scale(7.09259 7.09259)" d="M129.011 91.6301C145.475 94.8833 165.056 91.8076 181.25 87.9734C184.871 87.1162 192.578 84.4214 195.789 84.2536C197.258 84.1768 198.575 84.7169 199.653 85.6977C195.335 87.4053 190.893 88.4433 186.397 89.5661C176.593 92.0149 166.83 94.0095 156.773 95.1517C151.865 95.7091 146.892 95.7698 142.001 96.4514C141.914 97.8801 141.625 99.4235 141.998 100.815C142.359 101.053 142.659 101.145 143.082 101.228L141.031 101.316C139.093 100.813 137.013 100.369 135.02 100.182L134.657 103.501C133.894 102.878 130.359 102.404 129.314 102.321C129.116 101.296 129.053 100.323 129.024 99.2822C128.945 96.7376 129.005 94.1765 129.011 91.6301Z"/>
	<path fill="#E8154C" transform="scale(7.09259 7.09259)" d="M129.024 99.2822C130.62 99.9729 133.036 100.004 134.785 99.9971L135.02 100.182L134.657 103.501C133.894 102.878 130.359 102.404 129.314 102.321C129.116 101.296 129.053 100.323 129.024 99.2822Z"/>
	<path fill="#DED3D5" transform="scale(7.09259 7.09259)" d="M134.739 97.07Q138.372 96.7869 142.001 96.4514C141.914 97.8801 141.625 99.4235 141.998 100.815C142.359 101.053 142.659 101.145 143.082 101.228L141.031 101.316C139.093 100.813 137.013 100.369 135.02 100.182L134.785 99.9971L134.739 97.07Z"/>
	<path fill="#C2BEBD" transform="scale(7.09259 7.09259)" d="M202.38 115.877C204.214 116.195 207.766 116.426 208.977 118.033C208.557 118.932 207.403 119.095 206.484 119.43C196.164 123.19 185.338 125.411 174.552 127.356C168.622 128.426 154.701 130.156 149.726 132.568C148.362 133.064 145.568 132.426 144.096 132.256C144.631 133.436 144.993 134.471 145.107 135.778C143.845 135.816 143.017 134.962 141.627 135.18L140.338 132.338C139.603 130.212 138.905 128.062 138.033 125.987C143.831 126.066 149.599 126.351 155.403 126.207C167.729 125.899 180.644 123.973 192.342 120.083C195.601 118.999 199.514 117.766 202.38 115.877Z"/>
	<path fill="#E8154C" transform="scale(7.09259 7.09259)" d="M140.338 132.338Q142.216 132.269 144.096 132.256C144.631 133.436 144.993 134.471 145.107 135.778C143.845 135.816 143.017 134.962 141.627 135.18L140.338 132.338Z"/>
	<path fill="#C2BEBD" transform="scale(7.09259 7.09259)" d="M127.52 57.2024L127.775 57.3815L127.501 57.8898C128.01 59.2195 129.668 59.8302 130.691 60.7145C131.56 61.0893 131.73 61.2315 132.311 61.9794C131.696 62.3539 131.309 62.7624 130.556 62.5992C129.574 62.3862 128.488 61.0357 127.626 60.4649C129.966 68.704 127.709 75.8343 126.474 83.9545C125.728 88.8609 125.383 94.1506 125.857 99.0994C126.565 106.494 130.012 112.772 132.673 119.566C134.686 124.703 136.457 129.981 138.171 135.226C139.804 140.139 141.406 145.025 141.832 150.218C143.339 154.897 142.567 162.766 140.355 167.114C137.946 171.849 133.444 174.129 128.585 175.692C125.72 176.613 122.745 177.299 119.822 178.016C119.89 177.483 120.101 177.413 120.54 177.264C125.973 175.434 131.447 173.307 135.534 169.118C140.325 164.207 140.627 158.055 140.53 151.565C140.022 149.873 140.126 147.701 139.823 145.916C139.225 142.39 138.191 138.965 137.072 135.575C134.738 129.643 131.524 120.585 127.97 115.519C127.412 114.153 127.073 112.823 126.109 111.667C125.583 107.755 123.58 104.067 123.132 99.7084C122.057 89.2555 124.496 79.1619 125.591 68.8679C125.92 65.777 125.611 62.185 126.312 59.2C126.49 58.4403 127.038 57.7969 127.52 57.2024Z"/>
	<path fill="#E8154C" transform="scale(7.09259 7.09259)" d="M142.126 116.062C158.723 116.124 173.693 115.582 189.359 109.438C196.196 106.757 202.749 103.231 209.706 100.831C212.759 99.7778 215.87 99.4078 219 98.6968C221.271 98.1808 223.457 97.3979 225.691 96.7482C225.588 97.5124 225.422 97.8023 224.786 98.2693C223.235 99.408 214.113 104.301 212.205 104.778C209.45 105.586 206.888 108.062 204.478 109.601C201.542 111.475 198.195 113.087 194.892 114.183C188.664 116.249 182.216 118.147 175.79 119.482C171.194 120.437 164.106 120.593 160.177 122.393Q160.007 122.469 159.843 122.556C158.591 122.644 157.33 122.766 156.076 122.805C153.245 122.198 150.064 122.698 147.363 121.788C144.83 120.934 143.254 118.345 142.126 116.062Z"/>
	<path fill="#E8154C" transform="scale(7.09259 7.09259)" d="M153.602 149.547C155.974 148.754 161.71 148.724 164.515 148.474C170.183 147.968 175.861 147.388 181.452 146.303Q185.511 145.521 189.442 144.241Q193.373 142.962 197.115 141.205C199.636 140.04 202.071 138.679 204.616 137.566C208.776 135.746 213.166 134.318 217.468 132.871C218.699 132.457 219.931 132.009 221.201 131.732C224.266 131.065 230.722 130.649 233.149 128.983C232.92 130.306 232.436 130.82 231.345 131.583C228.726 133.415 225.563 134.389 222.825 136.064C219.156 138.308 215.795 141.103 212.037 143.18C201.059 149.248 185.961 152.905 173.582 154.351C170.094 154.759 166.647 154.722 163.141 154.76C161.753 154.775 160.201 154.653 158.833 154.851C157.073 152.904 155.078 151.868 153.602 149.547Z"/>
	<path fill="white" transform="scale(7.09259 7.09259)" d="M199.653 85.6977C202.632 86.1475 207.762 87.8131 209.691 90.2912L209.755 90.8298C196.939 97.7615 182.951 100.085 168.594 101.335C162.175 101.894 155.706 102.301 149.261 101.924C147.188 101.803 145.143 101.46 143.082 101.228C142.659 101.145 142.359 101.053 141.998 100.815C141.625 99.4235 141.914 97.8801 142.001 96.4514C146.892 95.7698 151.865 95.7091 156.773 95.1517C166.83 94.0095 176.593 92.0149 186.397 89.5661C190.893 88.4433 195.335 87.4053 199.653 85.6977Z"/>
	<path fill="#E8154C" transform="scale(7.09259 7.09259)" d="M137.054 80.8622C145.939 83.6443 170.398 80.3693 179.312 77.8877C186.807 75.8012 194.022 72.6906 201.53 70.6469C206.727 69.232 212.187 68.9074 217.43 67.4846C217.429 68.0181 217.494 68.2477 217.093 68.6662C214.958 70.8932 209.306 72.5489 206.432 74.0096C202.467 76.0252 199.089 79.1395 195.027 80.9634C184.053 85.8903 159.359 89.5148 147.172 89.4961C145.472 89.4935 143.62 89.3951 141.957 89.0047C140.828 86.0332 137.188 84.2294 137.054 80.8622Z"/>
	<path fill="#D22750" transform="scale(7.09259 7.09259)" d="M138.69 57.8097C138.711 57.817 138.731 57.8254 138.752 57.8317C148.612 60.8177 170.312 58.0619 180.145 54.9829C183.301 53.9949 186.367 52.5981 189.447 51.3943C192.842 50.0674 196.376 48.9011 199.874 47.8818C205.693 46.1865 212.235 45.9787 217.694 43.2637C217.774 43.7548 217.89 43.9969 217.565 44.434C216.196 46.2767 210.179 47.6036 207.934 48.7425C203.74 50.8699 200.191 53.85 196.237 56.3357C187.802 61.6374 177.814 63.8109 168.058 64.9931C157.164 66.3132 148.343 67.1458 137.364 65.812C136.319 65.685 134.065 65.6472 133.225 65.0139C133.674 64.1637 134.895 63.6436 135.635 63.0371C137.129 61.8114 138.096 59.5937 138.69 57.8097Z"/>
	<path fill="#F76289" transform="scale(7.09259 7.09259)" d="M200.465 61.5568C203.685 61.6977 207.565 63.464 210.858 64.0637C213.744 64.5892 217.912 64.3434 220.498 65.1832C219.809 66.2816 218.594 66.9772 217.43 67.4846C212.187 68.9074 206.727 69.232 201.53 70.6469C194.022 72.6906 186.807 75.8012 179.312 77.8877C170.398 80.3693 145.939 83.6443 137.054 80.8622C136.629 79.2541 136.861 77.8094 137.109 76.1987C139.064 74.8595 141.696 73.7004 143.404 72.1293C145.746 72.5902 148.392 72.4694 150.78 72.4485C162.098 72.3498 173.602 71.0548 184.551 68.1527C188.705 67.0514 192.869 65.3924 196.905 63.903C198.202 63.4243 199.857 62.8734 200.465 61.5568Z"/>
	<path fill="#E8154C" transform="scale(7.09259 7.09259)" d="M224.959 141.962C227.922 142.027 235.492 142.812 237.819 144.44L237.974 144.766C237.725 144.954 237.493 145.154 237.198 145.263C237.077 145.966 236.947 146.166 236.372 146.597C233.291 148.904 229.171 149.576 225.862 151.456C222.467 153.386 219.923 156.499 216.483 158.31C206.224 163.708 194.208 165.047 182.918 166.791C178.347 167.497 173.824 168.404 169.194 168.647C168.398 168.117 167.412 167.876 166.518 167.553C163.777 166.563 162.014 165.209 160.09 163.051C159.998 162.151 159.673 160.555 160.138 159.767C160.314 159.468 160.634 159.46 160.95 159.365C163.63 159.573 166.286 159.933 168.95 160.288C171.957 160.268 174.913 159.812 177.884 159.391C190.773 157.563 202.432 153.454 214.318 148.333C217.559 146.937 221.386 145.678 224.104 143.402C224.744 142.866 224.887 142.797 224.959 141.962Z"/>
	<path fill="#F76289" transform="scale(7.09259 7.09259)" d="M224.959 141.962C227.922 142.027 235.492 142.812 237.819 144.44L237.974 144.766C237.725 144.954 237.493 145.154 237.198 145.263C236.512 144.859 228.314 146.202 227.174 146.508C224.032 147.351 221.73 149.915 218.73 150.995C209.364 154.369 178.029 162.687 168.95 160.288C171.957 160.268 174.913 159.812 177.884 159.391C190.773 157.563 202.432 153.454 214.318 148.333C217.559 146.937 221.386 145.678 224.104 143.402C224.744 142.866 224.887 142.797 224.959 141.962Z"/>
	<path fill="#F76289" transform="scale(7.09259 7.09259)" d="M209.691 90.2912C210.384 90.4789 211.097 90.7197 211.471 91.3918C211.485 91.4173 211.494 91.4454 211.505 91.4722C214.179 91.7981 216.763 93.0517 219.463 93.4782C222.649 93.9814 225.971 93.7277 229.135 94.2886C228.473 95.391 226.851 96.2618 225.691 96.7482C223.457 97.3979 221.271 98.1808 219 98.6968C215.87 99.4078 212.759 99.7778 209.706 100.831C202.749 103.231 196.196 106.757 189.359 109.438C173.693 115.582 158.723 116.124 142.126 116.062C139.462 113.365 137.874 109.27 135.712 106.141C136.841 105.891 137.969 105.912 139.1 105.728C139.982 105.585 140.231 105.049 140.716 104.38C140.739 104.359 140.764 104.341 140.784 104.317C141.298 103.687 141.071 102.095 141.031 101.316L143.082 101.228C145.143 101.46 147.188 101.803 149.261 101.924C155.706 102.301 162.175 101.894 168.594 101.335C182.951 100.085 196.939 97.7615 209.755 90.8298L209.691 90.2912Z"/>
	<path fill="#FF3F73" transform="scale(7.09259 7.09259)" d="M209.691 90.2912C210.384 90.4789 211.097 90.7197 211.471 91.3918C211.485 91.4173 211.494 91.4454 211.505 91.4722C211.951 92.0307 212.045 92.4503 212.136 93.1523C211.811 94.0478 211.345 94.3917 210.471 94.8028C208.477 95.7409 206.152 96.0923 204.067 96.8352C198.83 98.7014 193.785 100.868 188.364 102.215C175.864 105.321 162.715 105.928 149.885 105.355C146.922 105.222 143.58 105.207 140.716 104.38C140.739 104.359 140.764 104.341 140.784 104.317C141.298 103.687 141.071 102.095 141.031 101.316L143.082 101.228C145.143 101.46 147.188 101.803 149.261 101.924C155.706 102.301 162.175 101.894 168.594 101.335C182.951 100.085 196.939 97.7615 209.755 90.8298L209.691 90.2912Z"/>
	<path fill="#F76289" transform="scale(7.09259 7.09259)" d="M86.9005 30.2919C88.8257 29.5736 90.9222 29.1239 92.9177 28.6321L91.9827 30.3055C92.8482 32.0611 107.878 38.0358 110.205 38.8248C134.922 47.2052 174.202 49.185 198.112 37.377C198.989 36.9436 200.249 36.4348 200.888 35.6768L200.917 35.2906C202.047 35.5482 204.481 36.0805 205.113 37.0433L205.163 37.5168C208.577 38.7171 211.652 39.527 215.287 39.7834C217.279 39.924 219.39 39.8943 221.359 40.2003C220.96 41.4275 219.129 42.5799 218.003 43.1326C217.903 43.1818 217.799 43.2237 217.694 43.2637C212.235 45.9787 205.693 46.1865 199.874 47.8818C196.376 48.9011 192.842 50.0674 189.447 51.3943C186.367 52.5981 183.301 53.9949 180.145 54.9829C170.312 58.0619 148.612 60.8177 138.752 57.8317C138.731 57.8254 138.711 57.817 138.69 57.8097C138.671 57.791 138.651 57.7719 138.631 57.7536C136.523 55.8423 133.405 54.5722 130.926 53.109C121.003 47.2538 111.234 43.7012 100.195 40.5224C93.1502 38.4937 85.7604 37.82 79.2012 34.3096C76.8663 33.06 74.6885 31.4409 72.5089 29.9409C75.9226 30.1378 84.073 31.554 86.9005 30.2919Z"/>
	<path fill="#FF3F73" transform="scale(7.09259 7.09259)" d="M86.9005 30.2919C88.8257 29.5736 90.9222 29.1239 92.9177 28.6321L91.9827 30.3055C92.8482 32.0611 107.878 38.0358 110.205 38.8248C134.922 47.2052 174.202 49.185 198.112 37.377C198.989 36.9436 200.249 36.4348 200.888 35.6768L200.917 35.2906C202.047 35.5482 204.481 36.0805 205.113 37.0433L205.163 37.5168L205.229 38.0246C205.138 38.1934 205.034 38.3408 204.891 38.4712C203.612 39.6417 199.695 40.3969 197.999 40.9804C181.526 46.6474 167.299 49.442 149.78 48.6858C131.282 47.8874 109.221 44.1708 93.0822 34.5557C91.0314 33.3339 88.5219 32.0592 86.9005 30.2919Z"/>
	<path fill="#F76289" transform="scale(7.09259 7.09259)" d="M208.977 118.033C211.348 118.094 213.761 119.409 215.723 120.652C215.806 120.832 215.931 121.036 215.966 121.229C219.631 122.658 222.714 124.612 226.591 125.551C229.945 125.706 233.551 125.61 236.857 126.183C236.405 127.351 234.356 128.46 233.239 128.948C233.209 128.961 233.179 128.971 233.149 128.983C230.722 130.649 224.266 131.065 221.201 131.732C219.931 132.009 218.699 132.457 217.468 132.871C213.166 134.318 208.776 135.746 204.616 137.566C202.071 138.679 199.636 140.04 197.115 141.205Q193.373 142.962 189.442 144.241Q185.511 145.521 181.452 146.303C175.861 147.388 170.183 147.968 164.515 148.474C161.71 148.724 155.974 148.754 153.602 149.547C153.257 149.436 152.902 149.269 152.606 149.059C150.393 147.489 146.069 138.815 145.573 136.091L145.107 135.778C144.993 134.471 144.631 133.436 144.096 132.256C145.568 132.426 148.362 133.064 149.726 132.568C154.701 130.156 168.622 128.426 174.552 127.356C185.338 125.411 196.164 123.19 206.484 119.43C207.403 119.095 208.557 118.932 208.977 118.033Z"/>
	<path fill="#FF3F73" transform="scale(7.09259 7.09259)" d="M215.966 121.229C219.631 122.658 222.714 124.612 226.591 125.551C227.212 125.757 227.556 125.799 228.001 126.291C226.891 126.921 220.662 125.72 217.773 126.416C212.06 127.793 206.646 130.793 200.95 132.401C183.119 137.434 163.937 137.991 145.573 136.091L145.107 135.778C144.993 134.471 144.631 133.436 144.096 132.256C145.568 132.426 148.362 133.064 149.726 132.568C153.918 134.765 165.038 134.029 169.966 133.789C179.673 133.317 209.124 130.359 215.13 123.477C215.682 122.845 216.035 122.075 215.966 121.229Z"/>
	<path fill="white" transform="scale(7.09259 7.09259)" d="M208.977 118.033C211.348 118.094 213.761 119.409 215.723 120.652C215.806 120.832 215.931 121.036 215.966 121.229C216.035 122.075 215.682 122.845 215.13 123.477C209.124 130.359 179.673 133.317 169.966 133.789C165.038 134.029 153.918 134.765 149.726 132.568C154.701 130.156 168.622 128.426 174.552 127.356C185.338 125.411 196.164 123.19 206.484 119.43C207.403 119.095 208.557 118.932 208.977 118.033Z"/>
	<path fill="#D22750" transform="scale(7.09259 7.09259)" d="M127.97 115.519C131.524 120.585 134.738 129.643 137.072 135.575C138.191 138.965 139.225 142.39 139.823 145.916C140.126 147.701 140.022 149.873 140.53 151.565C140.627 158.055 140.325 164.207 135.534 169.118C131.447 173.307 125.973 175.434 120.54 177.264C120.101 177.413 119.89 177.483 119.822 178.016C117.123 179.38 110.584 179.817 107.468 180.112Q96.6152 181.145 85.7139 181.041Q74.8126 180.937 63.9814 179.698C61.395 179.414 58.1499 179.333 55.7318 178.414C55.0906 178.17 54.4776 177.625 53.9514 177.19C53.1133 177.259 52.2515 177.323 51.4113 177.27C45.2417 176.885 34.4269 172.77 30.4642 168.133C25.7764 162.648 25.8361 155.857 26.378 149.068L27.2535 149.603C27.4247 150.276 27.5563 150.933 27.6504 151.622C27.7105 151.107 27.6487 150.649 28.0252 150.278C31.2627 151.571 33.2011 154.581 35.9321 156.586Q37.4716 157.707 39.0639 158.753Q40.6562 159.798 42.2975 160.764Q43.9389 161.73 45.6253 162.616Q47.3117 163.501 49.0393 164.303Q50.7668 165.105 52.5314 165.822Q54.2959 166.539 56.0933 167.169Q57.8907 167.799 59.7167 168.341Q61.5426 168.883 63.3928 169.335Q65.243 169.788 67.113 170.149Q68.983 170.511 70.8684 170.781Q72.7538 171.051 74.6501 171.229Q76.5464 171.407 78.4492 171.493Q80.3519 171.578 82.2566 171.571Q84.1612 171.563 86.0632 171.463Q87.9653 171.363 89.8602 171.17Q91.755 170.978 93.6383 170.693C105.321 168.872 119.073 164.069 126.294 154.114C134.605 142.659 129.963 128.187 127.97 115.519Z"/>
	<defs>
		<linearGradient id="gradient_0" gradientUnits="userSpaceOnUse" x1="36.848389" y1="172.30194" x2="43.857506" y2="159.98616">
			<stop offset="0" stop-color="#EAB2A1"/>
			<stop offset="1" stop-color="#F6F6F6"/>
		</linearGradient>
	</defs>
	<path fill="url(#gradient_0)" transform="scale(7.09259 7.09259)" d="M26.378 149.068L27.2535 149.603C27.4247 150.276 27.5563 150.933 27.6504 151.622C28.1484 157.829 29.3381 163.496 34.3204 167.721C37.5245 170.438 41.8505 172.434 45.8645 173.67C48.0935 174.356 58.6053 175.826 59.3873 176.588C57.7583 177.392 55.7077 176.836 53.9514 177.19C53.1133 177.259 52.2515 177.323 51.4113 177.27C45.2417 176.885 34.4269 172.77 30.4642 168.133C25.7764 162.648 25.8361 155.857 26.378 149.068Z"/>
	<path fill="white" transform="scale(7.09259 7.09259)" d="M122.702 21.1698C128.941 19.5439 147.741 19.2832 153.925 20.8865C166.417 22.2842 174.163 23.7328 186.135 27.5015C187.366 27.8893 189.594 28.9514 190.728 28.4059C192.371 29.0465 199.996 33.5681 200.828 35.025C200.868 35.095 200.897 35.2213 200.917 35.2906L200.888 35.6768C200.249 36.4348 198.989 36.9436 198.112 37.377C174.202 49.185 134.922 47.2052 110.205 38.8248C107.878 38.0358 92.8482 32.0611 91.9827 30.3055L92.9177 28.6321C95.0449 27.2733 97.3725 26.1287 99.6767 25.1054L99.7956 25.5409C100.779 25.7871 106.51 23.975 107.938 23.6496C112.782 22.5461 117.75 21.6145 122.702 21.1698Z"/>
	<path fill="white" transform="scale(7.09259 7.09259)" d="M122.702 21.1698C128.941 19.5439 147.741 19.2832 153.925 20.8865L153.604 21.1322C158.088 25.2055 169.121 23.5313 174.171 28.7137C174.67 29.226 175.219 29.7925 175.287 30.5344C174.964 31.1618 174.715 31.3801 174.027 31.5965C168.184 33.4348 155.275 30.351 148.694 30.0734C142.553 29.8143 136.534 30.4956 130.38 29.8517C128.12 29.6153 125.655 29.2677 123.635 28.1557C122.577 27.5727 121.657 26.7378 121.317 25.5429C120.964 24.3018 121.558 23.2817 122.162 22.2438C122.352 21.918 122.645 21.5423 122.702 21.1698Z"/>
	<path fill="#F76289" transform="scale(7.09259 7.09259)" d="M126.109 111.667C127.073 112.823 127.412 114.153 127.97 115.519C129.963 128.187 134.605 142.659 126.294 154.114C119.073 164.069 105.321 168.872 93.6383 170.693Q91.755 170.978 89.8601 171.17Q87.9653 171.363 86.0632 171.463Q84.1612 171.563 82.2566 171.571Q80.3519 171.578 78.4492 171.493Q76.5464 171.407 74.6501 171.229Q72.7538 171.051 70.8684 170.781Q68.983 170.511 67.113 170.149Q65.243 169.788 63.3928 169.335Q61.5426 168.883 59.7167 168.341Q57.8907 167.799 56.0933 167.169Q54.2959 166.539 52.5314 165.822Q50.7668 165.105 49.0393 164.303Q47.3117 163.501 45.6253 162.616Q43.9389 161.73 42.2975 160.764Q40.6562 159.798 39.0639 158.753Q37.4716 157.707 35.9321 156.586C33.2011 154.581 31.2627 151.571 28.0252 150.278C27.6487 150.649 27.7105 151.107 27.6504 151.622C27.5563 150.933 27.4247 150.276 27.2535 149.603L26.378 149.068C27.2664 143.238 28.3172 137.635 29.9466 131.966C30.237 129.817 31.3427 127.417 32.0382 125.355L32.5965 123.303C33.0251 123.288 33.5306 123.2 33.9081 123.429L34.3996 122.218C35.377 123.592 35.3593 126.704 35.6641 128.393C36.6663 133.948 39.3555 138.846 43.2101 142.929C50.9337 151.111 62.7228 154.71 73.7591 154.968C88.3654 155.309 102.809 149.123 113.253 139.049C119.799 132.735 125.956 120.827 126.109 111.667Z"/>
	<path fill="white" transform="scale(7.09259 7.09259)" d="M32.5965 123.303C33.0251 123.288 33.5306 123.2 33.9081 123.429L33.2168 126.568C32.5504 128.617 31.9263 130.694 31.2071 132.725C30.9006 132.289 30.4226 132.151 29.9466 131.966C30.237 129.817 31.3427 127.417 32.0382 125.355L32.5965 123.303Z"/>
	<path fill="white" transform="scale(7.09259 7.09259)" d="M29.9466 131.966C30.4226 132.151 30.9006 132.289 31.2071 132.725Q29.9605 136.593 29.1974 140.584C28.6582 143.371 28.4489 147.056 27.2535 149.603L26.378 149.068C27.2664 143.238 28.3172 137.635 29.9466 131.966Z"/>
	<path fill="white" transform="scale(7.09259 7.09259)" d="M44.7214 53.1111C44.8364 53.4312 45.0186 53.7346 45.178 54.0352C46.8487 53.8232 48.571 53.1493 50.1905 52.683C53.1042 51.8442 56.1002 51.0028 59.0752 50.4092C70.609 48.1078 83.3999 48.3387 95.0589 49.3754C95.9142 48.8513 106.038 50.2438 107.915 50.5832C110.236 51.0028 112.913 52.0339 115.255 51.839C115.797 51.7938 116.129 51.7368 116.539 51.3394C119.863 51.7239 124.153 55.8562 127.52 57.2024C127.038 57.7969 126.49 58.4403 126.312 59.2C125.611 62.185 125.92 65.777 125.591 68.8679C124.496 79.1619 122.057 89.2555 123.132 99.7084C123.58 104.067 125.583 107.755 126.109 111.667C125.956 120.827 119.799 132.735 113.253 139.049C102.809 149.123 88.3654 155.309 73.7591 154.968C62.7228 154.71 50.9337 151.111 43.2101 142.929C39.3555 138.846 36.6663 133.948 35.6641 128.393C35.3593 126.704 35.377 123.592 34.3996 122.218L33.9081 123.429C33.5306 123.2 33.0251 123.288 32.5965 123.303C33.6693 118.538 35.6112 114.001 36.6371 109.209C38.4667 100.663 37.6967 90.9839 35.9165 82.4705C35.1373 78.7445 34.0633 75.0677 33.4066 71.3182C32.4786 66.0195 32.8912 64.5045 35.9098 60.2165C34.974 60.5423 34.0536 60.9182 33.1301 61.2774C31.5847 60.9811 28.5348 60.5907 27.5065 59.3914C30.0903 58.6804 32.7828 58.5817 35.3388 57.6785C38.5595 56.5405 41.5555 54.4669 44.7214 53.1111Z"/>
	<path fill="#E8154C" transform="scale(7.09259 7.09259)" d="M94.3009 93.1676C94.5769 93.2712 94.5989 93.3744 94.7566 93.616C92.7813 99.5178 91.1547 104.536 86.9289 109.349C85.971 110.44 84.8867 111.695 83.6721 112.508C83.0055 112.954 82.1695 113.335 81.3507 113.151C80.3079 112.917 80.1114 112.745 79.5446 111.904L78.0401 110.848C77.9408 109.46 77.9925 108.074 78.0284 106.684C81.3061 103.197 85.0287 101.077 88.7515 98.2143C90.7224 96.6989 92.4824 94.8626 94.3009 93.1676Z"/>
	<path fill="#F76289" transform="scale(7.09259 7.09259)" d="M90.6665 98.7023L90.9448 99.2483C90.455 101.571 89.1348 103.47 87.5711 105.219C85.9135 107.073 83.6008 109.25 81.0169 109.39C80.6224 108.829 80.4296 108.196 80.4829 107.504C80.7202 104.427 88.3655 100.664 90.6665 98.7023Z"/>
	<path fill="#E8154C" transform="scale(7.09259 7.09259)" d="M59.086 99.4451C59.914 100.006 62.3209 103.832 63.6387 105.031C66.1103 107.279 69.22 108.678 71.9337 110.595C74.1761 112.178 75.9459 114.147 76.4287 116.919C76.7617 116.399 77.1078 115.886 77.4951 115.404C77.9106 114.888 79.2214 113.301 79.8032 113.241C79.1959 115.458 76.4347 117.246 76.2312 118.962C76.0265 120.688 78.3858 123.339 79.3741 124.633C82.1982 118.632 88.6702 117.479 94.1132 114.864C95.831 114.039 97.3612 112.921 98.901 111.809C96.2054 117.155 93.1165 123.036 88.587 127.066C86.0938 129.284 83.0048 129.006 81.2485 130.377C80.834 130.7 80.507 131.402 80.2596 131.866C79.8591 132.767 79.6095 133.841 79.3113 134.787C78.4068 135.702 77.3404 136.44 76.3106 137.206C75.1276 136.875 73.9425 136.533 72.7935 136.096C65.3754 133.277 61.439 127.452 58.2973 120.468C60.3889 121.322 62.3781 122.484 64.4554 123.39C70.6956 126.112 74.4634 127.047 79.2633 132.316C79.2983 127.93 77.7899 124.86 75.5841 121.171C71.8914 120.734 68.839 120.26 66.0425 117.599C61.0026 112.804 59.2276 106.186 59.086 99.4451Z"/>
	<path fill="#F76289" transform="scale(7.09259 7.09259)" d="M62.9111 124.917C66.6395 125.312 72.9303 128.597 75.5141 131.325C76.1791 132.027 76.7215 132.565 76.6954 133.563C73.7937 133.937 71.489 133.41 69.0852 131.724C67.2438 130.432 63.3016 127.166 62.9111 124.917Z"/>
	<path fill="#F76289" transform="scale(7.09259 7.09259)" d="M62.1888 106.008C63.9451 106.312 66.2022 108.08 67.6369 109.173C70.4942 111.35 72.1817 113.165 72.6838 116.808C71.8247 116.81 70.9516 116.818 70.1144 116.602C67.405 115.902 65.2336 113.254 63.8728 110.952C63.2568 109.91 61.9005 107.16 62.1888 106.008Z"/>
	<path fill="#F76289" transform="scale(7.09259 7.09259)" d="M93.1587 116.755C93.465 116.865 93.4687 116.927 93.6397 117.191C93.049 119.539 88.2669 123.928 86.2468 125.276C84.875 126.191 84.0914 126.614 82.4356 126.281C82.0409 126.052 81.7502 125.754 81.4324 125.433C81.2695 124.877 81.2061 124.457 81.4403 123.908C82.9512 120.369 89.789 118.054 93.1587 116.755Z"/>
	<path fill="white" transform="scale(7.09259 7.09259)" d="M44.7214 53.1111C44.8364 53.4312 45.0186 53.7346 45.178 54.0352C46.8487 53.8232 48.571 53.1493 50.1905 52.683C53.1042 51.8442 56.1002 51.0028 59.0752 50.4092C70.609 48.1078 83.3999 48.3387 95.0589 49.3754C94.0959 49.767 93.0371 49.838 92.0131 49.9651C95.1023 51.4637 104.767 52.7142 105.867 56.1431C106.157 57.0462 105.985 58.1949 105.521 59.01C105.231 59.5181 104.86 59.9284 104.277 60.0758C95.6777 62.251 85.3597 61.5887 76.4948 62.2333C70.766 62.6499 65.0426 63.9047 59.2933 63.7356C57.7262 62.8905 55.1429 61.1393 54.5851 59.3609C54.286 58.4077 54.736 54.8559 54.3594 54.5513C51.0017 54.4903 43.7416 58.8879 41.2954 61.2627C39.038 63.4542 37.0994 66.3203 37.0638 69.5728C37.0017 75.2368 42.1346 77.963 43.3817 82.7523C45.1406 89.5073 39.2402 116.933 34.5608 122.046C34.5277 122.083 34.4955 122.12 34.4619 122.156C34.4417 122.177 34.4204 122.197 34.3996 122.218L33.9081 123.429C33.5306 123.2 33.0251 123.288 32.5965 123.303C33.6693 118.538 35.6112 114.001 36.6371 109.209C38.4667 100.663 37.6967 90.9839 35.9165 82.4705C35.1373 78.7445 34.0633 75.0677 33.4066 71.3182C32.4786 66.0195 32.8912 64.5045 35.9098 60.2165C34.974 60.5423 34.0536 60.9182 33.1301 61.2774C31.5847 60.9811 28.5348 60.5907 27.5065 59.3914C30.0903 58.6804 32.7828 58.5817 35.3388 57.6785C38.5595 56.5405 41.5555 54.4669 44.7214 53.1111Z"/>
</svg>
