<?xml version="1.0" encoding="utf-8" ?>
<svg xmlns="http://www.w3.org/2000/svg" xmlns:xlink="http://www.w3.org/1999/xlink" width="1019" height="826">
	<path fill="#CD2A01" transform="scale(4.09248 4.09248)" d="M0 0L169.872 0L175.447 0L175.882 0L248.562 0C248.917 0.54964 248.963 1.01436 248.981 1.65317C249.129 7.15641 249.001 12.7008 249.001 18.2081L249.004 50.2132L249.001 146.538L249.002 186.738C249.002 189.839 249.41 199.007 248.905 201.264C248.846 201.532 248.718 201.776 248.562 202L0 202L0 115.423L0 113.362L0 0ZM175.882 0C175.5 0.90463 175.018 1.84419 174.756 2.78787C174.938 3.63727 175.036 4.47698 175.719 5.08245C173.356 7.06038 171.03 9.32432 168.563 11.1412C168.844 11.1771 169.145 11.2341 169.386 11.3917C171.022 12.4595 172.577 13.9155 174.111 15.1483L183.928 23.0346C191.904 29.4194 200.022 35.6765 207.77 42.336C209.447 43.7769 211.745 45.3511 213.094 47.0823C213.176 47.1871 213.238 47.2759 213.289 47.3993C214.089 47.9923 214.934 48.7317 215.371 49.6457C217.172 53.4066 217.633 57.6894 218.831 61.6404C219.987 65.4539 221.322 69.1917 222.437 73.0271C222.695 73.9148 223.183 74.9189 223.323 75.8146C223.361 76.0589 223.285 76.3096 223.194 76.5334C225.177 78.122 233.06 109.577 234.679 114.85C234.748 115.695 234.982 116.871 234.403 117.57C234.342 117.644 234.302 117.68 234.237 117.744C235.233 120.356 234.678 163.163 234.682 169.782C234.684 172.223 235.321 185.47 234.75 186.795C234.687 186.939 234.61 187.071 234.524 187.203C232.496 187.695 230.258 187.689 228.178 187.834L215.867 188.612C211.335 188.926 206.719 189.23 202.207 189.724C200.767 189.881 199.338 190.292 197.914 190.426C197.687 189.878 197.546 189.256 197.372 188.686C195.981 188.596 194.665 188.54 193.491 187.701C191.726 188.503 188.168 188.182 186.186 188.269Q181.095 188.463 176.019 188.898C173.835 189.088 171.435 189.577 169.27 189.414C168.624 189.711 167.497 190.034 166.821 189.759C166.619 189.677 166.511 189.252 166.423 189.05L166.292 189.756C165.022 190.572 144.578 192.342 142.285 191.943C142.087 191.908 141.91 191.819 141.742 191.712C141.721 191.978 141.602 192.125 141.468 192.348C140.815 192.769 140.107 192.907 139.355 193.045C138.617 193.181 137.535 193.394 136.896 192.951L136.707 190.651C136.55 192.343 136.509 194.012 136.504 195.711C122.647 195.523 106.576 199.829 93.2188 198.487L94.2442 197.097C93.959 194.665 93.9918 192.192 93.8548 189.748C93.4596 182.696 93.2522 176.124 93.2159 169.055C93.1781 161.684 93.0021 154.269 93.2172 146.904C93.2979 144.142 93.7346 141.417 93.9247 138.664C94.1412 135.528 94.063 132.34 93.9814 129.199L94.0305 128.128C93.8851 125.445 93.9804 122.701 93.96 120.01L90.111 119.995C84.7303 119.748 79.3668 119.264 73.9905 119.01C63.8801 118.533 53.742 118.276 43.6408 117.617C31.1447 116.802 18.6382 115.593 6.11006 115.445C4.05346 115.578 2.05427 115.523 0 115.423L0 202L248.562 202C248.718 201.776 248.846 201.532 248.905 201.264C249.41 199.007 249.002 189.839 249.002 186.738L249.001 146.538L249.004 50.2132L249.001 18.2081C249.001 12.7008 249.129 7.15641 248.981 1.65317C248.963 1.01436 248.917 0.54964 248.562 0L175.882 0ZM0 0L0 113.362L0 115.423C2.05427 115.523 4.05346 115.578 6.11006 115.445C18.6382 115.593 31.1447 116.802 43.6408 117.617C53.742 118.276 63.8801 118.533 73.9905 119.01C79.3668 119.264 84.7303 119.748 90.111 119.995L93.96 120.01L96.5111 119.942L96.0872 119.496C95.7261 117.846 96.0468 116.212 96.3642 114.582C97.4713 108.662 99.8696 102.827 101.78 97.1235Q106.711 82.0591 111.801 67.0473C113.788 61.15 116.156 55.2554 117.645 49.2094C118.343 48.0671 118.621 46.9983 118.86 45.703C120.114 42.6915 123.886 40.6699 126.454 38.8878C126.104 38.1969 125.785 37.4964 125.472 36.7885L124.621 36.8385L124.383 36.5092C124.659 35.6065 125.697 35.3243 125.9 34.5765C125.98 34.284 125.649 33.8732 125.51 33.5965C125.172 32.9193 124.991 32.3746 125.255 31.6162C126.036 29.3713 125.113 25.6068 125.125 23.1617C125.14 20.2049 125.603 17.2893 125.725 14.3406C125.789 12.8099 125.462 11.361 125.629 9.84767C126.596 9.1829 129.531 9.03744 130.801 8.81479C135.48 7.9943 166.462 3.72638 167.889 2.00271L166.511 1.53476L167.687 1.36059C168.656 1.0426 169.261 0.857271 169.872 0L0 0Z"/>
	<path fill="#9E0000" transform="scale(4.09248 4.09248)" d="M136.38 151.083C136.435 153.736 136.315 156.398 136.545 159.043C136.695 169.576 136.431 180.126 136.707 190.651C136.55 192.343 136.509 194.012 136.504 195.711C122.647 195.523 106.576 199.829 93.2188 198.487L94.2442 197.097C94.8247 197.183 96.3842 196.284 97.1241 196.109C101.507 195.845 105.946 195.104 110.316 194.622C115.522 194.047 120.754 193.698 125.972 193.239C127.892 193.07 132.641 193.418 134.148 192.342C134.928 191.785 135.05 191.11 135.21 190.207C135.27 189.32 135.223 188.407 135.22 187.518C135.414 184.985 135.25 182.322 135.245 179.773L135.219 164.69C135.215 159.98 134.982 155.641 136.38 151.083Z"/>
	<path fill="#C10A09" transform="scale(4.09248 4.09248)" d="M95.7803 127.949C96.1112 128.759 96.6427 129.283 97.2444 129.894C102.191 130.371 106.996 129.883 111.936 129.624Q118.818 129.312 125.707 129.215C128.222 129.179 131.304 128.855 133.728 129.498L134.005 129.862C133.469 130.307 133.085 130.332 132.398 130.404C129.356 130.722 126.144 130.505 123.081 130.597C114.406 130.86 105.664 131.072 96.9865 130.976C96.8766 133.154 96.2689 136.694 97.2017 138.698C97.3388 138.778 97.5725 138.963 97.7167 138.999C99.3491 139.409 105.34 138.718 107.326 138.619C110.28 138.473 133.043 137.634 133.584 138.568C131.272 139.034 128.745 138.954 126.389 139.116C119.069 139.62 111.744 139.704 104.421 140.103C101.969 140.236 99.4511 140.225 97.0169 140.544L96.9563 147.343C102.968 147.285 109.005 147.372 115.012 147.179C119.224 147.044 130.757 145.835 134.028 146.597C134.305 146.662 134.592 146.699 134.872 146.746C135.02 146.618 135.246 146.47 135.348 146.307L135.725 147.41Q122.845 148.302 109.94 148.687C105.628 148.814 101.308 148.625 97.0045 148.984L96.9593 156.267C102.003 156.266 107.074 156.356 112.114 156.129C118.073 155.859 124.105 155.266 130.065 155.257C131.265 155.256 133.138 155.119 134.211 155.697C133.423 156.514 131.327 156.693 130.252 156.719C127.56 156.783 124.865 156.699 122.174 156.807C113.746 157.146 105.482 157.793 97.0283 157.727L96.9645 165.266C101.051 165.269 132.633 162.877 133.991 163.772L134.064 164.109C133.62 164.538 133.034 164.584 132.446 164.649C129.283 164.995 125.973 164.945 122.785 165.099C114.223 165.512 105.549 165.771 97.0146 166.536L96.9298 173.604C99.6199 172.993 132.9 171.459 134.081 172.3C134.135 172.338 134.184 172.383 134.235 172.424C133.521 173.105 131.821 173.208 130.868 173.3C126.037 173.764 121.05 173.49 116.194 173.707C109.784 173.994 103.475 174.748 97.0444 174.766Q96.6721 178.518 96.8037 182.286Q108.53 181.805 120.246 181.107C124.136 180.871 130.156 179.764 133.837 180.52L134.118 180.826C133.473 181.61 131.744 181.748 130.773 181.841C119.551 182.92 108.236 182.681 96.995 183.784L96.9803 190.137C106.362 190.104 115.838 189.538 125.196 188.877C128.133 188.67 131.099 188.706 134.022 188.368L133.901 189.548C130.205 189.737 126.547 190.375 122.842 190.542L108.498 191.186C104.634 191.355 100.846 191.384 97.0185 192.031C97.0273 193.375 96.9641 194.775 97.1241 196.109C96.3842 196.284 94.8247 197.183 94.2442 197.097C93.959 194.665 93.9918 192.192 93.8548 189.748C93.4596 182.696 93.2522 176.124 93.2159 169.055C93.1781 161.684 93.0021 154.269 93.2172 146.904C93.2979 144.142 93.7346 141.417 93.9247 138.664C94.1412 135.528 94.063 132.34 93.9814 129.199L94.0305 128.128L95.7803 127.949Z"/>
	<path fill="#CD2A01" transform="scale(4.09248 4.09248)" d="M224.193 99.2451L224.79 99.885L224.767 100.485C225.561 101.629 226.66 104.936 226.365 106.313C226.333 106.461 226.286 106.603 226.232 106.745C226.789 107.305 227.148 107.86 227.142 108.681C227.139 109.07 227.04 109.412 226.862 109.755C224.654 109.6 222.334 109.737 220.116 109.731L206.589 109.679C204.123 109.674 201.451 109.877 199.014 109.5L197.252 109.872C197.142 108.818 197.047 107.787 196.761 106.763C194.321 107.774 188.63 107.752 185.871 107.882C178.118 108.246 170.333 107.82 162.575 108.041L145.505 108.604C143.175 108.695 140.095 109.235 137.837 108.845L136.917 109.124C136.271 110.572 136.741 139.556 136.677 143.614L136.66 143.697C136.388 145.115 136.895 147.431 136.315 148.634C136.025 148.247 135.883 147.859 135.725 147.41L135.348 146.307C135.246 146.47 135.02 146.618 134.872 146.746C134.592 146.699 134.305 146.662 134.028 146.597C130.757 145.835 119.224 147.044 115.012 147.179C109.005 147.372 102.968 147.285 96.9563 147.343L97.0169 140.544C99.4511 140.225 101.969 140.236 104.421 140.103C111.744 139.704 119.069 139.62 126.389 139.116C128.745 138.954 131.272 139.034 133.584 138.568C133.043 137.634 110.28 138.473 107.326 138.619C105.34 138.718 99.3491 139.409 97.7167 138.999C97.5725 138.963 97.3388 138.778 97.2017 138.698C96.2689 136.694 96.8766 133.154 96.9865 130.976C105.664 131.072 114.406 130.86 123.081 130.597C126.144 130.505 129.356 130.722 132.398 130.404C133.085 130.332 133.469 130.307 134.005 129.862L133.728 129.498C131.304 128.855 128.222 129.179 125.707 129.215Q118.818 129.312 111.936 129.624C106.996 129.883 102.191 130.371 97.2444 129.894C96.6427 129.283 96.1112 128.759 95.7803 127.949C96.6687 127.183 96.9504 126.257 97.3414 125.19C98.5715 124.452 100.411 125.431 101.775 124.765C102.646 124.341 108.628 105.366 109.541 102.659L109.815 102.339C112.902 102.212 115.993 102.351 119.081 102.171C122.821 101.952 126.564 101.41 130.306 101.298L200.803 99.8765C207.352 99.6921 213.902 99.6062 220.45 99.3486C221.586 99.3039 223.134 99.5465 224.193 99.2451Z"/>
	<path fill="#C10A09" transform="scale(4.09248 4.09248)" d="M110.438 120.359C110.467 120.35 110.496 120.337 110.527 120.331C112.705 119.897 115.399 120.442 117.656 120.45C120.275 120.46 132.708 119.731 133.924 120.62C131.921 121.103 129.862 121.127 127.812 121.257C120.425 121.848 112.79 121.802 105.374 121.788C104.696 121.787 104.164 121.849 103.675 121.359L103.925 120.989C105.939 120.408 108.342 120.535 110.438 120.359Z"/>
	<path fill="#C10A09" transform="scale(4.09248 4.09248)" d="M135.012 112.532C130.65 112.447 109.241 113.519 106.834 112.494L106.718 112.13C107.29 111.744 107.994 111.708 108.663 111.658C113.204 111.317 117.898 111.56 122.457 111.492C126.603 111.43 130.922 110.869 135.038 111.431L135.012 112.532Z"/>
	<path fill="#9E0000" transform="scale(4.09248 4.09248)" d="M135.038 111.431C135.03 110.339 134.74 108.199 135.253 107.274L135.738 107.236L136.238 107.68C136.764 108.081 137.29 108.474 137.837 108.845L136.917 109.124C136.271 110.572 136.741 139.556 136.677 143.614L136.66 143.697C136.388 145.115 136.895 147.431 136.315 148.634C136.025 148.247 135.883 147.859 135.725 147.41L135.348 146.307C135.082 144.058 135.166 141.641 135.123 139.367C134.961 130.768 135.708 120.834 135.012 112.532L135.038 111.431Z"/>
	<path fill="#C10A09" transform="scale(4.09248 4.09248)" d="M224.193 99.2451L224.79 99.885L224.767 100.485C224.502 100.416 224.413 100.432 224.159 100.528C222.907 101.001 220.615 100.794 219.245 100.881C208.557 101.564 198.035 101.454 187.343 101.572L134.009 102.41C130.681 102.465 111 103.443 109.965 103.048L109.541 102.659L109.815 102.339C112.902 102.212 115.993 102.351 119.081 102.171C122.821 101.952 126.564 101.41 130.306 101.298L200.803 99.8765C207.352 99.6921 213.902 99.6062 220.45 99.3486C221.586 99.3039 223.134 99.5465 224.193 99.2451Z"/>
	<path fill="#C10A09" transform="scale(4.09248 4.09248)" d="M136.238 107.68C140.45 108.839 144.938 106.665 149.164 106.362C157.452 105.768 165.778 106.486 174.068 106.229C181.027 106.013 188.345 104.588 195.27 105.082C196.511 105.171 197.16 105.643 198.083 106.438C198.281 107.147 198.316 107.375 198.845 107.913C203.797 108.906 213.78 107.686 219.059 107.434C221.433 107.321 223.792 107.705 226.111 107.1L226.232 106.745C226.789 107.305 227.148 107.86 227.142 108.681C227.139 109.07 227.04 109.412 226.862 109.755C224.654 109.6 222.334 109.737 220.116 109.731L206.589 109.679C204.123 109.674 201.451 109.877 199.014 109.5L197.252 109.872C197.142 108.818 197.047 107.787 196.761 106.763C194.321 107.774 188.63 107.752 185.871 107.882C178.118 108.246 170.333 107.82 162.575 108.041L145.505 108.604C143.175 108.695 140.095 109.235 137.837 108.845C137.29 108.474 136.764 108.081 136.238 107.68Z"/>
	<path fill="#CD2A01" transform="scale(4.09248 4.09248)" d="M123.56 60.6501C128.929 60.9639 142.402 59.6853 146.511 61.0438Q145.918 63.876 145.969 66.7693C146.007 67.9096 145.997 69.0835 146.114 70.2167L146.981 74.4818C147.276 75.4962 147.542 76.5334 147.927 77.5177C148.656 78.9383 149.37 80.4834 150.301 81.7783C151.18 82.9721 152.067 84.1056 153.081 85.1887C156.948 88.0412 160.727 90.5316 165.774 89.8745C165.827 89.8675 165.88 89.8572 165.933 89.8485C169.835 89.8457 174.175 90.3224 177.404 87.7353C178.884 86.7978 180.188 85.51 181.648 84.5158C183.701 86.3489 190.169 85.9124 192.815 85.7349C192.958 85.7253 193.085 85.6947 193.22 85.6489C196.299 84.9749 199.627 85.0823 202.772 84.987Q211.257 84.6857 219.747 84.8374C221.119 86.0767 224.136 96.5979 224.243 98.5462C224.256 98.7842 224.237 99.0112 224.193 99.2451C223.134 99.5465 221.586 99.3039 220.45 99.3486C213.902 99.6062 207.352 99.6921 200.803 99.8765L130.306 101.298C126.564 101.41 122.821 101.952 119.081 102.171C115.993 102.351 112.902 102.212 109.815 102.339C112.124 97.0883 113.668 91.472 115.193 85.9543L115.252 85.3074C116.373 82.9616 116.946 80.1814 117.661 77.686Q119.739 77.7872 121.819 77.8603L122.498 77.6545L122.699 77.2049L117.854 77.3287Q119.165 73.281 120.58 69.2684L121.07 68.2965C122.21 65.8919 122.852 63.207 123.56 60.6501Z"/>
	<path fill="#C10A09" transform="scale(4.09248 4.09248)" d="M150.301 81.7783C151.18 82.9721 152.067 84.1056 153.081 85.1887C152.901 85.3025 152.624 85.5307 152.431 85.5991C151.458 85.9448 116.786 86.3006 115.193 85.9543L115.252 85.3074C119.979 84.9001 147.921 84.5361 149.071 84.0848C149.575 83.8872 149.589 82.4296 150.183 81.8829C150.221 81.8473 150.261 81.8131 150.301 81.7783Z"/>
	<path fill="#CD2A01" transform="scale(4.09248 4.09248)" d="M146.981 74.4818C147.276 75.4962 147.542 76.5334 147.927 77.5177C148.656 78.9383 149.37 80.4834 150.301 81.7783C150.261 81.8131 150.221 81.8473 150.183 81.8829C149.589 82.4296 149.575 83.8872 149.071 84.0848C147.921 84.5361 119.979 84.9001 115.252 85.3074C116.373 82.9616 116.946 80.1814 117.661 77.686Q119.739 77.7872 121.819 77.8603L122.498 77.6545L122.699 77.2049C125.332 75.7945 140.725 76.8716 145.031 75.9153C146.069 75.6848 146.413 75.3746 146.981 74.4818Z"/>
	<path fill="#C10A09" transform="scale(4.09248 4.09248)" d="M146.981 74.4818C147.276 75.4962 147.542 76.5334 147.927 77.5177L147.497 77.8965C141.956 77.3602 136.188 77.6914 130.625 77.8176C128.43 77.8674 123.798 78.4746 121.819 77.8603L122.498 77.6545L122.699 77.2049C125.332 75.7945 140.725 76.8716 145.031 75.9153C146.069 75.6848 146.413 75.3746 146.981 74.4818Z"/>
	<path fill="#CD2A01" transform="scale(4.09248 4.09248)" d="M123.56 60.6501C128.929 60.9639 142.402 59.6853 146.511 61.0438Q145.918 63.876 145.969 66.7693C146.007 67.9096 145.997 69.0835 146.114 70.2167L146.981 74.4818C146.413 75.3746 146.069 75.6848 145.031 75.9153C140.725 76.8716 125.332 75.7945 122.699 77.2049L117.854 77.3287Q119.165 73.281 120.58 69.2684L121.07 68.2965C122.21 65.8919 122.852 63.207 123.56 60.6501Z"/>
	<path fill="#C10A09" transform="scale(4.09248 4.09248)" d="M145.969 66.7693C146.007 67.9096 145.997 69.0835 146.114 70.2167C141.809 68.5552 126.814 70.3939 120.58 69.2684L121.07 68.2965Q127.084 68.1887 133.099 68.201C136.578 68.2325 140.651 68.7406 144.025 67.9425C144.841 67.7494 145.367 67.3335 145.969 66.7693Z"/>
	<path fill="#CD2A01" transform="scale(4.09248 4.09248)" d="M123.56 60.6501C128.929 60.9639 142.402 59.6853 146.511 61.0438Q145.918 63.876 145.969 66.7693C145.367 67.3335 144.841 67.7494 144.025 67.9425C140.651 68.7406 136.578 68.2325 133.099 68.201Q127.084 68.1887 121.07 68.2965C122.21 65.8919 122.852 63.207 123.56 60.6501Z"/>
	<path fill="#FCFBFC" transform="scale(4.09248 4.09248)" d="M196.761 106.763C197.047 107.787 197.142 108.818 197.252 109.872C197.112 116.25 196.883 122.809 197.255 129.168C197.236 131.373 197.254 133.586 197.16 135.79C196.553 145.414 196.951 155.323 197.175 164.965L197.171 167.629C197.146 170.667 196.601 186.11 197.219 187.758L197.372 188.686C195.981 188.596 194.665 188.54 193.491 187.701C191.726 188.503 188.168 188.182 186.186 188.269Q181.095 188.463 176.019 188.898C173.835 189.088 171.435 189.577 169.27 189.414C168.624 189.711 167.497 190.034 166.821 189.759C166.619 189.677 166.511 189.252 166.423 189.05L166.292 189.756C165.022 190.572 144.578 192.342 142.285 191.943C142.087 191.908 141.91 191.819 141.742 191.712C141.721 191.978 141.602 192.125 141.468 192.348C140.815 192.769 140.107 192.907 139.355 193.045C138.617 193.181 137.535 193.394 136.896 192.951L136.707 190.651C136.431 180.126 136.695 169.576 136.545 159.043C137.126 154.072 136.69 148.626 136.677 143.614C136.741 139.556 136.271 110.572 136.917 109.124L137.837 108.845C140.095 109.235 143.175 108.695 145.505 108.604L162.575 108.041C170.333 107.82 178.118 108.246 185.871 107.882C188.63 107.752 194.321 107.774 196.761 106.763Z"/>
	<path fill="#A7A6A7" transform="scale(4.09248 4.09248)" d="M165.575 154.651C166.075 153.667 166.105 152.384 166.312 151.305C166.412 150.781 166.53 150.137 166.978 149.833C167.531 150.592 167.273 152.036 167.237 152.945C167.023 153.853 166.731 154.551 166.286 155.367C166.217 155.494 166.176 155.612 166.142 155.751L165.575 154.651Z"/>
	<path fill="#A7A6A7" transform="scale(4.09248 4.09248)" d="M193.762 167.174C194.056 169.143 194.525 171.12 194.705 173.099C195.062 177.043 194.844 181.158 194.753 185.118L192.666 182.52C193.648 181.063 193.621 169.671 193.762 167.174Z"/>
	<path fill="#E7E6ED" transform="scale(4.09248 4.09248)" d="M166.174 112.158C166.919 112.236 167.153 112.158 167.697 112.699C168.083 113.819 168.478 116.825 168.015 117.925C167.985 117.998 167.905 118.097 167.863 118.155C167.446 117.701 167.441 117.053 167.368 116.469C166.178 123.501 166.564 131.269 167.062 138.368L167.126 138.143C167.222 140.522 167.26 142.858 166.55 145.156C166.38 134.153 166.451 123.161 166.174 112.158Z"/>
	<path fill="#C10A09" transform="scale(4.09248 4.09248)" d="M169.237 112.029L192.758 112.038C189.567 114.986 187.487 119.345 185.159 122.978Q181.829 128.066 178.437 133.114C175.536 137.379 171.019 143.551 169.109 148.176C169.603 136.176 169.249 124.044 169.237 112.029Z"/>
	<path fill="#C10A09" transform="scale(4.09248 4.09248)" d="M169.696 155.068C169.937 155.164 170.18 155.281 170.352 155.481C172.061 157.462 173.47 160.088 175.057 162.223C181.314 170.642 187.266 179.259 193.491 187.701C191.726 188.503 188.168 188.182 186.186 188.269Q181.095 188.463 176.019 188.898C173.835 189.088 171.435 189.577 169.27 189.414C169.21 186.723 169.512 184.023 169.469 181.328C169.373 175.411 168.913 169.421 169.392 163.513C169.763 160.718 169.207 157.828 169.696 155.068Z"/>
	<path fill="#C10A09" transform="scale(4.09248 4.09248)" d="M141.482 113.303C149.65 113.172 158.053 113.085 166.174 112.158C166.451 123.161 166.38 134.153 166.55 145.156L166.338 147.533C163.475 144.673 158.748 137.157 156.076 133.481C151.473 127.145 145.283 119.954 141.482 113.303Z"/>
	<path fill="#C10A09" transform="scale(4.09248 4.09248)" d="M167.237 152.945C167.319 154.05 167.425 155.062 167.732 156.132C167.867 156.13 167.911 156.135 168.035 156.115C168.787 155.991 169.237 155.653 169.696 155.068C169.207 157.828 169.763 160.718 169.392 163.513C168.913 169.421 169.373 175.411 169.469 181.328C169.512 184.023 169.21 186.723 169.27 189.414C168.624 189.711 167.497 190.034 166.821 189.759C166.619 189.677 166.511 189.252 166.423 189.05L166.292 189.756C165.022 190.572 144.578 192.342 142.285 191.943C142.087 191.908 141.91 191.819 141.742 191.712C143.023 188.877 145.248 186.09 146.98 183.494L157.326 168.036C160.282 163.651 163.443 159.52 165.575 154.651L166.142 155.751C166.176 155.612 166.217 155.494 166.286 155.367C166.731 154.551 167.023 153.853 167.237 152.945Z"/>
	<path fill="#E7E6ED" transform="scale(4.09248 4.09248)" d="M167.237 152.945C167.319 154.05 167.425 155.062 167.732 156.132C167.867 156.13 167.911 156.135 168.035 156.115C168.787 155.991 169.237 155.653 169.696 155.068C169.207 157.828 169.763 160.718 169.392 163.513C169.308 162.895 169.293 162.222 168.885 161.722L168.403 161.698L168.149 162.74C167.714 162.973 167.302 163.222 166.887 163.491Q166.697 164.312 166.553 165.142L166.5 160.96L166.142 155.751C166.176 155.612 166.217 155.494 166.286 155.367C166.731 154.551 167.023 153.853 167.237 152.945Z"/>
	<path fill="#CFCBCE" transform="scale(4.09248 4.09248)" d="M167.237 152.945C167.319 154.05 167.425 155.062 167.732 156.132C167.945 157.851 168.337 159.723 168.267 161.45Q167.645 161.071 167.004 160.723L166.5 160.96L166.142 155.751C166.176 155.612 166.217 155.494 166.286 155.367C166.731 154.551 167.023 153.853 167.237 152.945Z"/>
	<path fill="#FCFBFC" transform="scale(4.09248 4.09248)" d="M168.403 161.698L168.885 161.722C169.293 162.222 169.308 162.895 169.392 163.513C168.913 169.421 169.373 175.411 169.469 181.328C169.512 184.023 169.21 186.723 169.27 189.414C168.624 189.711 167.497 190.034 166.821 189.759C166.619 189.677 166.511 189.252 166.423 189.05C166.127 185.865 166.437 182.483 166.495 179.27C166.58 174.559 166.543 169.853 166.553 165.142Q166.697 164.312 166.887 163.491C167.302 163.222 167.714 162.973 168.149 162.74L168.403 161.698Z"/>
	<path fill="#C10A09" transform="scale(4.09248 4.09248)" d="M169.807 151.412C171.658 147.451 174.247 143.788 176.604 140.111Q182.209 131.311 188.047 122.665C189.958 119.847 192.17 117.17 193.778 114.178L194.089 114.402C194.922 117.963 193.928 117.145 193.877 119.606C193.79 123.793 193.814 128.009 193.752 132.204C193.58 143.845 193.656 155.532 193.762 167.174C193.621 169.671 193.648 181.063 192.666 182.52C184.982 172.222 178.127 161.202 169.807 151.412Z"/>
	<path fill="#C10A09" transform="scale(4.09248 4.09248)" d="M141.067 117.361C142.295 117.89 160.455 143.195 162.494 146.175C163.454 147.579 164.329 148.995 165.096 150.515C162.772 157.008 154.559 167.964 150.448 174.1C147.083 178.758 143.675 183.375 141.343 188.66C140.46 183.727 140.993 175.338 140.998 170.149L141.262 133.333C141.253 128.011 141.345 122.677 141.067 117.361Z"/>
	<path fill="#9E0000" transform="scale(4.09248 4.09248)" d="M169.872 0L175.447 0L175.882 0C175.5 0.90463 175.018 1.84419 174.756 2.78787C174.938 3.63727 175.036 4.47698 175.719 5.08245C173.356 7.06038 171.03 9.32432 168.563 11.1412C168.844 11.1771 169.145 11.2341 169.386 11.3917C171.022 12.4595 172.577 13.9155 174.111 15.1483L183.928 23.0346C191.904 29.4194 200.022 35.6765 207.77 42.336C209.447 43.7769 211.745 45.3511 213.094 47.0823C213.176 47.1871 213.238 47.2759 213.289 47.3993C214.089 47.9923 214.934 48.7317 215.371 49.6457C217.172 53.4066 217.633 57.6894 218.831 61.6404C219.987 65.4539 221.322 69.1917 222.437 73.0271C222.695 73.9148 223.183 74.9189 223.323 75.8146C223.361 76.0589 223.285 76.3096 223.194 76.5334C225.177 78.122 233.06 109.577 234.679 114.85C234.748 115.695 234.982 116.871 234.403 117.57C234.342 117.644 234.302 117.68 234.237 117.744C235.233 120.356 234.678 163.163 234.682 169.782C234.684 172.223 235.321 185.47 234.75 186.795C234.687 186.939 234.61 187.071 234.524 187.203C232.496 187.695 230.258 187.689 228.178 187.834L215.867 188.612C211.335 188.926 206.719 189.23 202.207 189.724C200.767 189.881 199.338 190.292 197.914 190.426C197.687 189.878 197.546 189.256 197.372 188.686L197.219 187.758C196.601 186.11 197.146 170.667 197.171 167.629L197.175 164.965C196.951 155.323 196.553 145.414 197.16 135.79C197.254 133.586 197.236 131.373 197.255 129.168C196.883 122.809 197.112 116.25 197.252 109.872L199.014 109.5C201.451 109.877 204.123 109.674 206.589 109.679L220.116 109.731C222.334 109.737 224.654 109.6 226.862 109.755C227.04 109.412 227.139 109.07 227.142 108.681C227.148 107.86 226.789 107.305 226.232 106.745C226.286 106.603 226.333 106.461 226.365 106.313C226.66 104.936 225.561 101.629 224.767 100.485L224.79 99.885L224.193 99.2451C224.237 99.0112 224.256 98.7842 224.243 98.5462C224.136 96.5979 221.119 86.0767 219.747 84.8374Q211.257 84.6857 202.772 84.987C199.627 85.0823 196.299 84.9749 193.22 85.6489C193.085 85.6947 192.958 85.7253 192.815 85.7349C190.169 85.9124 183.701 86.3489 181.648 84.5158C180.188 85.51 178.884 86.7978 177.404 87.7353C174.175 90.3224 169.835 89.8457 165.933 89.8485C165.88 89.8572 165.827 89.8675 165.774 89.8745C160.727 90.5316 156.948 88.0412 153.081 85.1887C152.067 84.1056 151.18 82.9721 150.301 81.7783C149.37 80.4834 148.656 78.9383 147.927 77.5177C147.542 76.5334 147.276 75.4962 146.981 74.4818L146.114 70.2167C145.997 69.0835 146.007 67.9096 145.969 66.7693Q145.918 63.876 146.511 61.0438C142.402 59.6853 128.929 60.9639 123.56 60.6501C122.852 63.207 122.21 65.8919 121.07 68.2965L120.58 69.2684Q119.165 73.281 117.854 77.3287L122.699 77.2049L122.498 77.6545L121.819 77.8603Q119.739 77.7872 117.661 77.686C116.946 80.1814 116.373 82.9616 115.252 85.3074L115.193 85.9543C113.668 91.472 112.124 97.0883 109.815 102.339L109.541 102.659C108.628 105.366 102.646 124.341 101.775 124.765C100.411 125.431 98.5715 124.452 97.3414 125.19C96.9504 126.257 96.6687 127.183 95.7803 127.949L94.0305 128.128C93.8851 125.445 93.9804 122.701 93.96 120.01L96.5111 119.942L96.0872 119.496C95.7261 117.846 96.0468 116.212 96.3642 114.582C97.4713 108.662 99.8696 102.827 101.78 97.1235Q106.711 82.0591 111.801 67.0473C113.788 61.15 116.156 55.2554 117.645 49.2094C118.343 48.0671 118.621 46.9983 118.86 45.703C120.114 42.6915 123.886 40.6699 126.454 38.8878C126.104 38.1969 125.785 37.4964 125.472 36.7885L124.621 36.8385L124.383 36.5092C124.659 35.6065 125.697 35.3243 125.9 34.5765C125.98 34.284 125.649 33.8732 125.51 33.5965C125.172 32.9193 124.991 32.3746 125.255 31.6162C126.036 29.3713 125.113 25.6068 125.125 23.1617C125.14 20.2049 125.603 17.2893 125.725 14.3406C125.789 12.8099 125.462 11.361 125.629 9.84767C126.596 9.1829 129.531 9.03744 130.801 8.81479C135.48 7.9943 166.462 3.72638 167.889 2.00271L166.511 1.53476L167.687 1.36059C168.656 1.0426 169.261 0.857271 169.872 0Z"/>
	<path fill="#CD2A01" transform="scale(4.09248 4.09248)" d="M167.753 18.6171C171.27 20.522 174.742 22.9896 177.734 25.639C177.127 26.0528 176.198 26.0861 175.476 26.1257C172.841 26.27 160.266 27.0121 158.499 25.4325C161.306 22.9323 164.342 20.2502 167.753 18.6171Z"/>
	<path fill="#610000" transform="scale(4.09248 4.09248)" d="M168.563 11.1412C168.844 11.1771 169.145 11.2341 169.386 11.3917C171.022 12.4595 172.577 13.9155 174.111 15.1483L183.928 23.0346C191.904 29.4194 200.022 35.6765 207.77 42.336C209.447 43.7769 211.745 45.3511 213.094 47.0823C213.176 47.1871 213.238 47.2759 213.289 47.3993L212.968 47.791C211.63 45.8707 208.055 44.4512 206.152 42.9718C204.139 41.4059 202.103 39.8032 200.209 38.0956C198.769 36.798 197.428 35.3536 195.894 34.1673C193.507 32.3213 190.864 30.7596 188.424 28.9705C185.997 27.1919 183.759 25.1762 181.348 23.3842C176.544 19.814 171.446 16.7903 168.135 11.6445L168.563 11.1412Z"/>
	<path fill="#460200" transform="scale(4.09248 4.09248)" d="M212.968 47.791L213.289 47.3993C214.089 47.9923 214.934 48.7317 215.371 49.6457C217.172 53.4066 217.633 57.6894 218.831 61.6404C219.987 65.4539 221.322 69.1917 222.437 73.0271C222.695 73.9148 223.183 74.9189 223.323 75.8146C223.361 76.0589 223.285 76.3096 223.194 76.5334C225.177 78.122 233.06 109.577 234.679 114.85C234.748 115.695 234.982 116.871 234.403 117.57C234.342 117.644 234.302 117.68 234.237 117.744C234.346 116.43 232.021 111.559 231.504 109.795L224.765 86.1804C224.061 83.6712 223.441 79.398 222.203 77.2175C222.213 77.1524 222.23 77.0705 222.232 77.0021C222.29 74.0423 218.566 63.6047 217.622 60.4812C216.595 57.0852 215.919 53.6222 214.566 50.3272C214.162 49.3423 213.675 48.5887 212.968 47.791Z"/>
	<path fill="#CD2A01" transform="scale(4.09248 4.09248)" d="M156.373 27.5375C156.97 26.746 157.768 26.0981 158.499 25.4325C160.266 27.0121 172.841 26.27 175.476 26.1257C176.198 26.0861 177.127 26.0528 177.734 25.639C178.45 26.0817 179.229 26.4819 179.71 27.1936C182.751 28.9626 185.6 31.3618 188.437 33.4514C185.502 34.6798 151.715 34.7065 148.239 33.8213C150.911 31.641 153.792 29.8743 156.373 27.5375Z"/>
	<path fill="#C10A09" transform="scale(4.09248 4.09248)" d="M156.373 27.5375C156.97 26.746 157.768 26.0981 158.499 25.4325C160.266 27.0121 172.841 26.27 175.476 26.1257C176.198 26.0861 177.127 26.0528 177.734 25.639C178.45 26.0817 179.229 26.4819 179.71 27.1936C179.344 27.4621 178.977 27.627 178.521 27.677C175.065 28.056 171.302 27.807 167.818 27.8155C164.378 27.8238 160.314 28.1653 156.927 27.6399Q156.649 27.5963 156.373 27.5375Z"/>
	<path fill="#FCFBFC" transform="scale(4.09248 4.09248)" d="M126.454 38.8878C129.285 37.0607 131.949 34.952 134.671 32.964C146.448 24.3597 157.505 14.8172 169.383 6.37032C171.18 5.0926 172.716 3.42079 174.57 2.25098L174.756 2.78787C174.938 3.63727 175.036 4.47698 175.719 5.08245C173.356 7.06038 171.03 9.32432 168.563 11.1412L168.135 11.6445C158.723 19.9531 147.226 28.2506 137.213 36.0755C133.274 39.1539 128.948 41.9895 125.416 45.5345C123.877 47.0796 122.704 48.686 122.008 50.7696L106.53 98.1328C104.659 103.949 103.225 109.988 101.156 115.723C100.382 117.868 100.15 120.185 97.5223 120.017Q97.0163 119.985 96.5111 119.942L96.0872 119.496C95.7261 117.846 96.0468 116.212 96.3642 114.582C97.4713 108.662 99.8696 102.827 101.78 97.1235Q106.711 82.0591 111.801 67.0473C113.788 61.15 116.156 55.2554 117.645 49.2094C118.343 48.0671 118.621 46.9983 118.86 45.703C120.114 42.6915 123.886 40.6699 126.454 38.8878Z"/>
	<path fill="#CD2A01" transform="scale(4.09248 4.09248)" d="M231.637 164.016C231.906 164.797 231.913 165.214 231.688 166.008C232.195 167.219 232.027 183.14 231.515 184.357C231.443 184.528 231.353 184.682 231.248 184.833C228.167 184.65 198.221 186.64 197.336 187.286L197.219 187.758C196.601 186.11 197.146 170.667 197.171 167.629L197.175 164.965C198.652 164.944 200.039 165.537 201.537 165.515C207.715 165.421 213.888 164.443 220.07 164.266C221.987 164.211 230.616 164.628 231.637 164.016Z"/>
	<path fill="#C10A09" transform="scale(4.09248 4.09248)" d="M231.637 164.016C231.906 164.797 231.913 165.214 231.688 166.008L231.487 165.598C228.523 165.205 223.902 166.224 220.724 166.366C214.784 166.632 208.813 166.364 202.877 166.766C201.015 166.892 198.982 167.694 197.171 167.629L197.175 164.965C198.652 164.944 200.039 165.537 201.537 165.515C207.715 165.421 213.888 164.443 220.07 164.266C221.987 164.211 230.616 164.628 231.637 164.016Z"/>
	<path fill="#787878" transform="scale(4.09248 4.09248)" d="M169.872 0L175.447 0L175.882 0C175.5 0.90463 175.018 1.84419 174.756 2.78787L174.57 2.25098C172.716 3.42079 171.18 5.0926 169.383 6.37032C157.505 14.8172 146.448 24.3597 134.671 32.964C131.949 34.952 129.285 37.0607 126.454 38.8878C126.104 38.1969 125.785 37.4964 125.472 36.7885L124.621 36.8385L124.383 36.5092C124.659 35.6065 125.697 35.3243 125.9 34.5765C125.98 34.284 125.649 33.8732 125.51 33.5965C125.172 32.9193 124.991 32.3746 125.255 31.6162C126.036 29.3713 125.113 25.6068 125.125 23.1617C125.14 20.2049 125.603 17.2893 125.725 14.3406C125.789 12.8099 125.462 11.361 125.629 9.84767C126.596 9.1829 129.531 9.03744 130.801 8.81479C135.48 7.9943 166.462 3.72638 167.889 2.00271L166.511 1.53476L167.687 1.36059C168.656 1.0426 169.261 0.857271 169.872 0Z"/>
	<path fill="#FCFBFC" transform="scale(4.09248 4.09248)" d="M169.872 0L175.447 0C174.81 0.874405 173.976 1.00445 172.96 1.16425C171.451 1.40156 169.184 1.65028 167.687 1.36059C168.656 1.0426 169.261 0.857271 169.872 0Z"/>
	<path fill="#CD2A01" transform="scale(4.09248 4.09248)" d="M197.252 109.872L199.014 109.5C201.451 109.877 204.123 109.674 206.589 109.679L220.116 109.731C222.334 109.737 224.654 109.6 226.862 109.755C228.024 110.54 228.478 112.628 228.728 113.942C228.861 114.646 228.989 115.308 228.661 115.976C228.914 116.269 229.354 116.601 229.322 116.994C229.296 117.314 229.181 117.478 228.984 117.721C230.194 118.321 230.911 119.486 231.341 120.77C231.622 121.613 231.835 122.37 231.476 123.215C231.971 123.904 232.221 124.474 232.076 125.361C231.999 125.825 231.814 126.157 231.542 126.536C232.483 127.955 232.14 132.189 231.779 133.887C231.73 134.118 231.634 134.335 231.523 134.542C231.764 134.877 231.913 135.191 231.951 135.609C232.35 139.971 231.918 144.622 231.875 149.006C231.858 150.713 232.163 152.569 231.885 154.249C231.84 154.519 231.752 154.768 231.624 155.01C232.048 156.088 232.226 157.509 231.701 158.593C231.68 158.638 231.655 158.682 231.632 158.726C232.152 159.863 232.241 162.411 231.818 163.607C231.768 163.751 231.709 163.882 231.637 164.016C230.616 164.628 221.987 164.211 220.07 164.266C213.888 164.443 207.715 165.421 201.537 165.515C200.039 165.537 198.652 164.944 197.175 164.965C196.951 155.323 196.553 145.414 197.16 135.79C197.254 133.586 197.236 131.373 197.255 129.168C196.883 122.809 197.112 116.25 197.252 109.872Z"/>
	<path fill="#C10A09" transform="scale(4.09248 4.09248)" d="M231.624 155.01C232.048 156.088 232.226 157.509 231.701 158.593C231.68 158.638 231.655 158.682 231.632 158.726L231.556 158.203C231.124 158.008 230.757 157.982 230.291 157.985C227.987 158.001 225.711 158.396 223.411 158.456C216.996 158.623 210.582 158.523 204.171 158.92C202.304 159.036 200.155 159.634 198.359 159.614C197.795 159.607 197.621 159.424 197.23 159.055C197.171 158.43 197.253 158.27 197.516 157.725C197.684 157.618 197.97 157.383 198.15 157.324C198.641 157.164 202.627 157.591 203.625 157.562C209.461 157.393 215.236 156.679 221.059 156.373C224.084 156.214 227.122 156.502 230.141 156.303C230.788 156.261 231.31 156.259 231.748 155.761L231.624 155.01Z"/>
	<path fill="#CD2A01" transform="scale(4.09248 4.09248)" d="M197.252 109.872L199.014 109.5C201.451 109.877 204.123 109.674 206.589 109.679L220.116 109.731C222.334 109.737 224.654 109.6 226.862 109.755C228.024 110.54 228.478 112.628 228.728 113.942C228.861 114.646 228.989 115.308 228.661 115.976C228.914 116.269 229.354 116.601 229.322 116.994C229.296 117.314 229.181 117.478 228.984 117.721C230.194 118.321 230.911 119.486 231.341 120.77C231.622 121.613 231.835 122.37 231.476 123.215C231.971 123.904 232.221 124.474 232.076 125.361C231.999 125.825 231.814 126.157 231.542 126.536C232.483 127.955 232.14 132.189 231.779 133.887C231.73 134.118 231.634 134.335 231.523 134.542C223.541 134.77 215.545 134.425 207.563 134.663C204.97 134.74 202.202 134.685 199.638 135.091C198.774 135.227 198.003 135.618 197.16 135.79C197.254 133.586 197.236 131.373 197.255 129.168C196.883 122.809 197.112 116.25 197.252 109.872Z"/>
	<path fill="#C10A09" transform="scale(4.09248 4.09248)" d="M231.476 123.215C231.971 123.904 232.221 124.474 232.076 125.361C231.999 125.825 231.814 126.157 231.542 126.536C229.859 126.064 226.874 126.466 225.1 126.508C221.233 126.6 201.339 127.461 199.103 126.608C198.894 126.528 198.827 126.184 198.741 125.98C200.31 125.18 205.575 125.674 207.63 125.628C215.582 125.451 223.534 124.632 231.485 124.338L231.738 124.022L231.476 123.215Z"/>
	<path fill="#C10A09" transform="scale(4.09248 4.09248)" d="M228.661 115.976C228.914 116.269 229.354 116.601 229.322 116.994C229.296 117.314 229.181 117.478 228.984 117.721C222.726 117.821 216.495 118.365 210.245 118.641C206.507 118.806 202.751 118.753 199.009 118.801C198.727 117.846 198.641 116.931 199.062 116.012C201.6 116.465 227.537 116.664 228.661 115.976Z"/>
	<defs>
		<linearGradient id="gradient_0" gradientUnits="userSpaceOnUse" x1="214.58475" y1="134.68195" x2="213.35733" y2="112.40389">
			<stop offset="0" stop-color="#C91E02"/>
			<stop offset="1" stop-color="#D74A06"/>
		</linearGradient>
	</defs>
	<path fill="url(#gradient_0)" transform="scale(4.09248 4.09248)" d="M197.255 129.168C197.268 129.131 197.283 129.094 197.296 129.057C199.062 124.071 197.513 118.6 198.141 113.456C198.33 115.375 198.577 117.468 198.211 119.372L198.192 119.465C198.187 121.286 197.804 124.364 198.741 125.98C198.827 126.184 198.894 126.528 199.103 126.608C201.339 127.461 221.233 126.6 225.1 126.508C226.874 126.466 229.859 126.064 231.542 126.536C232.483 127.955 232.14 132.189 231.779 133.887C231.73 134.118 231.634 134.335 231.523 134.542C223.541 134.77 215.545 134.425 207.563 134.663C204.97 134.74 202.202 134.685 199.638 135.091C198.774 135.227 198.003 135.618 197.16 135.79C197.254 133.586 197.236 131.373 197.255 129.168Z"/>
	<path fill="#CD2A01" transform="scale(4.09248 4.09248)" d="M188.437 33.4514C189.273 34.0435 190.183 34.6026 190.631 35.5639C192.862 36.782 208.771 48.4154 209.929 50.3106L209.987 50.7789C210.377 51.1078 210.763 51.2689 210.796 51.8104C210.812 52.066 210.704 52.2825 210.599 52.5084C211.748 53.2282 212.327 55.2664 212.619 56.5412C212.802 57.3411 213.068 58.4219 212.688 59.1794Q204.152 59.5351 195.608 59.4909C193.974 59.4821 191.234 58.8286 189.768 59.4237C189.527 59.8987 189.549 59.8941 189.703 60.4085C191.54 61.6377 209.148 59.6024 213.222 60.8606C214.122 62.0017 215.211 65.5637 215.02 67.0227C215.011 67.0857 214.999 67.1481 214.989 67.2109L215.61 67.8525C215.547 68.146 215.497 68.4534 215.403 68.7381C216.924 70.2352 219.779 80.9629 219.844 83.2915C219.853 83.6209 219.799 83.951 219.71 84.2669C214.532 84.1558 209.352 84.3144 204.176 84.4449C201.311 84.517 198.36 84.4224 195.514 84.7518C194.665 84.9212 193.836 85.0374 192.973 85.1061L192.86 85.3264L193.22 85.6489C193.085 85.6947 192.958 85.7253 192.815 85.7349C190.169 85.9124 183.701 86.3489 181.648 84.5158C180.188 85.51 178.884 86.7978 177.404 87.7353C174.175 90.3224 169.835 89.8457 165.933 89.8485C165.88 89.8572 165.827 89.8675 165.774 89.8745C160.727 90.5316 156.948 88.0412 153.081 85.1887C152.067 84.1056 151.18 82.9721 150.301 81.7783C149.37 80.4834 148.656 78.9383 147.927 77.5177C147.542 76.5334 147.276 75.4962 146.981 74.4818L146.114 70.2167C145.997 69.0835 146.007 67.9096 145.969 66.7693Q145.918 63.876 146.511 61.0438C142.402 59.6853 128.929 60.9639 123.56 60.6501L123.903 59.5113C124.858 56.9725 125.5 54.2921 126.698 51.852C126.839 51.5092 127.006 51.2417 127.222 50.941C129.765 47.9381 134.447 45.2273 137.617 42.7442C140.711 40.3213 143.597 37.6501 146.681 35.2111C147.162 34.6137 147.57 34.2025 148.239 33.8213C151.715 34.7065 185.502 34.6798 188.437 33.4514Z"/>
	<path fill="#C10A09" transform="scale(4.09248 4.09248)" d="M181.648 84.5158L181.793 84.2518C186.373 84.4391 190.926 84.7599 195.514 84.7518C194.665 84.9212 193.836 85.0374 192.973 85.1061L192.86 85.3264L193.22 85.6489C193.085 85.6947 192.958 85.7253 192.815 85.7349C190.169 85.9124 183.701 86.3489 181.648 84.5158Z"/>
	<path fill="#C10A09" transform="scale(4.09248 4.09248)" d="M126.698 51.852C126.839 51.5092 127.006 51.2417 127.222 50.941C130.14 51.6985 147.691 51.2797 151.898 51.1908L149.689 53.9864C146.755 50.207 131.509 54.4954 126.698 51.852Z"/>
	<path fill="#C10A09" transform="scale(4.09248 4.09248)" d="M209.987 50.7789C210.377 51.1078 210.763 51.2689 210.796 51.8104C210.812 52.066 210.704 52.2825 210.599 52.5084C203.596 52.8335 196.332 52.9899 189.324 52.8829C188.211 52.8659 186.019 52.7765 185.217 51.9409C188.41 50.6527 204.674 51.4852 209.817 51.1687L209.987 50.7789Z"/>
	<path fill="#C10A09" transform="scale(4.09248 4.09248)" d="M214.989 67.2109L215.61 67.8525C215.547 68.146 215.497 68.4534 215.403 68.7381C211.415 68.6757 193.324 69.4593 190.955 68.5684C190.34 68.3371 190.098 68.189 189.841 67.5894C190.581 67.1643 207.952 67.299 210.511 67.2736C211.723 67.2616 213.823 67.6086 214.91 67.2409C214.937 67.2318 214.963 67.2209 214.989 67.2109Z"/>
	<path fill="#C10A09" transform="scale(4.09248 4.09248)" d="M188.437 33.4514C189.273 34.0435 190.183 34.6026 190.631 35.5639C186.678 36.3853 181.127 35.6523 176.985 35.6602L155.992 35.6269C153.522 35.6011 150.998 35.8051 148.54 35.6509C147.901 35.6108 147.283 35.4219 146.681 35.2111C147.162 34.6137 147.57 34.2025 148.239 33.8213C151.715 34.7065 185.502 34.6798 188.437 33.4514Z"/>
	<path fill="#CD2A01" transform="scale(4.09248 4.09248)" d="M126.698 51.852C131.509 54.4954 146.755 50.207 149.689 53.9864C148.933 55.2214 146.918 58.2821 147.026 59.7509L146.511 61.0438C142.402 59.6853 128.929 60.9639 123.56 60.6501L123.903 59.5113C124.858 56.9725 125.5 54.2921 126.698 51.852Z"/>
	<path fill="#C10A09" transform="scale(4.09248 4.09248)" d="M123.903 59.5113C126.181 59.0946 145.853 58.8736 146.722 59.4677C146.843 59.5505 146.927 59.6435 147.026 59.7509L146.511 61.0438C142.402 59.6853 128.929 60.9639 123.56 60.6501L123.903 59.5113Z"/>
	<path fill="#FCFBFC" transform="scale(4.09248 4.09248)" d="M163.083 44.7741C168.644 43.6777 174.065 44.0782 178.861 47.3185C184.184 50.9147 187.582 56.8213 188.763 63.0559C189.925 69.1926 187.376 76.5859 183.908 81.6365C183.286 82.5422 182.568 83.472 181.793 84.2518L181.648 84.5158C180.188 85.51 178.884 86.7978 177.404 87.7353C174.175 90.3224 169.835 89.8457 165.933 89.8485C165.88 89.8572 165.827 89.8675 165.774 89.8745C160.727 90.5316 156.948 88.0412 153.081 85.1887C152.067 84.1056 151.18 82.9721 150.301 81.7783C149.37 80.4834 148.656 78.9383 147.927 77.5177C147.542 76.5334 147.276 75.4962 146.981 74.4818L146.114 70.2167C145.997 69.0835 146.007 67.9096 145.969 66.7693Q145.918 63.876 146.511 61.0438L147.026 59.7509C146.918 58.2821 148.933 55.2214 149.689 53.9864L151.898 51.1908C153.131 49.398 157.383 46.2146 159.245 45.197C160.667 44.4197 161.528 44.3194 163.083 44.7741Z"/>
	<path fill="#CFCBCE" transform="scale(4.09248 4.09248)" d="M165.087 88.3236C166.703 88.02 175.111 87.229 176.371 87.3223C176.737 87.3494 177.095 87.5506 177.404 87.7353C174.175 90.3224 169.835 89.8457 165.933 89.8485L165.087 88.3236Z"/>
	<path fill="#4A3A2E" transform="scale(4.09248 4.09248)" d="M168.977 49.591L168.738 48.8474L169.006 48.4437C171.28 48.0164 174.559 49.8619 176.393 51.1089Q177.164 51.6294 177.881 52.221Q178.599 52.8126 179.256 53.47Q179.914 54.1274 180.506 54.8445Q181.098 55.5617 181.619 56.332Q182.14 57.1024 182.585 57.9189Q183.03 58.7355 183.395 59.5908Q183.76 60.446 184.041 61.3322Q184.323 62.2185 184.519 63.1275C184.645 63.7416 184.647 64.2777 184.501 64.8863L184.093 65.178L183.534 65.0838C182.618 61.3261 180.16 58.1119 178.253 54.8045C176.908 54.1646 175.736 53.169 174.469 52.3847C172.7 51.2893 170.872 50.4457 168.977 49.591Z"/>
	<path fill="#6D5445" transform="scale(4.09248 4.09248)" d="M168.977 49.591C170.872 50.4457 172.7 51.2893 174.469 52.3847C175.736 53.169 176.908 54.1646 178.253 54.8045C180.16 58.1119 182.618 61.3261 183.534 65.0838C179.989 64.5034 173.012 64.9046 169.246 65.3454C169.281 61.663 169.903 52.7782 168.977 49.591Z"/>
	<path fill="#A7A6A7" transform="scale(4.09248 4.09248)" d="M151.898 51.1908C153.131 49.398 157.383 46.2146 159.245 45.197C160.667 44.4197 161.528 44.3194 163.083 44.7741C157.699 47.1126 153.189 52.6148 151.066 57.9592C148.485 64.4535 148.795 70.8081 151.569 77.1807C153.745 82.1808 157.259 85.5827 162.34 87.5766C163.236 87.9285 164.142 88.1474 165.087 88.3236L165.933 89.8485C165.88 89.8572 165.827 89.8675 165.774 89.8745C160.727 90.5316 156.948 88.0412 153.081 85.1887C152.067 84.1056 151.18 82.9721 150.301 81.7783C149.37 80.4834 148.656 78.9383 147.927 77.5177C147.542 76.5334 147.276 75.4962 146.981 74.4818L146.114 70.2167C145.997 69.0835 146.007 67.9096 145.969 66.7693Q145.918 63.876 146.511 61.0438L147.026 59.7509C146.918 58.2821 148.933 55.2214 149.689 53.9864L151.898 51.1908Z"/>
	<path fill="#6D5445" transform="scale(4.09248 4.09248)" d="M165.692 48.4543C165.989 48.418 166.316 48.4392 166.617 48.4371C167.275 49.4935 167.006 62.8012 166.934 65.015C163.78 65.5963 158.542 64.9073 154.812 65.2635C153.963 65.2829 153.193 65.2735 152.36 65.096C152.216 64.8961 152.073 64.6852 151.983 64.4536C151.49 63.1819 152.33 61.3592 152.831 60.1864C155.5 53.9451 159.609 50.9077 165.692 48.4543Z"/>
	<path fill="#6D5445" transform="scale(4.09248 4.09248)" d="M151.972 68.0355C156.893 67.9993 161.953 67.7612 166.848 68.2295C166.791 74.2025 167.014 80.195 166.968 86.1781C163.877 85.2685 160.421 83.5957 158.002 81.4686C153.832 77.8023 152.323 73.4251 151.972 68.0355Z"/>
	<path fill="#6D5445" transform="scale(4.09248 4.09248)" d="M169.234 68.0139Q177.047 67.9871 184.859 68.0579C183.755 72.9817 182.312 76.7141 179.219 80.7729C176.592 83.5381 172.787 85.1643 169.107 85.9169C169.775 80.1429 169.267 73.8317 169.234 68.0139Z"/>
	<defs>
		<linearGradient id="gradient_1" gradientUnits="userSpaceOnUse" x1="127.36044" y1="6.4928298" x2="127.67464" y2="9.6046019">
			<stop offset="0" stop-color="#707171"/>
			<stop offset="1" stop-color="#7A6B72"/>
		</linearGradient>
	</defs>
	<path fill="url(#gradient_1)" transform="scale(4.09248 4.09248)" d="M87.5761 12.8429C90.1341 12.205 93.0182 12.0145 95.6357 11.6112C101.927 10.6417 108.187 9.7104 114.503 8.91342Q131.89 6.63665 149.246 4.13777C154.592 3.39201 161.526 3.26189 166.511 1.53476L167.889 2.00271C166.462 3.72638 135.48 7.9943 130.801 8.81479C129.531 9.03744 126.596 9.1829 125.629 9.84767C119.959 10.4574 114.238 10.9144 108.59 11.673C102.471 12.4949 94.7154 14.1074 88.6421 13.8532C88.281 13.5217 87.9223 13.1902 87.5761 12.8429Z"/>
	<defs>
		<linearGradient id="gradient_2" gradientUnits="userSpaceOnUse" x1="25.590452" y1="27.39393" x2="126.05462" y2="32.464333">
			<stop offset="0" stop-color="#3E3A39"/>
			<stop offset="1" stop-color="#6E6E6E"/>
		</linearGradient>
	</defs>
	<path fill="url(#gradient_2)" transform="scale(4.09248 4.09248)" d="M87.5761 12.8429C87.9223 13.1902 88.281 13.5217 88.6421 13.8532C94.7154 14.1074 102.471 12.4949 108.59 11.673C114.238 10.9144 119.959 10.4574 125.629 9.84767C125.462 11.361 125.789 12.8099 125.725 14.3406C125.603 17.2893 125.14 20.2049 125.125 23.1617C125.113 25.6068 126.036 29.3713 125.255 31.6162C124.991 32.3746 125.172 32.9193 125.51 33.5965C125.649 33.8732 125.98 34.284 125.9 34.5765C125.697 35.3243 124.659 35.6065 124.383 36.5092L124.621 36.8385L125.472 36.7885C125.785 37.4964 126.104 38.1969 126.454 38.8878C123.886 40.6699 120.114 42.6915 118.86 45.703C118.621 46.9983 118.343 48.0671 117.645 49.2094C114.429 49.7865 111.079 49.6952 107.818 49.7774C101.493 49.9369 95.1657 49.9242 88.8444 50.1041L22.0739 52.0333C22.1901 51.0513 22.4977 50.4335 23.0135 49.6015C25.6787 47.4768 28.7534 45.809 31.5359 43.8295C41.9573 36.4156 52.7027 29.1551 62.2848 20.6496C64.2291 18.9238 66.3072 16.9356 68.7072 15.8678C73.2896 13.8291 82.2941 13.696 87.5761 12.8429Z"/>
	<path fill="#0A0807" transform="scale(4.09248 4.09248)" d="M23.0135 49.6015C23.037 49.612 23.0602 49.6231 23.0839 49.633C23.1235 49.6495 23.164 49.6635 23.2032 49.6806C24.8761 50.4101 27.2229 50.199 29.0474 50.1734C38.7988 50.0367 48.5401 48.9879 58.282 48.6161C73.4356 48.0379 88.6118 48.0233 103.759 47.1702C106.155 47.0352 117.869 45.4312 118.86 45.703C118.621 46.9983 118.343 48.0671 117.645 49.2094C114.429 49.7865 111.079 49.6952 107.818 49.7774C101.493 49.9369 95.1657 49.9242 88.8444 50.1041L22.0739 52.0333C22.1901 51.0513 22.4977 50.4335 23.0135 49.6015Z"/>
	<defs>
		<linearGradient id="gradient_3" gradientUnits="userSpaceOnUse" x1="1.4393793" y1="84.044449" x2="117.40789" y2="81.632538">
			<stop offset="0" stop-color="#494949"/>
			<stop offset="1" stop-color="#636363"/>
		</linearGradient>
	</defs>
	<path fill="url(#gradient_3)" transform="scale(4.09248 4.09248)" d="M22.0739 52.0333L88.8444 50.1041C95.1657 49.9242 101.493 49.9369 107.818 49.7774C111.079 49.6952 114.429 49.7865 117.645 49.2094C116.156 55.2554 113.788 61.15 111.801 67.0473Q106.711 82.059 101.78 97.1235C99.8696 102.827 97.4713 108.662 96.3642 114.582C96.0468 116.212 95.7261 117.846 96.0872 119.496L96.5111 119.942L93.96 120.01L90.111 119.995C84.7303 119.748 79.3668 119.264 73.9905 119.01C63.8801 118.533 53.742 118.276 43.6408 117.617C31.1447 116.802 18.6382 115.593 6.11006 115.445C4.05346 115.578 2.05427 115.523 0 115.423L0 113.362L1.27308 112.021C1.90986 108.94 3.36671 105.956 4.43457 102.995C6.13335 98.2841 7.71104 93.5175 9.38852 88.796C13.7309 76.5739 17.5868 64.2096 22.0739 52.0333Z"/>
	<path fill="#454545" transform="scale(4.09248 4.09248)" d="M75.3204 62.9472C76.7658 64.5408 75.7194 87.6972 75.6628 91.2224L75.4569 91.0937L75.6778 90.9934L75.2983 90.7775C75.6366 88.929 75.2666 85.1411 75.2632 83.0351L75.3204 62.9472Z"/>
	<path fill="#A7A6A7" transform="scale(4.09248 4.09248)" d="M1.27308 112.021Q37.1115 111.971 72.9138 113.576C80.7695 113.945 88.5129 113.8 96.3642 114.582C96.0468 116.212 95.7261 117.846 96.0872 119.496L96.5111 119.942L93.96 120.01L90.111 119.995C84.7303 119.748 79.3668 119.264 73.9905 119.01C63.8801 118.533 53.742 118.276 43.6408 117.617C31.1447 116.802 18.6382 115.593 6.11006 115.445C4.05346 115.578 2.05427 115.523 0 115.423L0 113.362L1.27308 112.021Z"/>
	<path fill="#CFCBCE" transform="scale(4.09248 4.09248)" d="M193.491 187.701C194.665 188.54 195.981 188.596 197.372 188.686C197.546 189.256 197.687 189.878 197.914 190.426C191.526 192.221 179.79 192.282 172.754 192.893L148.546 194.988C144.572 195.295 140.489 195.787 136.504 195.711C136.509 194.012 136.55 192.343 136.707 190.651L136.896 192.951C137.535 193.394 138.617 193.181 139.355 193.045C140.107 192.907 140.815 192.769 141.468 192.348C141.602 192.125 141.721 191.978 141.742 191.712C141.91 191.819 142.087 191.908 142.285 191.943C144.578 192.342 165.022 190.572 166.292 189.756L166.423 189.05C166.511 189.252 166.619 189.677 166.821 189.759C167.497 190.034 168.624 189.711 169.27 189.414C171.435 189.577 173.835 189.088 176.019 188.898Q181.095 188.463 186.186 188.269C188.168 188.182 191.726 188.503 193.491 187.701Z"/>
	<path fill="#A7A6A7" transform="scale(4.09248 4.09248)" d="M175.719 5.08245C182.213 9.75967 188.113 14.8984 194.241 20.0278C199.529 24.4542 204.983 28.7306 210.337 33.0829C214.205 36.2283 223.066 42.1914 225.713 45.7236C227.105 47.5813 227.92 51.0543 228.62 53.2956C230.015 57.7674 231.052 62.352 232.288 66.87Q235.727 79.0285 239.293 91.151C241.475 98.3697 245.025 105.639 246.25 113.095C246.345 113.669 246.365 114.174 246.192 114.733C242.361 114.602 238.496 115.028 234.679 114.85C233.06 109.577 225.177 78.122 223.194 76.5334C223.285 76.3096 223.361 76.0589 223.323 75.8146C223.183 74.9189 222.695 73.9148 222.437 73.0271C221.322 69.1917 219.987 65.4539 218.831 61.6404C217.633 57.6894 217.172 53.4066 215.371 49.6457C214.934 48.7317 214.089 47.9923 213.289 47.3993C213.238 47.2759 213.176 47.1871 213.094 47.0823C211.745 45.3511 209.447 43.7769 207.77 42.336C200.022 35.6765 191.904 29.4194 183.928 23.0346L174.111 15.1483C172.577 13.9155 171.022 12.4595 169.386 11.3917C169.145 11.2341 168.844 11.1771 168.563 11.1412C171.03 9.32432 173.356 7.06038 175.719 5.08245Z"/>
	<path fill="#9E0000" transform="scale(4.09248 4.09248)" d="M6.11006 115.445C18.6382 115.593 31.1447 116.802 43.6408 117.617C53.742 118.276 63.8801 118.533 73.9905 119.01C79.3668 119.264 84.7303 119.748 90.111 119.995L93.96 120.01C93.9804 122.701 93.8851 125.445 94.0305 128.128L93.9814 129.199C94.063 132.34 94.1412 135.528 93.9247 138.664C93.7346 141.417 93.2979 144.142 93.2172 146.904C93.0021 154.269 93.1781 161.684 93.2159 169.055C93.2522 176.124 93.4596 182.696 93.8548 189.748C93.9918 192.192 93.959 194.665 94.2442 197.097L93.2188 198.487C92.0262 198.269 90.853 197.939 89.6792 197.637C85.5333 196.186 81.0994 195.189 76.847 194.097L57.6023 189.155C40.8508 184.861 24.1679 180.253 7.31928 176.368Q5.99497 149.67 6.03367 122.94C6.02365 120.44 6.01024 117.944 6.11006 115.445Z"/>
	<path fill="#610000" transform="scale(4.09248 4.09248)" d="M86.2977 137.878L86.7879 138.185C87.8453 140.984 87.3684 168.037 87.003 172.899L86.6402 172.902C86.075 172.153 86.3869 141.098 86.2977 137.878Z"/>
	<path fill="#FCFBFC" transform="scale(4.09248 4.09248)" d="M12.7229 125.972C18.5168 125.914 25.1708 127.282 30.9774 128.015C30.8389 140.559 31.4124 153.059 30.9628 165.602C24.9751 164.743 19.0379 163.063 13.0431 162.054C12.6952 155.77 13.0241 149.649 13.0384 143.378C13.0517 137.582 12.7503 131.775 12.7229 125.972Z"/>
	<path fill="#4A3A2E" transform="scale(4.09248 4.09248)" d="M15.1739 127.716C19.5448 129.113 24.4427 129.379 28.9896 129.926Q29.0699 139.322 28.9918 148.719C28.961 151.794 28.7653 154.889 28.8144 157.96C23.9833 154.87 20.0921 135.542 15.3415 132.165C15.2335 130.682 15.2002 129.202 15.1739 127.716Z"/>
	<path fill="#6D5445" transform="scale(4.09248 4.09248)" d="M15.3415 132.165C20.0921 135.542 23.9833 154.87 28.8144 157.96C29.0492 159.604 28.9794 161.293 28.9725 162.95C24.4459 162.053 20.1929 160.926 15.5807 160.415C14.624 154.921 14.4159 137.594 15.3415 132.165Z"/>
	<path fill="#FCFBFC" transform="scale(4.09248 4.09248)" d="M57.9441 129.945C60.3576 130.462 62.9588 130.594 65.4146 130.94C69.9199 131.575 74.4592 132.372 78.9866 132.799L78.9826 172.816C76.8018 172.089 74.3472 171.744 72.0938 171.27C67.5315 170.311 62.9199 169.307 58.307 168.626C58.1674 162.725 58.3062 156.83 58.2664 150.93L57.9441 129.945Z"/>
	<path fill="#6D5445" transform="scale(4.09248 4.09248)" d="M60.4625 133.936C60.5148 135.134 60.377 136.67 60.8133 137.777C62.0228 140.845 64.2129 143.5 65.6659 146.452C67.4281 150.031 74.1713 166.879 75.8874 168.404C76.2258 168.705 76.6322 168.939 77.0309 169.148C76.9867 169.646 76.9704 169.76 76.6897 170.168C74.9368 169.957 73.205 169.416 71.4639 169.102C67.6654 168.419 63.9355 167.915 60.2005 166.897L60.1919 147.728C60.1938 143.144 60.1017 138.508 60.4625 133.936Z"/>
	<path fill="#4A3A2E" transform="scale(4.09248 4.09248)" d="M60.4625 133.936L60.4964 133.255C61.5999 132.344 63.7358 132.639 65.0994 132.772C69.1061 133.16 73.0706 134.045 76.9877 134.945L77.0309 169.148C76.6322 168.939 76.2258 168.705 75.8874 168.404C74.1713 166.879 67.4281 150.031 65.6659 146.452C64.2129 143.5 62.0228 140.845 60.8133 137.777C60.377 136.67 60.5148 135.134 60.4625 133.936Z"/>
	<path fill="#610000" transform="scale(4.09248 4.09248)" d="M6.11006 115.445C18.6382 115.593 31.1447 116.802 43.6408 117.617C53.742 118.276 63.8801 118.533 73.9905 119.01C79.3668 119.264 84.7303 119.748 90.111 119.995L93.96 120.01C93.9804 122.701 93.8851 125.445 94.0305 128.128L93.9814 129.199C94.063 132.34 94.1412 135.528 93.9247 138.664C93.7346 141.417 93.2979 144.142 93.2172 146.904C93.0021 154.269 93.1781 161.684 93.2159 169.055C93.2522 176.124 93.4596 182.696 93.8548 189.748C93.9918 192.192 93.959 194.665 94.2442 197.097L93.2188 198.487C92.0262 198.269 90.853 197.939 89.6792 197.637C88.2609 191.464 89.0265 183.675 88.971 177.331Q88.6511 153.148 89.018 128.966C81.2305 128.265 73.3855 128.036 65.5877 127.389Q45.3668 125.538 25.17 123.44C23.0791 123.232 7.00596 121.374 6.40856 121.633L6.03367 122.94C6.02365 120.44 6.01024 117.944 6.11006 115.445Z"/>
	<path fill="#460200" transform="scale(4.09248 4.09248)" d="M90.111 119.995L93.96 120.01C93.9804 122.701 93.8851 125.445 94.0305 128.128L93.9814 129.199C92.3768 128.841 90.6199 128.95 88.9797 128.941C89.0406 126.102 88.6877 122.51 90.111 119.995Z"/>
</svg>
